<svg width="159" height="195" viewBox="0 0 159 195" version="1.1" xmlns="http://www.w3.org/2000/svg" xmlns:xlink="http://www.w3.org/1999/xlink">
<title>entertainment-good</title>
<desc>Created using Figma</desc>
<g id="Canvas" transform="translate(267 -367)">
<g id="entertainment-good">
<g id="marker">
<use xlink:href="#path0_fill" transform="translate(-265 369)" fill="#0CCE6B"/>
<use xlink:href="#path1_stroke" transform="translate(-265 369)" fill="#FFFFFF"/>
</g>
<g id="icon">
<use xlink:href="#path2_stroke" transform="translate(-228 411)" fill="#FFFFFF"/>
</g>
</g>
</g>
<defs>
<path id="path0_fill" d="M 154.184 84.6949C 154.505 82.1186 154.505 79.8644 154.505 77.2881C 154.505 56.79 146.366 37.1315 131.879 22.6372C 117.391 8.14283 97.7414 8.58071e-15 77.2527 -4.29035e-15C 56.764 1.00108e-14 37.1145 8.14283 22.6268 22.6372C 8.13911 37.1315 3.43071e-14 56.79 1.14357e-14 77.2881C 2.28714e-14 79.8644 1.2231e-06 82.4407 0.321888 84.6949L 0.321888 85.661C 6.75962 146.847 77.2527 190 77.2527 190C 77.2527 190 147.746 146.203 153.862 85.9831L 154.184 84.6949Z"/>
<path id="path1_stroke" d="M 154.184 84.6949L 156.124 85.1798L 156.153 85.0627L 156.168 84.9429L 154.184 84.6949ZM 77.2527 -4.29035e-15L 77.2527 -2L 77.2527 -4.29035e-15ZM 1.14357e-14 77.2881L -2 77.2881L 1.14357e-14 77.2881ZM 0.321888 84.6949L 2.32189 84.6949L 2.32189 84.5528L 2.3018 84.4122L 0.321888 84.6949ZM 0.321888 85.661L -1.67811 85.661L -1.67811 85.7659L -1.66713 85.8703L 0.321888 85.661ZM 77.2527 190L 76.2086 191.706L 77.2605 192.35L 78.3082 191.699L 77.2527 190ZM 153.862 85.9831L 151.921 85.4982L 151.886 85.6378L 151.872 85.781L 153.862 85.9831ZM 156.168 84.9429C 156.502 82.2429 156.505 79.8644 156.505 77.2881L 152.505 77.2881C 152.505 79.8644 152.509 81.9944 152.199 84.447L 156.168 84.9429ZM 156.505 77.2881C 156.505 56.2599 148.156 36.0928 133.293 21.2233L 130.464 24.0511C 144.577 38.1703 152.505 57.3202 152.505 77.2881L 156.505 77.2881ZM 133.293 21.2233C 118.431 6.35377 98.2722 -2 77.2527 -2L 77.2527 2C 97.2107 2 116.351 9.9319 130.464 24.0511L 133.293 21.2233ZM 77.2527 -2C 56.2333 -2 36.075 6.35377 21.2123 21.2233L 24.0413 24.0511C 38.154 9.9319 57.2948 2 77.2527 2L 77.2527 -2ZM 21.2123 21.2233C 6.3496 36.0928 -2 56.2599 -2 77.2881L 2 77.2881C 2 57.3202 9.92862 38.1703 24.0413 24.0511L 21.2123 21.2233ZM -2 77.2881C -2 79.8644 -1.99497 82.5824 -1.65803 84.9776L 2.3018 84.4122C 1.99497 82.299 2 79.8644 2 77.2881L -2 77.2881ZM -1.67811 84.6949L -1.67811 85.661L 2.32189 85.661L 2.32189 84.6949L -1.67811 84.6949ZM -1.66713 85.8703C 1.62309 117.142 21.2403 143.634 39.7869 162.189C 49.0766 171.479 58.2006 178.879 64.9423 183.905C 68.325 186.426 71.1451 188.38 73.0982 189.688C 74.0804 190.346 74.8587 190.851 75.3824 191.186C 75.647 191.355 75.8537 191.485 75.9901 191.57C 76.0596 191.614 76.1142 191.648 76.1495 191.669C 76.1678 191.681 76.1825 191.69 76.1918 191.695C 76.1967 191.698 76.2009 191.701 76.2034 191.703C 76.2048 191.703 76.2061 191.704 76.2068 191.705C 76.2078 191.705 76.2086 191.706 77.2527 190C 78.2969 188.294 78.2972 188.294 78.2971 188.294C 78.2967 188.294 78.2964 188.294 78.2957 188.293C 78.2939 188.292 78.2917 188.291 78.2881 188.289C 78.2802 188.284 78.2694 188.277 78.2538 188.268C 78.2212 188.247 78.1747 188.219 78.1106 188.179C 77.9798 188.097 77.7899 187.977 77.5366 187.815C 77.0245 187.488 76.2821 187.006 75.3242 186.365C 73.397 185.074 70.6595 183.178 67.333 180.698C 60.6559 175.721 51.7543 168.508 42.616 159.362C 24.3067 141.044 5.45841 115.367 2.31091 85.4517L -1.66713 85.8703ZM 77.2527 190C 78.3082 191.699 78.309 191.698 78.31 191.698C 78.3107 191.697 78.312 191.696 78.3133 191.696C 78.3158 191.694 78.32 191.691 78.3249 191.688C 78.3341 191.683 78.3488 191.673 78.3671 191.662C 78.4023 191.64 78.4568 191.606 78.5263 191.562C 78.6625 191.475 78.869 191.343 79.1334 191.172C 79.6569 190.833 80.4346 190.321 81.4162 189.656C 83.3683 188.332 86.1861 186.357 89.5657 183.814C 96.3016 178.743 105.413 171.294 114.681 161.985C 133.181 143.396 152.724 116.981 155.851 86.1851L 151.872 85.781C 148.884 115.206 130.122 140.799 111.846 159.163C 102.727 168.331 93.8327 175.595 87.16 180.618C 83.8353 183.121 81.0981 185.039 79.1712 186.345C 78.2133 186.995 77.4706 187.483 76.9584 187.815C 76.705 187.979 76.5149 188.101 76.384 188.184C 76.3199 188.224 76.2733 188.254 76.2407 188.274C 76.225 188.284 76.2142 188.291 76.2063 188.296C 76.2027 188.298 76.2004 188.299 76.1986 188.3C 76.1978 188.301 76.1975 188.301 76.1971 188.301C 76.1971 188.301 76.1973 188.301 77.2527 190ZM 155.802 86.4679L 156.124 85.1798L 152.243 84.21L 151.921 85.4982L 155.802 86.4679Z"/>
<path id="path2_stroke" d="M 70.6667 22.2667L 72.0809 20.8525L 70.8132 19.5848L 69.4149 20.7068L 70.6667 22.2667ZM 57.7333 9.33333L 59.2932 10.5851L 60.4152 9.18682L 59.1475 7.91912L 57.7333 9.33333ZM 48.4 0L 49.8142 -1.41421L 48.4 -2.82843L 46.9858 -1.41421L 48.4 0ZM 0 48.4L -1.41421 46.9858L -2.82843 48.4L -1.41421 49.8142L 0 48.4ZM 9.33333 57.7333L 7.91912 59.1475L 9.18682 60.4152L 10.5851 59.2932L 9.33333 57.7333ZM 22.2667 70.6667L 20.7068 69.4149L 19.5848 70.8132L 20.8525 72.0809L 22.2667 70.6667ZM 31.6 80L 30.1858 81.4142L 31.6 82.8284L 33.0142 81.4142L 31.6 80ZM 80 31.6L 81.4142 33.0142L 82.8284 31.6L 81.4142 30.1858L 80 31.6ZM 38.1334 58.6665L 39.5334 60.0948L 39.5405 60.0878L 39.5476 60.0807L 38.1334 58.6665ZM 32.5334 58.6665L 31.1192 60.0807L 31.1262 60.0878L 31.1334 60.0948L 32.5334 58.6665ZM 21.3334 47.4665L 19.9051 48.8665L 19.9121 48.8737L 19.9192 48.8807L 21.3334 47.4665ZM 20.1899 44.6665L 18.1899 44.6665L 20.1899 44.6665ZM 21.3334 41.8665L 19.9192 40.4523L 19.9121 40.4594L 19.9051 40.4665L 21.3334 41.8665ZM 41.8667 21.3332L 40.4667 19.9049L 40.4596 19.9119L 40.4525 19.919L 41.8667 21.3332ZM 44.6667 20.1898L 44.6667 18.1898L 44.6667 20.1898ZM 47.4667 21.3332L 48.8809 19.919L 48.8738 19.9119L 48.8667 19.9049L 47.4667 21.3332ZM 58.6667 32.5332L 60.095 31.1332L 60.088 31.1261L 60.0809 31.119L 58.6667 32.5332ZM 59.8101 35.3332L 57.8101 35.3332L 59.8101 35.3332ZM 58.6667 38.1332L 60.0809 39.5474L 60.088 39.5403L 60.095 39.5332L 58.6667 38.1332ZM 69.4149 20.7068C 67.9515 21.9238 66.4143 22.4177 64.5159 22.2806L 64.2977 26.2746C 66.9255 26.3849 69.8465 25.4465 71.9184 23.8265L 69.4149 20.7068ZM 64.5159 22.2806C 62.6139 22.21 61.1397 21.5517 59.8175 20.1825L 56.9891 23.0109C 58.8722 24.847 61.6736 26.098 64.2977 26.2746L 64.5159 22.2806ZM 59.8175 20.1825C 58.4483 18.8603 57.79 17.3861 57.7194 15.4841L 53.7254 15.7023C 53.902 18.3264 55.153 21.1278 56.9891 23.0109L 59.8175 20.1825ZM 57.7194 15.4841C 57.5823 13.5856 58.0762 12.0485 59.2932 10.5851L 56.1735 8.0816C 54.5535 10.1535 53.6151 13.0745 53.7254 15.7023L 57.7194 15.4841ZM 59.1475 7.91912L 49.8142 -1.41421L 46.9858 1.41421L 56.3191 10.7475L 59.1475 7.91912ZM 46.9858 -1.41421L -1.41421 46.9858L 1.41421 49.8142L 49.8142 1.41421L 46.9858 -1.41421ZM -1.41421 49.8142L 7.91912 59.1475L 10.7475 56.3191L 1.41421 46.9858L -1.41421 49.8142ZM 10.5851 59.2932C 12.0485 58.0762 13.5856 57.5823 15.4841 57.7194L 15.7023 53.7254C 13.0745 53.6151 10.1535 54.5535 8.0816 56.1735L 10.5851 59.2932ZM 15.4841 57.7194C 17.3861 57.79 18.8603 58.4483 20.1825 59.8175L 23.0109 56.9891C 21.1278 55.153 18.3264 53.902 15.7023 53.7254L 15.4841 57.7194ZM 20.1825 59.8175C 21.5517 61.1397 22.21 62.6139 22.2806 64.5159L 26.2746 64.2977C 26.098 61.6736 24.847 58.8722 23.0109 56.9891L 20.1825 59.8175ZM 22.2806 64.5159C 22.4177 66.4143 21.9238 67.9515 20.7068 69.4149L 23.8265 71.9184C 25.4465 69.8465 26.3849 66.9255 26.2746 64.2977L 22.2806 64.5159ZM 20.8525 72.0809L 30.1858 81.4142L 33.0142 78.5858L 23.6809 69.2525L 20.8525 72.0809ZM 33.0142 81.4142L 81.4142 33.0142L 78.5858 30.1858L 30.1858 78.5858L 33.0142 81.4142ZM 81.4142 30.1858L 72.0809 20.8525L 69.2525 23.6809L 78.5858 33.0142L 81.4142 30.1858ZM 36.7334 57.2382C 36.3595 57.6047 35.8569 57.81 35.3334 57.81L 35.3334 61.81C 36.9039 61.81 38.4118 61.1942 39.5334 60.0948L 36.7334 57.2382ZM 35.3334 57.81C 34.8099 57.81 34.3072 57.6047 33.9334 57.2382L 31.1334 60.0948C 32.2549 61.1942 33.7629 61.81 35.3334 61.81L 35.3334 57.81ZM 33.9476 57.2523L 22.7476 46.0523L 19.9192 48.8807L 31.1192 60.0807L 33.9476 57.2523ZM 22.7617 46.0665C 22.3952 45.6927 22.1899 45.19 22.1899 44.6665L 18.1899 44.6665C 18.1899 46.2371 18.8057 47.745 19.9051 48.8665L 22.7617 46.0665ZM 22.1899 44.6665C 22.1899 44.143 22.3952 43.6404 22.7617 43.2665L 19.9051 40.4665C 18.8057 41.5881 18.1899 43.096 18.1899 44.6665L 22.1899 44.6665ZM 22.7476 43.2808L 43.2809 22.7474L 40.4525 19.919L 19.9192 40.4523L 22.7476 43.2808ZM 43.2667 22.7615C 43.6406 22.395 44.1432 22.1898 44.6667 22.1898L 44.6667 18.1898C 43.0962 18.1898 41.5883 18.8056 40.4667 19.9049L 43.2667 22.7615ZM 44.6667 22.1898C 45.1902 22.1898 45.6928 22.395 46.0667 22.7615L 48.8667 19.9049C 47.7451 18.8056 46.2372 18.1898 44.6667 18.1898L 44.6667 22.1898ZM 46.0525 22.7474L 57.2525 33.9474L 60.0809 31.119L 48.8809 19.919L 46.0525 22.7474ZM 57.2384 33.9332C 57.6049 34.3071 57.8101 34.8097 57.8101 35.3332L 61.8101 35.3332C 61.8101 33.7627 61.1944 32.2548 60.095 31.1332L 57.2384 33.9332ZM 57.8101 35.3332C 57.8101 35.8567 57.6049 36.3593 57.2384 36.7332L 60.095 39.5332C 61.1944 38.4116 61.8101 36.9037 61.8101 35.3332L 57.8101 35.3332ZM 57.2525 36.719L 36.7192 57.2523L 39.5476 60.0807L 60.0809 39.5474L 57.2525 36.719Z"/>
</defs>
</svg>
