<svg width="159" height="195" viewBox="0 0 159 195" version="1.1" xmlns="http://www.w3.org/2000/svg" xmlns:xlink="http://www.w3.org/1999/xlink">
<title>car-good</title>
<desc>Created using Figma</desc>
<g id="Canvas" transform="translate(267 -2005)">
<g id="car-good">
<g id="marker">
<use xlink:href="#path0_fill" transform="translate(-265 2007)" fill="#0CCE6B"/>
<use xlink:href="#path1_stroke" transform="translate(-265 2007)" fill="#FFFFFF"/>
</g>
<g id="icon">
<use xlink:href="#path2_stroke" transform="translate(-242 2049)" fill="#FFFFFF"/>
</g>
</g>
</g>
<defs>
<path id="path0_fill" d="M 154.184 84.6949C 154.505 82.1186 154.505 79.8644 154.505 77.2881C 154.505 56.7901 146.366 37.1315 131.879 22.6372C 117.391 8.14283 97.7414 8.58071e-15 77.2527 -4.29035e-15C 56.764 1.00108e-14 37.1145 8.14283 22.6268 22.6372C 8.13911 37.1315 3.43071e-14 56.7901 1.14357e-14 77.2881C 2.28714e-14 79.8644 1.2231e-06 82.4407 0.321888 84.6949L 0.321888 85.661C 6.75962 146.847 77.2527 190 77.2527 190C 77.2527 190 147.746 146.203 153.862 85.9831L 154.184 84.6949Z"/>
<path id="path1_stroke" d="M 154.184 84.6949L 156.124 85.1798L 156.153 85.0627L 156.168 84.9429L 154.184 84.6949ZM 77.2527 -4.29035e-15L 77.2527 -2L 77.2527 -4.29035e-15ZM 1.14357e-14 77.2881L -2 77.2881L 1.14357e-14 77.2881ZM 0.321888 84.6949L 2.32189 84.6949L 2.32189 84.5528L 2.3018 84.4122L 0.321888 84.6949ZM 0.321888 85.661L -1.67811 85.661L -1.67811 85.7659L -1.66713 85.8703L 0.321888 85.661ZM 77.2527 190L 76.2086 191.706L 77.2605 192.35L 78.3082 191.699L 77.2527 190ZM 153.862 85.9831L 151.921 85.4982L 151.886 85.6378L 151.872 85.781L 153.862 85.9831ZM 156.168 84.9429C 156.502 82.2429 156.505 79.8644 156.505 77.2881L 152.505 77.2881C 152.505 79.8644 152.509 81.9944 152.199 84.447L 156.168 84.9429ZM 156.505 77.2881C 156.505 56.2599 148.156 36.0928 133.293 21.2233L 130.464 24.0511C 144.577 38.1703 152.505 57.3202 152.505 77.2881L 156.505 77.2881ZM 133.293 21.2233C 118.431 6.35377 98.2722 -2 77.2527 -2L 77.2527 2C 97.2107 2 116.351 9.9319 130.464 24.0511L 133.293 21.2233ZM 77.2527 -2C 56.2333 -2 36.075 6.35377 21.2123 21.2233L 24.0413 24.0511C 38.154 9.9319 57.2948 2 77.2527 2L 77.2527 -2ZM 21.2123 21.2233C 6.3496 36.0928 -2 56.2599 -2 77.2881L 2 77.2881C 2 57.3202 9.92862 38.1703 24.0413 24.0511L 21.2123 21.2233ZM -2 77.2881C -2 79.8644 -1.99497 82.5824 -1.65803 84.9776L 2.3018 84.4122C 1.99497 82.299 2 79.8644 2 77.2881L -2 77.2881ZM -1.67811 84.6949L -1.67811 85.661L 2.32189 85.661L 2.32189 84.6949L -1.67811 84.6949ZM -1.66713 85.8703C 1.62309 117.142 21.2403 143.634 39.7869 162.189C 49.0766 171.479 58.2006 178.879 64.9423 183.905C 68.325 186.426 71.1451 188.38 73.0982 189.688C 74.0804 190.346 74.8587 190.851 75.3824 191.186C 75.647 191.355 75.8537 191.485 75.9901 191.57C 76.0596 191.614 76.1142 191.648 76.1495 191.669C 76.1678 191.681 76.1825 191.69 76.1917 191.695C 76.1967 191.699 76.2009 191.701 76.2034 191.703C 76.2048 191.703 76.2061 191.704 76.2068 191.705C 76.2078 191.705 76.2086 191.706 77.2527 190C 78.2969 188.294 78.2972 188.294 78.2971 188.294C 78.2967 188.294 78.2964 188.294 78.2957 188.293C 78.2939 188.292 78.2917 188.291 78.2881 188.289C 78.2802 188.284 78.2694 188.277 78.2538 188.268C 78.2212 188.247 78.1747 188.219 78.1106 188.179C 77.9798 188.097 77.7899 187.977 77.5366 187.815C 77.0245 187.488 76.2821 187.006 75.3242 186.365C 73.397 185.074 70.6595 183.178 67.3329 180.698C 60.6559 175.721 51.7543 168.508 42.616 159.362C 24.3067 141.044 5.45841 115.367 2.31091 85.4517L -1.66713 85.8703ZM 77.2527 190C 78.3082 191.699 78.309 191.698 78.31 191.698C 78.3107 191.697 78.312 191.697 78.3133 191.696C 78.3158 191.694 78.32 191.691 78.3249 191.688C 78.3341 191.683 78.3488 191.673 78.3671 191.662C 78.4023 191.64 78.4568 191.606 78.5263 191.562C 78.6625 191.475 78.869 191.343 79.1334 191.172C 79.6569 190.833 80.4346 190.321 81.4162 189.656C 83.3683 188.332 86.1861 186.357 89.5657 183.814C 96.3016 178.743 105.413 171.294 114.681 161.985C 133.181 143.396 152.724 116.981 155.851 86.1851L 151.872 85.781C 148.884 115.206 130.122 140.799 111.846 159.163C 102.727 168.331 93.8327 175.595 87.16 180.618C 83.8353 183.121 81.0981 185.039 79.1712 186.345C 78.2133 186.995 77.4706 187.483 76.9584 187.815C 76.705 187.979 76.5149 188.101 76.384 188.184C 76.3199 188.224 76.2732 188.254 76.2407 188.274C 76.225 188.284 76.2142 188.291 76.2063 188.296C 76.2027 188.298 76.2004 188.299 76.1986 188.3C 76.1978 188.301 76.1975 188.301 76.1971 188.301C 76.1971 188.301 76.1973 188.301 77.2527 190ZM 155.802 86.4679L 156.124 85.1798L 152.243 84.21L 151.921 85.4982L 155.802 86.4679Z"/>
<path id="path2_stroke" d="M 25.4745 69.0909L 27.4745 69.0909L 27.4745 67.1239L 25.5078 67.0912L 25.4745 69.0909ZM 3.63922 76.3636L 1.63922 76.3636L 3.63922 76.3636ZM 3.63922 68.7273L 3.67252 66.7275L 1.63922 66.6937L 1.63922 68.7273L 3.63922 68.7273ZM 105.537 68.7273L 107.537 68.7273L 107.537 66.6937L 105.504 66.7275L 105.537 68.7273ZM 83.7019 69.0909L 83.6686 67.0912L 81.7019 67.1239L 81.7019 69.0909L 83.7019 69.0909ZM 40.0314 41.6364C 38.9268 41.6364 38.0314 42.5318 38.0314 43.6364C 38.0314 44.7409 38.9268 45.6364 40.0314 45.6364L 40.0314 41.6364ZM 69.1451 45.6364C 70.2497 45.6364 71.1451 44.7409 71.1451 43.6364C 71.1451 42.5318 70.2497 41.6364 69.1451 41.6364L 69.1451 45.6364ZM 94.6196 21.8182L 92.9559 22.9282L 93.0658 23.0929L 93.2059 23.2329L 94.6196 21.8182ZM 80.0627 0L 81.7264 -1.11L 81.1326 -2L 80.0627 -2L 80.0627 0ZM 29.1137 0L 29.1137 -2L 28.0438 -2L 27.45 -1.11L 29.1137 0ZM 14.5569 21.8182L 15.9705 23.2329L 16.1106 23.0929L 16.2206 22.9282L 14.5569 21.8182ZM 0 36.3636L -1.41366 34.9489L -2 35.5347L -2 36.3636L 0 36.3636ZM 0 63.6363L -2 63.6363L 0 63.6363ZM 109.176 36.3636L 111.176 36.3636L 111.176 35.5347L 110.59 34.9489L 109.176 36.3636ZM 11.2816 23.4545C 10.177 23.4545 9.28156 24.35 9.28156 25.4545C 9.28156 26.5591 10.177 27.4545 11.2816 27.4545L 11.2816 23.4545ZM 98.2588 27.4545C 99.3634 27.4545 100.259 26.5591 100.259 25.4545C 100.259 24.35 99.3634 23.4545 98.2588 23.4545L 98.2588 27.4545ZM 0 52.5454C -1.10457 52.5454 -2 53.4409 -2 54.5454C -2 55.65 -1.10457 56.5454 0 56.5454L 0 52.5454ZM 109.176 56.5454C 110.281 56.5454 111.176 55.65 111.176 54.5454C 111.176 53.4409 110.281 52.5454 109.176 52.5454L 109.176 56.5454ZM 0 19.8182C -1.10457 19.8182 -2 20.7136 -2 21.8182C -2 22.9227 -1.10457 23.8182 0 23.8182L 0 19.8182ZM 109.176 23.8182C 110.281 23.8182 111.176 22.9227 111.176 21.8182C 111.176 20.7136 110.281 19.8182 109.176 19.8182L 109.176 23.8182ZM 0 38C -1.10457 38 -2 38.8954 -2 40C -2 41.1046 -1.10457 42 0 42L 0 38ZM 18.1961 40L 19.6097 38.5852L 19.024 38L 18.1961 38L 18.1961 40ZM 31.3393 55.9602C 32.1206 56.741 33.387 56.7405 34.1677 55.9591C 34.9484 55.1777 34.9479 53.9114 34.1666 53.1307L 31.3393 55.9602ZM 109.176 42C 110.281 42 111.176 41.1046 111.176 40C 111.176 38.8954 110.281 38 109.176 38L 109.176 42ZM 90.9804 40L 90.9804 38L 90.1524 38L 89.5667 38.5852L 90.9804 40ZM 75.0098 53.1307C 74.2285 53.9114 74.228 55.1777 75.0087 55.9591C 75.7895 56.7405 77.0558 56.741 77.8372 55.9602L 75.0098 53.1307ZM 23.4745 69.0909L 23.4745 76.3636L 27.4745 76.3636L 27.4745 69.0909L 23.4745 69.0909ZM 23.4745 76.3636C 23.4745 76.7971 23.3022 77.2132 22.9949 77.5202L 25.8223 80.3497C 26.88 79.2928 27.4745 77.859 27.4745 76.3636L 23.4745 76.3636ZM 22.9949 77.5202C 22.6877 77.8272 22.2705 78 21.8353 78L 21.8353 82C 23.3304 82 24.7646 81.4066 25.8223 80.3497L 22.9949 77.5202ZM 21.8353 78L 7.27843 78L 7.27843 82L 21.8353 82L 21.8353 78ZM 7.27843 78C 6.84317 78 6.42607 77.8272 6.11878 77.5202L 3.29146 80.3497C 4.34914 81.4066 5.78333 82 7.27843 82L 7.27843 78ZM 6.11878 77.5202C 5.81154 77.2132 5.63922 76.7971 5.63922 76.3636L 1.63922 76.3636C 1.63922 77.859 2.23373 79.2928 3.29146 80.3497L 6.11878 77.5202ZM 5.63922 76.3636L 5.63922 68.7273L 1.63922 68.7273L 1.63922 76.3636L 5.63922 76.3636ZM 3.60591 70.727L 25.4412 71.0906L 25.5078 67.0912L 3.67252 66.7275L 3.60591 70.727ZM 103.537 68.7273L 103.537 76.3636L 107.537 76.3636L 107.537 68.7273L 103.537 68.7273ZM 103.537 76.3636C 103.537 76.7971 103.365 77.2132 103.058 77.5202L 105.885 80.3497C 106.943 79.2928 107.537 77.859 107.537 76.3636L 103.537 76.3636ZM 103.058 77.5202C 102.75 77.8272 102.333 78 101.898 78L 101.898 82C 103.393 82 104.827 81.4066 105.885 80.3497L 103.058 77.5202ZM 101.898 78L 87.3412 78L 87.3412 82L 101.898 82L 101.898 78ZM 87.3412 78C 86.9059 78 86.4888 77.8272 86.1815 77.5202L 83.3542 80.3497C 84.4119 81.4066 85.8461 82 87.3412 82L 87.3412 78ZM 86.1815 77.5202C 85.8743 77.2132 85.7019 76.7971 85.7019 76.3636L 81.7019 76.3636C 81.7019 77.859 82.2964 79.2928 83.3542 80.3497L 86.1815 77.5202ZM 85.7019 76.3636L 85.7019 69.0909L 81.7019 69.0909L 81.7019 76.3636L 85.7019 76.3636ZM 83.7352 71.0906L 105.571 70.727L 105.504 66.7275L 83.6686 67.0912L 83.7352 71.0906ZM 40.0314 45.6364L 69.1451 45.6364L 69.1451 41.6364L 40.0314 41.6364L 40.0314 45.6364ZM 96.2833 20.7082L 81.7264 -1.11L 78.399 1.11L 92.9559 22.9282L 96.2833 20.7082ZM 80.0627 -2L 29.1137 -2L 29.1137 2L 80.0627 2L 80.0627 -2ZM 27.45 -1.11L 12.8932 20.7082L 16.2206 22.9282L 30.7774 1.11L 27.45 -1.11ZM 13.1432 20.4034L -1.41366 34.9489L 1.41366 37.7784L 15.9705 23.2329L 13.1432 20.4034ZM -2 36.3636L -2 63.6363L 2 63.6363L 2 36.3636L -2 36.3636ZM -2 63.6363C -2 65.6139 -1.21378 67.5102 0.185193 68.9081L 3.01251 66.0785C 2.36403 65.4306 2 64.552 2 63.6363L -2 63.6363ZM 0.185193 68.9081C 1.58411 70.3059 3.48113 71.0909 5.45882 71.0909L 5.45882 67.0909C 4.54098 67.0909 3.66105 66.7266 3.01251 66.0785L 0.185193 68.9081ZM 5.45882 71.0909L 103.718 71.0909L 103.718 67.0909L 5.45882 67.0909L 5.45882 71.0909ZM 103.718 71.0909C 105.695 71.0909 107.592 70.3059 108.991 68.9081L 106.164 66.0785C 105.515 66.7266 104.635 67.0909 103.718 67.0909L 103.718 71.0909ZM 108.991 68.9081C 110.39 67.5102 111.176 65.6139 111.176 63.6363L 107.176 63.6363C 107.176 64.552 106.812 65.4305 106.164 66.0785L 108.991 68.9081ZM 111.176 63.6363L 111.176 36.3636L 107.176 36.3636L 107.176 63.6363L 111.176 63.6363ZM 110.59 34.9489L 96.0332 20.4034L 93.2059 23.2329L 107.763 37.7784L 110.59 34.9489ZM 11.2816 27.4545L 98.2588 27.4545L 98.2588 23.4545L 11.2816 23.4545L 11.2816 27.4545ZM 0 56.5454L 109.176 56.5454L 109.176 52.5454L 0 52.5454L 0 56.5454ZM 0 23.8182L 14.5569 23.8182L 14.5569 19.8182L 0 19.8182L 0 23.8182ZM 94.6196 23.8182L 109.176 23.8182L 109.176 19.8182L 94.6196 19.8182L 94.6196 23.8182ZM 0 42L 18.1961 42L 18.1961 38L 0 38L 0 42ZM 16.7824 41.4148L 31.3393 55.9602L 34.1666 53.1307L 19.6097 38.5852L 16.7824 41.4148ZM 109.176 38L 90.9804 38L 90.9804 42L 109.176 42L 109.176 38ZM 89.5667 38.5852L 75.0098 53.1307L 77.8372 55.9602L 92.394 41.4148L 89.5667 38.5852Z"/>
</defs>
</svg>
