<svg width="159" height="195" viewBox="0 0 159 195" version="1.1" xmlns="http://www.w3.org/2000/svg" xmlns:xlink="http://www.w3.org/1999/xlink">
<title>beauty-good</title>
<desc>Created using Figma</desc>
<g id="Canvas" transform="translate(267 -133)">
<g id="beauty-good">
<g id="marker">
<use xlink:href="#path0_fill" transform="translate(-265 135)" fill="#0CCE6B"/>
<use xlink:href="#path1_stroke" transform="translate(-265 135)" fill="#FFFFFF"/>
</g>
<g id="icon">
<use xlink:href="#path2_stroke" transform="translate(-228 177)" fill="#FFFFFF"/>
</g>
</g>
</g>
<defs>
<path id="path0_fill" d="M 154.184 84.6949C 154.505 82.1186 154.505 79.8644 154.505 77.2881C 154.505 56.79 146.366 37.1315 131.879 22.6372C 117.391 8.14283 97.7414 8.58071e-15 77.2527 -4.29035e-15C 56.764 1.00108e-14 37.1145 8.14283 22.6268 22.6372C 8.13911 37.1315 3.43071e-14 56.79 1.14357e-14 77.2881C 2.28714e-14 79.8644 1.2231e-06 82.4407 0.321888 84.6949L 0.321888 85.661C 6.75962 146.847 77.2527 190 77.2527 190C 77.2527 190 147.746 146.203 153.862 85.9831L 154.184 84.6949Z"/>
<path id="path1_stroke" d="M 154.184 84.6949L 156.124 85.1798L 156.153 85.0627L 156.168 84.9429L 154.184 84.6949ZM 77.2527 -4.29035e-15L 77.2527 -2L 77.2527 -4.29035e-15ZM 1.14357e-14 77.2881L -2 77.2881L 1.14357e-14 77.2881ZM 0.321888 84.6949L 2.32189 84.6949L 2.32189 84.5528L 2.3018 84.4122L 0.321888 84.6949ZM 0.321888 85.661L -1.67811 85.661L -1.67811 85.7659L -1.66713 85.8703L 0.321888 85.661ZM 77.2527 190L 76.2086 191.706L 77.2605 192.35L 78.3082 191.699L 77.2527 190ZM 153.862 85.9831L 151.921 85.4982L 151.886 85.6378L 151.872 85.781L 153.862 85.9831ZM 156.168 84.9429C 156.502 82.2429 156.505 79.8644 156.505 77.2881L 152.505 77.2881C 152.505 79.8644 152.509 81.9944 152.199 84.447L 156.168 84.9429ZM 156.505 77.2881C 156.505 56.2599 148.156 36.0928 133.293 21.2233L 130.464 24.0511C 144.577 38.1703 152.505 57.3202 152.505 77.2881L 156.505 77.2881ZM 133.293 21.2233C 118.431 6.35377 98.2722 -2 77.2527 -2L 77.2527 2C 97.2107 2 116.351 9.9319 130.464 24.0511L 133.293 21.2233ZM 77.2527 -2C 56.2333 -2 36.075 6.35377 21.2123 21.2233L 24.0413 24.0511C 38.154 9.9319 57.2948 2 77.2527 2L 77.2527 -2ZM 21.2123 21.2233C 6.3496 36.0928 -2 56.2599 -2 77.2881L 2 77.2881C 2 57.3202 9.92862 38.1703 24.0413 24.0511L 21.2123 21.2233ZM -2 77.2881C -2 79.8644 -1.99497 82.5824 -1.65803 84.9776L 2.3018 84.4122C 1.99497 82.299 2 79.8644 2 77.2881L -2 77.2881ZM -1.67811 84.6949L -1.67811 85.661L 2.32189 85.661L 2.32189 84.6949L -1.67811 84.6949ZM -1.66713 85.8703C 1.62309 117.142 21.2403 143.634 39.7869 162.189C 49.0766 171.479 58.2006 178.879 64.9423 183.905C 68.325 186.426 71.1451 188.38 73.0982 189.688C 74.0804 190.346 74.8587 190.851 75.3824 191.186C 75.647 191.355 75.8537 191.485 75.9901 191.57C 76.0596 191.614 76.1142 191.648 76.1495 191.669C 76.1678 191.681 76.1825 191.69 76.1918 191.695C 76.1967 191.698 76.2009 191.701 76.2034 191.703C 76.2048 191.703 76.2061 191.704 76.2068 191.705C 76.2078 191.705 76.2086 191.706 77.2527 190C 78.2969 188.294 78.2972 188.294 78.2971 188.294C 78.2967 188.294 78.2964 188.294 78.2957 188.293C 78.2939 188.292 78.2917 188.291 78.2881 188.289C 78.2802 188.284 78.2694 188.277 78.2538 188.268C 78.2212 188.247 78.1747 188.219 78.1106 188.179C 77.9798 188.097 77.7899 187.977 77.5366 187.815C 77.0245 187.488 76.2821 187.006 75.3242 186.365C 73.397 185.074 70.6595 183.178 67.333 180.698C 60.6559 175.721 51.7543 168.508 42.616 159.362C 24.3067 141.044 5.45841 115.367 2.31091 85.4517L -1.66713 85.8703ZM 77.2527 190C 78.3082 191.699 78.309 191.698 78.31 191.698C 78.3107 191.697 78.312 191.696 78.3133 191.696C 78.3158 191.694 78.32 191.691 78.3249 191.688C 78.3341 191.683 78.3488 191.673 78.3671 191.662C 78.4023 191.64 78.4568 191.606 78.5263 191.562C 78.6625 191.475 78.869 191.343 79.1334 191.172C 79.6569 190.833 80.4346 190.321 81.4162 189.656C 83.3683 188.332 86.1861 186.357 89.5657 183.814C 96.3016 178.743 105.413 171.294 114.681 161.985C 133.181 143.396 152.724 116.981 155.851 86.1851L 151.872 85.781C 148.884 115.206 130.122 140.799 111.846 159.163C 102.727 168.331 93.8327 175.595 87.16 180.618C 83.8353 183.121 81.0981 185.039 79.1712 186.345C 78.2133 186.995 77.4706 187.483 76.9584 187.815C 76.705 187.979 76.5149 188.101 76.384 188.184C 76.3199 188.224 76.2733 188.254 76.2407 188.274C 76.225 188.284 76.2142 188.291 76.2063 188.296C 76.2027 188.298 76.2004 188.299 76.1986 188.3C 76.1978 188.301 76.1975 188.301 76.1971 188.301C 76.1971 188.301 76.1973 188.301 77.2527 190ZM 155.802 86.4679L 156.124 85.1798L 152.243 84.21L 151.921 85.4982L 155.802 86.4679Z"/>
<path id="path2_stroke" d="M 52.48 18.7503C 52.7667 17.6836 52.1343 16.5864 51.0675 16.2998C 50.0008 16.0132 48.9037 16.6456 48.617 17.7123L 52.48 18.7503ZM 35.3545 74.7783L 33.423 74.2593L 33.3977 74.3535L 33.3817 74.4497L 35.3545 74.7783ZM 24.4255 79.9795L 22.5138 79.3917L 21.7505 81.8741L 24.3455 81.9779L 24.4255 79.9795ZM 26.0248 74.7783L 27.9365 75.3661L 27.947 75.332L 27.9563 75.2974L 26.0248 74.7783ZM 38.3522 36.6214C 38.6389 35.5547 38.0066 34.4576 36.9399 34.1708C 35.8732 33.8841 34.776 34.5164 34.4893 35.5831L 38.3522 36.6214ZM 62.3916 31.5005C 63.4591 31.2165 64.0942 30.121 63.8102 29.0535C 63.5262 27.9861 62.4306 27.351 61.3632 27.635L 62.3916 31.5005ZM 5.23297 44.638L 5.64295 46.5956L 5.6954 46.5846L 5.74719 46.5708L 5.23297 44.638ZM 0.0350151 55.4406L -1.96191 55.5515L -1.8269 57.9831L 0.532061 57.3779L 0.0350151 55.4406ZM 5.23297 54.107L 5.73002 56.0442L 5.74131 56.0413L 5.75257 56.0383L 5.23297 54.107ZM 34.0081 48.4365C 35.0748 48.1495 35.7068 47.0522 35.4199 45.9856C 35.1329 44.9189 34.0356 44.2869 32.9689 44.5738L 34.0081 48.4365ZM 50.2408 3.12495L 48.8262 4.53871L 48.8262 4.53871L 50.2408 3.12495ZM 50.2408 18.2135L 48.8262 16.7998L 48.8262 16.7998L 50.2408 18.2135ZM 35.1618 18.2135L 33.7472 19.6273L 33.7472 19.6273L 35.1618 18.2135ZM 35.1618 3.12495L 33.7472 1.71118L 33.7472 1.71118L 35.1618 3.12495ZM 76.877 29.7974L 75.4624 31.2112L 75.4624 31.2112L 76.877 29.7974ZM 76.877 44.886L 75.4624 43.4723L 75.4624 43.4723L 76.877 44.886ZM 61.798 44.886L 60.3833 46.2998L 60.3833 46.2998L 61.798 44.886ZM 61.798 29.7974L 60.3833 28.3837L 60.3833 28.3837L 61.798 29.7974ZM 48.617 17.7123L 33.423 74.2593L 37.286 75.2973L 52.48 18.7503L 48.617 17.7123ZM 35.3545 74.7783C 33.3817 74.4497 33.382 74.448 33.3822 74.4464C 33.3823 74.4459 33.3826 74.4442 33.3828 74.4432C 33.3826 74.4441 33.3841 74.4352 33.3838 74.4372C 33.3835 74.4388 33.3863 74.4232 33.3857 74.4265C 33.3853 74.4284 33.3895 74.4064 33.3887 74.4105C 33.3889 74.4094 33.3913 74.3982 33.391 74.3991C 33.3864 74.4199 33.3875 74.4173 33.3769 74.4513C 33.3457 74.5587 33.3221 74.6335 33.2422 74.7971C 33.0522 75.2101 32.8437 75.5731 32.2919 76.0502C 31.2886 76.9639 29.1151 78.1656 24.5054 77.9811L 24.3455 81.9779C 29.7319 82.1935 33.0229 80.7947 34.9851 79.0077C 35.9161 78.1345 36.5656 77.1221 36.8629 76.4973C 37.0267 76.1421 37.154 75.7824 37.2129 75.585C 37.2474 75.4667 37.2782 75.3442 37.2921 75.2831C 37.3011 75.2431 37.3104 75.1983 37.3143 75.1782C 37.3172 75.1635 37.3205 75.1455 37.3219 75.1382C 37.3229 75.1323 37.3243 75.1244 37.3248 75.1215C 37.3253 75.1188 37.3259 75.1152 37.3261 75.1139C 37.3263 75.1127 37.3266 75.1109 37.3267 75.1103C 37.327 75.1086 37.3273 75.1069 35.3545 74.7783ZM 26.3371 80.5674L 27.9365 75.3661L 24.1132 74.1905L 22.5138 79.3917L 26.3371 80.5674ZM 27.9563 75.2974L 38.3522 36.6214L 34.4893 35.5831L 24.0934 74.2591L 27.9563 75.2974ZM 61.3632 27.635L 4.71876 42.7053L 5.74719 46.5708L 62.3916 31.5005L 61.3632 27.635ZM 5.23297 44.638C 4.823 42.6805 4.82142 42.6808 4.81983 42.6812C 4.81926 42.6813 4.81764 42.6816 4.81651 42.6819C 4.8153 42.6821 4.8119 42.6829 4.80946 42.6834C 4.80667 42.684 4.79931 42.6856 4.79371 42.6868C 4.7867 42.6884 4.7697 42.6923 4.75567 42.6956C 4.73607 42.7003 4.69328 42.7109 4.65442 42.7211C 4.59402 42.7373 4.47528 42.7717 4.35876 42.8099C 4.16179 42.8756 3.8091 43.0118 3.45659 43.1842C 2.82973 43.4988 1.82579 44.1611 0.955256 45.092C -0.838148 47.0616 -2.25229 50.3214 -1.96191 55.5515L 2.03194 55.3298C 1.78919 50.9575 2.97403 48.8161 3.91289 47.785C 4.40849 47.2155 4.804 46.9776 5.23505 46.7671C 5.41151 46.6768 5.50239 46.6443 5.61676 46.6069C 5.65591 46.5935 5.65977 46.5927 5.68306 46.5866C 5.68605 46.5857 5.67949 46.5875 5.67743 46.5879C 5.68064 46.5872 5.66243 46.5914 5.66394 46.591C 5.66678 46.5904 5.65299 46.5934 5.6544 46.5931C 5.65614 46.5928 5.64805 46.5945 5.64891 46.5943C 5.64796 46.5945 5.64647 46.5948 5.64599 46.5949C 5.64448 46.5952 5.64295 46.5956 5.23297 44.638ZM 0.532061 57.3779L 5.73002 56.0442L 4.73593 52.1697L -0.462031 53.5034L 0.532061 57.3779ZM 5.75257 56.0383L 34.0081 48.4365L 32.9689 44.5738L 4.71337 52.1757L 5.75257 56.0383ZM 48.8262 4.53871C 52.2097 7.92437 52.2097 13.4141 48.8262 16.7998L 51.6555 19.6273C 56.5999 14.6798 56.5999 6.65873 51.6555 1.71118L 48.8262 4.53871ZM 48.8262 16.7998C 45.4434 20.1847 39.9593 20.1847 36.5765 16.7998L 33.7472 19.6273C 38.6923 24.5755 46.7104 24.5755 51.6555 19.6273L 48.8262 16.7998ZM 36.5765 16.7998C 33.193 13.4141 33.193 7.92437 36.5765 4.53871L 33.7472 1.71118C 28.8027 6.65873 28.8027 14.6798 33.7472 19.6273L 36.5765 16.7998ZM 36.5765 4.53871C 39.9593 1.15376 45.4434 1.15376 48.8262 4.53871L 51.6555 1.71118C 46.7104 -3.23706 38.6923 -3.23706 33.7472 1.71118L 36.5765 4.53871ZM 75.4624 31.2112C 78.8459 34.5969 78.8459 40.0866 75.4624 43.4723L 78.2917 46.2998C 83.2361 41.3522 83.2361 33.3312 78.2917 28.3837L 75.4624 31.2112ZM 75.4624 43.4723C 72.0796 46.8572 66.5955 46.8572 63.2127 43.4723L 60.3833 46.2998C 65.3285 51.248 73.3466 51.248 78.2917 46.2998L 75.4624 43.4723ZM 63.2127 43.4723C 59.8292 40.0866 59.8292 34.5969 63.2127 31.2112L 60.3833 28.3837C 55.4389 33.3312 55.4389 41.3522 60.3833 46.2998L 63.2127 43.4723ZM 63.2127 31.2112C 66.5955 27.8263 72.0796 27.8263 75.4624 31.2112L 78.2917 28.3837C 73.3466 23.4354 65.3285 23.4354 60.3833 28.3837L 63.2127 31.2112Z"/>
</defs>
</svg>
