<svg width="159" height="195" viewBox="0 0 159 195" version="1.1" xmlns="http://www.w3.org/2000/svg" xmlns:xlink="http://www.w3.org/1999/xlink">
<title>education-good</title>
<desc>Created using Figma</desc>
<g id="Canvas" transform="translate(267 -1069)">
<g id="education-good">
<g id="marker">
<use xlink:href="#path0_fill" transform="translate(-265 1071)" fill="#0CCE6B"/>
<use xlink:href="#path1_stroke" transform="translate(-265 1071)" fill="#FFFFFF"/>
</g>
<g id="icon">
<use xlink:href="#path2_stroke" transform="translate(-228 1113)" fill="#FFFFFF"/>
</g>
</g>
</g>
<defs>
<path id="path0_fill" d="M 154.184 84.6949C 154.505 82.1186 154.505 79.8644 154.505 77.2881C 154.505 56.79 146.366 37.1315 131.879 22.6372C 117.391 8.14283 97.7414 8.58071e-15 77.2527 -4.29035e-15C 56.764 1.00108e-14 37.1145 8.14283 22.6268 22.6372C 8.13911 37.1315 3.43071e-14 56.79 1.14357e-14 77.2881C 2.28714e-14 79.8644 1.2231e-06 82.4407 0.321888 84.6949L 0.321888 85.661C 6.75962 146.847 77.2527 190 77.2527 190C 77.2527 190 147.746 146.203 153.862 85.9831L 154.184 84.6949Z"/>
<path id="path1_stroke" d="M 154.184 84.6949L 156.124 85.1798L 156.153 85.0627L 156.168 84.9429L 154.184 84.6949ZM 77.2527 -4.29035e-15L 77.2527 -2L 77.2527 -4.29035e-15ZM 1.14357e-14 77.2881L -2 77.2881L 1.14357e-14 77.2881ZM 0.321888 84.6949L 2.32189 84.6949L 2.32189 84.5528L 2.3018 84.4122L 0.321888 84.6949ZM 0.321888 85.661L -1.67811 85.661L -1.67811 85.7659L -1.66713 85.8703L 0.321888 85.661ZM 77.2527 190L 76.2086 191.706L 77.2605 192.35L 78.3082 191.699L 77.2527 190ZM 153.862 85.9831L 151.921 85.4982L 151.886 85.6378L 151.872 85.781L 153.862 85.9831ZM 156.168 84.9429C 156.502 82.2429 156.505 79.8644 156.505 77.2881L 152.505 77.2881C 152.505 79.8644 152.509 81.9944 152.199 84.447L 156.168 84.9429ZM 156.505 77.2881C 156.505 56.2599 148.156 36.0928 133.293 21.2233L 130.464 24.0511C 144.577 38.1703 152.505 57.3202 152.505 77.2881L 156.505 77.2881ZM 133.293 21.2233C 118.431 6.35377 98.2722 -2 77.2527 -2L 77.2527 2C 97.2107 2 116.351 9.9319 130.464 24.0511L 133.293 21.2233ZM 77.2527 -2C 56.2333 -2 36.075 6.35377 21.2123 21.2233L 24.0413 24.0511C 38.154 9.9319 57.2948 2 77.2527 2L 77.2527 -2ZM 21.2123 21.2233C 6.3496 36.0928 -2 56.2599 -2 77.2881L 2 77.2881C 2 57.3202 9.92862 38.1703 24.0413 24.0511L 21.2123 21.2233ZM -2 77.2881C -2 79.8644 -1.99497 82.5824 -1.65803 84.9776L 2.3018 84.4122C 1.99497 82.299 2 79.8644 2 77.2881L -2 77.2881ZM -1.67811 84.6949L -1.67811 85.661L 2.32189 85.661L 2.32189 84.6949L -1.67811 84.6949ZM -1.66713 85.8703C 1.62309 117.142 21.2403 143.634 39.7869 162.189C 49.0766 171.479 58.2006 178.879 64.9423 183.905C 68.325 186.426 71.1451 188.38 73.0982 189.688C 74.0804 190.346 74.8587 190.851 75.3824 191.186C 75.647 191.355 75.8537 191.485 75.9901 191.57C 76.0596 191.614 76.1142 191.648 76.1495 191.669C 76.1678 191.681 76.1825 191.69 76.1918 191.695C 76.1967 191.698 76.2009 191.701 76.2034 191.703C 76.2048 191.703 76.2061 191.704 76.2068 191.705C 76.2078 191.705 76.2086 191.706 77.2527 190C 78.2969 188.294 78.2972 188.294 78.2971 188.294C 78.2967 188.294 78.2964 188.294 78.2957 188.293C 78.2939 188.292 78.2917 188.291 78.2881 188.289C 78.2802 188.284 78.2694 188.277 78.2538 188.268C 78.2212 188.247 78.1747 188.219 78.1106 188.179C 77.9798 188.097 77.7899 187.977 77.5366 187.815C 77.0245 187.488 76.2821 187.006 75.3242 186.365C 73.397 185.074 70.6595 183.178 67.333 180.698C 60.6559 175.721 51.7543 168.508 42.616 159.362C 24.3067 141.044 5.45841 115.367 2.31091 85.4517L -1.66713 85.8703ZM 77.2527 190C 78.3082 191.699 78.309 191.698 78.31 191.698C 78.3107 191.697 78.312 191.696 78.3133 191.696C 78.3158 191.694 78.32 191.691 78.3249 191.688C 78.3341 191.683 78.3488 191.673 78.3671 191.662C 78.4023 191.64 78.4568 191.606 78.5263 191.562C 78.6625 191.475 78.869 191.343 79.1334 191.172C 79.6569 190.833 80.4346 190.321 81.4162 189.656C 83.3683 188.332 86.1861 186.357 89.5657 183.814C 96.3016 178.743 105.413 171.294 114.681 161.985C 133.181 143.396 152.724 116.981 155.851 86.1851L 151.872 85.781C 148.884 115.206 130.122 140.799 111.846 159.163C 102.727 168.331 93.8327 175.595 87.16 180.618C 83.8353 183.121 81.0981 185.039 79.1712 186.345C 78.2133 186.995 77.4706 187.483 76.9584 187.815C 76.705 187.979 76.5149 188.101 76.384 188.184C 76.3199 188.224 76.2733 188.254 76.2407 188.274C 76.225 188.284 76.2142 188.291 76.2063 188.296C 76.2027 188.298 76.2004 188.299 76.1986 188.3C 76.1978 188.301 76.1975 188.301 76.1971 188.301C 76.1971 188.301 76.1973 188.301 77.2527 190ZM 155.802 86.4679L 156.124 85.1798L 152.243 84.21L 151.921 85.4982L 155.802 86.4679Z"/>
<path id="path2_stroke" d="M 10.6667 8.66664C 9.5621 8.66664 8.66667 9.56207 8.66667 10.6666C 8.66667 11.7712 9.5621 12.6666 10.6667 12.6666L 10.6667 8.66664ZM 50.6667 12.6666C 51.7712 12.6666 52.6667 11.7712 52.6667 10.6666C 52.6667 9.56207 51.7712 8.66664 50.6667 8.66664L 50.6667 12.6666ZM 40 74C 41.1046 74 42 73.1045 42 72C 42 70.8954 41.1046 70 40 70L 40 74ZM 0 61.3333L -2 61.3333L 0 61.3333ZM 0 10.6666L -2 10.6666L 0 10.6666ZM 53.3333 2C 54.4379 2 55.3333 1.10457 55.3333 0C 55.3333 -1.10457 54.4379 -2 53.3333 -2L 53.3333 2ZM 10.6667 21.3333L 10.6667 23.3333L 10.6667 21.3333ZM 53.3333 21.3333L 55.3333 21.3333L 55.3333 19.3333L 53.3333 19.3333L 53.3333 21.3333ZM 51.3333 54.6667C 51.3333 55.7712 52.2288 56.6667 53.3333 56.6667C 54.4379 56.6667 55.3333 55.7712 55.3333 54.6667L 51.3333 54.6667ZM 70.6667 37.3333L 72.0809 35.9191L 70.6701 34.5083L 69.2558 35.9157L 70.6667 37.3333ZM 42.9333 64.9333L 41.5225 63.5157L 41.223 63.8138L 41.0696 64.2076L 42.9333 64.9333ZM 37.0666 80L 35.2029 79.2743L 33.5753 83.4545L 37.7725 81.8713L 37.0666 80ZM 52.2667 74.2667L 52.9725 76.138L 53.3736 75.9867L 53.6775 75.6843L 52.2667 74.2667ZM 80 46.6667L 81.4108 48.0843L 82.8318 46.6701L 81.4142 45.2525L 80 46.6667ZM 10.6667 12.6666L 50.6667 12.6666L 50.6667 8.66664L 10.6667 8.66664L 10.6667 12.6666ZM 40 70L 10.6667 70L 10.6667 74L 40 74L 40 70ZM 10.6667 70C 8.36813 70 6.16373 69.0869 4.53841 67.4616L 1.70998 70.29C 4.08544 72.6654 7.30726 74 10.6667 74L 10.6667 70ZM 4.53841 67.4616C 2.91309 65.8362 2 63.6318 2 61.3333L -2 61.3333C -2 64.6927 -0.66548 67.9145 1.70998 70.29L 4.53841 67.4616ZM 2 61.3333L 2 10.6666L -2 10.6666L -2 61.3333L 2 61.3333ZM 53.3333 -2L 10.6667 -2L 10.6667 2L 53.3333 2L 53.3333 -2ZM 10.6667 -2C 7.30726 -2 4.08544 -0.66548 1.70998 1.70998L 4.53841 4.53841C 6.16372 2.91309 8.36812 2 10.6667 2L 10.6667 -2ZM 1.70998 1.70998C -0.665476 4.08544 -2 7.30723 -2 10.6666L 2 10.6666C 2 8.3681 2.91309 6.16373 4.53841 4.53841L 1.70998 1.70998ZM -2 10.6666C -2 14.026 -0.665483 17.2479 1.70998 19.6234L 4.53841 16.7949C 2.9131 15.1696 2 12.9652 2 10.6666L -2 10.6666ZM 1.70998 19.6234C 4.08544 21.9988 7.30726 23.3333 10.6667 23.3333L 10.6667 19.3333C 8.36812 19.3333 6.16372 18.4202 4.53841 16.7949L 1.70998 19.6234ZM 10.6667 23.3333L 53.3333 23.3333L 53.3333 19.3333L 10.6667 19.3333L 10.6667 23.3333ZM 51.3333 21.3333L 51.3333 54.6667L 55.3333 54.6667L 55.3333 21.3333L 51.3333 21.3333ZM 69.2558 35.9157L 41.5225 63.5157L 44.3441 66.351L 72.0775 38.7509L 69.2558 35.9157ZM 41.0696 64.2076L 35.2029 79.2743L 38.9303 80.7257L 44.797 65.659L 41.0696 64.2076ZM 37.7725 81.8713L 52.9725 76.138L 51.5608 72.3954L 36.3608 78.1287L 37.7725 81.8713ZM 53.6775 75.6843L 81.4108 48.0843L 78.5892 45.249L 50.8559 72.849L 53.6775 75.6843ZM 81.4142 45.2525L 72.0809 35.9191L 69.2524 38.7475L 78.5858 48.0809L 81.4142 45.2525ZM 41.5191 66.3475L 50.8524 75.6809L 53.6809 72.8525L 44.3475 63.5191L 41.5191 66.3475Z"/>
</defs>
</svg>
