<svg width="159" height="195" viewBox="0 0 159 195" version="1.1" xmlns="http://www.w3.org/2000/svg" xmlns:xlink="http://www.w3.org/1999/xlink">
<title>establishment-good</title>
<desc>Created using Figma</desc>
<g id="Canvas" transform="translate(267 -2239)">
<g id="establishment-good">
<g id="marker">
<use xlink:href="#path0_fill" transform="translate(-265 2241)" fill="#0CCE6B"/>
<use xlink:href="#path1_stroke" transform="translate(-265 2241)" fill="#FFFFFF"/>
</g>
<g id="icon">
<use xlink:href="#path2_stroke" transform="translate(-234 2283)" fill="#FFFFFF"/>
</g>
</g>
</g>
<defs>
<path id="path0_fill" d="M 154.184 84.6949C 154.505 82.1186 154.505 79.8644 154.505 77.2881C 154.505 56.79 146.366 37.1315 131.879 22.6372C 117.391 8.14283 97.7414 8.58071e-15 77.2527 -4.29035e-15C 56.764 1.00108e-14 37.1145 8.14283 22.6268 22.6372C 8.13911 37.1315 3.43071e-14 56.79 1.14357e-14 77.2881C 2.28714e-14 79.8644 1.2231e-06 82.4407 0.321888 84.6949L 0.321888 85.661C 6.75962 146.847 77.2527 190 77.2527 190C 77.2527 190 147.746 146.203 153.862 85.9831L 154.184 84.6949Z"/>
<path id="path1_stroke" d="M 154.184 84.6949L 156.124 85.1798L 156.153 85.0627L 156.168 84.9429L 154.184 84.6949ZM 77.2527 -4.29035e-15L 77.2527 -2L 77.2527 -4.29035e-15ZM 1.14357e-14 77.2881L -2 77.2881L 1.14357e-14 77.2881ZM 0.321888 84.6949L 2.32189 84.6949L 2.32189 84.5528L 2.3018 84.4122L 0.321888 84.6949ZM 0.321888 85.661L -1.67811 85.661L -1.67811 85.7659L -1.66713 85.8703L 0.321888 85.661ZM 77.2527 190L 76.2086 191.706L 77.2605 192.35L 78.3082 191.699L 77.2527 190ZM 153.862 85.9831L 151.921 85.4982L 151.886 85.6378L 151.872 85.781L 153.862 85.9831ZM 156.168 84.9429C 156.502 82.2429 156.505 79.8644 156.505 77.2881L 152.505 77.2881C 152.505 79.8644 152.509 81.9944 152.199 84.447L 156.168 84.9429ZM 156.505 77.2881C 156.505 56.2599 148.156 36.0928 133.293 21.2233L 130.464 24.0511C 144.577 38.1703 152.505 57.3202 152.505 77.2881L 156.505 77.2881ZM 133.293 21.2233C 118.431 6.35377 98.2722 -2 77.2527 -2L 77.2527 2C 97.2107 2 116.351 9.9319 130.464 24.0511L 133.293 21.2233ZM 77.2527 -2C 56.2333 -2 36.075 6.35377 21.2123 21.2233L 24.0413 24.0511C 38.154 9.9319 57.2948 2 77.2527 2L 77.2527 -2ZM 21.2123 21.2233C 6.3496 36.0928 -2 56.2599 -2 77.2881L 2 77.2881C 2 57.3202 9.92862 38.1703 24.0413 24.0511L 21.2123 21.2233ZM -2 77.2881C -2 79.8644 -1.99497 82.5824 -1.65803 84.9776L 2.3018 84.4122C 1.99497 82.299 2 79.8644 2 77.2881L -2 77.2881ZM -1.67811 84.6949L -1.67811 85.661L 2.32189 85.661L 2.32189 84.6949L -1.67811 84.6949ZM -1.66713 85.8703C 1.62309 117.142 21.2403 143.634 39.7869 162.189C 49.0766 171.479 58.2006 178.879 64.9423 183.905C 68.325 186.426 71.1451 188.38 73.0982 189.688C 74.0804 190.346 74.8587 190.851 75.3824 191.186C 75.647 191.355 75.8537 191.485 75.9901 191.57C 76.0596 191.614 76.1142 191.648 76.1495 191.669C 76.1678 191.681 76.1825 191.69 76.1918 191.695C 76.1967 191.698 76.2009 191.701 76.2034 191.703C 76.2048 191.703 76.2061 191.704 76.2068 191.705C 76.2078 191.705 76.2086 191.706 77.2527 190C 78.2969 188.294 78.2972 188.294 78.2971 188.294C 78.2967 188.294 78.2964 188.294 78.2957 188.293C 78.2939 188.292 78.2917 188.291 78.2881 188.289C 78.2802 188.284 78.2694 188.277 78.2538 188.268C 78.2212 188.247 78.1747 188.219 78.1106 188.179C 77.9798 188.097 77.7899 187.977 77.5366 187.815C 77.0245 187.488 76.2821 187.006 75.3242 186.365C 73.397 185.074 70.6595 183.178 67.333 180.698C 60.6559 175.721 51.7543 168.508 42.616 159.362C 24.3067 141.044 5.45841 115.367 2.31091 85.4517L -1.66713 85.8703ZM 77.2527 190C 78.3082 191.699 78.309 191.698 78.31 191.698C 78.3107 191.697 78.312 191.696 78.3133 191.696C 78.3158 191.694 78.32 191.691 78.3249 191.688C 78.3341 191.683 78.3488 191.673 78.3671 191.662C 78.4023 191.64 78.4568 191.606 78.5263 191.562C 78.6625 191.475 78.869 191.343 79.1334 191.172C 79.6569 190.833 80.4346 190.321 81.4162 189.656C 83.3683 188.332 86.1861 186.357 89.5657 183.814C 96.3016 178.743 105.413 171.294 114.681 161.985C 133.181 143.396 152.724 116.981 155.851 86.1851L 151.872 85.781C 148.884 115.206 130.122 140.799 111.846 159.163C 102.727 168.331 93.8327 175.595 87.16 180.618C 83.8353 183.121 81.0981 185.039 79.1712 186.345C 78.2133 186.995 77.4706 187.483 76.9584 187.815C 76.705 187.979 76.5149 188.101 76.384 188.184C 76.3199 188.224 76.2733 188.254 76.2407 188.274C 76.225 188.284 76.2142 188.291 76.2063 188.296C 76.2027 188.298 76.2004 188.299 76.1986 188.3C 76.1978 188.301 76.1975 188.301 76.1971 188.301C 76.1971 188.301 76.1973 188.301 77.2527 190ZM 155.802 86.4679L 156.124 85.1798L 152.243 84.21L 151.921 85.4982L 155.802 86.4679Z"/>
<path id="path2_stroke" d="M 52.4166 46.1538L 52.4166 44.1538L 50.4166 44.1538L 50.4166 46.1538L 52.4166 46.1538ZM 70.9166 46.1538L 72.9166 46.1538L 72.9166 44.1538L 70.9166 44.1538L 70.9166 46.1538ZM 70.9166 80L 70.9166 82L 72.9166 82L 72.9166 80L 70.9166 80ZM 52.4166 80L 50.4166 80L 50.4166 82L 52.4166 82L 52.4166 80ZM 85.25 36.9231C 85.25 35.8185 84.3545 34.9231 83.25 34.9231C 82.1454 34.9231 81.25 35.8185 81.25 36.9231L 85.25 36.9231ZM 83.25 80L 83.25 82L 85.25 82L 85.25 80L 83.25 80ZM 9.25 80L 7.25 80L 7.25 82L 9.25 82L 9.25 80ZM 11.25 36.9231C 11.25 35.8185 10.3546 34.9231 9.25 34.9231C 8.14543 34.9231 7.25 35.8185 7.25 36.9231L 11.25 36.9231ZM 21.5833 46.1538L 21.5833 44.1538L 19.5833 44.1538L 19.5833 46.1538L 21.5833 46.1538ZM 43.1666 46.1538L 45.1666 46.1538L 45.1666 44.1538L 43.1666 44.1538L 43.1666 46.1538ZM 43.1666 64.6154L 43.1666 66.6154L 45.1666 66.6154L 45.1666 64.6154L 43.1666 64.6154ZM 21.5833 64.6154L 19.5833 64.6154L 19.5833 66.6154L 21.5833 66.6154L 21.5833 64.6154ZM 78.0083 0L 79.7452 -0.991564L 79.1695 -2L 78.0083 -2L 78.0083 0ZM 14.4917 0L 14.4917 -2L 13.3305 -2L 12.7548 -0.991564L 14.4917 0ZM 0 25.3846L -1.73689 24.393L -2 24.8539L -2 25.3846L 0 25.3846ZM 23.125 25.3846L 21.2113 24.8035L 21.125 25.0876L 21.125 25.3846L 23.125 25.3846ZM 69.375 25.3846L 71.375 25.3846L 71.375 25.0876L 71.2887 24.8035L 69.375 25.3846ZM 92.5 25.3846L 94.5 25.3846L 94.5 24.8539L 94.2368 24.393L 92.5 25.3846ZM 0 22.6154C -1.10457 22.6154 -2 23.5108 -2 24.6154C -2 25.7199 -1.10457 26.6154 0 26.6154L 0 22.6154ZM 92.5 26.6154C 93.6045 26.6154 94.5 25.7199 94.5 24.6154C 94.5 23.5108 93.6045 22.6154 92.5 22.6154L 92.5 26.6154ZM 48.25 0C 48.25 -1.10457 47.3545 -2 46.25 -2C 45.1454 -2 44.25 -1.10457 44.25 0L 48.25 0ZM 32.747 0.581121C 33.068 -0.475793 32.4714 -1.59277 31.4144 -1.91371C 30.3575 -2.23466 29.2405 -1.63804 28.9196 -0.581121L 32.747 0.581121ZM 63.5803 -0.581121C 63.2594 -1.63804 62.1424 -2.23466 61.0855 -1.91371C 60.0286 -1.59277 59.432 -0.475793 59.7529 0.581121L 63.5803 -0.581121ZM 52.4166 48.1538L 70.9166 48.1538L 70.9166 44.1538L 52.4166 44.1538L 52.4166 48.1538ZM 68.9166 46.1538L 68.9166 80L 72.9166 80L 72.9166 46.1538L 68.9166 46.1538ZM 70.9166 78L 52.4166 78L 52.4166 82L 70.9166 82L 70.9166 78ZM 54.4166 80L 54.4166 46.1538L 50.4166 46.1538L 50.4166 80L 54.4166 80ZM 81.25 36.9231L 81.25 80L 85.25 80L 85.25 36.9231L 81.25 36.9231ZM 83.25 78L 9.25 78L 9.25 82L 83.25 82L 83.25 78ZM 11.25 80L 11.25 36.9231L 7.25 36.9231L 7.25 80L 11.25 80ZM 21.5833 48.1538L 43.1666 48.1538L 43.1666 44.1538L 21.5833 44.1538L 21.5833 48.1538ZM 41.1666 46.1538L 41.1666 64.6154L 45.1666 64.6154L 45.1666 46.1538L 41.1666 46.1538ZM 43.1666 62.6154L 21.5833 62.6154L 21.5833 66.6154L 43.1666 66.6154L 43.1666 62.6154ZM 23.5833 64.6154L 23.5833 46.1538L 19.5833 46.1538L 19.5833 64.6154L 23.5833 64.6154ZM 78.0083 -2L 14.4917 -2L 14.4917 2L 78.0083 2L 78.0083 -2ZM 12.7548 -0.991564L -1.73689 24.393L 1.73689 26.3762L 16.2286 0.991564L 12.7548 -0.991564ZM -2 25.3846C -2 28.9766 -0.570085 32.4206 1.97383 34.9592L 4.79932 32.1278C 3.00646 30.3387 2 27.913 2 25.3846L -2 25.3846ZM 1.97383 34.9592C 4.51761 37.4977 7.96684 38.9231 11.5625 38.9231L 11.5625 34.9231C 9.02502 34.9231 6.59231 33.9171 4.79932 32.1278L 1.97383 34.9592ZM 11.5625 38.9231C 15.1582 38.9231 18.6074 37.4977 21.1512 34.9592L 18.3257 32.1278C 16.5327 33.9171 14.1 34.9231 11.5625 34.9231L 11.5625 38.9231ZM 21.1512 34.9592C 23.6951 32.4206 25.125 28.9766 25.125 25.3846L 21.125 25.3846C 21.125 27.913 20.1185 30.3387 18.3257 32.1278L 21.1512 34.9592ZM 21.125 25.3846C 21.125 28.9766 22.5549 32.4206 25.0988 34.9592L 27.9243 32.1278C 26.1314 30.3387 25.125 27.913 25.125 25.3846L 21.125 25.3846ZM 25.0988 34.9592C 27.6426 37.4977 31.0918 38.9231 34.6875 38.9231L 34.6875 34.9231C 32.15 34.9231 29.7173 33.9171 27.9243 32.1278L 25.0988 34.9592ZM 34.6875 38.9231C 38.2831 38.9231 41.7324 37.4977 44.2761 34.9592L 41.4507 32.1278C 39.6577 33.9171 37.225 34.9231 34.6875 34.9231L 34.6875 38.9231ZM 44.2761 34.9592C 46.8201 32.4206 48.25 28.9766 48.25 25.3846L 44.25 25.3846C 44.25 27.913 43.2435 30.3387 41.4507 32.1278L 44.2761 34.9592ZM 44.25 25.3846C 44.25 28.9766 45.6799 32.4206 48.2238 34.9592L 51.0493 32.1278C 49.2564 30.3387 48.25 27.913 48.25 25.3846L 44.25 25.3846ZM 48.2238 34.9592C 50.7676 37.4977 54.2168 38.9231 57.8125 38.9231L 57.8125 34.9231C 55.275 34.9231 52.8423 33.9171 51.0493 32.1278L 48.2238 34.9592ZM 57.8125 38.9231C 61.4081 38.9231 64.8574 37.4977 67.4011 34.9592L 64.5757 32.1278C 62.7827 33.9171 60.3499 34.9231 57.8125 34.9231L 57.8125 38.9231ZM 67.4011 34.9592C 69.9451 32.4206 71.375 28.9766 71.375 25.3846L 67.375 25.3846C 67.375 27.913 66.3685 30.3387 64.5757 32.1278L 67.4011 34.9592ZM 67.375 25.3846C 67.375 28.9766 68.8049 32.4206 71.3488 34.9592L 74.1743 32.1278C 72.3814 30.3387 71.375 27.913 71.375 25.3846L 67.375 25.3846ZM 71.3488 34.9592C 73.8926 37.4977 77.3418 38.9231 80.9375 38.9231L 80.9375 34.9231C 78.4 34.9231 75.9673 33.9171 74.1743 32.1278L 71.3488 34.9592ZM 80.9375 38.9231C 84.5331 38.9231 87.9823 37.4977 90.5261 34.9592L 87.7006 32.1278C 85.9076 33.9171 83.4749 34.9231 80.9375 34.9231L 80.9375 38.9231ZM 90.5261 34.9592C 93.07 32.4206 94.5 28.9766 94.5 25.3846L 90.5 25.3846C 90.5 27.913 89.4935 30.3387 87.7006 32.1278L 90.5261 34.9592ZM 94.2368 24.393L 79.7452 -0.991564L 76.2714 0.991564L 90.7631 26.3762L 94.2368 24.393ZM 0 26.6154L 92.5 26.6154L 92.5 22.6154L 0 22.6154L 0 26.6154ZM 44.25 0L 44.25 25.3846L 48.25 25.3846L 48.25 0L 44.25 0ZM 25.0387 25.9657L 32.747 0.581121L 28.9196 -0.581121L 21.2113 24.8035L 25.0387 25.9657ZM 71.2887 24.8035L 63.5803 -0.581121L 59.7529 0.581121L 67.4613 25.9657L 71.2887 24.8035Z"/>
</defs>
</svg>
