<svg width="159" height="195" viewBox="0 0 159 195" version="1.1" xmlns="http://www.w3.org/2000/svg" xmlns:xlink="http://www.w3.org/1999/xlink">
<title>money-good</title>
<desc>Created using Figma</desc>
<g id="Canvas" transform="translate(267 -1537)">
<g id="money-good">
<g id="marker">
<use xlink:href="#path0_fill" transform="translate(-265 1539)" fill="#0CCE6B"/>
<use xlink:href="#path1_stroke" transform="translate(-265 1539)" fill="#FFFFFF"/>
</g>
<g id="icon">
<use xlink:href="#path2_stroke" transform="translate(-238 1581)" fill="#FFFFFF"/>
</g>
</g>
</g>
<defs>
<path id="path0_fill" d="M 154.184 84.6949C 154.505 82.1186 154.505 79.8644 154.505 77.2881C 154.505 56.79 146.366 37.1315 131.879 22.6372C 117.391 8.14283 97.7414 8.58071e-15 77.2527 -4.29035e-15C 56.764 1.00108e-14 37.1145 8.14283 22.6268 22.6372C 8.13911 37.1315 3.43071e-14 56.79 1.14357e-14 77.2881C 2.28714e-14 79.8644 1.2231e-06 82.4407 0.321888 84.6949L 0.321888 85.661C 6.75962 146.847 77.2527 190 77.2527 190C 77.2527 190 147.746 146.203 153.862 85.9831L 154.184 84.6949Z"/>
<path id="path1_stroke" d="M 154.184 84.6949L 156.124 85.1798L 156.153 85.0627L 156.168 84.9429L 154.184 84.6949ZM 77.2527 -4.29035e-15L 77.2527 -2L 77.2527 -4.29035e-15ZM 1.14357e-14 77.2881L -2 77.2881L 1.14357e-14 77.2881ZM 0.321888 84.6949L 2.32189 84.6949L 2.32189 84.5528L 2.3018 84.4122L 0.321888 84.6949ZM 0.321888 85.661L -1.67811 85.661L -1.67811 85.7659L -1.66713 85.8703L 0.321888 85.661ZM 77.2527 190L 76.2086 191.706L 77.2605 192.35L 78.3082 191.699L 77.2527 190ZM 153.862 85.9831L 151.921 85.4982L 151.886 85.6378L 151.872 85.781L 153.862 85.9831ZM 156.168 84.9429C 156.502 82.2429 156.505 79.8644 156.505 77.2881L 152.505 77.2881C 152.505 79.8644 152.509 81.9944 152.199 84.447L 156.168 84.9429ZM 156.505 77.2881C 156.505 56.2599 148.156 36.0928 133.293 21.2233L 130.464 24.0511C 144.577 38.1703 152.505 57.3202 152.505 77.2881L 156.505 77.2881ZM 133.293 21.2233C 118.431 6.35377 98.2722 -2 77.2527 -2L 77.2527 2C 97.2107 2 116.351 9.9319 130.464 24.0511L 133.293 21.2233ZM 77.2527 -2C 56.2333 -2 36.075 6.35377 21.2123 21.2233L 24.0413 24.0511C 38.154 9.9319 57.2948 2 77.2527 2L 77.2527 -2ZM 21.2123 21.2233C 6.3496 36.0928 -2 56.2599 -2 77.2881L 2 77.2881C 2 57.3202 9.92862 38.1703 24.0413 24.0511L 21.2123 21.2233ZM -2 77.2881C -2 79.8644 -1.99497 82.5824 -1.65803 84.9776L 2.3018 84.4122C 1.99497 82.299 2 79.8644 2 77.2881L -2 77.2881ZM -1.67811 84.6949L -1.67811 85.661L 2.32189 85.661L 2.32189 84.6949L -1.67811 84.6949ZM -1.66713 85.8703C 1.62309 117.142 21.2403 143.634 39.7869 162.189C 49.0766 171.479 58.2006 178.879 64.9423 183.905C 68.325 186.426 71.1451 188.38 73.0982 189.688C 74.0804 190.346 74.8587 190.851 75.3824 191.186C 75.647 191.355 75.8537 191.485 75.9901 191.57C 76.0596 191.614 76.1142 191.648 76.1495 191.669C 76.1678 191.681 76.1825 191.69 76.1918 191.695C 76.1967 191.698 76.2009 191.701 76.2034 191.703C 76.2048 191.703 76.2061 191.704 76.2068 191.705C 76.2078 191.705 76.2086 191.706 77.2527 190C 78.2969 188.294 78.2972 188.294 78.2971 188.294C 78.2967 188.294 78.2964 188.294 78.2957 188.293C 78.2939 188.292 78.2917 188.291 78.2881 188.289C 78.2802 188.284 78.2694 188.277 78.2538 188.268C 78.2212 188.247 78.1747 188.219 78.1106 188.179C 77.9798 188.097 77.7899 187.977 77.5366 187.815C 77.0245 187.488 76.2821 187.006 75.3242 186.365C 73.397 185.074 70.6595 183.178 67.333 180.698C 60.6559 175.721 51.7543 168.508 42.616 159.362C 24.3067 141.044 5.45841 115.367 2.31091 85.4517L -1.66713 85.8703ZM 77.2527 190C 78.3082 191.699 78.309 191.698 78.31 191.698C 78.3107 191.697 78.312 191.696 78.3133 191.696C 78.3158 191.694 78.32 191.691 78.3249 191.688C 78.3341 191.683 78.3488 191.673 78.3671 191.662C 78.4023 191.64 78.4568 191.606 78.5263 191.562C 78.6625 191.475 78.869 191.343 79.1334 191.172C 79.6569 190.833 80.4346 190.321 81.4162 189.656C 83.3683 188.332 86.1861 186.357 89.5657 183.814C 96.3016 178.743 105.413 171.294 114.681 161.985C 133.181 143.396 152.724 116.981 155.851 86.1851L 151.872 85.781C 148.884 115.206 130.122 140.799 111.846 159.163C 102.727 168.331 93.8327 175.595 87.16 180.618C 83.8353 183.121 81.0981 185.039 79.1712 186.345C 78.2133 186.995 77.4706 187.483 76.9584 187.815C 76.705 187.979 76.5149 188.101 76.384 188.184C 76.3199 188.224 76.2733 188.254 76.2407 188.274C 76.225 188.284 76.2142 188.291 76.2063 188.296C 76.2027 188.298 76.2004 188.299 76.1986 188.3C 76.1978 188.301 76.1975 188.301 76.1971 188.301C 76.1971 188.301 76.1973 188.301 77.2527 190ZM 155.802 86.4679L 156.124 85.1798L 152.243 84.21L 151.921 85.4982L 155.802 86.4679Z"/>
<path id="path2_stroke" d="M 1.6688 0L 1.6688 -2L -0.331198 -2L -0.331198 0L 1.6688 0ZM 98.4586 0L 100.459 0L 100.459 -2L 98.4586 -2L 98.4586 0ZM 98.4586 53.3333L 98.4586 55.3333L 100.459 55.3333L 100.459 53.3333L 98.4586 53.3333ZM 1.6688 53.3333L -0.331198 53.3333L -0.331198 55.3333L 1.6688 55.3333L 1.6688 53.3333ZM 0 64.6667C -1.10457 64.6667 -2 65.5621 -2 66.6667C -2 67.7712 -1.10457 68.6667 0 68.6667L 0 64.6667ZM 100.127 68.6667C 101.232 68.6667 102.127 67.7712 102.127 66.6667C 102.127 65.5621 101.232 64.6667 100.127 64.6667L 100.127 68.6667ZM 0 78C -1.10457 78 -2 78.8954 -2 80C -2 81.1046 -1.10457 82 0 82L 0 78ZM 100.127 82C 101.232 82 102.127 81.1046 102.127 80C 102.127 78.8954 101.232 78 100.127 78L 100.127 82ZM 16.6879 11.3333C 15.5833 11.3333 14.6879 12.2287 14.6879 13.3333C 14.6879 14.4379 15.5833 15.3333 16.6879 15.3333L 16.6879 11.3333ZM 23.3631 15.3333C 24.4676 15.3333 25.3631 14.4379 25.3631 13.3333C 25.3631 12.2287 24.4676 11.3333 23.3631 11.3333L 23.3631 15.3333ZM 76.7643 38C 75.6597 38 74.7643 38.8954 74.7643 40C 74.7643 41.1045 75.6597 42 76.7643 42L 76.7643 38ZM 83.4395 42C 84.544 42 85.4395 41.1045 85.4395 40C 85.4395 38.8954 84.544 38 83.4395 38L 83.4395 42ZM 1.6688 2L 98.4586 2L 98.4586 -2L 1.6688 -2L 1.6688 2ZM 96.4586 0L 96.4586 53.3333L 100.459 53.3333L 100.459 0L 96.4586 0ZM 98.4586 51.3333L 1.6688 51.3333L 1.6688 55.3333L 98.4586 55.3333L 98.4586 51.3333ZM 3.6688 53.3333L 3.6688 0L -0.331198 0L -0.331198 53.3333L 3.6688 53.3333ZM 61.414 26.6666C 61.414 32.9235 56.3347 38 50.0637 38L 50.0637 42C 58.539 42 65.414 35.1374 65.414 26.6666L 61.414 26.6666ZM 50.0637 38C 43.7927 38 38.7134 32.9235 38.7134 26.6666L 34.7134 26.6666C 34.7134 35.1374 41.5883 42 50.0637 42L 50.0637 38ZM 38.7134 26.6666C 38.7134 20.4098 43.7927 15.3333 50.0637 15.3333L 50.0637 11.3333C 41.5883 11.3333 34.7134 18.1959 34.7134 26.6666L 38.7134 26.6666ZM 50.0637 15.3333C 56.3347 15.3333 61.414 20.4098 61.414 26.6666L 65.414 26.6666C 65.414 18.1959 58.539 11.3333 50.0637 11.3333L 50.0637 15.3333ZM 0 68.6667L 100.127 68.6667L 100.127 64.6667L 0 64.6667L 0 68.6667ZM 0 82L 100.127 82L 100.127 78L 0 78L 0 82ZM 16.6879 15.3333L 23.3631 15.3333L 23.3631 11.3333L 16.6879 11.3333L 16.6879 15.3333ZM 76.7643 42L 83.4395 42L 83.4395 38L 76.7643 38L 76.7643 42Z"/>
</defs>
</svg>
