<svg width="159" height="195" viewBox="0 0 159 195" version="1.1" xmlns="http://www.w3.org/2000/svg" xmlns:xlink="http://www.w3.org/1999/xlink">
<title>food-good</title>
<desc>Created using Figma</desc>
<g id="Canvas" transform="translate(267 335)">
<g id="food-good">
<g id="marker">
<use xlink:href="#path0_fill" transform="translate(-265 -333)" fill="#0CCE6B"/>
<use xlink:href="#path1_stroke" transform="translate(-265 -333)" fill="#FFFFFF"/>
</g>
<g id="icon">
<use xlink:href="#path2_stroke" transform="translate(-229 -291)" fill="#FFFFFF"/>
</g>
</g>
</g>
<defs>
<path id="path0_fill" d="M 154.184 84.6949C 154.505 82.1186 154.505 79.8644 154.505 77.2881C 154.505 56.79 146.366 37.1315 131.879 22.6372C 117.391 8.14283 97.7414 8.58071e-15 77.2527 -4.29035e-15C 56.764 1.00108e-14 37.1145 8.14283 22.6268 22.6372C 8.13911 37.1315 3.43071e-14 56.79 1.14357e-14 77.2881C 2.28714e-14 79.8644 1.2231e-06 82.4407 0.321888 84.6949L 0.321888 85.661C 6.75962 146.847 77.2527 190 77.2527 190C 77.2527 190 147.746 146.203 153.862 85.9831L 154.184 84.6949Z"/>
<path id="path1_stroke" d="M 154.184 84.6949L 156.124 85.1798L 156.153 85.0627L 156.168 84.9429L 154.184 84.6949ZM 77.2527 -4.29035e-15L 77.2527 -2L 77.2527 -4.29035e-15ZM 1.14357e-14 77.2881L -2 77.2881L 1.14357e-14 77.2881ZM 0.321888 84.6949L 2.32189 84.6949L 2.32189 84.5528L 2.3018 84.4122L 0.321888 84.6949ZM 0.321888 85.661L -1.67811 85.661L -1.67811 85.7659L -1.66713 85.8703L 0.321888 85.661ZM 77.2527 190L 76.2086 191.706L 77.2605 192.35L 78.3082 191.699L 77.2527 190ZM 153.862 85.9831L 151.921 85.4982L 151.886 85.6378L 151.872 85.781L 153.862 85.9831ZM 156.168 84.9429C 156.502 82.2429 156.505 79.8644 156.505 77.2881L 152.505 77.2881C 152.505 79.8644 152.509 81.9944 152.199 84.447L 156.168 84.9429ZM 156.505 77.2881C 156.505 56.2599 148.156 36.0928 133.293 21.2233L 130.464 24.0511C 144.577 38.1703 152.505 57.3202 152.505 77.2881L 156.505 77.2881ZM 133.293 21.2233C 118.431 6.35377 98.2722 -2 77.2527 -2L 77.2527 2C 97.2107 2 116.351 9.9319 130.464 24.0511L 133.293 21.2233ZM 77.2527 -2C 56.2333 -2 36.075 6.35377 21.2123 21.2233L 24.0413 24.0511C 38.154 9.9319 57.2948 2 77.2527 2L 77.2527 -2ZM 21.2123 21.2233C 6.3496 36.0928 -2 56.2599 -2 77.2881L 2 77.2881C 2 57.3202 9.92862 38.1703 24.0413 24.0511L 21.2123 21.2233ZM -2 77.2881C -2 79.8644 -1.99497 82.5824 -1.65803 84.9776L 2.3018 84.4122C 1.99497 82.299 2 79.8644 2 77.2881L -2 77.2881ZM -1.67811 84.6949L -1.67811 85.661L 2.32189 85.661L 2.32189 84.6949L -1.67811 84.6949ZM -1.66713 85.8703C 1.62309 117.142 21.2403 143.634 39.7869 162.189C 49.0766 171.479 58.2006 178.879 64.9423 183.905C 68.325 186.426 71.1451 188.38 73.0982 189.688C 74.0804 190.346 74.8587 190.851 75.3824 191.186C 75.647 191.355 75.8537 191.485 75.9901 191.57C 76.0596 191.614 76.1142 191.648 76.1495 191.669C 76.1678 191.681 76.1825 191.69 76.1918 191.695C 76.1967 191.698 76.2009 191.701 76.2034 191.703C 76.2048 191.703 76.2061 191.704 76.2068 191.705C 76.2078 191.705 76.2086 191.706 77.2527 190C 78.2969 188.294 78.2972 188.294 78.2971 188.294C 78.2967 188.294 78.2964 188.294 78.2957 188.293C 78.2939 188.292 78.2917 188.291 78.2881 188.289C 78.2802 188.284 78.2694 188.277 78.2538 188.268C 78.2212 188.247 78.1747 188.219 78.1106 188.179C 77.9798 188.097 77.7899 187.977 77.5366 187.815C 77.0245 187.488 76.2821 187.006 75.3242 186.365C 73.397 185.074 70.6595 183.178 67.333 180.698C 60.6559 175.721 51.7543 168.508 42.616 159.362C 24.3067 141.044 5.45841 115.367 2.31091 85.4517L -1.66713 85.8703ZM 77.2527 190C 78.3082 191.699 78.309 191.698 78.31 191.698C 78.3107 191.697 78.312 191.696 78.3133 191.696C 78.3158 191.694 78.32 191.691 78.3249 191.688C 78.3341 191.683 78.3488 191.673 78.3671 191.662C 78.4023 191.64 78.4568 191.606 78.5263 191.562C 78.6625 191.475 78.869 191.343 79.1334 191.172C 79.6569 190.833 80.4346 190.321 81.4162 189.656C 83.3683 188.332 86.1861 186.357 89.5657 183.814C 96.3016 178.743 105.413 171.294 114.681 161.985C 133.181 143.396 152.724 116.981 155.851 86.1851L 151.872 85.781C 148.884 115.206 130.122 140.799 111.846 159.163C 102.727 168.331 93.8327 175.595 87.16 180.618C 83.8353 183.121 81.0981 185.039 79.1712 186.345C 78.2133 186.995 77.4706 187.483 76.9584 187.815C 76.705 187.979 76.5149 188.101 76.384 188.184C 76.3199 188.224 76.2733 188.254 76.2407 188.274C 76.225 188.284 76.2142 188.291 76.2063 188.296C 76.2027 188.298 76.2004 188.299 76.1986 188.3C 76.1978 188.301 76.1975 188.301 76.1971 188.301C 76.1971 188.301 76.1973 188.301 77.2527 190ZM 155.802 86.4679L 156.124 85.1798L 152.243 84.21L 151.921 85.4982L 155.802 86.4679Z"/>
<path id="path2_stroke" d="M 21.1588 28.7832C 21.9371 29.567 23.2035 29.5713 23.9872 28.793C 24.7709 28.0146 24.7753 26.7483 23.997 25.9646L 21.1588 28.7832ZM 6.23754 8.08213C 5.45919 7.29839 4.19287 7.29402 3.40913 8.07236C 2.62539 8.85071 2.62102 10.117 3.39936 10.9008L 6.23754 8.08213ZM 10.9129 3.26215C 10.1315 2.48143 8.86516 2.48194 8.08444 3.26331C 7.30371 4.04468 7.30423 5.31101 8.08559 6.09174L 10.9129 3.26215ZM 25.9827 23.9742C 26.7641 24.7549 28.0304 24.7544 28.8111 23.973C 29.5918 23.1917 29.5913 21.9253 28.81 21.1446L 25.9827 23.9742ZM 50.1119 54.8854L 48.9576 53.2521L 47.0132 54.6263L 48.7024 56.3043L 50.1119 54.8854ZM 73.7911 78.4076L 75.2047 76.9928L 75.2006 76.9887L 73.7911 78.4076ZM 76.1315 79.3763L 76.1315 81.3763L 76.1315 79.3763ZM 78.4719 73.7307L 77.054 75.1412L 77.0583 75.1455L 78.4719 73.7307ZM 55.7563 50.8962L 57.1742 49.4857L 55.9823 48.2875L 54.602 49.2629L 55.7563 50.8962ZM 42.3654 40.3435C 43.1468 41.1242 44.4131 41.1237 45.1938 40.3423C 45.9746 39.561 45.9741 38.2946 45.1927 37.5139L 42.3654 40.3435ZM 38.8229 33.9766L 37.1593 32.8666L 36.2485 34.2316L 37.4093 35.3914L 38.8229 33.9766ZM 37.8592 21.1838L 39.2469 19.7436L 39.2224 19.7199L 39.197 19.6971L 37.8592 21.1838ZM 14.3177 0L 15.6555 -1.4867L 14.2525 -2.7492L 12.9109 -1.42161L 14.3177 0ZM 0 14.1684L -1.40678 12.7468L -2.76406 14.0899L -1.48518 15.5079L 0 14.1684ZM 21.3388 37.8282L 19.8537 39.1677L 19.8885 39.2063L 19.9252 39.243L 21.3388 37.8282ZM 34.1422 38.7912L 35.5558 37.3764L 34.3969 36.2184L 33.0334 37.1266L 34.1422 38.7912ZM 37.6846 45.158C 38.466 45.9387 39.7323 45.9382 40.5131 45.1568C 41.2938 44.3755 41.2933 43.1091 40.5119 42.3284L 37.6846 45.158ZM 8.67329 74.1434L 10.0414 75.6023L 10.0645 75.5806L 10.0869 75.5582L 8.67329 74.1434ZM 7.63031 76.5506L 9.63031 76.5506L 7.63031 76.5506ZM 8.67329 78.9579L 10.1311 77.5886L 10.0876 77.5424L 10.0414 77.499L 8.67329 78.9579ZM 13.4917 78.9579L 12.071 77.5502L 12.0522 77.5692L 12.034 77.5886L 13.4917 78.9579ZM 42.1711 52.8541C 42.9486 52.0695 42.9427 50.8031 42.1581 50.0257C 41.3734 49.2483 40.1071 49.2541 39.3297 50.0388L 42.1711 52.8541ZM 77.6458 5.08954L 79.0556 3.67093L 77.6396 2.26376L 76.2298 3.67709L 77.6458 5.08954ZM 82.5973 16.9882L 80.5973 16.9882L 82.5973 16.9882ZM 77.6458 28.8869L 76.236 27.4683L 76.2322 27.4722L 77.6458 28.8869ZM 53.8289 52.6843L 52.4153 51.2696L 52.4092 51.2756L 52.4032 51.2817L 53.8289 52.6843ZM 41.8516 52.6843L 40.4214 54.0824L 40.4259 54.087L 41.8516 52.6843ZM 23.997 25.9646L 6.23754 8.08213L 3.39936 10.9008L 21.1588 28.7832L 23.997 25.9646ZM 8.08559 6.09174L 25.9827 23.9742L 28.81 21.1446L 10.9129 3.26215L 8.08559 6.09174ZM 48.7024 56.3043L 72.3816 79.8265L 75.2006 76.9887L 51.5214 53.4664L 48.7024 56.3043ZM 72.3775 79.8224C 73.3734 80.8175 74.7238 81.3763 76.1315 81.3763L 76.1315 77.3763C 75.7836 77.3763 75.4503 77.2382 75.2047 76.9928L 72.3775 79.8224ZM 76.1315 81.3763C 77.5392 81.3763 78.8896 80.8175 79.8855 79.8224L 77.0583 76.9928C 76.8128 77.2382 76.4794 77.3763 76.1315 77.3763L 76.1315 81.3763ZM 79.8855 79.8224C 80.8815 78.8273 81.4413 77.4772 81.4413 76.0692L 77.4413 76.0692C 77.4413 76.4153 77.3037 76.7476 77.0583 76.9928L 79.8855 79.8224ZM 81.4413 76.0692C 81.4413 74.6611 80.8815 73.311 79.8855 72.3159L 77.0583 75.1455C 77.3037 75.3907 77.4413 75.723 77.4413 76.0692L 81.4413 76.0692ZM 79.8898 72.3202L 57.1742 49.4857L 54.3384 52.3067L 77.054 75.1412L 79.8898 72.3202ZM 54.602 49.2629L 48.9576 53.2521L 51.2662 56.5186L 56.9106 52.5295L 54.602 49.2629ZM 45.1927 37.5139L 40.2366 32.5619L 37.4093 35.3914L 42.3654 40.3435L 45.1927 37.5139ZM 40.4866 35.0867C 43.6546 30.3386 43.9462 24.2713 39.2469 19.7436L 36.4716 22.6241C 39.4818 25.5245 39.4981 29.3613 37.1593 32.8666L 40.4866 35.0867ZM 39.197 19.6971L 15.6555 -1.4867L 12.9799 1.4867L 36.5214 22.6705L 39.197 19.6971ZM 12.9109 -1.42161L -1.40678 12.7468L 1.40678 15.59L 15.7245 1.42161L 12.9109 -1.42161ZM -1.48518 15.5079L 19.8537 39.1677L 22.824 36.4888L 1.48518 12.8289L -1.48518 15.5079ZM 19.9252 39.243C 24.4219 43.736 30.459 43.6477 35.2509 40.4557L 33.0334 37.1266C 29.5651 39.4369 25.69 39.3486 22.7525 36.4135L 19.9252 39.243ZM 32.7285 40.2059L 37.6846 45.158L 40.5119 42.3284L 35.5558 37.3764L 32.7285 40.2059ZM 34.656 45.3547L 7.25966 72.7286L 10.0869 75.5582L 37.4833 48.1843L 34.656 45.3547ZM 7.30522 72.6845C 6.83434 73.1403 6.33716 73.8469 6.06709 74.4439L 9.7374 76.0342C 9.82611 75.8032 9.85376 75.7639 10.0414 75.6023L 7.30522 72.6845ZM 6.06709 74.4439C 5.81616 75.0494 5.64075 75.8954 5.63031 76.5506L 9.63031 76.5506C 9.61987 76.3035 9.62957 76.2568 9.7374 76.0342L 6.06709 74.4439ZM 5.63031 76.5506C 5.64075 77.2059 5.81616 78.0519 6.06709 78.6573L 9.7374 77.0671C 9.62957 76.8444 9.61987 76.7977 9.63031 76.5506L 5.63031 76.5506ZM 6.06709 78.6573C 6.33715 79.2544 6.83433 79.9609 7.30522 80.4168L 10.0414 77.499C 9.85376 77.3373 9.82612 77.2981 9.7374 77.0671L 6.06709 78.6573ZM 7.21552 80.3271C 7.67171 80.7976 8.37853 81.2942 8.97586 81.5639L 10.5639 77.8927C 10.3325 77.8039 10.2929 77.7761 10.1311 77.5886L 7.21552 80.3271ZM 8.97586 81.5639C 9.5814 81.8145 10.4272 81.9896 11.0825 82L 11.0825 78C 10.8347 78.0104 10.7871 78.0005 10.5639 77.8927L 8.97586 81.5639ZM 11.0825 82C 11.7378 81.9896 12.5836 81.8145 13.1892 81.5639L 11.6011 77.8927C 11.378 78.0005 11.3303 78.0104 11.0825 78L 11.0825 82ZM 13.1892 81.5639C 13.7865 81.2942 14.4933 80.7976 14.9495 80.3271L 12.034 77.5886C 11.8722 77.7761 11.8326 77.8039 11.6011 77.8927L 13.1892 81.5639ZM 14.9125 80.3655L 42.1711 52.8541L 39.3297 50.0388L 12.071 77.5502L 14.9125 80.3655ZM 37.4856 48.1819L 79.0618 6.50199L 76.2298 3.67709L 34.6536 45.357L 37.4856 48.1819ZM 76.236 6.50815C 77.6725 7.92211 78.6984 9.44946 79.4636 11.3135L 83.1566 9.77669C 82.2223 7.55674 80.7576 5.37601 79.0556 3.67093L 76.236 6.50815ZM 79.4636 11.3135C 80.2467 13.17 80.607 14.9736 80.5973 16.9882L 84.5973 16.9882C 84.5876 14.5799 84.073 12.0042 83.1566 9.77669L 79.4636 11.3135ZM 80.5973 16.9882C 80.607 19.0029 80.2467 20.8065 79.4636 22.663L 83.1566 24.1998C 84.073 21.9723 84.5876 19.3966 84.5973 16.9882L 80.5973 16.9882ZM 79.4636 22.663C 78.6984 24.527 77.6725 26.0544 76.236 27.4683L 79.0556 30.3056C 80.7576 28.6005 82.2223 26.4197 83.1566 24.1998L 79.4636 22.663ZM 76.2322 27.4722L 52.4153 51.2696L 55.2425 54.0991L 79.0594 30.3017L 76.2322 27.4722ZM 52.4032 51.2817C 51.7676 51.9417 51.1636 52.3506 50.3143 52.6957L 51.8597 56.3851C 53.0668 55.8688 54.327 55.0157 55.2545 54.087L 52.4032 51.2817ZM 50.3143 52.6957C 49.4726 53.0589 48.7571 53.2027 47.8402 53.1929L 47.8402 57.1929C 49.1531 57.183 50.6451 56.8832 51.8597 56.3851L 50.3143 52.6957ZM 47.8402 53.1929C 46.9234 53.2027 46.2079 53.0589 45.3662 52.6957L 43.8207 56.3851C 45.0354 56.8832 46.5274 57.183 47.8402 57.1929L 47.8402 53.1929ZM 45.3662 52.6957C 44.5169 52.3506 43.9129 51.9417 43.2773 51.2817L 40.4259 54.087C 41.3535 55.0157 42.6137 55.8688 43.8207 56.3851L 45.3662 52.6957ZM 43.2818 51.2863L 37.4998 45.3714L 34.6394 48.1675L 40.4214 54.0824L 43.2818 51.2863Z"/>
</defs>
</svg>
