<svg width="159" height="195" viewBox="0 0 159 195" version="1.1" xmlns="http://www.w3.org/2000/svg" xmlns:xlink="http://www.w3.org/1999/xlink">
<title>travel-good</title>
<desc>Created using Figma</desc>
<g id="Canvas" transform="translate(267 -601)">
<g id="travel-good">
<g id="marker">
<use xlink:href="#path0_fill" transform="translate(-265 603)" fill="#0CCE6B"/>
<use xlink:href="#path1_stroke" transform="translate(-265 603)" fill="#FFFFFF"/>
</g>
<g id="icon">
<use xlink:href="#path2_stroke" transform="translate(-234 645)" fill="#FFFFFF"/>
</g>
</g>
</g>
<defs>
<path id="path0_fill" d="M 154.184 84.6949C 154.505 82.1186 154.505 79.8644 154.505 77.2881C 154.505 56.79 146.366 37.1315 131.879 22.6372C 117.391 8.14283 97.7414 8.58071e-15 77.2527 -4.29035e-15C 56.764 1.00108e-14 37.1145 8.14283 22.6268 22.6372C 8.13911 37.1315 3.43071e-14 56.79 1.14357e-14 77.2881C 2.28714e-14 79.8644 1.2231e-06 82.4407 0.321888 84.6949L 0.321888 85.661C 6.75962 146.847 77.2527 190 77.2527 190C 77.2527 190 147.746 146.203 153.862 85.9831L 154.184 84.6949Z"/>
<path id="path1_stroke" d="M 154.184 84.6949L 156.124 85.1798L 156.153 85.0627L 156.168 84.9429L 154.184 84.6949ZM 77.2527 -4.29035e-15L 77.2527 -2L 77.2527 -4.29035e-15ZM 1.14357e-14 77.2881L -2 77.2881L 1.14357e-14 77.2881ZM 0.321888 84.6949L 2.32189 84.6949L 2.32189 84.5528L 2.3018 84.4122L 0.321888 84.6949ZM 0.321888 85.661L -1.67811 85.661L -1.67811 85.7659L -1.66713 85.8703L 0.321888 85.661ZM 77.2527 190L 76.2086 191.706L 77.2605 192.35L 78.3082 191.699L 77.2527 190ZM 153.862 85.9831L 151.921 85.4982L 151.886 85.6378L 151.872 85.781L 153.862 85.9831ZM 156.168 84.9429C 156.502 82.2429 156.505 79.8644 156.505 77.2881L 152.505 77.2881C 152.505 79.8644 152.509 81.9944 152.199 84.447L 156.168 84.9429ZM 156.505 77.2881C 156.505 56.2599 148.156 36.0928 133.293 21.2233L 130.464 24.0511C 144.577 38.1703 152.505 57.3202 152.505 77.2881L 156.505 77.2881ZM 133.293 21.2233C 118.431 6.35377 98.2722 -2 77.2527 -2L 77.2527 2C 97.2107 2 116.351 9.9319 130.464 24.0511L 133.293 21.2233ZM 77.2527 -2C 56.2333 -2 36.075 6.35377 21.2123 21.2233L 24.0413 24.0511C 38.154 9.9319 57.2948 2 77.2527 2L 77.2527 -2ZM 21.2123 21.2233C 6.3496 36.0928 -2 56.2599 -2 77.2881L 2 77.2881C 2 57.3202 9.92862 38.1703 24.0413 24.0511L 21.2123 21.2233ZM -2 77.2881C -2 79.8644 -1.99497 82.5824 -1.65803 84.9776L 2.3018 84.4122C 1.99497 82.299 2 79.8644 2 77.2881L -2 77.2881ZM -1.67811 84.6949L -1.67811 85.661L 2.32189 85.661L 2.32189 84.6949L -1.67811 84.6949ZM -1.66713 85.8703C 1.62309 117.142 21.2403 143.634 39.7869 162.189C 49.0766 171.479 58.2006 178.879 64.9423 183.905C 68.325 186.426 71.1451 188.38 73.0982 189.688C 74.0804 190.346 74.8587 190.851 75.3824 191.186C 75.647 191.355 75.8537 191.485 75.9901 191.57C 76.0596 191.614 76.1142 191.648 76.1495 191.669C 76.1678 191.681 76.1825 191.69 76.1918 191.695C 76.1967 191.698 76.2009 191.701 76.2034 191.703C 76.2048 191.703 76.2061 191.704 76.2068 191.705C 76.2078 191.705 76.2086 191.706 77.2527 190C 78.2969 188.294 78.2972 188.294 78.2971 188.294C 78.2967 188.294 78.2964 188.294 78.2957 188.293C 78.2939 188.292 78.2917 188.291 78.2881 188.289C 78.2802 188.284 78.2694 188.277 78.2538 188.268C 78.2212 188.247 78.1747 188.219 78.1106 188.179C 77.9798 188.097 77.7899 187.977 77.5366 187.815C 77.0245 187.488 76.2821 187.006 75.3242 186.365C 73.397 185.074 70.6595 183.178 67.333 180.698C 60.6559 175.721 51.7543 168.508 42.616 159.362C 24.3067 141.044 5.45841 115.367 2.31091 85.4517L -1.66713 85.8703ZM 77.2527 190C 78.3082 191.699 78.309 191.698 78.31 191.698C 78.3107 191.697 78.312 191.696 78.3133 191.696C 78.3158 191.694 78.32 191.691 78.3249 191.688C 78.3341 191.683 78.3488 191.673 78.3671 191.662C 78.4023 191.64 78.4568 191.606 78.5263 191.562C 78.6625 191.475 78.869 191.343 79.1334 191.172C 79.6569 190.833 80.4346 190.321 81.4162 189.656C 83.3683 188.332 86.1861 186.357 89.5657 183.814C 96.3016 178.743 105.413 171.294 114.681 161.985C 133.181 143.396 152.724 116.981 155.851 86.1851L 151.872 85.781C 148.884 115.206 130.122 140.799 111.846 159.163C 102.727 168.331 93.8327 175.595 87.16 180.618C 83.8353 183.121 81.0981 185.039 79.1712 186.345C 78.2133 186.995 77.4706 187.483 76.9584 187.815C 76.705 187.979 76.5149 188.101 76.384 188.184C 76.3199 188.224 76.2733 188.254 76.2407 188.274C 76.225 188.284 76.2142 188.291 76.2063 188.296C 76.2027 188.298 76.2004 188.299 76.1986 188.3C 76.1978 188.301 76.1975 188.301 76.1971 188.301C 76.1971 188.301 76.1973 188.301 77.2527 190ZM 155.802 86.4679L 156.124 85.1798L 152.243 84.21L 151.921 85.4982L 155.802 86.4679Z"/>
<path id="path2_stroke" d="M 40.0734 46.1539L 40.0734 48.1539L 42.0734 48.1539L 42.0734 46.1539L 40.0734 46.1539ZM 27.7431 46.1539L 25.7431 46.1539L 25.7431 48.1539L 27.7431 48.1539L 27.7431 46.1539ZM 27.7431 27.6923L 26.3302 26.2768L 25.7431 26.8628L 25.7431 27.6923L 27.7431 27.6923ZM 40.0734 27.6923L 42.0734 27.6923L 42.0734 26.8628L 41.4863 26.2768L 40.0734 27.6923ZM 13.4128 80C 13.4128 81.1046 14.3083 82 15.4128 82C 16.5174 82 17.4128 81.1046 17.4128 80L 13.4128 80ZM 75.0642 80C 75.0642 81.1046 75.9596 82 77.0642 82C 78.1688 82 79.0642 81.1046 79.0642 80L 75.0642 80ZM 38.5321 0L 38.5321 -2L 38.5321 0ZM 58.5688 12.3077L 58.5688 14.3077L 60.5688 14.3077L 60.5688 12.3077L 58.5688 12.3077ZM 17.4128 12.3077C 17.4128 11.2031 16.5174 10.3077 15.4128 10.3077C 14.3083 10.3077 13.4128 11.2031 13.4128 12.3077L 17.4128 12.3077ZM 79.0642 12.3077C 79.0642 11.2031 78.1688 10.3077 77.0642 10.3077C 75.9596 10.3077 75.0642 11.2031 75.0642 12.3077L 79.0642 12.3077ZM 40.0734 44.1539L 27.7431 44.1539L 27.7431 48.1539L 40.0734 48.1539L 40.0734 44.1539ZM 29.7431 46.1539L 29.7431 27.6923L 25.7431 27.6923L 25.7431 46.1539L 29.7431 46.1539ZM 29.156 29.1078L 35.3212 22.954L 32.4953 20.123L 26.3302 26.2768L 29.156 29.1078ZM 32.4953 22.954L 38.6605 29.1078L 41.4863 26.2768L 35.3212 20.123L 32.4953 22.954ZM 38.0734 27.6923L 38.0734 46.1539L 42.0734 46.1539L 42.0734 27.6923L 38.0734 27.6923ZM 35.9082 21.5385L 35.9082 12.3077L 31.9082 12.3077L 31.9082 21.5385L 35.9082 21.5385ZM 4.62385 14.3077L 87.8532 14.3077L 87.8532 10.3077L 4.62385 10.3077L 4.62385 14.3077ZM 87.8532 14.3077C 89.3057 14.3077 90.477 15.4821 90.477 16.9231L 94.477 16.9231C 94.477 13.2661 91.508 10.3077 87.8532 10.3077L 87.8532 14.3077ZM 90.477 16.9231L 90.477 69.2308L 94.477 69.2308L 94.477 16.9231L 90.477 16.9231ZM 90.477 69.2308C 90.477 70.6718 89.3057 71.8462 87.8532 71.8462L 87.8532 75.8462C 91.508 75.8462 94.477 72.8878 94.477 69.2308L 90.477 69.2308ZM 87.8532 71.8462L 4.62385 71.8462L 4.62385 75.8462L 87.8532 75.8462L 87.8532 71.8462ZM 4.62385 71.8462C 3.17128 71.8462 2 70.6718 2 69.2308L -2 69.2308C -2 72.8878 0.969058 75.8462 4.62385 75.8462L 4.62385 71.8462ZM 2 69.2308L 2 16.9231L -2 16.9231L -2 69.2308L 2 69.2308ZM 2 16.9231C 2 15.4821 3.17128 14.3077 4.62385 14.3077L 4.62385 10.3077C 0.969057 10.3077 -2 13.2661 -2 16.9231L 2 16.9231ZM 35.9082 12.3077L 35.9082 4.61538L 31.9082 4.61538L 31.9082 12.3077L 35.9082 12.3077ZM 35.9082 4.61538C 35.9082 3.92293 36.1838 3.25809 36.6755 2.76732L 33.8496 -0.0636955C 32.607 1.17664 31.9082 2.85969 31.9082 4.61538L 35.9082 4.61538ZM 36.6755 2.76732C 37.1672 2.27644 37.835 2 38.5321 2L 38.5321 -2C 36.7765 -2 35.0921 -1.30391 33.8496 -0.0636955L 36.6755 2.76732ZM 38.5321 2L 53.9449 2L 53.9449 -2L 38.5321 -2L 38.5321 2ZM 53.9449 2C 54.642 2 55.3098 2.27644 55.8016 2.76732L 58.6274 -0.0636955C 57.3849 -1.30391 55.7005 -2 53.9449 -2L 53.9449 2ZM 55.8016 2.76732C 56.2932 3.25809 56.5688 3.92293 56.5688 4.61538L 60.5688 4.61538C 60.5688 2.85969 59.87 1.17664 58.6274 -0.0636955L 55.8016 2.76732ZM 56.5688 4.61538L 56.5688 12.3077L 60.5688 12.3077L 60.5688 4.61538L 56.5688 4.61538ZM 58.5688 10.3077L 33.9082 10.3077L 33.9082 14.3077L 58.5688 14.3077L 58.5688 10.3077ZM 13.4128 12.3077L 13.4128 80L 17.4128 80L 17.4128 12.3077L 13.4128 12.3077ZM 75.0642 12.3077L 75.0642 80L 79.0642 80L 79.0642 12.3077L 75.0642 12.3077Z"/>
</defs>
</svg>
