<svg width="159" height="195" viewBox="0 0 159 195" version="1.1" xmlns="http://www.w3.org/2000/svg" xmlns:xlink="http://www.w3.org/1999/xlink">
<title>nightlife-good</title>
<desc>Created using Figma</desc>
<g id="Canvas" transform="translate(267 -2473)">
<g id="nightlife-good">
<g id="marker">
<use xlink:href="#path0_fill" transform="translate(-265 2475)" fill="#0CCE6B"/>
<use xlink:href="#path1_stroke" transform="translate(-265 2475)" fill="#FFFFFF"/>
</g>
<g id="icon">
<use xlink:href="#path2_stroke" transform="translate(-231 2517)" fill="#FFFFFF"/>
</g>
</g>
</g>
<defs>
<path id="path0_fill" d="M 154.184 84.6949C 154.505 82.1186 154.505 79.8644 154.505 77.2881C 154.505 56.79 146.366 37.1315 131.879 22.6372C 117.391 8.14283 97.7414 8.58071e-15 77.2527 -4.29035e-15C 56.764 1.00108e-14 37.1145 8.14283 22.6268 22.6372C 8.13911 37.1315 3.43071e-14 56.79 1.14357e-14 77.2881C 2.28714e-14 79.8644 1.2231e-06 82.4407 0.321888 84.6949L 0.321888 85.661C 6.75962 146.847 77.2527 190 77.2527 190C 77.2527 190 147.746 146.203 153.862 85.9831L 154.184 84.6949Z"/>
<path id="path1_stroke" d="M 154.184 84.6949L 156.124 85.1798L 156.153 85.0627L 156.168 84.9429L 154.184 84.6949ZM 77.2527 -4.29035e-15L 77.2527 -2L 77.2527 -4.29035e-15ZM 1.14357e-14 77.2881L -2 77.2881L 1.14357e-14 77.2881ZM 0.321888 84.6949L 2.32189 84.6949L 2.32189 84.5528L 2.3018 84.4122L 0.321888 84.6949ZM 0.321888 85.661L -1.67811 85.661L -1.67811 85.7659L -1.66713 85.8703L 0.321888 85.661ZM 77.2527 190L 76.2086 191.706L 77.2605 192.35L 78.3082 191.699L 77.2527 190ZM 153.862 85.9831L 151.921 85.4982L 151.886 85.6378L 151.872 85.781L 153.862 85.9831ZM 156.168 84.9429C 156.502 82.2429 156.505 79.8644 156.505 77.2881L 152.505 77.2881C 152.505 79.8644 152.509 81.9944 152.199 84.447L 156.168 84.9429ZM 156.505 77.2881C 156.505 56.2599 148.156 36.0928 133.293 21.2233L 130.464 24.0511C 144.577 38.1703 152.505 57.3202 152.505 77.2881L 156.505 77.2881ZM 133.293 21.2233C 118.431 6.35377 98.2722 -2 77.2527 -2L 77.2527 2C 97.2107 2 116.351 9.9319 130.464 24.0511L 133.293 21.2233ZM 77.2527 -2C 56.2333 -2 36.075 6.35377 21.2123 21.2233L 24.0413 24.0511C 38.154 9.9319 57.2948 2 77.2527 2L 77.2527 -2ZM 21.2123 21.2233C 6.3496 36.0928 -2 56.2599 -2 77.2881L 2 77.2881C 2 57.3202 9.92862 38.1703 24.0413 24.0511L 21.2123 21.2233ZM -2 77.2881C -2 79.8644 -1.99497 82.5824 -1.65803 84.9776L 2.3018 84.4122C 1.99497 82.299 2 79.8644 2 77.2881L -2 77.2881ZM -1.67811 84.6949L -1.67811 85.661L 2.32189 85.661L 2.32189 84.6949L -1.67811 84.6949ZM -1.66713 85.8703C 1.62309 117.142 21.2403 143.634 39.7869 162.189C 49.0766 171.479 58.2006 178.879 64.9423 183.905C 68.325 186.426 71.1451 188.38 73.0982 189.688C 74.0804 190.346 74.8587 190.851 75.3824 191.186C 75.647 191.355 75.8537 191.485 75.9901 191.57C 76.0596 191.614 76.1142 191.648 76.1495 191.669C 76.1678 191.681 76.1825 191.69 76.1918 191.695C 76.1967 191.698 76.2009 191.701 76.2034 191.703C 76.2048 191.703 76.2061 191.704 76.2068 191.705C 76.2078 191.705 76.2086 191.706 77.2527 190C 78.2969 188.294 78.2972 188.294 78.2971 188.294C 78.2967 188.294 78.2964 188.294 78.2957 188.293C 78.2939 188.292 78.2917 188.291 78.2881 188.289C 78.2802 188.284 78.2694 188.277 78.2538 188.268C 78.2212 188.247 78.1747 188.219 78.1106 188.179C 77.9798 188.097 77.7899 187.977 77.5366 187.815C 77.0245 187.488 76.2821 187.006 75.3242 186.365C 73.397 185.074 70.6595 183.178 67.333 180.698C 60.6559 175.721 51.7543 168.508 42.616 159.362C 24.3067 141.044 5.45841 115.367 2.31091 85.4517L -1.66713 85.8703ZM 77.2527 190C 78.3082 191.699 78.309 191.698 78.31 191.698C 78.3107 191.697 78.312 191.696 78.3133 191.696C 78.3158 191.694 78.32 191.691 78.3249 191.688C 78.3341 191.683 78.3488 191.673 78.3671 191.662C 78.4023 191.64 78.4568 191.606 78.5263 191.562C 78.6625 191.475 78.869 191.343 79.1334 191.172C 79.6569 190.833 80.4346 190.321 81.4162 189.656C 83.3683 188.332 86.1861 186.357 89.5657 183.814C 96.3016 178.743 105.413 171.294 114.681 161.985C 133.181 143.396 152.724 116.981 155.851 86.1851L 151.872 85.781C 148.884 115.206 130.122 140.799 111.846 159.163C 102.727 168.331 93.8327 175.595 87.16 180.618C 83.8353 183.121 81.0981 185.039 79.1712 186.345C 78.2133 186.995 77.4706 187.483 76.9584 187.815C 76.705 187.979 76.5149 188.101 76.384 188.184C 76.3199 188.224 76.2733 188.254 76.2407 188.274C 76.225 188.284 76.2142 188.291 76.2063 188.296C 76.2027 188.298 76.2004 188.299 76.1986 188.3C 76.1978 188.301 76.1975 188.301 76.1971 188.301C 76.1971 188.301 76.1973 188.301 77.2527 190ZM 155.802 86.4679L 156.124 85.1798L 152.243 84.21L 151.921 85.4982L 155.802 86.4679Z"/>
<path id="path2_stroke" d="M 40.9132 80C 40.9132 81.1046 41.8086 82 42.9132 82C 44.0177 82 44.9132 81.1046 44.9132 80L 40.9132 80ZM 27.502 78C 26.3974 78 25.502 78.8954 25.502 80C 25.502 81.1046 26.3974 82 27.502 82L 27.502 78ZM 58.3243 82C 59.4289 82 60.3243 81.1046 60.3243 80C 60.3243 78.8954 59.4289 78 58.3243 78L 58.3243 82ZM 59.9312 15.8541C 60.2048 16.9243 61.2941 17.57 62.3643 17.2964C 63.4344 17.0228 64.0801 15.9335 63.8065 14.8633L 59.9312 15.8541ZM 67.9372 20.793C 67.0284 20.1651 65.7828 20.3929 65.1549 21.3017C 64.5271 22.2105 64.7548 23.4561 65.6636 24.084L 67.9372 20.793ZM -0.0199773 -1.15883C -1.12449 -1.1478 -2.01093 -0.24347 -1.9999 0.861044C -1.98887 1.96556 -1.08454 2.852 0.0199773 2.84097L -0.0199773 -1.15883ZM 24.8427 15.8772C 25.1289 16.944 26.2258 17.5768 27.2927 17.2905C 28.3595 17.0042 28.9923 15.9073 28.706 14.8405L 24.8427 15.8772ZM 62.9477 26.1324L 64.361 27.5475L 64.361 27.5475L 62.9477 26.1324ZM 73.7355 15.3588L 75.1488 16.774L 78.5684 13.3588L 73.7355 13.3588L 73.7355 15.3588ZM 12.0908 15.3588L 12.0908 13.3588L 7.25788 13.3588L 10.6776 16.774L 12.0908 15.3588ZM 22.8787 26.1324L 21.4654 27.5475L 21.4654 27.5475L 22.8787 26.1324ZM 40.9132 46.1403L 40.9132 80L 44.9132 80L 44.9132 46.1403L 40.9132 46.1403ZM 27.502 82L 58.3243 82L 58.3243 78L 27.502 78L 27.502 82ZM 63.8065 14.8633C 63.1483 12.4109 63.3715 10.1431 64.4953 7.86554L 60.8874 6.1384C 59.5188 9.06737 59.1598 12.715 59.9312 15.8541L 63.8065 14.8633ZM 64.4953 7.86554C 65.5647 5.56162 67.1928 3.96327 69.5181 2.93449L 67.8565 -0.704041C 64.9266 0.667137 62.3104 3.23576 60.8874 6.1384L 64.4953 7.86554ZM 69.5181 2.93449C 71.8186 1.85077 74.0954 1.66637 76.5408 2.36573L 77.5951 -1.49284C 74.4667 -2.31636 70.8112 -2.02028 67.8565 -0.704041L 69.5181 2.93449ZM 76.5408 2.36573C 79.002 3.00691 80.867 4.3226 82.2943 6.42447L 85.5765 4.13818C 83.7039 1.50264 80.7077 -0.611152 77.5951 -1.49284L 76.5408 2.36573ZM 82.2943 6.42447C 83.7711 8.49156 84.3573 10.6939 84.1034 13.2202L 88.0878 13.5728C 88.3426 10.3505 87.3997 6.8085 85.5765 4.13818L 82.2943 6.42447ZM 84.1034 13.2202C 83.9097 15.7519 82.9457 17.8177 81.1287 19.5943L 83.9589 22.4209C 86.2227 20.1114 87.7728 16.7897 88.0878 13.5728L 84.1034 13.2202ZM 81.1287 19.5943C 79.3542 21.4137 77.2867 22.3825 74.7509 22.5828L 75.113 26.5663C 78.3321 26.2435 81.6527 24.6874 83.9589 22.4209L 81.1287 19.5943ZM 74.7509 22.5828C 72.2206 22.843 70.0116 22.2627 67.9372 20.793L 65.6636 24.084C 68.3415 25.8974 71.8885 26.8292 75.113 26.5663L 74.7509 22.5828ZM 28.706 14.8405C 26.796 7.72274 25.1315 3.09793 20.6114 0.795907C 18.4409 -0.309503 15.7831 -0.792006 12.5216 -1.01484C 9.26916 -1.23567 5.16855 -1.21066 -0.0199773 -1.15883L 0.0199773 2.84097C 5.20141 2.78921 9.14562 2.76242 12.249 2.97585C 15.3434 3.18727 17.3525 3.62508 18.7961 4.36028C 21.5043 5.7395 22.857 8.47715 24.8427 15.8772L 28.706 14.8405ZM 64.361 27.5475L 75.1488 16.774L 72.3222 13.9437L 61.5344 24.7172L 64.361 27.5475ZM 73.7355 13.3588L 12.0908 13.3588L 12.0908 17.3588L 73.7355 17.3588L 73.7355 13.3588ZM 10.6776 16.774L 21.4654 27.5475L 24.2919 24.7172L 13.5041 13.9437L 10.6776 16.774ZM 62.9477 24.1324L 22.8787 24.1324L 22.8787 28.1324L 62.9477 28.1324L 62.9477 24.1324ZM 21.4654 27.5475L 41.4999 47.5555L 44.3264 44.7252L 24.2919 24.7172L 21.4654 27.5475ZM 44.3264 47.5555L 64.361 27.5475L 61.5344 24.7172L 41.4999 44.7252L 44.3264 47.5555Z"/>
</defs>
</svg>
