<svg width="159" height="195" viewBox="0 0 159 195" version="1.1" xmlns="http://www.w3.org/2000/svg" xmlns:xlink="http://www.w3.org/1999/xlink">
<title>public-good</title>
<desc>Created using Figma</desc>
<g id="Canvas" transform="translate(267 -835)">
<g id="public-good">
<g id="marker">
<use xlink:href="#path0_fill" transform="translate(-265 837)" fill="#0CCE6B"/>
<use xlink:href="#path1_stroke" transform="translate(-265 837)" fill="#FFFFFF"/>
</g>
<g id="icon">
<use xlink:href="#path2_stroke" transform="translate(-229 879)" fill="#FFFFFF"/>
</g>
</g>
</g>
<defs>
<path id="path0_fill" d="M 154.184 84.6949C 154.505 82.1186 154.505 79.8644 154.505 77.2881C 154.505 56.79 146.366 37.1315 131.879 22.6372C 117.391 8.14283 97.7414 8.58071e-15 77.2527 -4.29035e-15C 56.764 1.00108e-14 37.1145 8.14283 22.6268 22.6372C 8.13911 37.1315 3.43071e-14 56.79 1.14357e-14 77.2881C 2.28714e-14 79.8644 1.2231e-06 82.4407 0.321888 84.6949L 0.321888 85.661C 6.75962 146.847 77.2527 190 77.2527 190C 77.2527 190 147.746 146.203 153.862 85.9831L 154.184 84.6949Z"/>
<path id="path1_stroke" d="M 154.184 84.6949L 156.124 85.1798L 156.153 85.0627L 156.168 84.9429L 154.184 84.6949ZM 77.2527 -4.29035e-15L 77.2527 -2L 77.2527 -4.29035e-15ZM 1.14357e-14 77.2881L -2 77.2881L 1.14357e-14 77.2881ZM 0.321888 84.6949L 2.32189 84.6949L 2.32189 84.5528L 2.3018 84.4122L 0.321888 84.6949ZM 0.321888 85.661L -1.67811 85.661L -1.67811 85.7659L -1.66713 85.8703L 0.321888 85.661ZM 77.2527 190L 76.2086 191.706L 77.2605 192.35L 78.3082 191.699L 77.2527 190ZM 153.862 85.9831L 151.921 85.4982L 151.886 85.6378L 151.872 85.781L 153.862 85.9831ZM 156.168 84.9429C 156.502 82.2429 156.505 79.8644 156.505 77.2881L 152.505 77.2881C 152.505 79.8644 152.509 81.9944 152.199 84.447L 156.168 84.9429ZM 156.505 77.2881C 156.505 56.2599 148.156 36.0928 133.293 21.2233L 130.464 24.0511C 144.577 38.1703 152.505 57.3202 152.505 77.2881L 156.505 77.2881ZM 133.293 21.2233C 118.431 6.35377 98.2722 -2 77.2527 -2L 77.2527 2C 97.2107 2 116.351 9.9319 130.464 24.0511L 133.293 21.2233ZM 77.2527 -2C 56.2333 -2 36.075 6.35377 21.2123 21.2233L 24.0413 24.0511C 38.154 9.9319 57.2948 2 77.2527 2L 77.2527 -2ZM 21.2123 21.2233C 6.3496 36.0928 -2 56.2599 -2 77.2881L 2 77.2881C 2 57.3202 9.92862 38.1703 24.0413 24.0511L 21.2123 21.2233ZM -2 77.2881C -2 79.8644 -1.99497 82.5824 -1.65803 84.9776L 2.3018 84.4122C 1.99497 82.299 2 79.8644 2 77.2881L -2 77.2881ZM -1.67811 84.6949L -1.67811 85.661L 2.32189 85.661L 2.32189 84.6949L -1.67811 84.6949ZM -1.66713 85.8703C 1.62309 117.142 21.2403 143.634 39.7869 162.189C 49.0766 171.479 58.2006 178.879 64.9423 183.905C 68.325 186.426 71.1451 188.38 73.0982 189.688C 74.0804 190.346 74.8587 190.851 75.3824 191.186C 75.647 191.355 75.8537 191.485 75.9901 191.57C 76.0596 191.614 76.1142 191.648 76.1495 191.669C 76.1678 191.681 76.1825 191.69 76.1918 191.695C 76.1967 191.698 76.2009 191.701 76.2034 191.703C 76.2048 191.703 76.2061 191.704 76.2068 191.705C 76.2078 191.705 76.2086 191.706 77.2527 190C 78.2969 188.294 78.2972 188.294 78.2971 188.294C 78.2967 188.294 78.2964 188.294 78.2957 188.293C 78.2939 188.292 78.2917 188.291 78.2881 188.289C 78.2802 188.284 78.2694 188.277 78.2538 188.268C 78.2212 188.247 78.1747 188.219 78.1106 188.179C 77.9798 188.097 77.7899 187.977 77.5366 187.815C 77.0245 187.488 76.2821 187.006 75.3242 186.365C 73.397 185.074 70.6595 183.178 67.333 180.698C 60.6559 175.721 51.7543 168.508 42.616 159.362C 24.3067 141.044 5.45841 115.367 2.31091 85.4517L -1.66713 85.8703ZM 77.2527 190C 78.3082 191.699 78.309 191.698 78.31 191.698C 78.3107 191.697 78.312 191.696 78.3133 191.696C 78.3158 191.694 78.32 191.691 78.3249 191.688C 78.3341 191.683 78.3488 191.673 78.3671 191.662C 78.4023 191.64 78.4568 191.606 78.5263 191.562C 78.6625 191.475 78.869 191.343 79.1334 191.172C 79.6569 190.833 80.4346 190.321 81.4162 189.656C 83.3683 188.332 86.1861 186.357 89.5657 183.814C 96.3016 178.743 105.413 171.294 114.681 161.985C 133.181 143.396 152.724 116.981 155.851 86.1851L 151.872 85.781C 148.884 115.206 130.122 140.799 111.846 159.163C 102.727 168.331 93.8327 175.595 87.16 180.618C 83.8353 183.121 81.0981 185.039 79.1712 186.345C 78.2133 186.995 77.4706 187.483 76.9584 187.815C 76.705 187.979 76.5149 188.101 76.384 188.184C 76.3199 188.224 76.2733 188.254 76.2407 188.274C 76.225 188.284 76.2142 188.291 76.2063 188.296C 76.2027 188.298 76.2004 188.299 76.1986 188.3C 76.1978 188.301 76.1975 188.301 76.1971 188.301C 76.1971 188.301 76.1973 188.301 77.2527 190ZM 155.802 86.4679L 156.124 85.1798L 152.243 84.21L 151.921 85.4982L 155.802 86.4679Z"/>
<path id="path2_stroke" d="M 2.75799 30.3448L 1.52217 28.7723L -3.02361 32.3448L 2.75799 32.3448L 2.75799 30.3448ZM 41.3699 0L 42.6057 -1.5725L 41.3699 -2.54372L 40.134 -1.5725L 41.3699 0ZM 79.9817 30.3448L 79.9817 32.3448L 85.7633 32.3448L 81.2176 28.7723L 79.9817 30.3448ZM 30.3379 39.3793C 29.2333 39.3793 28.3379 40.2747 28.3379 41.3793C 28.3379 42.4839 29.2333 43.3793 30.3379 43.3793L 30.3379 39.3793ZM 52.4018 43.3793C 53.5064 43.3793 54.4018 42.4839 54.4018 41.3793C 54.4018 40.2747 53.5064 39.3793 52.4018 39.3793L 52.4018 43.3793ZM 37.8539 41.3793C 37.8539 40.2747 36.9585 39.3793 35.8539 39.3793C 34.7493 39.3793 33.8539 40.2747 33.8539 41.3793L 37.8539 41.3793ZM 33.8539 69.1034C 33.8539 70.208 34.7493 71.1034 35.8539 71.1034C 36.9585 71.1034 37.8539 70.208 37.8539 69.1034L 33.8539 69.1034ZM 48.8859 41.3793C 48.8859 40.2747 47.9904 39.3793 46.8859 39.3793C 45.7813 39.3793 44.8859 40.2747 44.8859 41.3793L 48.8859 41.3793ZM 44.8859 69.1034C 44.8859 70.208 45.7813 71.1034 46.8859 71.1034C 47.9904 71.1034 48.8859 70.208 48.8859 69.1034L 44.8859 69.1034ZM 60.6758 39.3793C 59.5712 39.3793 58.6758 40.2747 58.6758 41.3793C 58.6758 42.4839 59.5712 43.3793 60.6758 43.3793L 60.6758 39.3793ZM 79.9817 43.3793C 81.0863 43.3793 81.9817 42.4839 81.9817 41.3793C 81.9817 40.2747 81.0863 39.3793 79.9817 39.3793L 79.9817 43.3793ZM 65.4338 41.3793C 65.4338 40.2747 64.5384 39.3793 63.4338 39.3793C 62.3292 39.3793 61.4338 40.2747 61.4338 41.3793L 65.4338 41.3793ZM 61.4338 69.1034C 61.4338 70.208 62.3292 71.1034 63.4338 71.1034C 64.5384 71.1034 65.4338 70.208 65.4338 69.1034L 61.4338 69.1034ZM 76.4658 41.3793C 76.4658 40.2747 75.5703 39.3793 74.4658 39.3793C 73.3612 39.3793 72.4658 40.2747 72.4658 41.3793L 76.4658 41.3793ZM 72.4658 69.1034C 72.4658 70.208 73.3612 71.1034 74.4658 71.1034C 75.5703 71.1034 76.4658 70.208 76.4658 69.1034L 72.4658 69.1034ZM 2.75799 39.3793C 1.65342 39.3793 0.757991 40.2747 0.757991 41.3793C 0.757991 42.4839 1.65342 43.3793 2.75799 43.3793L 2.75799 39.3793ZM 22.0639 43.3793C 23.1685 43.3793 24.0639 42.4839 24.0639 41.3793C 24.0639 40.2747 23.1685 39.3793 22.0639 39.3793L 22.0639 43.3793ZM 10.274 41.3793C 10.274 40.2747 9.37854 39.3793 8.27397 39.3793C 7.16941 39.3793 6.27397 40.2747 6.27397 41.3793L 10.274 41.3793ZM 6.27397 69.1034C 6.27397 70.208 7.16941 71.1034 8.27397 71.1034C 9.37854 71.1034 10.274 70.208 10.274 69.1034L 6.27397 69.1034ZM 21.3059 41.3793C 21.3059 40.2747 20.4105 39.3793 19.3059 39.3793C 18.2014 39.3793 17.3059 40.2747 17.3059 41.3793L 21.3059 41.3793ZM 17.3059 69.1034C 17.3059 70.208 18.2014 71.1034 19.3059 71.1034C 20.4105 71.1034 21.3059 70.208 21.3059 69.1034L 17.3059 69.1034ZM 2.75799 67.1034C 1.65342 67.1034 0.757991 67.9989 0.757991 69.1034C 0.757991 70.208 1.65342 71.1034 2.75799 71.1034L 2.75799 67.1034ZM 79.9817 71.1034C 81.0863 71.1034 81.9817 70.208 81.9817 69.1034C 81.9817 67.9989 81.0863 67.1034 79.9817 67.1034L 79.9817 71.1034ZM 0 78C -1.10457 78 -2 78.8954 -2 80C -2 81.1046 -1.10457 82 0 82L 0 78ZM 82.7397 82C 83.8443 82 84.7397 81.1046 84.7397 80C 84.7397 78.8954 83.8443 78 82.7397 78L 82.7397 82ZM 3.9938 31.9173L 42.6057 1.5725L 40.134 -1.5725L 1.52217 28.7723L 3.9938 31.9173ZM 40.134 1.5725L 78.7459 31.9173L 81.2176 28.7723L 42.6057 -1.5725L 40.134 1.5725ZM 79.9817 28.3448L 2.75799 28.3448L 2.75799 32.3448L 79.9817 32.3448L 79.9817 28.3448ZM 30.3379 43.3793L 52.4018 43.3793L 52.4018 39.3793L 30.3379 39.3793L 30.3379 43.3793ZM 33.8539 41.3793L 33.8539 69.1034L 37.8539 69.1034L 37.8539 41.3793L 33.8539 41.3793ZM 44.8859 41.3793L 44.8859 69.1034L 48.8859 69.1034L 48.8859 41.3793L 44.8859 41.3793ZM 60.6758 43.3793L 79.9817 43.3793L 79.9817 39.3793L 60.6758 39.3793L 60.6758 43.3793ZM 61.4338 41.3793L 61.4338 69.1034L 65.4338 69.1034L 65.4338 41.3793L 61.4338 41.3793ZM 72.4658 41.3793L 72.4658 69.1034L 76.4658 69.1034L 76.4658 41.3793L 72.4658 41.3793ZM 2.75799 43.3793L 22.0639 43.3793L 22.0639 39.3793L 2.75799 39.3793L 2.75799 43.3793ZM 6.27397 41.3793L 6.27397 69.1034L 10.274 69.1034L 10.274 41.3793L 6.27397 41.3793ZM 17.3059 41.3793L 17.3059 69.1034L 21.3059 69.1034L 21.3059 41.3793L 17.3059 41.3793ZM 2.75799 71.1034L 79.9817 71.1034L 79.9817 67.1034L 2.75799 67.1034L 2.75799 71.1034ZM 0 82L 82.7397 82L 82.7397 78L 0 78L 0 82Z"/>
</defs>
</svg>
