<svg width="159" height="195" viewBox="0 0 159 195" version="1.1" xmlns="http://www.w3.org/2000/svg" xmlns:xlink="http://www.w3.org/1999/xlink">
<title>religion-good</title>
<desc>Created using Figma</desc>
<g id="Canvas" transform="translate(267 -1771)">
<g id="religion-good">
<g id="marker">
<use xlink:href="#path0_fill" transform="translate(-265 1773)" fill="#0CCE6B"/>
<use xlink:href="#path1_stroke" transform="translate(-265 1773)" fill="#FFFFFF"/>
</g>
<g id="icon">
<use xlink:href="#path2_stroke" transform="translate(-234 1815)" fill="#FFFFFF"/>
</g>
</g>
</g>
<defs>
<path id="path0_fill" d="M 154.184 84.6949C 154.505 82.1186 154.505 79.8644 154.505 77.2881C 154.505 56.79 146.366 37.1315 131.879 22.6372C 117.391 8.14283 97.7414 8.58071e-15 77.2527 -4.29035e-15C 56.764 1.00108e-14 37.1145 8.14283 22.6268 22.6372C 8.13911 37.1315 3.43071e-14 56.79 1.14357e-14 77.2881C 2.28714e-14 79.8644 1.2231e-06 82.4407 0.321888 84.6949L 0.321888 85.661C 6.75962 146.847 77.2527 190 77.2527 190C 77.2527 190 147.746 146.203 153.862 85.9831L 154.184 84.6949Z"/>
<path id="path1_stroke" d="M 154.184 84.6949L 156.124 85.1798L 156.153 85.0627L 156.168 84.9429L 154.184 84.6949ZM 77.2527 -4.29035e-15L 77.2527 -2L 77.2527 -4.29035e-15ZM 1.14357e-14 77.2881L -2 77.2881L 1.14357e-14 77.2881ZM 0.321888 84.6949L 2.32189 84.6949L 2.32189 84.5528L 2.3018 84.4122L 0.321888 84.6949ZM 0.321888 85.661L -1.67811 85.661L -1.67811 85.7659L -1.66713 85.8703L 0.321888 85.661ZM 77.2527 190L 76.2086 191.706L 77.2605 192.35L 78.3082 191.699L 77.2527 190ZM 153.862 85.9831L 151.921 85.4982L 151.886 85.6378L 151.872 85.781L 153.862 85.9831ZM 156.168 84.9429C 156.502 82.2429 156.505 79.8644 156.505 77.2881L 152.505 77.2881C 152.505 79.8644 152.509 81.9944 152.199 84.447L 156.168 84.9429ZM 156.505 77.2881C 156.505 56.2599 148.156 36.0928 133.293 21.2233L 130.464 24.0511C 144.577 38.1703 152.505 57.3202 152.505 77.2881L 156.505 77.2881ZM 133.293 21.2233C 118.431 6.35377 98.2722 -2 77.2527 -2L 77.2527 2C 97.2107 2 116.351 9.9319 130.464 24.0511L 133.293 21.2233ZM 77.2527 -2C 56.2333 -2 36.075 6.35377 21.2123 21.2233L 24.0413 24.0511C 38.154 9.9319 57.2948 2 77.2527 2L 77.2527 -2ZM 21.2123 21.2233C 6.3496 36.0928 -2 56.2599 -2 77.2881L 2 77.2881C 2 57.3202 9.92862 38.1703 24.0413 24.0511L 21.2123 21.2233ZM -2 77.2881C -2 79.8644 -1.99497 82.5824 -1.65803 84.9776L 2.3018 84.4122C 1.99497 82.299 2 79.8644 2 77.2881L -2 77.2881ZM -1.67811 84.6949L -1.67811 85.661L 2.32189 85.661L 2.32189 84.6949L -1.67811 84.6949ZM -1.66713 85.8703C 1.62309 117.142 21.2403 143.634 39.7869 162.189C 49.0766 171.479 58.2006 178.879 64.9423 183.905C 68.325 186.426 71.1451 188.38 73.0982 189.688C 74.0804 190.346 74.8587 190.851 75.3824 191.186C 75.647 191.355 75.8537 191.485 75.9901 191.57C 76.0596 191.614 76.1142 191.648 76.1495 191.669C 76.1678 191.681 76.1825 191.69 76.1918 191.695C 76.1967 191.698 76.2009 191.701 76.2034 191.703C 76.2048 191.703 76.2061 191.704 76.2068 191.705C 76.2078 191.705 76.2086 191.706 77.2527 190C 78.2969 188.294 78.2972 188.294 78.2971 188.294C 78.2967 188.294 78.2964 188.294 78.2957 188.293C 78.2939 188.292 78.2917 188.291 78.2881 188.289C 78.2802 188.284 78.2694 188.277 78.2538 188.268C 78.2212 188.247 78.1747 188.219 78.1106 188.179C 77.9798 188.097 77.7899 187.977 77.5366 187.815C 77.0245 187.488 76.2821 187.006 75.3242 186.365C 73.397 185.074 70.6595 183.178 67.333 180.698C 60.6559 175.721 51.7543 168.508 42.616 159.362C 24.3067 141.044 5.45841 115.367 2.31091 85.4517L -1.66713 85.8703ZM 77.2527 190C 78.3082 191.699 78.309 191.698 78.31 191.698C 78.3107 191.697 78.312 191.696 78.3133 191.696C 78.3158 191.694 78.32 191.691 78.3249 191.688C 78.3341 191.683 78.3488 191.673 78.3671 191.662C 78.4023 191.64 78.4568 191.606 78.5263 191.562C 78.6625 191.475 78.869 191.343 79.1334 191.172C 79.6569 190.833 80.4346 190.321 81.4162 189.656C 83.3683 188.332 86.1861 186.357 89.5657 183.814C 96.3016 178.743 105.413 171.294 114.681 161.985C 133.181 143.396 152.724 116.981 155.851 86.1851L 151.872 85.781C 148.884 115.206 130.122 140.799 111.846 159.163C 102.727 168.331 93.8327 175.595 87.16 180.618C 83.8353 183.121 81.0981 185.039 79.1712 186.345C 78.2133 186.995 77.4706 187.483 76.9584 187.815C 76.705 187.979 76.5149 188.101 76.384 188.184C 76.3199 188.224 76.2733 188.254 76.2407 188.274C 76.225 188.284 76.2142 188.291 76.2063 188.296C 76.2027 188.298 76.2004 188.299 76.1986 188.3C 76.1978 188.301 76.1975 188.301 76.1971 188.301C 76.1971 188.301 76.1973 188.301 77.2527 190ZM 155.802 86.4679L 156.124 85.1798L 152.243 84.21L 151.921 85.4982L 155.802 86.4679Z"/>
<path id="path2_stroke" d="M 46.1667 12.3077L 48.1667 12.3077L 46.1667 12.3077ZM 0 0L 0 -2L -2 -2L -2 0L 0 0ZM 0 67.6923L -2 67.6923L -2 69.6923L 0 69.6923L 0 67.6923ZM 58.4778 0L 58.4778 -2L 58.4778 0ZM 92.3333 0L 94.3333 0L 94.3333 -2L 92.3333 -2L 92.3333 0ZM 92.3333 67.6923L 92.3333 69.6923L 94.3333 69.6923L 94.3333 67.6923L 92.3333 67.6923ZM 12.3111 13.3846C 11.2065 13.3846 10.3111 14.28 10.3111 15.3846C 10.3111 16.4892 11.2065 17.3846 12.3111 17.3846L 12.3111 13.3846ZM 33.8556 17.3846C 34.9601 17.3846 35.8556 16.4892 35.8556 15.3846C 35.8556 14.28 34.9601 13.3846 33.8556 13.3846L 33.8556 17.3846ZM 12.3111 25.6923C 11.2065 25.6923 10.3111 26.5877 10.3111 27.6923C 10.3111 28.7969 11.2065 29.6923 12.3111 29.6923L 12.3111 25.6923ZM 33.8556 29.6923C 34.9601 29.6923 35.8556 28.7969 35.8556 27.6923C 35.8556 26.5877 34.9601 25.6923 33.8556 25.6923L 33.8556 29.6923ZM 12.3111 38C 11.2065 38 10.3111 38.8954 10.3111 40C 10.3111 41.1046 11.2065 42 12.3111 42L 12.3111 38ZM 33.8556 42C 34.9601 42 35.8556 41.1046 35.8556 40C 35.8556 38.8954 34.9601 38 33.8556 38L 33.8556 42ZM 12.3111 50.3077C 11.2065 50.3077 10.3111 51.2031 10.3111 52.3077C 10.3111 53.4123 11.2065 54.3077 12.3111 54.3077L 12.3111 50.3077ZM 33.8556 54.3077C 34.9601 54.3077 35.8556 53.4123 35.8556 52.3077C 35.8556 51.2031 34.9601 50.3077 33.8556 50.3077L 33.8556 54.3077ZM 58.4778 13.3846C 57.3732 13.3846 56.4778 14.28 56.4778 15.3846C 56.4778 16.4892 57.3732 17.3846 58.4778 17.3846L 58.4778 13.3846ZM 80.0222 17.3846C 81.1268 17.3846 82.0222 16.4892 82.0222 15.3846C 82.0222 14.28 81.1268 13.3846 80.0222 13.3846L 80.0222 17.3846ZM 58.4778 25.6923C 57.3732 25.6923 56.4778 26.5877 56.4778 27.6923C 56.4778 28.7969 57.3732 29.6923 58.4778 29.6923L 58.4778 25.6923ZM 80.0222 29.6923C 81.1268 29.6923 82.0222 28.7969 82.0222 27.6923C 82.0222 26.5877 81.1268 25.6923 80.0222 25.6923L 80.0222 29.6923ZM 58.4778 38C 57.3732 38 56.4778 38.8954 56.4778 40C 56.4778 41.1046 57.3732 42 58.4778 42L 58.4778 38ZM 80.0222 42C 81.1268 42 82.0222 41.1046 82.0222 40C 82.0222 38.8954 81.1268 38 80.0222 38L 80.0222 42ZM 58.4778 50.3077C 57.3732 50.3077 56.4778 51.2031 56.4778 52.3077C 56.4778 53.4123 57.3732 54.3077 58.4778 54.3077L 58.4778 50.3077ZM 80.0222 54.3077C 81.1268 54.3077 82.0222 53.4123 82.0222 52.3077C 82.0222 51.2031 81.1268 50.3077 80.0222 50.3077L 80.0222 54.3077ZM 33.8556 69.6923C 36.5904 69.6923 39.2131 70.7784 41.1468 72.7116L 43.9748 69.8827C 41.2909 67.1996 37.6509 65.6923 33.8556 65.6923L 33.8556 69.6923ZM 41.1468 72.7116C 43.0805 74.6447 44.1667 77.2664 44.1667 80L 48.1667 80C 48.1667 76.2052 46.6588 72.5659 43.9748 69.8827L 41.1468 72.7116ZM 48.1667 80L 48.1667 12.3077L 44.1667 12.3077L 44.1667 80L 48.1667 80ZM 48.1667 12.3077C 48.1667 8.51288 46.6588 4.8736 43.9748 2.19043L 41.1468 5.01925C 43.0805 6.95236 44.1667 9.5741 44.1667 12.3077L 48.1667 12.3077ZM 43.9748 2.19043C 41.2909 -0.492722 37.6509 -2 33.8556 -2L 33.8556 2C 36.5904 2 39.2131 3.08612 41.1468 5.01925L 43.9748 2.19043ZM 33.8556 -2L 0 -2L 0 2L 33.8556 2L 33.8556 -2ZM -2 0L -2 67.6923L 2 67.6923L 2 0L -2 0ZM 0 69.6923L 33.8556 69.6923L 33.8556 65.6923L 0 65.6923L 0 69.6923ZM 48.1667 12.3077C 48.1667 9.5741 49.2529 6.95236 51.1865 5.01925L 48.3585 2.19043C 45.6746 4.8736 44.1667 8.51287 44.1667 12.3077L 48.1667 12.3077ZM 51.1865 5.01925C 53.1202 3.08612 55.7429 2 58.4778 2L 58.4778 -2C 54.6824 -2 51.0424 -0.492721 48.3585 2.19043L 51.1865 5.01925ZM 58.4778 2L 92.3333 2L 92.3333 -2L 58.4778 -2L 58.4778 2ZM 90.3333 0L 90.3333 67.6923L 94.3333 67.6923L 94.3333 0L 90.3333 0ZM 92.3333 65.6923L 58.4778 65.6923L 58.4778 69.6923L 92.3333 69.6923L 92.3333 65.6923ZM 58.4778 65.6923C 54.6824 65.6923 51.0424 67.1996 48.3585 69.8827L 51.1865 72.7116C 53.1202 70.7784 55.7429 69.6923 58.4778 69.6923L 58.4778 65.6923ZM 48.3585 69.8827C 45.6746 72.5659 44.1667 76.2052 44.1667 80L 48.1667 80C 48.1667 77.2664 49.2529 74.6447 51.1865 72.7116L 48.3585 69.8827ZM 12.3111 17.3846L 33.8556 17.3846L 33.8556 13.3846L 12.3111 13.3846L 12.3111 17.3846ZM 12.3111 29.6923L 33.8556 29.6923L 33.8556 25.6923L 12.3111 25.6923L 12.3111 29.6923ZM 12.3111 42L 33.8556 42L 33.8556 38L 12.3111 38L 12.3111 42ZM 12.3111 54.3077L 33.8556 54.3077L 33.8556 50.3077L 12.3111 50.3077L 12.3111 54.3077ZM 58.4778 17.3846L 80.0222 17.3846L 80.0222 13.3846L 58.4778 13.3846L 58.4778 17.3846ZM 58.4778 29.6923L 80.0222 29.6923L 80.0222 25.6923L 58.4778 25.6923L 58.4778 29.6923ZM 58.4778 42L 80.0222 42L 80.0222 38L 58.4778 38L 58.4778 42ZM 58.4778 54.3077L 80.0222 54.3077L 80.0222 50.3077L 58.4778 50.3077L 58.4778 54.3077Z"/>
</defs>
</svg>
