<svg width="159" height="195" viewBox="0 0 159 195" version="1.1" xmlns="http://www.w3.org/2000/svg" xmlns:xlink="http://www.w3.org/1999/xlink">
<title>shopping-good</title>
<desc>Created using Figma</desc>
<g id="Canvas" transform="translate(267 101)">
<g id="shopping-good">
<g id="marker">
<use xlink:href="#path0_fill" transform="translate(-265 -99)" fill="#0CCE6B"/>
<use xlink:href="#path1_stroke" transform="translate(-265 -99)" fill="#FFFFFF"/>
</g>
<g id="icon">
<use xlink:href="#path2_stroke" transform="translate(-234 -57)" fill="#FFFFFF"/>
</g>
</g>
</g>
<defs>
<path id="path0_fill" d="M 154.184 84.6949C 154.505 82.1186 154.505 79.8644 154.505 77.2881C 154.505 56.79 146.366 37.1315 131.879 22.6372C 117.391 8.14283 97.7414 8.58071e-15 77.2527 -4.29035e-15C 56.764 1.00108e-14 37.1145 8.14283 22.6268 22.6372C 8.13911 37.1315 3.43071e-14 56.79 1.14357e-14 77.2881C 2.28714e-14 79.8644 1.2231e-06 82.4407 0.321888 84.6949L 0.321888 85.661C 6.75962 146.847 77.2527 190 77.2527 190C 77.2527 190 147.746 146.203 153.862 85.9831L 154.184 84.6949Z"/>
<path id="path1_stroke" d="M 154.184 84.6949L 156.124 85.1798L 156.153 85.0627L 156.168 84.9429L 154.184 84.6949ZM 77.2527 -4.29035e-15L 77.2527 -2L 77.2527 -4.29035e-15ZM 1.14357e-14 77.2881L -2 77.2881L 1.14357e-14 77.2881ZM 0.321888 84.6949L 2.32189 84.6949L 2.32189 84.5528L 2.3018 84.4122L 0.321888 84.6949ZM 0.321888 85.661L -1.67811 85.661L -1.67811 85.7659L -1.66713 85.8703L 0.321888 85.661ZM 77.2527 190L 76.2086 191.706L 77.2605 192.35L 78.3082 191.699L 77.2527 190ZM 153.862 85.9831L 151.921 85.4982L 151.886 85.6378L 151.872 85.781L 153.862 85.9831ZM 156.168 84.9429C 156.502 82.2429 156.505 79.8644 156.505 77.2881L 152.505 77.2881C 152.505 79.8644 152.509 81.9944 152.199 84.447L 156.168 84.9429ZM 156.505 77.2881C 156.505 56.2599 148.156 36.0928 133.293 21.2233L 130.464 24.0511C 144.577 38.1703 152.505 57.3202 152.505 77.2881L 156.505 77.2881ZM 133.293 21.2233C 118.431 6.35377 98.2722 -2 77.2527 -2L 77.2527 2C 97.2107 2 116.351 9.9319 130.464 24.0511L 133.293 21.2233ZM 77.2527 -2C 56.2333 -2 36.075 6.35377 21.2123 21.2233L 24.0413 24.0511C 38.154 9.9319 57.2948 2 77.2527 2L 77.2527 -2ZM 21.2123 21.2233C 6.3496 36.0928 -2 56.2599 -2 77.2881L 2 77.2881C 2 57.3202 9.92862 38.1703 24.0413 24.0511L 21.2123 21.2233ZM -2 77.2881C -2 79.8644 -1.99497 82.5824 -1.65803 84.9776L 2.3018 84.4122C 1.99497 82.299 2 79.8644 2 77.2881L -2 77.2881ZM -1.67811 84.6949L -1.67811 85.661L 2.32189 85.661L 2.32189 84.6949L -1.67811 84.6949ZM -1.66713 85.8703C 1.62309 117.142 21.2403 143.634 39.7869 162.189C 49.0766 171.479 58.2006 178.879 64.9423 183.905C 68.325 186.426 71.1451 188.38 73.0982 189.688C 74.0804 190.346 74.8587 190.851 75.3824 191.186C 75.647 191.355 75.8537 191.485 75.9901 191.57C 76.0596 191.614 76.1142 191.648 76.1495 191.669C 76.1678 191.681 76.1825 191.69 76.1918 191.695C 76.1967 191.698 76.2009 191.701 76.2034 191.703C 76.2048 191.703 76.2061 191.704 76.2068 191.705C 76.2078 191.705 76.2086 191.706 77.2527 190C 78.2969 188.294 78.2972 188.294 78.2971 188.294C 78.2967 188.294 78.2964 188.294 78.2957 188.293C 78.2939 188.292 78.2917 188.291 78.2881 188.289C 78.2802 188.284 78.2694 188.277 78.2538 188.268C 78.2212 188.247 78.1747 188.219 78.1106 188.179C 77.9798 188.097 77.7899 187.977 77.5366 187.815C 77.0245 187.488 76.2821 187.006 75.3242 186.365C 73.397 185.074 70.6595 183.178 67.333 180.698C 60.6559 175.721 51.7543 168.508 42.616 159.362C 24.3067 141.044 5.45841 115.367 2.31091 85.4517L -1.66713 85.8703ZM 77.2527 190C 78.3082 191.699 78.309 191.698 78.31 191.698C 78.3107 191.697 78.312 191.696 78.3133 191.696C 78.3158 191.694 78.32 191.691 78.3249 191.688C 78.3341 191.683 78.3488 191.673 78.3671 191.662C 78.4023 191.64 78.4568 191.606 78.5263 191.562C 78.6625 191.475 78.869 191.343 79.1334 191.172C 79.6569 190.833 80.4346 190.321 81.4162 189.656C 83.3683 188.332 86.1861 186.357 89.5657 183.814C 96.3016 178.743 105.413 171.294 114.681 161.985C 133.181 143.396 152.724 116.981 155.851 86.1851L 151.872 85.781C 148.884 115.206 130.122 140.799 111.846 159.163C 102.727 168.331 93.8327 175.595 87.16 180.618C 83.8353 183.121 81.0981 185.039 79.1712 186.345C 78.2133 186.995 77.4706 187.483 76.9584 187.815C 76.705 187.979 76.5149 188.101 76.384 188.184C 76.3199 188.224 76.2733 188.254 76.2407 188.274C 76.225 188.284 76.2142 188.291 76.2063 188.296C 76.2027 188.298 76.2004 188.299 76.1986 188.3C 76.1978 188.301 76.1975 188.301 76.1971 188.301C 76.1971 188.301 76.1973 188.301 77.2527 190ZM 155.802 86.4679L 156.124 85.1798L 152.243 84.21L 151.921 85.4982L 155.802 86.4679Z"/>
<path id="path2_stroke" d="M 0 -2C -1.10457 -2 -2 -1.10457 -2 0C -2 1.10457 -1.10457 2 0 2L 0 -2ZM 15.4098 0L 17.3499 -0.48582L 16.9708 -2L 15.4098 -2L 15.4098 0ZM 30.8197 61.5385L 28.8796 62.0243L 29.2588 63.5385L 30.8197 63.5385L 30.8197 61.5385ZM 80.1312 61.5385L 80.1312 63.5385L 81.572 63.5385L 82.0282 62.1719L 80.1312 61.5385ZM 92.4591 24.6154L 94.3561 25.2488L 95.2354 22.6154L 92.4591 22.6154L 92.4591 24.6154ZM 21.5738 22.6154C 20.4692 22.6154 19.5738 23.5108 19.5738 24.6154C 19.5738 25.72 20.4692 26.6154 21.5738 26.6154L 21.5738 22.6154ZM 0 2L 15.4098 2L 15.4098 -2L 0 -2L 0 2ZM 13.4697 0.48582L 28.8796 62.0243L 32.7598 61.0527L 17.3499 -0.48582L 13.4697 0.48582ZM 30.8197 63.5385L 80.1312 63.5385L 80.1312 59.5385L 30.8197 59.5385L 30.8197 63.5385ZM 82.0282 62.1719L 94.3561 25.2488L 90.562 23.982L 78.2341 60.9051L 82.0282 62.1719ZM 92.4591 22.6154L 21.5738 22.6154L 21.5738 26.6154L 92.4591 26.6154L 92.4591 22.6154ZM 36.5246 73.8462C 36.5246 76.1372 34.6635 78 32.3607 78L 32.3607 82C 36.8664 82 40.5246 78.3525 40.5246 73.8462L 36.5246 73.8462ZM 32.3607 78C 30.0579 78 28.1967 76.1372 28.1967 73.8462L 24.1967 73.8462C 24.1967 78.3525 27.855 82 32.3607 82L 32.3607 78ZM 28.1967 73.8462C 28.1967 71.5551 30.0579 69.6923 32.3607 69.6923L 32.3607 65.6923C 27.855 65.6923 24.1967 69.3398 24.1967 73.8462L 28.1967 73.8462ZM 32.3607 69.6923C 34.6635 69.6923 36.5246 71.5551 36.5246 73.8462L 40.5246 73.8462C 40.5246 69.3398 36.8664 65.6923 32.3607 65.6923L 32.3607 69.6923ZM 76.5902 73.8462C 76.5902 76.1372 74.729 78 72.4263 78L 72.4263 82C 76.932 82 80.5902 78.3525 80.5902 73.8462L 76.5902 73.8462ZM 72.4263 78C 70.1235 78 68.2623 76.1372 68.2623 73.8462L 64.2623 73.8462C 64.2623 78.3525 67.9205 82 72.4263 82L 72.4263 78ZM 68.2623 73.8462C 68.2623 71.5551 70.1235 69.6923 72.4263 69.6923L 72.4263 65.6923C 67.9205 65.6923 64.2623 69.3398 64.2623 73.8462L 68.2623 73.8462ZM 72.4263 69.6923C 74.729 69.6923 76.5902 71.5551 76.5902 73.8462L 80.5902 73.8462C 80.5902 69.3398 76.932 65.6923 72.4263 65.6923L 72.4263 69.6923Z"/>
</defs>
</svg>
