<svg width="192" height="192" viewBox="0 0 192 192" version="1.1" xmlns="http://www.w3.org/2000/svg" xmlns:xlink="http://www.w3.org/1999/xlink">
<title>icon</title>
<desc>Created using Figma</desc>
<g id="Canvas" transform="translate(-912 -287)">
<g id="icon">
<g id="bounds" filter="url(#filter0_d)">
<use xlink:href="#path0_fill" transform="translate(916 289)" fill="#FFFFFF"/>
</g>
<g id="icon">
<g id="g20">
<g id="path22">
<use xlink:href="#path1_fill" transform="matrix(1.33333 0 0 -1.33333 997.114 342.957)" fill="#FEE000"/>
</g>
</g>
<g id="g24">
<g id="path26">
<use xlink:href="#path2_fill" transform="matrix(1.33333 0 0 -1.33333 960.082 442.333)" fill="#444444"/>
</g>
</g>
<g id="g28">
<g id="path30">
<use xlink:href="#path3_fill" transform="matrix(1.33333 0 0 -1.33333 955.292 428.074)" fill="#FEE000"/>
</g>
</g>
</g>
</g>
</g>
<defs>
<filter id="filter0_d" filterUnits="userSpaceOnUse" x="912" y="287" width="192" height="192" color-interpolation-filters="sRGB">
<feFlood flood-opacity="0" result="BackgroundImageFix"/>
<feColorMatrix in="SourceAlpha" type="matrix" values="0 0 0 0 0 0 0 0 0 0 0 0 0 0 0 0 0 0 255 0"/>
<feOffset dx="0" dy="2"/>
<feGaussianBlur stdDeviation="2"/>
<feColorMatrix type="matrix" values="0 0 0 0 0.266667 0 0 0 0 0.266667 0 0 0 0 0.266667 0 0 0 0.25 0"/>
<feBlend mode="normal" in2="BackgroundImageFix" result="effect1_dropShadow"/>
<feBlend mode="normal" in="SourceGraphic" in2="effect1_dropShadow" result="shape"/>
</filter>
<path id="path0_fill" d="M 184 92C 184 142.81 142.81 184 92 184C 41.1898 184 0 142.81 0 92C 0 41.1898 41.1898 0 92 0C 142.81 0 184 41.1898 184 92Z"/>
<path id="path1_fill" d="M 16.6503 8.42876C 16.6824 3.80402 12.9792 0.0298787 8.38042 0.000191546C 3.78289 -0.0307864 0.0322393 3.69431 0.000160488 8.32163C -0.0280688 12.9451 3.67639 16.7192 8.27264 16.7489C 12.8714 16.7786 16.6234 13.0535 16.6503 8.42876Z"/>
<path id="path2_fill" d="M 48.1785 25.9363C 47.4073 15.0023 38.3521 6.37112 27.2875 6.37112C 15.716 6.37112 6.33492 15.8065 6.33492 27.4477C 6.33492 33.8872 9.21046 39.6478 13.7336 43.5149C 13.6989 44.279 13.7438 45.0677 13.8747 45.877L 14.8076 51.8699C 12.326 50.5818 10.0253 48.9012 7.99275 46.8554C 2.83833 41.6717 -1.1356e-06 34.7792 -1.1356e-06 27.4477C -1.1356e-06 20.115 2.83833 13.2224 7.99275 8.04006C 13.1472 2.85513 19.9979 1.77257e-07 27.2875 1.77257e-07C 34.5745 1.77257e-07 41.4278 2.85513 46.581 8.04006C 49.4206 10.8965 51.5557 14.2718 52.9018 17.9504L 48.1785 25.9363Z"/>
<path id="path3_fill" d="M 77.4132 5.82101C 79.03 6.80585 79.5458 8.92009 78.5668 10.5464C 77.589 12.1741 75.4834 12.6929 73.8679 11.7081L 69.6335 9.39122L 56.1655 33.1087L 36.387 37.5501L 39.9619 56.5176C 40.9307 62.4589 35.0731 64.1227 30.0431 61.9685C 25.0119 59.8168 11.4195 55.1714 11.4195 55.1714L 0.553751 39.0087C -0.494583 37.3152 -0.00827365 35.1003 1.62261 34.0006C 1.65854 33.976 1.6919 33.9554 1.72911 33.9309C 3.44597 32.8583 5.7056 33.3862 6.77575 35.1145L 15.609 49.0545L 24.2523 51.9574L 21.5808 34.8305C 20.4644 31.4346 23.023 27.6591 28.2878 26.8963L 50.0398 22.7117L 52.2417 21.9863L 63.7515 2.19015C 64.9282 -0.34617 67.6844 -0.457174 70.2045 0.729021L 77.4132 5.82101Z"/>
</defs>
</svg>
