<svg xmlns="http://www.w3.org/2000/svg" width="276" height="66" viewBox="0 0 276 66"><defs><style>.a{fill:#fee000;}.b{fill:#969596;}.c{fill:#363537;}.d{fill:#444;}</style></defs><g transform="translate(0 0)"><g transform="translate(244.914 7.251)"><g transform="translate(0)"><path class="a" d="M10.853-16.695a5.406,5.406,0,0,1-5.39,5.425A5.41,5.41,0,0,1,0-16.626a5.41,5.41,0,0,1,5.392-5.424A5.407,5.407,0,0,1,10.853-16.695Z" transform="translate(0 22.05)"/></g></g><g transform="translate(226.809 32.616)"><g transform="translate(0 0)"><path class="a" d="M31.4-51.594A13.617,13.617,0,0,1,17.786-39,13.611,13.611,0,0,1,4.129-52.566,13.5,13.5,0,0,1,8.952-62.907a7.315,7.315,0,0,1,.092-1.52l.608-3.857A17.84,17.84,0,0,0,5.21-65.057,17.487,17.487,0,0,0,0-52.566,17.484,17.484,0,0,0,5.21-40.075,17.728,17.728,0,0,0,17.786-34.9a17.728,17.728,0,0,0,12.575-5.175,17.6,17.6,0,0,0,4.12-6.378Z" transform="translate(0 68.285)"/></g></g><g transform="translate(224.467 18.654)"><g transform="translate(0)"><path class="a" d="M50.458-46.049a2.205,2.205,0,0,0,.752-3.041,2.238,2.238,0,0,0-3.063-.748l-2.76,1.491L36.609-63.611,23.717-66.47l2.33-12.208c.631-3.824-3.187-4.895-6.465-3.508S7.443-77.811,7.443-77.811L.361-67.408a2.363,2.363,0,0,0,.7,3.223l.069.045A2.4,2.4,0,0,0,4.416-64.9l5.757-8.972,5.634-1.868L14.066-64.719c-.728,2.186.94,4.616,4.372,5.106L32.616-56.92l1.435.467,7.5,12.741c.767,1.632,2.563,1.7,4.206.94Z" transform="translate(0 82.766)"/></g></g><g transform="translate(0 50.478)"><g transform="translate(0 0)"><path class="a" d="M35.728-6.056H0v-5.793H39.848Z" transform="translate(0 11.849)"/></g></g><g transform="translate(104.73 50.478)"><g transform="translate(0 0)"><path class="a" d="M79.243-6.056H4.945L0-11.849H79.243Z" transform="translate(0 11.849)"/></g></g><g transform="translate(187.165 50.479)"><path class="a" d="M23.571-6.056H0v-5.793H23.571Z" transform="translate(0 11.849)"/></g><g transform="translate(212.866 50.479)"><path class="a" d="M6.487-6.056H0v-5.793H6.487Z" transform="translate(0 11.849)"/></g><g transform="translate(198.776 18.544)"><path class="b" d="M7.73-50.677H0V-25.9H7.73Z" transform="translate(0 50.677)"/></g><g transform="translate(207.302 18.544)"><g transform="translate(0 0)"><path class="b" d="M10.555-29.892Q8.469-31.87,4.284-31.87H0v5.037H1.407a4.083,4.083,0,0,1,2.946.812,2.738,2.738,0,0,1,.781,1.976,2.468,2.468,0,0,1-.9,1.97,4.883,4.883,0,0,1-3.13.768H0v5.018H3.433q4.661,0,6.933-2.112a7.608,7.608,0,0,0,2.271-5.864A7.4,7.4,0,0,0,10.555-29.892Z" transform="translate(0 31.87)"/></g></g><g transform="translate(170.487 18.544)"><g transform="translate(0 0)"><path class="b" d="M17.783-50.677H9.375L0-25.9H7.868l.1-.324,1.121-3.767h.03L12.363-40.6l0,0,1.118-3.654,2.752,8.907H11.628L9.989-29.992h7.848L19.085-25.9h8.072Z" transform="translate(0 50.677)"/></g></g><g transform="translate(163.471 20.995)"><g transform="translate(0 0)"><path class="b" d="M5.546-45.687,0-37.02v13.669H5.751L5.717-45.687Z" transform="translate(0 45.687)"/></g></g><g transform="translate(154.576 18.544)"><g transform="translate(0 0)"><path class="b" d="M8.175-47.2,0-34.517v10.394L14.788-47.2Z" transform="translate(0 47.197)"/></g></g><g transform="translate(138.891 20.995)"><g transform="translate(0 0)"><path class="b" d="M.034-45.687,0-23.351H5.751V-37.02L.206-45.687Z" transform="translate(0 45.687)"/></g></g><g transform="translate(138.754 18.544)"><g transform="translate(0 0)"><path class="b" d="M0-47.2,14.787-24.123V-34.517L6.613-47.2Z" transform="translate(0 47.197)"/></g></g><g transform="translate(37.3 0.457)"><g transform="translate(0)"><path class="c" d="M25.475-35.56l.344-.464,6.815-9.16-7.362-9.853L0-54.776,19.968-28.13Z" transform="translate(0 55.037)"/></g></g><g transform="translate(74.901 33.672)"><g transform="translate(0 0)"><path class="c" d="M12.524-54.871,0-37.564l7.148,9.519,25.272-.262Z" transform="translate(0 54.871)"/></g></g><g transform="translate(83.574 31.753)"><g transform="translate(0 0)"><path class="d" d="M0-.633l.435-.606Z" transform="translate(0 1.239)"/></g></g><g transform="translate(38.001)"><g transform="translate(0)"><path class="c" d="M46.23-93.231l22.53-31.444-25.27.262L0-63.722l25.271-.26L45.281-91.909" transform="translate(0 124.675)"/></g></g><g transform="translate(5.123 8.188)"><g transform="translate(0)"><path class="c" d="M26.712-76.123H14.083L0-38.907H11.818l.149-.486,1.681-5.658H13.7L18.57-60.99l0,0,1.68-5.489L24.391-53.1h-5.75l-2.46,8.046H26.792l1.876,6.144H40.791Z" transform="translate(0 76.123)"/></g></g><g transform="translate(97.238 33.021)"><g transform="translate(0)"><path class="c" d="M17.391-21.68a6.38,6.38,0,0,1-3.756-2.092,7.9,7.9,0,0,1-1.593-4.061L0-27.148a13.855,13.855,0,0,0,4.554,9.293q3.7,3.362,12.837,3.629Z" transform="translate(0 27.833)"/></g></g><g transform="translate(117.007 8.188)"><g transform="translate(0 0)"><path class="c" d="M0-16.812a5.5,5.5,0,0,1,2.122.915,5.664,5.664,0,0,1,2,3.655l11.931-.635q-.78-5.788-4.9-8.44C8.55-22.99,4.824-23.861,0-23.95Z" transform="translate(0 23.95)"/></g></g><g transform="translate(98.774 8.192)"><g transform="translate(0)"><path class="c" d="M33.99-58.438a12.222,12.222,0,0,0-5.226-4.125,57.024,57.024,0,0,0-11.889-3.287,11.016,11.016,0,0,1-4.246-1.371,2.02,2.02,0,0,1-.922-1.6,2.529,2.529,0,0,1,1.117-2.068,5.223,5.223,0,0,1,3.03-.836v-6.922a25.605,25.605,0,0,0-8.519,1.437A11.994,11.994,0,0,0,1.83-73.2,9.142,9.142,0,0,0,0-67.78,8.756,8.756,0,0,0,3.577-60.6q3.548,2.819,11.874,4.519,5.087,1.016,6.483,2.157a3.311,3.311,0,0,1,1.4,2.589,3.363,3.363,0,0,1-1.468,2.679,6.256,6.256,0,0,1-3.631,1.124V-40.2a26.01,26.01,0,0,0,9.121-1.548,13.431,13.431,0,0,0,6.092-4.583,11.046,11.046,0,0,0,2.18-6.6A9.74,9.74,0,0,0,33.99-58.438Z" transform="translate(0 78.648)"/></g></g></g></svg>