<svg width="200" height="200" viewBox="0 0 200 200" version="1.1" xmlns="http://www.w3.org/2000/svg" xmlns:xlink="http://www.w3.org/1999/xlink">
<title>beauty</title>
<desc>Created using Figma</desc>
<g id="Canvas" transform="translate(-762 -2597)">
<g id="beauty">
<g id="icon">
<use xlink:href="#path0_stroke" transform="translate(767 2602)" fill="#FFFFFF"/>
</g>
</g>
</g>
<defs>
<path id="path0_stroke" d="M 121.984 43.8183C 122.271 42.7516 121.638 41.6545 120.572 41.3678C 119.505 41.0812 118.408 41.7136 118.121 42.7803L 121.984 43.8183ZM 83.9669 177.598L 82.0354 177.079L 82.0101 177.174L 81.9941 177.27L 83.9669 177.598ZM 58.0105 189.951L 56.0988 189.364L 55.3355 191.846L 57.9305 191.95L 58.0105 189.951ZM 61.809 177.598L 63.7206 178.186L 63.7311 178.152L 63.7404 178.118L 61.809 177.598ZM 88.4307 86.2621C 88.7174 85.1954 88.0851 84.0982 87.0184 83.8115C 85.9517 83.5247 84.8546 84.157 84.5678 85.2238L 88.4307 86.2621ZM 147.473 72.1561C 148.54 71.8721 149.176 70.7766 148.892 69.7091C 148.608 68.6417 147.512 68.0066 146.445 68.2906L 147.473 72.1561ZM 12.4283 106.015L 12.8383 107.973L 12.8907 107.962L 12.9425 107.948L 12.4283 106.015ZM 0.0831608 131.672L -1.91376 131.782L -1.77876 134.214L 0.580207 133.609L 0.0831608 131.672ZM 12.4283 128.504L 12.9254 130.441L 12.9367 130.438L 12.9479 130.435L 12.4283 128.504ZM 80.0549 112.381C 81.1215 112.094 81.7536 110.997 81.4666 109.93C 81.1797 108.863 80.0823 108.231 79.0157 108.518L 80.0549 112.381ZM 119.322 7.42175L 117.907 8.83552L 117.907 8.83552L 119.322 7.42175ZM 119.322 43.2571L 117.907 41.8434L 117.907 41.8434L 119.322 43.2571ZM 83.5093 43.2571L 82.0947 44.6709L 82.0947 44.6709L 83.5093 43.2571ZM 83.5093 7.42175L 82.0947 6.00799L 82.0947 6.00799L 83.5093 7.42175ZM 182.583 70.7689L 181.168 72.1827L 181.168 72.1827L 182.583 70.7689ZM 182.583 106.604L 181.168 105.191L 181.168 105.191L 182.583 106.604ZM 146.77 106.604L 145.356 108.018L 145.356 108.018L 146.77 106.604ZM 146.77 70.7689L 145.356 69.3552L 145.356 69.3552L 146.77 70.7689ZM 118.121 42.7803L 82.0354 177.079L 85.8984 178.117L 121.984 43.8183L 118.121 42.7803ZM 83.9669 177.598C 81.9941 177.27 81.9944 177.268 81.9947 177.267C 81.9947 177.266 81.995 177.265 81.9952 177.264C 81.995 177.264 81.9963 177.257 81.996 177.259C 81.9959 177.259 81.9974 177.251 81.9972 177.252C 81.9975 177.25 81.9977 177.249 81.997 177.253C 81.994 177.268 81.9924 177.277 81.9857 177.306C 81.9684 177.383 81.9489 177.463 81.9074 177.601C 81.8143 177.918 81.6868 178.292 81.4394 178.812C 80.9144 179.938 80.116 181.247 78.5448 182.653C 75.5028 185.423 69.5724 188.413 58.0905 187.953L 57.9305 191.95C 70.1892 192.44 77.237 189.254 81.2381 185.61C 83.1884 183.808 84.4278 181.851 85.0601 180.512C 85.3914 179.8 85.6225 179.142 85.7434 178.735C 85.8088 178.512 85.8601 178.307 85.8868 178.19C 85.9021 178.121 85.9159 178.055 85.9227 178.02C 85.9269 177.998 85.9313 177.975 85.9333 177.964C 85.9347 177.956 85.9364 177.947 85.937 177.943C 85.9376 177.94 85.9383 177.936 85.9385 177.934C 85.9387 177.933 85.9391 177.931 85.9392 177.931C 85.9395 177.929 85.9398 177.927 83.9669 177.598ZM 59.9221 190.539L 63.7206 178.186L 59.8973 177.011L 56.0988 189.364L 59.9221 190.539ZM 63.7404 178.118L 88.4307 86.2621L 84.5678 85.2238L 59.8775 177.079L 63.7404 178.118ZM 146.445 68.2906L 11.9141 104.083L 12.9425 107.948L 147.473 72.1561L 146.445 68.2906ZM 12.4283 106.015C 12.0183 104.058 12.0167 104.058 12.0151 104.058C 12.0145 104.059 12.0127 104.059 12.0115 104.059C 12.01 104.06 12.0063 104.06 12.0034 104.061C 11.9996 104.062 11.9908 104.064 11.9833 104.065C 11.9725 104.068 11.9499 104.073 11.9284 104.078C 11.8939 104.086 11.8291 104.102 11.7614 104.12C 11.6435 104.152 11.4405 104.21 11.2169 104.284C 10.8059 104.421 10.1483 104.673 9.4321 105.026C 8.07792 105.701 6.11185 106.982 4.30211 108.945C 0.630273 112.977 -2.57066 119.951 -1.91376 131.782L 2.08009 131.561C 1.47081 120.587 4.44246 114.732 7.25974 111.638C 8.69456 110.037 10.0522 109.18 11.2106 108.609C 11.7507 108.338 12.1465 108.189 12.4749 108.081C 12.6211 108.032 12.7093 108.007 12.7901 107.986C 12.8218 107.977 12.8332 107.974 12.8502 107.97C 12.8544 107.969 12.8558 107.969 12.8536 107.97C 12.8545 107.969 12.8479 107.971 12.8483 107.971C 12.8496 107.97 12.8433 107.972 12.8439 107.972C 12.8431 107.972 12.8417 107.972 12.8412 107.972C 12.8398 107.973 12.8383 107.973 12.4283 106.015ZM 0.580207 133.609L 12.9254 130.441L 11.9313 126.567L -0.413885 129.734L 0.580207 133.609ZM 12.9479 130.435L 80.0549 112.381L 79.0157 108.518L 11.9087 126.573L 12.9479 130.435ZM 117.907 8.83552C 127.016 17.9502 127.016 32.7287 117.907 41.8434L 120.737 44.6709C 131.407 33.9943 131.407 16.6846 120.737 6.00799L 117.907 8.83552ZM 117.907 41.8434C 108.799 50.9574 94.0322 50.9574 84.924 41.8434L 82.0947 44.6709C 92.7652 55.3482 110.066 55.3482 120.737 44.6709L 117.907 41.8434ZM 84.924 41.8434C 75.815 32.7287 75.815 17.9502 84.924 8.83552L 82.0947 6.00799C 71.4248 16.6846 71.4248 33.9943 82.0947 44.6709L 84.924 41.8434ZM 84.924 8.83552C 94.0322 -0.278507 108.799 -0.278507 117.907 8.83552L 120.737 6.00799C 110.066 -4.66933 92.7652 -4.66933 82.0947 6.00799L 84.924 8.83552ZM 181.168 72.1827C 190.277 81.2974 190.277 96.0758 181.168 105.191L 183.998 108.018C 194.667 97.3415 194.667 80.0318 183.998 69.3552L 181.168 72.1827ZM 181.168 105.191C 172.06 114.305 157.293 114.305 148.185 105.191L 145.356 108.018C 156.026 118.695 173.327 118.695 183.998 108.018L 181.168 105.191ZM 148.185 105.191C 139.076 96.0758 139.076 81.2974 148.185 72.1827L 145.356 69.3552C 134.686 80.0318 134.686 97.3415 145.356 108.018L 148.185 105.191ZM 148.185 72.1827C 157.293 63.0687 172.06 63.0687 181.168 72.1827L 183.998 69.3552C 173.327 58.6778 156.026 58.6778 145.356 69.3552L 148.185 72.1827Z"/>
</defs>
</svg>
