<svg width="200" height="200" viewBox="0 0 200 200" version="1.1" xmlns="http://www.w3.org/2000/svg" xmlns:xlink="http://www.w3.org/1999/xlink">
<title>car</title>
<desc>Created using Figma</desc>
<g id="Canvas" transform="translate(-61 -3263)">
<g id="car">
<g id="icon">
<use xlink:href="#path0_stroke" transform="translate(66 3293)" fill="#FFFFFF"/>
</g>
</g>
</g>
<defs>
<path id="path0_stroke" d="M 44.3333 120.239L 46.3333 120.239L 46.3333 118.272L 44.3666 118.239L 44.3333 120.239ZM 6.33334 132.896L 4.33334 132.896L 6.33334 132.896ZM 6.33334 119.606L 6.36664 117.606L 4.33334 117.573L 4.33334 119.606L 6.33334 119.606ZM 183.667 119.606L 185.667 119.606L 185.667 117.573L 183.633 117.606L 183.667 119.606ZM 145.667 120.239L 145.633 118.239L 143.667 118.272L 143.667 120.239L 145.667 120.239ZM 69.6667 73.9405C 68.5621 73.9405 67.6667 74.8359 67.6667 75.9405C 67.6667 77.045 68.5621 77.9405 69.6667 77.9405L 69.6667 73.9405ZM 120.333 77.9405C 121.438 77.9405 122.333 77.045 122.333 75.9405C 122.333 74.8359 121.438 73.9405 120.333 73.9405L 120.333 77.9405ZM 164.667 37.9702L 163.003 39.0802L 163.113 39.245L 163.253 39.385L 164.667 37.9702ZM 139.333 0L 140.997 -1.11L 140.403 -2L 139.333 -2L 139.333 0ZM 50.6667 0L 50.6667 -2L 49.5968 -2L 49.003 -1.11L 50.6667 0ZM 25.3333 37.9702L 26.747 39.385L 26.8871 39.245L 26.997 39.0802L 25.3333 37.9702ZM 0 63.2837L -1.41366 61.8689L -2 62.4548L -2 63.2837L 0 63.2837ZM 0 110.746L -2 110.746L 0 110.746ZM 190 63.2837L 192 63.2837L 192 62.4548L 191.414 61.8689L 190 63.2837ZM 19.6333 42.2986C 18.5288 42.2986 17.6333 43.194 17.6333 44.2986C 17.6333 45.4032 18.5288 46.2986 19.6333 46.2986L 19.6333 42.2986ZM 171 46.2986C 172.105 46.2986 173 45.4032 173 44.2986C 173 43.194 172.105 42.2986 171 42.2986L 171 46.2986ZM 0 92.9256C -1.10457 92.9256 -2 93.821 -2 94.9256C -2 96.0301 -1.10457 96.9256 0 96.9256L 0 92.9256ZM 190 96.9256C 191.105 96.9256 192 96.0301 192 94.9256C 192 93.821 191.105 92.9256 190 92.9256L 190 96.9256ZM 0 35.9702C -1.10457 35.9702 -2 36.8657 -2 37.9702C -2 39.0748 -1.10457 39.9702 0 39.9702L 0 35.9702ZM 190 39.9702C 191.105 39.9702 192 39.0748 192 37.9702C 192 36.8657 191.105 35.9702 190 35.9702L 190 39.9702ZM 0 69.6121L 0 67.6121L -0.811745 71.4399L 0 69.6121ZM 31.6667 69.6121L 33.0803 68.1973L 32.4946 67.6121L 31.6667 67.6121L 31.6667 69.6121ZM 57 94.9256L 56.1883 96.7534L 58.4137 93.5108L 57 94.9256ZM 190 71.6121C 191.105 71.6121 192 70.7166 192 69.6121C 192 68.5075 191.105 67.6121 190 67.6121L 190 71.6121ZM 158.333 69.6121L 158.333 67.6121L 157.505 67.6121L 156.92 68.1973L 158.333 69.6121ZM 131.586 93.5108C 130.805 94.2915 130.804 95.5579 131.585 96.3392C 132.366 97.1206 133.632 97.1211 134.414 96.3403L 131.586 93.5108ZM 42.3333 120.239L 42.3333 132.896L 46.3333 132.896L 46.3333 120.239L 42.3333 120.239ZM 42.3333 132.896C 42.3333 134.043 41.8772 135.144 41.0647 135.956L 43.892 138.785C 45.455 137.224 46.3333 135.105 46.3333 132.896L 42.3333 132.896ZM 41.0647 135.956C 40.2522 136.768 39.1498 137.224 38 137.224L 38 141.224C 40.2096 141.224 42.3291 140.347 43.892 138.785L 41.0647 135.956ZM 38 137.224L 12.6667 137.224L 12.6667 141.224L 38 141.224L 38 137.224ZM 12.6667 137.224C 11.5169 137.224 10.4145 136.768 9.60199 135.956L 6.77467 138.785C 8.33759 140.347 10.457 141.224 12.6667 141.224L 12.6667 137.224ZM 9.60199 135.956C 8.7895 135.144 8.33334 134.043 8.33334 132.896L 4.33334 132.896C 4.33334 135.105 5.21169 137.224 6.77467 138.785L 9.60199 135.956ZM 8.33334 132.896L 8.33334 119.606L 4.33334 119.606L 4.33334 132.896L 8.33334 132.896ZM 6.30003 121.606L 44.3 122.239L 44.3666 118.239L 6.36664 117.606L 6.30003 121.606ZM 181.667 119.606L 181.667 132.896L 185.667 132.896L 185.667 119.606L 181.667 119.606ZM 181.667 132.896C 181.667 134.043 181.211 135.144 180.398 135.956L 183.225 138.785C 184.788 137.224 185.667 135.105 185.667 132.896L 181.667 132.896ZM 180.398 135.956C 179.585 136.768 178.483 137.224 177.333 137.224L 177.333 141.224C 179.543 141.224 181.662 140.347 183.225 138.785L 180.398 135.956ZM 177.333 137.224L 152 137.224L 152 141.224L 177.333 141.224L 177.333 137.224ZM 152 137.224C 150.85 137.224 149.748 136.768 148.935 135.956L 146.108 138.785C 147.671 140.347 149.79 141.224 152 141.224L 152 137.224ZM 148.935 135.956C 148.123 135.144 147.667 134.043 147.667 132.896L 143.667 132.896C 143.667 135.105 144.545 137.224 146.108 138.785L 148.935 135.956ZM 147.667 132.896L 147.667 120.239L 143.667 120.239L 143.667 132.896L 147.667 132.896ZM 145.7 122.239L 183.7 121.606L 183.633 117.606L 145.633 118.239L 145.7 122.239ZM 69.6667 77.9405L 120.333 77.9405L 120.333 73.9405L 69.6667 73.9405L 69.6667 77.9405ZM 166.33 36.8602L 140.997 -1.11L 137.67 1.11L 163.003 39.0802L 166.33 36.8602ZM 139.333 -2L 50.6667 -2L 50.6667 2L 139.333 2L 139.333 -2ZM 49.003 -1.11L 23.6696 36.8602L 26.997 39.0802L 52.3304 1.11L 49.003 -1.11ZM 23.9197 36.5555L -1.41366 61.8689L 1.41366 64.6985L 26.747 39.385L 23.9197 36.5555ZM -2 63.2837L -2 110.746L 2 110.746L 2 63.2837L -2 63.2837ZM -2 110.746C -2 113.795 -0.788015 116.718 1.36883 118.873L 4.19614 116.044C 2.7898 114.639 2 112.733 2 110.746L -2 110.746ZM 1.36883 118.873C 3.52562 121.029 6.45052 122.239 9.5 122.239L 9.5 118.239C 7.51037 118.239 5.60255 117.449 4.19614 116.044L 1.36883 118.873ZM 9.5 122.239L 180.5 122.239L 180.5 118.239L 9.5 118.239L 9.5 122.239ZM 180.5 122.239C 183.549 122.239 186.474 121.029 188.631 118.873L 185.804 116.044C 184.397 117.449 182.49 118.239 180.5 118.239L 180.5 122.239ZM 188.631 118.873C 190.788 116.718 192 113.795 192 110.746L 188 110.746C 188 112.733 187.21 114.639 185.804 116.044L 188.631 118.873ZM 192 110.746L 192 63.2837L 188 63.2837L 188 110.746L 192 110.746ZM 191.414 61.8689L 166.08 36.5555L 163.253 39.385L 188.586 64.6985L 191.414 61.8689ZM 19.6333 46.2986L 171 46.2986L 171 42.2986L 19.6333 42.2986L 19.6333 46.2986ZM 0 96.9256L 190 96.9256L 190 92.9256L 0 92.9256L 0 96.9256ZM 0 39.9702L 25.3333 39.9702L 25.3333 35.9702L 0 35.9702L 0 39.9702ZM 164.667 39.9702L 190 39.9702L 190 35.9702L 164.667 35.9702L 164.667 39.9702ZM 0 71.6121L 31.6667 71.6121L 31.6667 67.6121L 0 67.6121L 0 71.6121ZM 30.253 71.0268L 55.5863 96.3403L 58.4137 93.5108L 33.0803 68.1973L 30.253 71.0268ZM 57.8117 93.0977L 0.811745 67.7842L -0.811745 71.4399L 56.1883 96.7534L 57.8117 93.0977ZM 190 67.6121L 158.333 67.6121L 158.333 71.6121L 190 71.6121L 190 67.6121ZM 156.92 68.1973L 131.586 93.5108L 134.414 96.3403L 159.747 71.0268L 156.92 68.1973Z"/>
</defs>
</svg>
