<svg width="200" height="200" viewBox="0 0 200 200" version="1.1" xmlns="http://www.w3.org/2000/svg" xmlns:xlink="http://www.w3.org/1999/xlink">
<title>education</title>
<desc>Created using Figma</desc>
<g id="Canvas" transform="translate(-409 -2930)">
<g id="education">
<g id="icon">
<use xlink:href="#path0_stroke" transform="translate(414 2935)" fill="#FFFFFF"/>
</g>
</g>
</g>
<defs>
<path id="path0_stroke" d="M 25.3333 23.3333C 24.2288 23.3333 23.3333 24.2287 23.3333 25.3333C 23.3333 26.4378 24.2288 27.3333 25.3333 27.3333L 25.3333 23.3333ZM 120.333 27.3333C 121.438 27.3333 122.333 26.4378 122.333 25.3333C 122.333 24.2287 121.438 23.3333 120.333 23.3333L 120.333 27.3333ZM 95 173C 96.1046 173 97 172.105 97 171C 97 169.895 96.1046 169 95 169L 95 173ZM 0 145.667L -2 145.667L 0 145.667ZM 0 25.3333L -2 25.3333L 0 25.3333ZM 126.667 2C 127.771 2 128.667 1.10457 128.667 0C 128.667 -1.10457 127.771 -2 126.667 -2L 126.667 2ZM 25.3333 50.6667L 25.3333 52.6667L 25.3333 50.6667ZM 126.667 50.6667L 128.667 50.6667L 128.667 48.6667L 126.667 48.6667L 126.667 50.6667ZM 124.667 129.833C 124.667 130.938 125.562 131.833 126.667 131.833C 127.771 131.833 128.667 130.938 128.667 129.833L 124.667 129.833ZM 167.833 88.6667L 169.248 87.2525L 167.837 85.8416L 166.423 87.2491L 167.833 88.6667ZM 101.967 154.217L 100.556 152.799L 100.256 153.097L 100.103 153.491L 101.967 154.217ZM 88.0333 190L 86.1696 189.274L 84.5419 193.454L 88.7391 191.871L 88.0333 190ZM 124.133 176.383L 124.839 178.255L 125.24 178.103L 125.544 177.801L 124.133 176.383ZM 190 110.833L 191.411 112.251L 192.832 110.837L 191.414 109.419L 190 110.833ZM 25.3333 27.3333L 120.333 27.3333L 120.333 23.3333L 25.3333 23.3333L 25.3333 27.3333ZM 95 169L 25.3333 169L 25.3333 173L 95 173L 95 169ZM 25.3333 169C 19.145 169 13.21 166.542 8.83418 162.166L 6.00575 164.994C 11.1317 170.12 18.0841 173 25.3333 173L 25.3333 169ZM 8.83418 162.166C 4.45833 157.79 2 151.855 2 145.667L -2 145.667C -2 152.916 0.879755 159.868 6.00575 164.994L 8.83418 162.166ZM 2 145.667L 2 25.3333L -2 25.3333L -2 145.667L 2 145.667ZM 126.667 -2L 25.3333 -2L 25.3333 2L 126.667 2L 126.667 -2ZM 25.3333 -2C 18.0841 -2 11.1317 0.879755 6.00575 6.00575L 8.83418 8.83418C 13.21 4.45833 19.145 2 25.3333 2L 25.3333 -2ZM 6.00575 6.00575C 0.879758 11.1317 -2 18.084 -2 25.3333L 2 25.3333C 2 19.1449 4.45832 13.21 8.83418 8.83418L 6.00575 6.00575ZM -2 25.3333C -2 32.5825 0.879751 39.5349 6.00575 44.6609L 8.83418 41.8325C 4.45833 37.4567 2 31.5217 2 25.3333L -2 25.3333ZM 6.00575 44.6609C 11.1317 49.7869 18.0841 52.6667 25.3333 52.6667L 25.3333 48.6667C 19.145 48.6667 13.21 46.2084 8.83418 41.8325L 6.00575 44.6609ZM 25.3333 52.6667L 126.667 52.6667L 126.667 48.6667L 25.3333 48.6667L 25.3333 52.6667ZM 124.667 50.6667L 124.667 129.833L 128.667 129.833L 128.667 50.6667L 124.667 50.6667ZM 166.423 87.2491L 100.556 152.799L 103.377 155.634L 169.244 90.0843L 166.423 87.2491ZM 100.103 153.491L 86.1696 189.274L 89.897 190.726L 103.83 154.942L 100.103 153.491ZM 88.7391 191.871L 124.839 178.255L 123.427 174.512L 87.3275 188.129L 88.7391 191.871ZM 125.544 177.801L 191.411 112.251L 188.589 109.416L 122.723 174.966L 125.544 177.801ZM 191.414 109.419L 169.248 87.2525L 166.419 90.0809L 188.586 112.248L 191.414 109.419ZM 100.552 155.631L 122.719 177.798L 125.548 174.969L 103.381 152.802L 100.552 155.631Z"/>
</defs>
</svg>
