<svg width="200" height="200" viewBox="0 0 200 200" version="1.1" xmlns="http://www.w3.org/2000/svg" xmlns:xlink="http://www.w3.org/1999/xlink">
<title>entertainment</title>
<desc>Created using Figma</desc>
<g id="Canvas" transform="translate(-1115 -2597)">
<g id="entertainment">
<g id="icon">
<use xlink:href="#path0_stroke" transform="translate(1120 2602)" fill="#FFFFFF"/>
</g>
</g>
</g>
<defs>
<path id="path0_stroke" d="M 167.833 52.8833L 169.248 51.4691L 167.98 50.2014L 166.582 51.3235L 167.833 52.8833ZM 137.117 22.1667L 138.677 23.4184L 139.799 22.0201L 138.531 20.7525L 137.117 22.1667ZM 114.95 0L 116.364 -1.41421L 114.95 -2.82843L 113.536 -1.41421L 114.95 0ZM 0 114.95L -1.41421 113.536L -2.82843 114.95L -1.41421 116.364L 0 114.95ZM 22.1667 137.117L 20.7525 138.531L 22.0201 139.799L 23.4184 138.677L 22.1667 137.117ZM 52.8833 167.833L 51.3235 166.582L 50.2014 167.98L 51.4691 169.248L 52.8833 167.833ZM 75.05 190L 73.6358 191.414L 75.05 192.828L 76.4642 191.414L 75.05 190ZM 190 75.05L 191.414 76.4642L 192.828 75.05L 191.414 73.6358L 190 75.05ZM 90.5668 139.333L 91.9668 140.761L 91.9739 140.754L 91.981 140.747L 90.5668 139.333ZM 77.2668 139.333L 75.8526 140.747L 75.8596 140.754L 75.8668 140.761L 77.2668 139.333ZM 50.6668 112.733L 49.2385 114.133L 49.2455 114.14L 49.2525 114.147L 50.6668 112.733ZM 47.9511 106.083L 45.9511 106.083L 47.9511 106.083ZM 50.6668 99.433L 49.2525 98.0188L 49.2455 98.0259L 49.2385 98.033L 50.6668 99.433ZM 99.4334 50.6664L 98.0334 49.2381L 98.0263 49.2451L 98.0192 49.2521L 99.4334 50.6664ZM 106.083 47.9507L 106.083 45.9507L 106.083 47.9507ZM 112.733 50.6664L 114.148 49.2521L 114.141 49.2451L 114.133 49.2381L 112.733 50.6664ZM 139.333 77.2664L 140.762 75.8664L 140.755 75.8592L 140.748 75.8521L 139.333 77.2664ZM 142.049 83.9164L 140.049 83.9164L 142.049 83.9164ZM 139.333 90.5664L 140.748 91.9806L 140.755 91.9735L 140.762 91.9664L 139.333 90.5664ZM 166.582 51.3235C 162.688 54.491 158.085 55.9694 153.075 55.6623L 152.857 59.6564C 158.597 59.9366 164.583 58.0136 169.085 54.4432L 166.582 51.3235ZM 153.075 55.6623C 148.061 55.4218 143.648 53.4508 140.122 49.878L 137.294 52.7064C 141.38 56.746 147.121 59.3097 152.857 59.6564L 153.075 55.6623ZM 140.122 49.878C 136.549 46.3522 134.578 41.9385 134.338 36.9247L 130.344 37.1429C 130.69 42.8788 133.254 48.6197 137.294 52.7064L 140.122 49.878ZM 134.338 36.9247C 134.031 31.9145 135.509 27.3124 138.677 23.4184L 135.557 20.9149C 131.986 25.4174 130.063 31.4034 130.344 37.1429L 134.338 36.9247ZM 138.531 20.7525L 116.364 -1.41421L 113.536 1.41421L 135.702 23.5809L 138.531 20.7525ZM 113.536 -1.41421L -1.41421 113.536L 1.41421 116.364L 116.364 1.41421L 113.536 -1.41421ZM -1.41421 116.364L 20.7525 138.531L 23.5809 135.702L 1.41421 113.536L -1.41421 116.364ZM 23.4184 138.677C 27.3124 135.509 31.9145 134.031 36.9247 134.338L 37.1429 130.344C 31.4034 130.063 25.4174 131.986 20.9149 135.557L 23.4184 138.677ZM 36.9247 134.338C 41.9385 134.578 46.3522 136.549 49.878 140.122L 52.7064 137.294C 48.6197 133.254 42.8788 130.69 37.1429 130.344L 36.9247 134.338ZM 49.878 140.122C 53.4508 143.648 55.4218 148.061 55.6623 153.075L 59.6564 152.857C 59.3097 147.121 56.746 141.38 52.7064 137.294L 49.878 140.122ZM 55.6623 153.075C 55.9694 158.085 54.491 162.688 51.3235 166.582L 54.4432 169.085C 58.0136 164.583 59.9366 158.597 59.6564 152.857L 55.6623 153.075ZM 51.4691 169.248L 73.6358 191.414L 76.4642 188.586L 54.2975 166.419L 51.4691 169.248ZM 76.4642 191.414L 191.414 76.4642L 188.586 73.6358L 73.6358 188.586L 76.4642 191.414ZM 191.414 73.6358L 169.248 51.4691L 166.419 54.2975L 188.586 76.4642L 191.414 73.6358ZM 89.1668 137.905C 87.7648 139.279 85.8799 140.049 83.9168 140.049L 83.9168 144.049C 86.9269 144.049 89.8171 142.868 91.9668 140.761L 89.1668 137.905ZM 83.9168 140.049C 81.9536 140.049 80.0687 139.279 78.6668 137.905L 75.8668 140.761C 78.0164 142.868 80.9066 144.049 83.9168 144.049L 83.9168 140.049ZM 78.681 137.919L 52.081 111.319L 49.2525 114.147L 75.8526 140.747L 78.681 137.919ZM 52.095 111.333C 50.7208 109.931 49.9511 108.046 49.9511 106.083L 45.9511 106.083C 45.9511 109.093 47.1314 111.983 49.2385 114.133L 52.095 111.333ZM 49.9511 106.083C 49.9511 104.12 50.7208 102.235 52.095 100.833L 49.2385 98.033C 47.1314 100.183 45.9511 103.073 45.9511 106.083L 49.9511 106.083ZM 52.081 100.847L 100.848 52.0806L 98.0192 49.2521L 49.2525 98.0188L 52.081 100.847ZM 100.833 52.0946C 102.235 50.7204 104.12 49.9507 106.083 49.9507L 106.083 45.9507C 103.073 45.9507 100.183 47.131 98.0334 49.2381L 100.833 52.0946ZM 106.083 49.9507C 108.047 49.9507 109.931 50.7204 111.333 52.0946L 114.133 49.2381C 111.984 47.131 109.094 45.9507 106.083 45.9507L 106.083 49.9507ZM 111.319 52.0806L 137.919 78.6806L 140.748 75.8521L 114.148 49.2521L 111.319 52.0806ZM 137.905 78.6664C 139.279 80.0683 140.049 81.9532 140.049 83.9164L 144.049 83.9164C 144.049 80.9062 142.869 78.016 140.762 75.8664L 137.905 78.6664ZM 140.049 83.9164C 140.049 85.8795 139.279 87.7644 137.905 89.1664L 140.762 91.9664C 142.869 89.8167 144.049 86.9265 144.049 83.9164L 140.049 83.9164ZM 137.919 89.1521L 89.1526 137.919L 91.981 140.747L 140.748 91.9806L 137.919 89.1521Z"/>
</defs>
</svg>
