<svg width="200" height="200" viewBox="0 0 200 200" version="1.1" xmlns="http://www.w3.org/2000/svg" xmlns:xlink="http://www.w3.org/1999/xlink">
<title>Vector</title>
<desc>Created using Figma</desc>
<g id="Canvas" transform="translate(-2205 -452)">
<g id="Vector">
<use xlink:href="#path0_fill" transform="translate(2205 452)" fill="#363537"/>
</g>
</g>
<defs>
<path id="path0_fill" d="M 188.955 1.56417e-10L 11.0387 1.56417e-10C 4.94632 1.56417e-10 0 4.93644 0 11.0387L 0 188.955C 0 195.057 4.94632 200 11.0387 200L 106.823 200L 106.823 122.548L 80.7614 122.548L 80.7614 92.3599L 106.823 92.3599L 106.823 70.0981C 106.823 44.2699 122.594 30.1982 145.64 30.1982C 156.688 30.1982 166.163 31.0248 168.926 31.3838L 168.926 58.3811L 152.941 58.3877C 140.41 58.3877 137.993 64.345 137.993 73.0817L 137.993 92.35L 167.888 92.35L 163.979 122.535L 137.99 122.535L 137.99 199.99L 188.951 199.99C 195.05 199.99 200 195.041 200 188.955L 200 11.0321C 199.997 4.93644 195.054 1.56417e-10 188.955 1.56417e-10Z"/>
</defs>
</svg>
