<svg width="107" height="192" viewBox="0 0 107 192" version="1.1" xmlns="http://www.w3.org/2000/svg" xmlns:xlink="http://www.w3.org/1999/xlink">
<title>facebook</title>
<desc>Created using Figma</desc>
<g id="Canvas" transform="translate(-801 -1341)">
<g id="facebook">
<g id="icon">
<use xlink:href="#path0_fill" transform="translate(803 1342)" fill="#FAFAFA"/>
</g>
</g>
</g>
<defs>
<path id="path0_fill" d="M 99.0787 0.0395327L 74.3843 0C 46.641 0 28.712 18.353 28.712 46.7593L 28.712 68.3184L 3.88295 68.3184C 1.73742 68.3184 -6.65041e-07 70.0539 -6.65041e-07 72.1946L -6.65041e-07 103.431C -6.65041e-07 105.572 1.7394 107.306 3.88295 107.306L 28.712 107.306L 28.712 186.126C 28.712 188.266 30.4495 190 32.595 190L 64.9899 190C 67.1354 190 68.8729 188.265 68.8729 186.126L 68.8729 107.306L 97.9039 107.306C 100.049 107.306 101.787 105.572 101.787 103.431L 101.799 72.1946C 101.799 71.1667 101.389 70.1824 100.662 69.455C 99.9345 68.7276 98.9439 68.3184 97.9138 68.3184L 68.8729 68.3184L 68.8729 50.0424C 68.8729 41.2583 70.9708 36.799 82.4394 36.799L 99.0747 36.7931C 101.218 36.7931 102.956 35.0576 102.956 32.9189L 102.956 3.91374C 102.956 1.77699 101.22 0.043486 99.0787 0.0395327Z"/>
</defs>
</svg>
