<svg width="200" height="200" viewBox="0 0 200 200" version="1.1" xmlns="http://www.w3.org/2000/svg" xmlns:xlink="http://www.w3.org/1999/xlink">
<title>filter</title>
<desc>Created using Figma</desc>
<g id="Canvas" transform="translate(-1118 -2273)">
<g id="filter">
<g id="icon">
<use xlink:href="#path0_fill" transform="translate(1126 2278)" fill="#363537"/>
<use xlink:href="#path1_fill" transform="translate(1126 2278)" fill="#363537"/>
<use xlink:href="#path2_fill" transform="translate(1126 2278)" fill="#363537"/>
</g>
</g>
</g>
<defs>
<path id="path0_fill" d="M 135.956 162.857L 3.3921 162.857C 1.51627 162.857 0 164.377 0 166.25C 0 168.123 1.51627 169.643 3.3921 169.643L 135.956 169.643C 137.611 181.134 147.492 190 159.429 190C 172.519 190 183.174 179.346 183.174 166.25C 183.174 153.154 172.519 142.5 159.429 142.5C 147.492 142.5 137.611 151.366 135.956 162.857Z"/>
<path id="path1_fill" d="M 66.8075 91.6071L 3.3921 91.6071C 1.51627 91.6071 0 93.1271 0 95C 0 96.8729 1.51627 98.3929 3.3921 98.3929L 66.5938 98.3929C 67.9371 110.614 78.3169 120.155 90.8847 120.155C 103.452 120.155 113.832 110.614 115.176 98.3929L 179.782 98.3929C 181.657 98.3929 183.174 96.8729 183.174 95C 183.174 93.1271 181.657 91.6071 179.782 91.6071L 114.962 91.6071C 113.005 80.0714 102.967 71.25 90.8847 71.25C 78.802 71.25 68.7647 80.0714 66.8075 91.6071Z"/>
<path id="path2_fill" d="M 23.7447 0C 10.6546 0 0 10.6536 0 23.75C 0 36.8464 10.6546 47.5 23.7447 47.5C 35.6815 47.5 45.5628 38.6345 47.2181 27.1429L 179.782 27.1429C 181.657 27.1429 183.174 25.6229 183.174 23.75C 183.174 21.8771 181.657 20.3571 179.782 20.3571L 47.2181 20.3571C 45.5628 8.86553 35.6815 0 23.7447 0Z"/>
</defs>
</svg>
