<svg width="190" height="190" viewBox="0 0 190 190" version="1.1" xmlns="http://www.w3.org/2000/svg" xmlns:xlink="http://www.w3.org/1999/xlink">
<title>filter</title>
<desc>Created using Figma</desc>
<g id="Canvas" transform="translate(-1857 -1084)">
<g id="filter">
<g id="icon">
<use xlink:href="#path0_fill" transform="translate(1861 1085)" fill="#444444"/>
<use xlink:href="#path1_fill" transform="translate(1861 1085)" fill="#444444"/>
<use xlink:href="#path2_fill" transform="translate(1861 1085)" fill="#444444"/>
</g>
</g>
</g>
<defs>
<path id="path0_fill" d="M 134.524 161.143L 3.3564 161.143C 1.50031 161.143 0 162.647 0 164.5C 0 166.353 1.50031 167.857 3.3564 167.857L 134.524 167.857C 136.162 179.228 145.94 188 157.751 188C 170.703 188 181.245 177.459 181.245 164.5C 181.245 151.541 170.703 141 157.751 141C 145.94 141 136.162 149.772 134.524 161.143Z"/>
<path id="path1_fill" d="M 66.1043 90.6429L 3.3564 90.6429C 1.50031 90.6429 0 92.1469 0 94C 0 95.8531 1.50031 97.3571 3.3564 97.3571L 65.8928 97.3571C 67.2219 109.45 77.4925 118.89 89.928 118.89C 102.363 118.89 112.634 109.45 113.963 97.3571L 177.889 97.3571C 179.745 97.3571 181.245 95.8531 181.245 94C 181.245 92.1469 179.745 90.6429 177.889 90.6429L 113.752 90.6429C 111.815 79.2286 101.883 70.5 89.928 70.5C 77.9725 70.5 68.0409 79.2286 66.1043 90.6429Z"/>
<path id="path2_fill" d="M 23.4948 0C 10.5424 0 0 10.5414 0 23.5C 0 36.4586 10.5424 47 23.4948 47C 35.306 47 45.0831 38.2278 46.7211 26.8571L 177.889 26.8571C 179.745 26.8571 181.245 25.3531 181.245 23.5C 181.245 21.6469 179.745 20.1429 177.889 20.1429L 46.7211 20.1429C 45.0831 8.77221 35.306 0 23.4948 0Z"/>
</defs>
</svg>
