<svg width="200" height="200" viewBox="0 0 200 200" version="1.1" xmlns="http://www.w3.org/2000/svg" xmlns:xlink="http://www.w3.org/1999/xlink">
<title>food</title>
<desc>Created using Figma</desc>
<g id="Canvas" transform="translate(-56 -2597)">
<g id="food">
<g id="icon">
<use xlink:href="#path0_stroke" transform="translate(61 2605)" fill="#FFFFFF"/>
</g>
</g>
</g>
<defs>
<path id="path0_stroke" d="M 50.5172 64.378C 51.2955 65.1617 52.5619 65.1661 53.3456 64.3877C 54.1293 63.6094 54.1337 62.343 53.3554 61.5593L 50.5172 64.378ZM 12.503 20.424C 11.7247 19.6403 10.4584 19.6359 9.67464 20.4143C 8.8909 21.1926 8.88653 22.4589 9.66487 23.2427L 12.503 20.424ZM 23.2649 9.34367C 22.4835 8.56294 21.2172 8.56346 20.4364 9.34483C 19.6557 10.1262 19.6562 11.3925 20.4376 12.1733L 23.2649 9.34367ZM 61.6066 53.3085C 62.388 54.0893 63.6543 54.0887 64.435 53.3074C 65.2158 52.526 65.2152 51.2597 64.4339 50.479L 61.6066 53.3085ZM 115.273 126.254L 114.119 124.62L 112.174 125.995L 113.864 127.673L 115.273 126.254ZM 169.743 180.362L 171.157 178.948L 171.152 178.944L 169.743 180.362ZM 175.127 182.591L 175.127 184.591L 175.127 182.591ZM 182.74 174.983L 184.74 174.983L 182.74 174.983ZM 180.51 169.604L 179.092 171.014L 179.097 171.019L 180.51 169.604ZM 128.257 117.077L 129.675 115.667L 128.483 114.469L 127.103 115.444L 128.257 117.077ZM 99.2921 90.9632C 100.073 91.7439 101.34 91.7434 102.12 90.962C 102.901 90.1806 102.901 88.9143 102.119 88.1336L 99.2921 90.9632ZM 89.3051 78.1571L 87.6414 77.047L 86.7306 78.412L 87.8914 79.5718L 89.3051 78.1571ZM 87.0883 48.7295L 88.4759 47.2892L 88.4514 47.2656L 88.4261 47.2428L 87.0883 48.7295ZM 32.9352 0L 34.273 -1.4867L 32.87 -2.7492L 31.5284 -1.42161L 32.9352 0ZM 0 32.5918L -1.40678 31.1702L -2.76406 32.5133L -1.48518 33.9313L 0 32.5918ZM 49.0861 87.017L 47.6009 88.3564L 47.6357 88.395L 47.6725 88.4317L 49.0861 87.017ZM 78.5378 89.2319L 79.9514 87.8171L 78.7925 86.6592L 77.429 87.5674L 78.5378 89.2319ZM 88.5248 102.038C 89.3061 102.819 90.5725 102.818 91.3532 102.037C 92.1339 101.256 92.1334 99.9892 91.352 99.2084L 88.5248 102.038ZM 19.9513 170.553L 21.3194 172.012L 21.3425 171.99L 21.365 171.968L 19.9513 170.553ZM 17.5521 176.091L 19.5521 176.091L 17.5521 176.091ZM 19.9513 181.628L 21.4091 180.259L 21.3657 180.213L 21.3194 180.169L 19.9513 181.628ZM 31.0353 181.628L 29.6146 180.22L 29.5958 180.239L 29.5775 180.259L 31.0353 181.628ZM 95.1596 119.751C 95.937 118.966 95.9312 117.7 95.1465 116.922C 94.3619 116.145 93.0955 116.151 92.3181 116.935L 95.1596 119.751ZM 178.61 11.7076L 180.02 10.2889L 178.604 8.88177L 177.194 10.2951L 178.61 11.7076ZM 190 39.0783L 188 39.0783L 190 39.0783ZM 178.61 66.4491L 177.2 65.0305L 177.196 65.0343L 178.61 66.4491ZM 123.823 121.191L 122.41 119.776L 122.404 119.782L 122.398 119.788L 123.823 121.191ZM 96.2719 121.191L 94.8417 122.589L 94.8463 122.593L 96.2719 121.191ZM 53.3554 61.5593L 12.503 20.424L 9.66487 23.2427L 50.5172 64.378L 53.3554 61.5593ZM 20.4376 12.1733L 61.6066 53.3085L 64.4339 50.479L 23.2649 9.34367L 20.4376 12.1733ZM 113.864 127.673L 168.333 181.781L 171.152 178.944L 116.683 124.835L 113.864 127.673ZM 168.329 181.777C 170.132 183.579 172.577 184.591 175.127 184.591L 175.127 180.591C 173.637 180.591 172.209 179.999 171.157 178.948L 168.329 181.777ZM 175.127 184.591C 177.676 184.591 180.121 183.579 181.924 181.777L 179.097 178.948C 178.044 179.999 176.616 180.591 175.127 180.591L 175.127 184.591ZM 181.924 181.777C 183.727 179.976 184.74 177.532 184.74 174.983L 180.74 174.983C 180.74 176.47 180.149 177.896 179.097 178.948L 181.924 181.777ZM 184.74 174.983C 184.74 172.435 183.727 169.991 181.924 168.189L 179.097 171.019C 180.149 172.07 180.74 173.497 180.74 174.983L 184.74 174.983ZM 181.928 168.193L 129.675 115.667L 126.839 118.488L 179.092 171.014L 181.928 168.193ZM 127.103 115.444L 114.119 124.62L 116.427 127.887L 129.412 118.711L 127.103 115.444ZM 102.119 88.1336L 90.7187 76.7423L 87.8914 79.5718L 99.2921 90.9632L 102.119 88.1336ZM 90.9687 79.2671C 97.717 69.153 98.1876 56.6464 88.4759 47.2892L 85.7006 50.1698C 93.7232 57.8996 93.5605 68.1756 87.6414 77.047L 90.9687 79.2671ZM 88.4261 47.2428L 34.273 -1.4867L 31.5974 1.4867L 85.7505 50.2162L 88.4261 47.2428ZM 31.5284 -1.42161L -1.40678 31.1702L 1.40678 34.0134L 34.342 1.42161L 31.5284 -1.42161ZM -1.48518 33.9313L 47.6009 88.3564L 50.5713 85.6775L 1.48518 31.2523L -1.48518 33.9313ZM 47.6725 88.4317C 57.0025 97.7541 69.4842 97.6658 79.6465 90.8965L 77.429 87.5674C 68.5903 93.4551 58.2707 93.3667 50.4997 85.6022L 47.6725 88.4317ZM 77.1241 90.6467L 88.5248 102.038L 91.352 99.2084L 79.9514 87.8171L 77.1241 90.6467ZM 81.5579 106.17L 18.5377 169.138L 21.365 171.968L 84.3852 108.999L 81.5579 106.17ZM 18.5832 169.094C 17.6842 169.952 16.8458 171.143 16.3425 172.279L 20.0128 173.869C 20.3348 173.099 20.7037 172.575 21.3194 172.012L 18.5832 169.094ZM 16.3425 172.279C 15.8583 173.422 15.5626 174.849 15.5521 176.091L 19.5521 176.091C 19.5417 175.257 19.6717 174.63 20.0128 173.869L 16.3425 172.279ZM 15.5521 176.091C 15.5626 177.333 15.8583 178.759 16.3425 179.903L 20.0128 178.313C 19.6717 177.552 19.5417 176.924 19.5521 176.091L 15.5521 176.091ZM 16.3425 179.903C 16.8458 181.038 17.6842 182.23 18.5832 183.087L 21.3194 180.169C 20.7037 179.606 20.3348 179.082 20.0128 178.313L 16.3425 179.903ZM 18.4935 182.997C 19.3515 183.896 20.5436 184.733 21.6798 185.236L 23.2678 181.565C 22.4976 181.243 21.9727 180.874 21.4091 180.259L 18.4935 182.997ZM 21.6798 185.236C 22.8241 185.72 24.2509 186.015 25.4933 186.025L 25.4933 182.025C 24.6584 182.036 24.0298 181.906 23.2678 181.565L 21.6798 185.236ZM 25.4933 186.025C 26.7357 186.015 28.1625 185.72 29.3068 185.236L 27.7188 181.565C 26.9568 181.906 26.3282 182.036 25.4933 182.025L 25.4933 186.025ZM 29.3068 185.236C 30.4429 184.733 31.6351 183.896 32.4931 182.997L 29.5775 180.259C 29.0139 180.874 28.489 181.243 27.7188 181.565L 29.3068 185.236ZM 32.456 183.036L 95.1596 119.751L 92.3181 116.935L 29.6146 180.22L 32.456 183.036ZM 84.3875 108.997L 180.026 13.12L 177.194 10.2951L 81.5556 106.172L 84.3875 108.997ZM 177.2 13.1262C 180.677 16.568 183.322 20.5062 185.193 25.0255L 188.886 23.4887C 186.846 18.6135 183.762 14.0219 180.02 10.2889L 177.2 13.1262ZM 185.193 25.0255C 187.081 29.5372 188.01 34.1881 188 39.0783L 192 39.0783C 191.99 33.7944 190.907 28.3714 188.886 23.4887L 185.193 25.0255ZM 188 39.0783C 188.01 43.9686 187.081 48.6194 185.193 53.1312L 188.886 54.668C 190.907 49.7853 191.99 44.3623 192 39.0783L 188 39.0783ZM 185.193 53.1312C 183.322 57.6505 180.677 61.5887 177.2 65.0305L 180.02 67.8677C 183.762 64.1348 186.846 59.5432 188.886 54.668L 185.193 53.1312ZM 177.196 65.0343L 122.41 119.776L 125.237 122.605L 180.024 67.8639L 177.196 65.0343ZM 122.398 119.788C 120.746 121.481 118.93 122.71 116.744 123.615L 118.289 127.305C 120.833 126.229 123.305 124.555 125.249 122.593L 122.398 119.788ZM 116.744 123.615C 114.565 124.539 112.414 124.971 110.048 124.961L 110.048 128.961C 112.81 128.951 115.737 128.363 118.289 127.305L 116.744 123.615ZM 110.048 124.961C 107.681 124.971 105.53 124.539 103.352 123.615L 101.806 127.305C 104.358 128.363 107.285 128.951 110.048 128.961L 110.048 124.961ZM 103.352 123.615C 101.165 122.71 99.3495 121.481 97.6976 119.788L 94.8463 122.593C 96.7901 124.555 99.2623 126.229 101.806 127.305L 103.352 123.615ZM 97.7021 119.793L 84.4017 106.187L 81.5414 108.983L 94.8418 122.589L 97.7021 119.793Z"/>
</defs>
</svg>
