<svg width="192" height="192" viewBox="0 0 192 192" version="1.1" xmlns="http://www.w3.org/2000/svg" xmlns:xlink="http://www.w3.org/1999/xlink">
<title>google</title>
<desc>Created using Figma</desc>
<g id="Canvas" transform="translate(-388 -1341)">
<g id="google">
<g id="icon">
<use xlink:href="#path0_fill" transform="translate(389 1342)" fill="#FAFAFA"/>
</g>
</g>
</g>
<defs>
<path id="path0_fill" d="M 189.999 84.4435L 101.333 84.4435L 101.333 113.999L 155.429 113.999C 147.359 139.694 123.358 158.333 94.9992 158.333C 60.0206 158.333 31.6666 129.977 31.6666 94.9992C 31.6666 60.0205 60.0216 31.6662 94.9992 31.6662C 112.613 31.6662 128.545 38.8586 140.025 50.4644L 161.478 27.1452C 144.344 10.3559 120.883 1.27356e-07 94.9992 1.27356e-07C 42.5328 -0.000503223 0 42.5326 0 94.9992C 0 147.466 42.5328 190 94.9997 190C 140.959 190 181.197 157.361 190 114L 190 84.444L 189.999 84.4435Z"/>
</defs>
</svg>
