<svg width="200" height="200" viewBox="0 0 200 200" version="1.1" xmlns="http://www.w3.org/2000/svg" xmlns:xlink="http://www.w3.org/1999/xlink">
<title>health</title>
<desc>Created using Figma</desc>
<g id="Canvas" transform="translate(-762 -2930)">
<g id="health">
<g id="icon">
<use xlink:href="#path0_stroke" transform="translate(767 2945)" fill="#FFFFFF"/>
</g>
</g>
</g>
<defs>
<path id="path0_stroke" d="M 95 31.6292L 93.1197 32.3108L 95 37.4978L 96.8803 32.3108L 95 31.6292ZM 1.12503e-14 47.4439L -2 47.4439L 1.12503e-14 47.4439ZM 95 170.798L 93.8715 172.449L 95 173.22L 96.1285 172.449L 95 170.798ZM 190 47.4439L 192 47.4439L 190 47.4439ZM 142.5 -2C 121.162 -2 100.085 11.7326 93.1197 30.9476L 96.8803 32.3108C 103.215 14.836 122.671 2 142.5 2L 142.5 -2ZM 96.8803 30.9476C 89.9149 11.7326 68.8381 -2 47.5 -2L 47.5 2C 67.3286 2 86.7851 14.836 93.1197 32.3108L 96.8803 30.9476ZM 47.5 -2C 34.3725 -2 21.7823 3.20867 12.4991 12.4809L 15.3258 15.311C 23.8585 6.78839 35.4319 2 47.5 2L 47.5 -2ZM 12.4991 12.4809C 3.21574 21.7533 -2 34.3298 -2 47.4439L 2 47.4439C 2 35.3922 6.79316 23.8336 15.3258 15.311L 12.4991 12.4809ZM -2 47.4439C -2 68.5936 6.96211 89.5776 23.3677 110.36C 39.7208 131.062 63.696 151.823 93.8715 172.449L 96.1285 169.147C 66.1374 148.655 42.6125 128.298 26.5073 107.882C 10.4546 87.5461 2 67.4121 2 47.4439L -2 47.4439ZM 96.1285 172.449C 126.304 151.823 150.279 131.062 166.632 110.36C 183.038 89.5776 192 68.5936 192 47.4439L 188 47.4439C 188 67.4121 179.545 87.5461 163.493 107.882C 147.387 128.298 123.863 148.655 93.8715 169.147L 96.1285 172.449ZM 192 47.4439C 192 34.3298 186.784 21.7533 177.501 12.4809L 174.674 15.311C 183.207 23.8336 188 35.3922 188 47.4439L 192 47.4439ZM 177.501 12.4809C 168.218 3.20867 155.627 -2 142.5 -2L 142.5 2C 154.568 2 166.141 6.78839 174.674 15.311L 177.501 12.4809Z"/>
</defs>
</svg>
