<svg width="190" height="190" viewBox="0 0 190 190" version="1.1" xmlns="http://www.w3.org/2000/svg" xmlns:xlink="http://www.w3.org/1999/xlink">
<title>home</title>
<desc>Created using Figma</desc>
<g id="Canvas" transform="translate(-390 -1084)">
<g id="home">
<g id="icon">
<use xlink:href="#path0_fill" transform="translate(391 1085)" fill="#FEE000"/>
</g>
</g>
</g>
<defs>
<path id="path0_fill" d="M 185.987 85.7846L 93.5065 0L 1.02923 85.7846C -0.273453 86.9957 -0.35084 89.0347 0.861554 90.3392C 2.0675 91.6405 4.11502 91.7146 5.4177 90.5067L 19.3441 77.5868L 19.3441 88.1456L 19.3441 188L 70.9353 188L 70.9353 130.02C 70.9353 117.567 81.0407 107.472 93.5065 107.472C 105.972 107.472 116.078 117.567 116.078 130.02L 116.078 188L 167.669 188L 167.669 88.1456L 167.669 77.5868L 181.595 90.5067C 182.214 91.0833 183.004 91.3667 183.791 91.3667C 184.658 91.3667 185.519 91.0221 186.151 90.3392C 187.367 89.0347 187.29 86.9957 185.987 85.7846Z"/>
</defs>
</svg>
