<svg width="375" height="151" viewBox="0 0 375 151" version="1.1" xmlns="http://www.w3.org/2000/svg" xmlns:xlink="http://www.w3.org/1999/xlink">
<title>background</title>
<desc>Created using Figma</desc>
<g id="Canvas" transform="translate(-1533 -37)">
<g id="background">
<g id="icon">
<g id="path14">
<use xlink:href="#path0_fill" transform="matrix(0.133333 0 0 -0.133333 1533 186.436)" fill="#DDDDDD"/>
</g>
<g id="path16">
<use xlink:href="#path1_fill" transform="matrix(0.133333 0 0 -0.133333 1533 187.284)" fill="#888888"/>
</g>
<g id="path18">
<use xlink:href="#path2_fill" transform="matrix(0.133333 0 0 -0.133333 1825.99 187.284)" fill="#666666"/>
</g>
<g id="path20">
<use xlink:href="#path3_fill" transform="matrix(0.133333 0 0 -0.133333 1533 187.284)" fill="#666666"/>
</g>
</g>
</g>
</g>
<defs>
<path id="path0_fill" d="M -1.04504e-05 385.637L 10.5673 385.637L 10.5673 410.136L 33.4169 410.136L 33.4169 385.637L 80.5562 385.637L 80.5562 368.343L 90.5581 368.343L 90.5581 511.017L 101.981 511.017L 101.981 610.458L 113.409 610.458L 113.409 685.392L 124.835 685.392L 124.835 610.458L 140.551 610.458L 140.551 565.779L 140.551 508.131L 151.975 508.131L 151.975 410.136L 187.688 410.136L 187.688 425.988L 200.544 425.988L 200.544 437.521L 234.825 437.521L 234.825 470.666L 256.253 470.666L 256.253 459.136L 274.822 459.136L 274.822 438.957L 296.246 438.957L 296.246 451.922L 307.671 451.922L 307.671 512.456L 364.811 512.456L 364.811 490.841L 396.232 490.841L 396.232 477.868L 409.089 477.868L 409.089 469.223L 424.801 469.223L 424.801 438.957L 414.801 438.957L 414.801 405.812L 451.941 405.812L 451.941 430.312L 471.942 430.312L 471.942 417.339L 486.222 417.339L 486.222 391.4L 500.506 391.4L 500.506 460.579L 511.935 460.579L 511.935 485.074L 521.931 485.074L 521.931 621.988L 621.921 621.988L 621.921 414.461L 646.202 414.461L 646.202 394.282L 657.63 394.282L 657.63 384.194L 671.914 384.194L 671.914 349.607L 691.91 349.607L 691.91 372.664L 711.911 372.664L 711.911 349.607L 730.479 349.607L 730.479 457.693L 756.188 457.693L 756.188 517.499L 731.907 517.499L 731.907 528.31L 779.044 528.31L 779.044 646.488L 791.9 646.488L 791.9 545.6L 816.181 545.6L 816.181 529.757L 850.466 529.757L 850.466 517.499L 837.609 517.499L 837.609 339.523L 909.031 339.523L 909.031 594.607L 1020.45 594.607L 1020.45 355.374L 1066.15 355.374L 1066.15 495.17L 1074.01 503.091L 1074.01 512.459L 1090.43 512.459L 1090.43 528.31L 1117.58 528.31L 1117.58 518.223L 1124 511.74L 1124 561.459L 1150.43 561.459L 1150.43 518.223L 1158.28 510.297L 1158.28 500.929L 1177.56 500.929L 1177.56 492.28L 1201.85 492.28L 1201.85 407.255L 1240.41 407.255L 1240.41 538.398L 1251.84 538.398L 1251.84 584.516L 1288.99 584.516L 1288.99 609.012L 1306.13 609.012L 1306.13 597.489L 1358.98 597.489L 1358.98 617.664L 1390.4 617.664L 1390.4 598.928L 1421.83 598.928L 1421.83 472.105L 1526.1 472.105L 1526.1 454.815L 1510.38 454.815L 1510.38 431.755L 1538.96 431.755L 1538.96 372.664L 1563.23 372.664L 1563.23 312.138L 1576.09 312.138L 1576.09 345.286L 1588.95 345.286L 1588.95 388.522L 1607.51 388.522L 1607.51 446.159L 1620.37 446.159L 1620.37 511.017L 1628.95 511.017L 1628.95 444.72L 1657.51 444.72L 1657.51 431.755L 1697.5 431.755L 1697.5 404.369L 1714.64 404.369L 1714.64 339.515L 1838.92 339.515L 1867.48 339.515L 1867.48 776.188L 1897.48 776.188L 1897.48 800.688L 1910.34 800.688L 1910.34 836.718L 1931.76 836.718L 1931.76 933.274L 1944.62 933.274L 1944.62 838.161L 1966.04 838.161L 1966.04 803.57L 1988.9 803.57L 1988.9 776.188L 2010.33 776.188L 2010.33 511.017L 2010.33 447.609L 2053.18 447.609L 2053.18 402.93L 2076.03 402.93L 2076.03 519.665L 2094.6 519.665L 2094.6 538.398L 2158.87 538.398L 2158.87 554.253L 2208.87 554.253L 2225.17 537.808L 2236.02 526.868L 2236.02 548.486L 2261.72 548.486L 2261.72 538.398L 2261.72 518.223L 2286 518.223L 2286 434.636L 2345.99 434.636L 2345.99 489.402L 2328.86 489.402L 2328.86 506.689L 2354.56 506.689L 2354.56 568.665L 2373.14 568.665L 2373.14 601.809L 2404.56 601.809L 2404.56 622.711L 2433.13 622.711L 2433.13 603.248L 2461.7 603.248L 2461.7 574.428L 2478.84 574.428L 2478.84 511.017L 2520.26 511.017L 2520.26 622.711L 2597.39 622.711L 2597.39 466.345L 2627.39 466.345L 2627.39 433.197L 2636.67 423.829L 2636.67 397.167L 2660.25 397.167L 2660.25 449.052L 2687.39 449.052L 2687.39 476.429L 2703.1 476.429L 2703.1 447.605L 2728.82 447.605L 2728.82 487.96L 2758.81 487.96L 2758.81 591.725L 2812.5 591.725L 2812.5 -1.44129e-05L -1.04504e-05 -1.44129e-05L -1.04504e-05 385.637Z"/>
<path id="path1_fill" d="M -1.04504e-05 270.743L 20.4323 270.743L 20.4323 236.451L 70.7645 236.451L 70.7645 211.841L 101.633 211.841L 101.633 236.451L 112.08 236.451L 112.08 280.019L 123.949 280.019L 123.949 294.542L 127.75 297.767L 138.673 328.019L 147.695 297.767L 152.92 294.542L 152.92 280.418L 164.322 280.418L 164.322 263.478L 182.359 263.076L 182.359 299.383L 241.722 299.383L 241.722 313.101L 264.991 305.832L 264.991 300.191L 275.434 300.191L 275.434 262.674L 275.434 240.89L 282.563 240.89L 282.563 263.478L 304.405 263.478L 304.405 273.972L 314.855 273.972L 314.855 280.019L 314.855 299.781L 324.826 299.781L 324.826 340.527L 333.372 340.527L 333.372 299.781L 344.771 299.781L 344.771 273.16L 356.642 273.16L 356.642 263.884L 373.738 263.884L 373.738 340.527L 413.624 340.527L 413.624 308.662L 450.185 308.662L 450.185 315.92L 464.44 315.92L 464.44 310.673L 476.783 310.673L 476.783 277.599L 487.702 277.599L 487.702 287.69L 496.252 287.69L 496.252 316.735L 508.123 316.735L 508.123 329.243L 541.363 329.243L 550.389 318.754L 561.784 318.754L 561.784 307.053L 561.784 278.82L 590.275 278.82L 662.46 278.82L 662.46 255.42L 652.01 255.42L 652.01 243.321L 671.475 243.321L 671.475 284.461L 695.22 284.461L 695.22 245.325L 725.612 245.325L 725.612 265.902L 742.712 265.902L 742.712 272.355L 752.206 272.355L 757.904 267.515L 773.099 267.515L 773.099 245.325L 804.539 246.129L 804.539 263.386L 816.144 263.386L 816.144 289.45L 816.144 308.463L 845.58 308.463L 845.58 326.782L 908.595 326.782L 908.595 308.212L 976.16 308.212L 976.16 297.287L 997.589 297.287L 997.589 323.982L 1014.73 323.982L 1014.73 340.527L 1044.73 340.527L 1044.73 325.196L 1074.72 325.196L 1074.72 317.912L 1114.72 317.912L 1114.72 347.035L 1134.71 347.035L 1134.71 290.007L 1173.28 290.007L 1173.28 303.356L 1216.14 303.356L 1216.14 279.44L 1233.27 279.44L 1233.27 199L 1260.42 199L 1260.42 281.513L 1250.42 281.513L 1250.42 302.139L 1288.99 302.139L 1288.99 281.513L 1277.56 281.513L 1277.56 215.988L 1310.41 215.988L 1310.41 282.727L 1333.27 282.727L 1333.27 314.274L 1356.12 314.274L 1356.12 281.51L 1383.26 281.51L 1383.26 229.334L 1406.25 229.334L 1406.25 245.107L 1436.1 245.107L 1436.1 259.667L 1451.82 259.667L 1462.53 250.568L 1506.1 250.568L 1506.1 218.412L 1600.38 218.412L 1600.38 180.799L 1611.81 190.507L 1647.51 190.507L 1647.51 207.494L 1676.08 231.761L 1676.08 197.787L 1701.79 197.787L 1701.79 185.651L 1726.07 185.651L 1726.07 438.038L 1760.35 438.038L 1760.35 458.667L 1791.78 458.667L 1861.77 458.667L 1861.77 445.322L 1907.48 445.322L 1907.48 435.614L 1926.04 435.614L 1926.04 180.799L 1954.62 180.799L 1954.62 297.287L 1984.61 297.287L 1984.61 330.048L 2000.33 357.949L 2000.33 404.063L 2008.9 404.063L 2008.9 359.171L 2021.75 331.262L 2021.75 300.925L 2048.89 300.925L 2048.89 246.325L 2074.6 246.325L 2074.6 292.431L 2127.45 292.431L 2127.45 319.731L 2157.45 319.731L 2157.45 328.83L 2186.02 328.83L 2200.3 319.731L 2218.62 319.731L 2218.62 332.472L 2240.29 332.472L 2240.29 351.887L 2258.87 351.887L 2258.87 424.692L 2267.44 424.692L 2267.44 351.887L 2288.86 351.887L 2288.86 332.472L 2334.56 332.472L 2351.35 318.215L 2351.35 280.3L 2371.71 280.3L 2371.71 319.731L 2396 319.731L 2396 275.444L 2475.98 275.444L 2475.98 331.262L 2498.12 350.068L 2550.26 350.068L 2550.26 319.731L 2577.4 319.731L 2577.4 274.226L 2577.4 239.038L 2605.96 239.038L 2605.96 294.855L 2633.11 294.855L 2633.11 252.387L 2651.68 252.387L 2651.68 300.925L 2673.1 300.925L 2673.1 319.731L 2693.1 319.731L 2693.1 334.9L 2708.81 356.743L 2728.82 339.752L 2728.82 315.484L 2760.23 315.484L 2760.23 367.661L 2794.51 367.661L 2794.51 382.224L 2812.5 382.224L 2812.5 -7.20645e-06L -1.04504e-05 -7.20645e-06L -1.04504e-05 270.743"/>
<path id="path2_fill" d="M 615.061 72.0599L 571.363 70.6135L 571.363 44.675L 555.651 44.675L 555.651 83.5866L 519.95 83.5866L 519.95 95.1169L 505.665 95.1169L 505.665 83.5866L 488.518 83.5866L 488.518 44.675L 445.672 44.675L 445.672 69.8977L 432.812 69.8977L 432.812 79.2586L 419.956 79.2586L 419.956 53.32L 412.812 69.8977L 404.244 69.8977L 404.244 128.262L 388.524 128.262L 388.524 154.2L 367.107 154.2L 367.107 128.262L 347.107 128.262L 347.107 69.1746L 298.538 69.1746L 284.261 54.7626L 249.973 54.7626L 225.692 79.2586L 208.555 79.2586L 208.555 64.8503L 178.559 64.8503L 178.559 82.1476L 154.278 82.1476L 154.278 44.675L 88.5618 44.675L 88.5618 164.295L 64.281 164.295L 64.281 63.415L 10.0038 63.415L 10.0038 77.8232L 4.3243e-05 77.8232L 4.3243e-05 37.4689L 4.3243e-05 -7.20645e-06L 615.061 -7.20645e-06L 615.061 72.0599"/>
<path id="path3_fill" d="M 2148.88 -7.20645e-06L 2148.88 37.4689L 2107.46 37.4689L 2107.46 46.1177L 2076.03 46.1177L 2076.03 227.703L 2063.17 227.703L 2050.32 227.703L 2050.32 177.261L 2030.32 177.261L 2030.32 211.848L 2004.6 211.848L 2004.6 201.76L 1944.62 201.76L 1944.62 144.112L 1988.9 144.112L 1988.9 118.901L 1930.34 118.901L 1922.13 127.18L 1843.19 127.18L 1831.95 138.534L 1737.49 138.534L 1737.49 131.151L 1714.64 131.151L 1714.64 118.901L 1664.65 118.901L 1664.65 90.7925L 1686.08 90.7925L 1686.08 69.1746L 1640.37 69.1746L 1640.37 48.9992L 1620.37 48.9992L 1620.37 66.2967L 1580.38 66.2967L 1580.38 138.349L 1546.1 138.349L 1546.1 73.499L 1530.38 73.499L 1530.38 56.2015L 1504.67 56.2015L 1504.67 44.6786L 1504.67 74.9415L 1394.68 74.9415L 1381.83 87.911L 1381.83 112.411L 1364.68 112.411L 1344.7 112.411L 1326.12 131.143L 1326.12 146.998L 1260.42 146.998L 1260.42 131.143L 1238.99 109.525L 1231.85 106.647L 1231.85 82.1476L 1196.14 82.1476L 1196.14 132.586L 1171.85 132.586L 1171.85 82.1476L 1131.86 82.1476L 1131.86 138.349L 1110.43 138.349L 1110.43 100.88L 1077.58 100.88L 1077.58 87.9072L 1051.87 87.9072L 1051.87 72.0598L 1024.73 72.0598L 1024.73 96.5558L 983.305 96.5558L 983.305 145.555L 931.88 145.555L 931.88 63.415L 896.178 63.415L 869.034 90.7925L 869.034 129.708L 853.322 129.708L 776.188 129.708L 776.188 152.761L 757.62 152.761L 757.62 138.349L 733.335 138.349L 719.051 128.262L 697.623 128.262L 697.623 92.2316L 676.198 70.6135L 651.918 70.6135L 651.918 118.901L 626.209 118.901L 626.209 96.5558L 596.212 96.5558L 556.215 96.5558L 556.215 85.0293L 567.64 85.0293L 567.64 64.8503L 511.935 64.8503L 511.935 54.7626L 493.366 54.7626L 493.366 100.88L 471.942 100.88L 471.942 167.177L 461.941 167.177L 461.941 97.9986L 439.085 97.9986L 439.085 64.8503L 384.812 64.8503L 362.667 42.5091L 346.239 42.5091L 346.239 23.057L 326.243 23.057L 326.243 95.1169L 297.671 95.1169L 297.671 118.901L 279.106 118.901L 279.106 100.88L 260.534 100.88L 253.397 108.086L 231.969 108.086L 231.969 93.6742L 191.972 93.6742L 191.972 41.7933L 160.547 41.7933L 160.547 110.968L 94.8437 110.968L 94.8437 64.8503L 46.2743 64.8503L 46.2743 118.901L -1.04504e-05 118.901L -1.04504e-05 -7.20645e-06L 2148.88 -7.20645e-06Z"/>
</defs>
</svg>
