<svg width="200" height="200" viewBox="0 0 200 200" version="1.1" xmlns="http://www.w3.org/2000/svg" xmlns:xlink="http://www.w3.org/1999/xlink">
<title>icon</title>
<desc>Created using Figma</desc>
<g id="Canvas" transform="translate(-1468 -1949)">
<g id="icon">
<g id="icon">
<g id="g20">
<g id="path22">
<use xlink:href="#path0_fill" transform="matrix(1.33333 0 0 -1.33333 1551.29 1988.86)" fill="#FEE000"/>
</g>
</g>
<g id="g24">
<g id="path26">
<use xlink:href="#path1_fill" transform="matrix(1.33333 0 0 -1.33333 1493.48 2144)" fill="#363537"/>
</g>
</g>
<g id="g28">
<g id="path30">
<use xlink:href="#path2_fill" transform="matrix(1.33333 0 0 -1.33333 1486 2121.74)" fill="#FEE000"/>
</g>
</g>
</g>
</g>
</g>
<defs>
<path id="path0_fill" d="M 25.993 13.1582C 26.0431 5.93849 20.262 0.0466439 13.0828 0.000299024C 5.9055 -0.0480609 0.050329 5.76722 0.000250539 12.991C -0.0438185 20.2087 5.73924 26.1005 12.9145 26.1469C 20.0937 26.1932 25.9509 20.378 25.993 13.1582Z"/>
<path id="path1_fill" d="M 75.2119 40.4893C 74.008 23.4203 59.8718 9.94602 42.5988 9.94602C 24.5345 9.94602 9.8895 24.6756 9.8895 42.8489C 9.8895 52.9017 14.3785 61.8946 21.4396 67.9316C 21.3855 69.1244 21.4556 70.3556 21.66 71.619L 23.1162 80.9746C 19.2422 78.9637 15.6505 76.3401 12.4776 73.1464C 4.43094 65.0542 -1.7728e-06 54.2941 -1.7728e-06 42.8489C -1.7728e-06 31.4017 4.43094 20.6416 12.4776 12.5514C 20.5242 4.45717 31.2189 2.76718e-07 42.5988 2.76718e-07C 53.9746 2.76718e-07 64.6734 4.45717 72.718 12.5514C 77.1509 17.0106 80.4842 22.2798 82.5854 28.0226L 75.2119 40.4893Z"/>
<path id="path2_fill" d="M 120.851 9.08724C 123.375 10.6247 124.18 13.9252 122.651 16.4641C 121.125 19.005 117.838 19.8151 115.316 18.2776L 108.706 14.6607L 87.6806 51.6863L 56.8042 58.6199L 62.3849 88.2302C 63.8973 97.5052 54.7529 100.103 46.9006 96.7395C 39.0463 93.3806 17.8271 86.1286 17.8271 86.1286L 0.864467 60.8968C -0.772099 58.2531 -0.0129161 54.7954 2.53308 53.0786C 2.58916 53.0403 2.64125 53.0081 2.69934 52.9698C 5.37954 51.2954 8.90707 52.1195 10.5777 54.8176L 24.3673 76.5795L 37.8605 81.1112L 33.6899 54.3743C 31.9472 49.0728 35.9415 43.1789 44.1603 41.9881L 78.1176 35.4555L 81.555 34.323L 99.5231 3.41906C 101.36 -0.540409 105.663 -0.713699 109.597 1.13808L 120.851 9.08724Z"/>
</defs>
</svg>
