<svg xmlns="http://www.w3.org/2000/svg" width="30" height="30.003" viewBox="0 0 30 30.003"><defs><style>.a{fill:#fee000;}.b{fill:#42454a;}</style></defs><g transform="translate(-1027.001 -6797.999)"><path class="a" d="M15,30A15,15,0,0,1,4.392,4.394,15,15,0,0,1,25.607,25.609,14.9,14.9,0,0,1,15,30ZM15,2.1A12.906,12.906,0,0,0,5.873,24.128,12.906,12.906,0,0,0,24.124,5.875,12.818,12.818,0,0,0,15,2.1Z" transform="translate(1027.001 6797.999)"/><g transform="translate(1039.217 6804.526)"><path class="b" d="M171.842,327.038V328.2a.5.5,0,0,1-.5.5H166.12a.5.5,0,0,1-.5-.5v-1.156a.5.5,0,0,1,.5-.5h1.422v-5.992h-1.423a.5.5,0,0,1-.5-.5V318.88a.5.5,0,0,1,.5-.5h3.351a.5.5,0,0,1,.5.5v7.663h1.378A.5.5,0,0,1,171.842,327.038Zm-1.734-11.806a1.48,1.48,0,0,1-1.465,1.465,1.369,1.369,0,0,1-1.019-.433,1.472,1.472,0,0,1,0-2.063,1.369,1.369,0,0,1,1.019-.433,1.44,1.44,0,0,1,1.465,1.464Z" transform="translate(-165.62 -313.768)"/></g></g></svg>