<svg width="200" height="200" viewBox="0 0 200 200" version="1.1" xmlns="http://www.w3.org/2000/svg" xmlns:xlink="http://www.w3.org/1999/xlink">
<title>list</title>
<desc>Created using Figma</desc>
<g id="Canvas" transform="translate(-409 -3596)">
<g id="list">
<g id="icon">
<use xlink:href="#path0_stroke" transform="translate(414 3620)" fill="#363537"/>
</g>
</g>
</g>
<defs>
<path id="path0_stroke" d="M 0 0L 0 -5L -5 -5L -5 0L 0 0ZM 190 0L 195 0L 195 -5L 190 -5L 190 0ZM 190 25.3333L 190 30.3333L 195 30.3333L 195 25.3333L 190 25.3333ZM 0 25.3333L -5 25.3333L -5 30.3333L 0 30.3333L 0 25.3333ZM 0 63.3333L 0 58.3333L -5 58.3333L -5 63.3333L 0 63.3333ZM 190 63.3333L 195 63.3333L 195 58.3333L 190 58.3333L 190 63.3333ZM 190 88.6667L 190 93.6667L 195 93.6667L 195 88.6667L 190 88.6667ZM 0 88.6667L -5 88.6667L -5 93.6667L 0 93.6667L 0 88.6667ZM 0 126.667L 0 121.667L -5 121.667L -5 126.667L 0 126.667ZM 190 126.667L 195 126.667L 195 121.667L 190 121.667L 190 126.667ZM 190 152L 190 157L 195 157L 195 152L 190 152ZM 0 152L -5 152L -5 157L 0 157L 0 152ZM 0 5L 190 5L 190 -5L 0 -5L 0 5ZM 185 0L 185 25.3333L 195 25.3333L 195 0L 185 0ZM 190 20.3333L 0 20.3333L 0 30.3333L 190 30.3333L 190 20.3333ZM 5 25.3333L 5 0L -5 0L -5 25.3333L 5 25.3333ZM 0 68.3333L 190 68.3333L 190 58.3333L 0 58.3333L 0 68.3333ZM 185 63.3333L 185 88.6667L 195 88.6667L 195 63.3333L 185 63.3333ZM 190 83.6667L 0 83.6667L 0 93.6667L 190 93.6667L 190 83.6667ZM 5 88.6667L 5 63.3333L -5 63.3333L -5 88.6667L 5 88.6667ZM 0 131.667L 190 131.667L 190 121.667L 0 121.667L 0 131.667ZM 185 126.667L 185 152L 195 152L 195 126.667L 185 126.667ZM 190 147L 0 147L 0 157L 190 157L 190 147ZM 5 152L 5 126.667L -5 126.667L -5 152L 5 152Z"/>
</defs>
</svg>
