<svg width="175" height="200" viewBox="0 0 175 200" version="1.1" xmlns="http://www.w3.org/2000/svg" xmlns:xlink="http://www.w3.org/1999/xlink">
<title>load</title>
<desc>Created using Figma</desc>
<g id="Canvas" transform="translate(-1700 -3596)">
<g id="load">
<g id="icon">
<use xlink:href="#path0_fill" transform="translate(1706 3601)" fill="#363537"/>
<use xlink:href="#path1_fill" transform="translate(1706 3601)" fill="#363537"/>
</g>
</g>
</g>
<defs>
<path id="path0_fill" d="M 82.1577 150.284L 136.823 91.998C 137.677 91.0879 138.343 90.0187 138.783 88.8513C 139.223 87.6839 139.429 86.4413 139.389 85.1944C 139.349 83.9474 139.063 82.7206 138.549 81.584C 138.034 80.4473 137.301 79.4231 136.39 78.5698C 135.48 77.7164 134.41 77.0507 133.242 76.6106C 132.074 76.1705 130.831 75.9647 129.584 76.0048C 128.336 76.0449 127.109 76.3303 125.972 76.8446C 124.835 77.3588 123.81 78.0919 122.956 79.002L 91.8742 112.144L 91.8742 9.5C 91.8742 6.98044 90.8728 4.56408 89.0905 2.78249C 87.3081 1.00089 84.8906 1.40628e-15 82.37 0C 79.8493 2.81257e-15 77.4319 1.00089 75.6495 2.78249C 73.8671 4.56408 72.8657 6.98044 72.8657 9.5L 72.8657 111.042L 41.977 76.0507C 40.3096 74.161 37.9594 73.0108 35.4436 72.8532C 32.9278 72.6955 30.4523 73.5432 28.5618 75.2099C 26.6713 76.8766 25.5206 79.2257 25.3629 81.7404C 25.2051 84.2552 26.0532 86.7295 27.7207 88.6192L 82.1577 150.284Z"/>
<path id="path1_fill" d="M 155.236 120.333C 152.715 120.333 150.298 121.334 148.515 123.116C 146.733 124.897 145.731 127.314 145.731 129.833L 145.731 171L 19.0085 171L 19.0085 129.833C 19.0085 127.314 18.0071 124.897 16.2247 123.116C 14.4423 121.334 12.0249 120.333 9.50423 120.333C 6.98355 120.333 4.56611 121.334 2.78372 123.116C 1.00134 124.897 0 127.314 0 129.833L 0 180.5C 0 183.02 1.00134 185.436 2.78372 187.218C 4.56611 188.999 6.98355 190 9.50423 190L 155.236 190C 157.756 190 160.174 188.999 161.956 187.218C 163.739 185.436 164.74 183.02 164.74 180.5L 164.74 129.833C 164.74 127.314 163.739 124.897 161.956 123.116C 160.174 121.334 157.756 120.333 155.236 120.333Z"/>
</defs>
</svg>
