<svg width="219" height="219" viewBox="0 0 219 219" version="1.1" xmlns="http://www.w3.org/2000/svg" xmlns:xlink="http://www.w3.org/1999/xlink">
<title>location</title>
<desc>Created using Figma</desc>
<g id="Canvas" transform="translate(-750 -3589)">
<g id="location">
<g id="icon">
<use xlink:href="#path0_stroke" transform="translate(767 3601)" fill="#FFFFFF"/>
</g>
</g>
</g>
<defs>
<path id="path0_stroke" d="M 80.3846 109.615L 85.3388 108.94L 84.8253 105.175L 81.0602 104.661L 80.3846 109.615ZM 91.3462 190L 86.392 190.676L 88.5213 206.291L 95.7836 192.304L 91.3462 190ZM 190 0L 194.437 2.30408L 201.718 -11.7184L 187.696 -4.43748L 190 0ZM 0 98.6538L -2.30408 94.2164L -16.2907 101.479L -0.675566 103.608L 0 98.6538ZM 75.4305 110.291L 86.392 190.676L 96.3003 189.324L 85.3388 108.94L 75.4305 110.291ZM 95.7836 192.304L 194.437 2.30408L 185.563 -2.30408L 86.9087 187.696L 95.7836 192.304ZM 187.696 -4.43748L -2.30408 94.2164L 2.30408 103.091L 192.304 4.43748L 187.696 -4.43748ZM -0.675566 103.608L 79.7091 114.57L 81.0602 104.661L 0.675566 93.6997L -0.675566 103.608Z"/>
</defs>
</svg>
