<svg width="500" height="120" viewBox="0 0 500 120" version="1.1" xmlns="http://www.w3.org/2000/svg" xmlns:xlink="http://www.w3.org/1999/xlink">
<title>logo</title>
<desc>Created using Figma</desc>
<g id="Canvas" transform="translate(-700 -100)">
<g id="logo">
<g id="g20">
<g id="path22">
<use xlink:href="#path0_fill" transform="matrix(1.33333 0 0 -1.33333 1143.68 132.783)" fill="#FEE000"/>
</g>
</g>
<g id="g24">
<g id="path26">
<use xlink:href="#path1_fill" transform="matrix(1.33333 0 0 -1.33333 1110.89 220)" fill="#FEE000"/>
</g>
</g>
<g id="g28">
<g id="path30">
<use xlink:href="#path2_fill" transform="matrix(1.33333 0 0 -1.33333 1106.64 207.486)" fill="#FEE000"/>
</g>
</g>
<g id="g32">
<g id="path34">
<use xlink:href="#path3_fill" transform="matrix(1.33333 0 0 -1.33333 700 202.311)" fill="#FEE000"/>
</g>
</g>
<g id="g36">
<g id="path38">
<use xlink:href="#path4_fill" transform="matrix(1.33333 0 0 -1.33333 889.727 202.311)" fill="#FEE000"/>
</g>
</g>
<g id="path40">
<use xlink:href="#path5_fill" transform="matrix(1.33333 0 0 -1.33333 1039.06 202.312)" fill="#FEE000"/>
</g>
<g id="path42">
<use xlink:href="#path6_fill" transform="matrix(1.33333 0 0 -1.33333 1085.62 202.312)" fill="#FEE000"/>
</g>
<g id="path44">
<use xlink:href="#path7_fill" transform="matrix(1.33333 0 0 -1.33333 1060.09 178.763)" fill="#888888"/>
</g>
<g id="g46">
<g id="path48">
<use xlink:href="#path8_fill" transform="matrix(1.33333 0 0 -1.33333 1075.54 162.046)" fill="#888888"/>
</g>
</g>
<g id="g50">
<g id="path52">
<use xlink:href="#path9_fill" transform="matrix(1.33333 0 0 -1.33333 1008.85 178.763)" fill="#888888"/>
</g>
</g>
<g id="g54">
<g id="path56">
<use xlink:href="#path10_fill" transform="matrix(1.33333 0 0 -1.33333 996.145 178.784)" fill="#888888"/>
</g>
</g>
<g id="g58">
<g id="path60">
<use xlink:href="#path11_fill" transform="matrix(1.33333 0 0 -1.33333 980.023 175.67)" fill="#888888"/>
</g>
</g>
<g id="g62">
<g id="path64">
<use xlink:href="#path12_fill" transform="matrix(1.33333 0 0 -1.33333 951.612 178.784)" fill="#888888"/>
</g>
</g>
<g id="g66">
<g id="path68">
<use xlink:href="#path13_fill" transform="matrix(1.33333 0 0 -1.33333 951.365 175.67)" fill="#888888"/>
</g>
</g>
<g id="g70">
<g id="path72">
<use xlink:href="#path14_fill" transform="matrix(1.33333 0 0 -1.33333 767.572 149.754)" fill="#444444"/>
</g>
</g>
<g id="g74">
<g id="path76">
<use xlink:href="#path15_fill" transform="matrix(1.33333 0 0 -1.33333 835.689 209.997)" fill="#444444"/>
</g>
</g>
<g id="g78">
<g id="path80">
<use xlink:href="#path16_fill" transform="matrix(1.33333 0 0 -1.33333 851.4 158.834)" fill="#444444"/>
</g>
</g>
<g id="g82">
<g id="path84">
<use xlink:href="#path17_fill" transform="matrix(1.33333 0 0 -1.33333 768.842 210.822)" fill="#444444"/>
</g>
</g>
<g id="g86">
<g id="path88">
<use xlink:href="#path18_fill" transform="matrix(1.33333 0 0 -1.33333 709.28 182.552)" fill="#444444"/>
</g>
</g>
<g id="g90">
<g id="path92">
<use xlink:href="#path19_fill" transform="matrix(1.33333 0 0 -1.33333 876.154 184.78)" fill="#444444"/>
</g>
</g>
<g id="g94">
<g id="path96">
<use xlink:href="#path20_fill" transform="matrix(1.33333 0 0 -1.33333 911.967 136.177)" fill="#444444"/>
</g>
</g>
<g id="g98">
<g id="path100">
<use xlink:href="#path21_fill" transform="matrix(1.33333 0 0 -1.33333 878.937 184.803)" fill="#444444"/>
</g>
</g>
</g>
</g>
<defs>
<path id="path0_fill" d="M 14.7454 7.39743C 14.7738 3.33856 11.4943 0.0262228 7.42162 0.000168108C 3.35009 -0.0270194 0.0285508 3.24227 0.000142126 7.3034C -0.0248575 11.3611 3.25578 14.6735 7.32617 14.6995C 11.3988 14.7256 14.7215 11.4563 14.7454 7.39743Z"/>
<path id="path1_fill" d="M 42.6664 22.7627C 41.9835 13.1667 33.9643 5.59156 24.1656 5.59156C 13.918 5.59156 5.61014 13.8724 5.61014 24.0892C 5.61014 29.7408 8.1567 34.7966 12.1623 38.1905C 12.1316 38.8611 12.1714 39.5532 12.2873 40.2635L 13.1134 45.5231C 10.9157 44.3926 8.87828 42.9177 7.0783 41.1222C 2.5136 36.5728 -1.00568e-06 30.5236 -1.00568e-06 24.0892C -1.00568e-06 17.6537 2.5136 11.6045 7.0783 7.05628C 11.643 2.50578 17.71 1.55568e-07 24.1656 1.55568e-07C 30.6189 1.55568e-07 36.6881 2.50578 41.2517 7.05628C 43.7664 9.56319 45.6573 12.5255 46.8493 15.754L 42.6664 22.7627Z"/>
<path id="path2_fill" d="M 68.5564 5.10876C 69.9882 5.97309 70.4451 7.82864 69.578 9.25598C 68.7121 10.6845 66.8474 11.1398 65.4167 10.2755L 61.6668 8.24211L 49.7397 29.0575L 32.224 32.9555L 35.3899 49.6022C 36.2478 54.8165 31.0604 56.2767 26.6059 54.386C 22.1503 52.4976 10.113 48.4207 10.113 48.4207L 0.490397 34.2356C -0.437998 32.7493 -0.00732706 30.8054 1.43697 29.8403C 1.46879 29.8188 1.49833 29.8006 1.53129 29.7791C 3.05172 28.8377 5.05283 29.3011 6.00054 30.8179L 13.8232 43.0523L 21.4776 45.6L 19.1117 30.5687C 18.1231 27.5883 20.389 24.2748 25.0514 23.6053L 44.3148 19.9327L 46.2647 19.2961L 56.4578 1.92216C 57.4998 -0.303813 59.9407 -0.401234 62.1724 0.639819L 68.5564 5.10876Z"/>
<path id="path3_fill" d="M 48.5425 0L 1.69925e-06 0L 1.69925e-06 7.89909L 54.1413 7.89909L 48.5425 0Z"/>
<path id="path4_fill" d="M 107.665 0L 6.71809 0L -1.87264e-06 7.89909L 107.665 7.89909L 107.665 0Z"/>
<path id="path5_fill" d="M 32.0257 5.80787e-06L 6.10343e-06 5.80787e-06L 6.10343e-06 7.89909L 32.0257 7.89909L 32.0257 5.80787e-06Z"/>
<path id="path6_fill" d="M 8.81352 5.80787e-06L 0 5.80787e-06L 0 7.89909L 8.81352 7.89909L 8.81352 5.80787e-06Z"/>
<path id="path7_fill" d="M 10.5033 33.785L -6.93571e-06 33.785L -6.93571e-06 9.67978e-06L 10.5033 9.67978e-06L 10.5033 33.785Z"/>
<path id="path8_fill" d="M 14.3407 18.5498C 12.451 20.3475 9.61236 21.247 5.82037 21.247L 1.30045e-07 21.247L 1.30045e-07 14.3788L 1.91134 14.3788C 3.8704 14.3788 5.20333 14.0095 5.91355 13.272C 6.62263 12.5346 6.9749 11.6362 6.9749 10.5771C 6.9749 9.48616 6.56922 8.59124 5.74992 7.89116C 4.93516 7.19335 3.51813 6.84331 1.49657 6.84331L 1.30045e-07 6.84331L 1.30045e-07 0L 4.6647 0C 8.88623 0 12.0271 0.95949 14.085 2.8796C 16.1441 4.79972 17.1702 7.46522 17.1702 10.8761C 17.1702 14.1941 16.2236 16.752 14.3407 18.5498Z"/>
<path id="path9_fill" d="M 24.1621 33.785L 12.7373 33.785L -5.54857e-07 6.74128e-07L 10.6896 6.74128e-07L 10.8237 0.441796L 12.3464 5.57796L 12.3873 5.57796L 16.7975 20.0474L 16.8032 20.0451L 18.3225 25.0283L 22.061 12.8823L 15.7986 12.8823L 13.5725 5.57796L 24.2349 5.57796L 25.9303 6.74128e-07L 36.8972 6.74128e-07L 24.1621 33.785Z"/>
<path id="path10_fill" d="M 7.53512 30.4579L -4.7683e-08 18.6393L -4.7683e-08 9.85264e-07L 7.81352 9.85264e-07L 7.76807 30.4579L 7.53512 30.4579Z"/>
<path id="path11_fill" d="M 11.1067 31.465L -1.90732e-07 14.1737L -1.90732e-07 1.0544e-06L 20.0929 31.465L 11.1067 31.465Z"/>
<path id="path12_fill" d="M 0.0465902 30.4579L -1.2869e-09 9.85264e-07L 7.81352 9.85264e-07L 7.81352 18.6393L 0.279541 30.4579L 0.0465902 30.4579Z"/>
<path id="path13_fill" d="M 0 31.465L 20.0906 1.0544e-06L 20.0906 14.1737L 8.9851 31.465L 0 31.465Z"/>
<path id="path14_fill" d="M 34.6131 10.1319L 35.0802 10.7651L 44.3403 23.2555L 34.337 36.6917L 1.04036e-06 36.3349L 27.1303 -2.76565e-07L 34.6131 10.1319Z"/>
<path id="path15_fill" d="M 17.0157 36.5807L 2.60089e-08 12.9809L 9.71236 2.07424e-07L 44.0494 0.356836L 17.0157 36.5807Z"/>
<path id="path16_fill" d="M 0 0L 0.590901 0.825819L 0 0Z"/>
<path id="path17_fill" d="M 62.8116 40.2386L 93.4225 83.1166L 59.0878 82.7598L -1.73393e-06 1.03712e-07L 34.3347 0.35457L 61.523 38.4363"/>
<path id="path18_fill" d="M 36.2927 50.7488L 19.1349 50.7488L 3.12107e-07 2.41995e-07L 16.0566 2.41995e-07L 16.2589 0.662694L 18.5429 8.37827L 18.6077 8.37827L 25.2315 30.1124L 25.2383 30.1101L 27.5212 37.5946L 33.1393 19.3507L 25.3269 19.3507L 21.9849 8.37827L 36.4017 8.37827L 38.9506 2.41995e-07L 55.4219 2.41995e-07L 36.2927 50.7488Z"/>
<path id="path19_fill" d="M 23.6292 10.1647C 21.5224 10.5691 19.8179 11.5162 18.5259 13.0171C 17.4384 14.2847 16.7168 16.1324 16.3611 18.5554L -7.10911e-07 17.6209C 0.479538 12.4972 2.54201 8.27405 6.18741 4.94925C 9.53736 1.89293 15.3577 0.246953 23.6292 4.83989e-07L 23.6292 10.1647Z"/>
<path id="path20_fill" d="M 0 6.23273C 1.12498 5.97898 2.09883 5.5757 2.88291 4.98437C 4.26244 3.94558 5.16697 2.28488 5.59765 1.64211e-07L 21.8076 0.865468C 21.1008 6.12737 18.877 9.96307 15.1464 12.3748C 11.6169 14.6574 6.55445 15.8446 0 15.967L 0 6.23273Z"/>
<path id="path21_fill" d="M 46.1823 24.8731C 44.7005 27.1116 42.3335 28.9864 39.0824 30.4987C 35.8324 32.0098 30.4473 33.5052 22.9292 34.9812C 19.8918 35.5578 17.9702 36.1809 17.16 36.8503C 16.3248 37.4972 15.9077 38.2244 15.9077 39.0321C 15.9077 40.1389 16.4134 41.0791 17.4247 41.8528C 18.3656 42.571 19.7497 42.9403 21.5417 42.9924L 21.5417 52.4322C 16.7373 52.2872 12.8794 51.6347 9.9669 50.4724C 6.6374 49.1459 4.14653 47.3221 2.48633 45.0032C 0.829535 42.6843 1.31779e-06 40.2205 1.31779e-06 37.6127C 1.31779e-06 33.6434 1.6193 30.3763 4.86016 27.8162C 8.07375 25.2538 13.4521 23.2 20.9929 21.6537C 25.6008 20.7304 28.5359 19.7494 29.8018 18.7118C 31.0666 17.673 31.7007 16.496 31.7007 15.1808C 31.7007 13.7954 31.0336 12.5776 29.7064 11.5275C 28.5189 10.5895 26.8576 10.0945 24.7724 9.99479L 24.7724 -8.29696e-07C 29.7109 0.08496 33.8484 0.783905 37.1654 2.11156C 40.7096 3.5321 43.4676 5.61534 45.4425 8.36128C 47.4152 11.1061 48.4038 14.108 48.4038 17.3615C 48.4038 20.1312 47.6629 22.6347 46.1823 24.8731Z"/>
</defs>
</svg>
