<svg width="561" height="135" viewBox="0 0 561 135" version="1.1" xmlns="http://www.w3.org/2000/svg" xmlns:xlink="http://www.w3.org/1999/xlink">
<title>icon</title>
<desc>Created using Figma</desc>
<g id="Canvas" transform="translate(-691 -58)">
<g id="icon">
<g id="g20">
<g id="path22">
<use xlink:href="#path0_fill" transform="matrix(1.33333 0 0 -1.33333 1188.81 94.8813)" fill="#FEE000"/>
</g>
</g>
<g id="g24">
<g id="path26">
<use xlink:href="#path1_fill" transform="matrix(1.33333 0 0 -1.33333 1152.01 193)" fill="#FEE000"/>
</g>
</g>
<g id="g28">
<g id="path30">
<use xlink:href="#path2_fill" transform="matrix(1.33333 0 0 -1.33333 1147.25 178.921)" fill="#FEE000"/>
</g>
</g>
<g id="g32">
<g id="path34">
<use xlink:href="#path3_fill" transform="matrix(1.33333 0 0 -1.33333 691 173.1)" fill="#FEE000"/>
</g>
</g>
<g id="g36">
<g id="path38">
<use xlink:href="#path4_fill" transform="matrix(1.33333 0 0 -1.33333 903.873 173.1)" fill="#FEE000"/>
</g>
</g>
<g id="path40">
<use xlink:href="#path5_fill" transform="matrix(1.33333 0 0 -1.33333 1071.43 173.101)" fill="#FEE000"/>
</g>
<g id="path42">
<use xlink:href="#path6_fill" transform="matrix(1.33333 0 0 -1.33333 1123.67 173.101)" fill="#FEE000"/>
</g>
<g id="path44">
<use xlink:href="#path7_fill" transform="matrix(1.33333 0 0 -1.33333 1095.03 146.608)" fill="#969596"/>
</g>
<g id="g46">
<g id="path48">
<use xlink:href="#path8_fill" transform="matrix(1.33333 0 0 -1.33333 1112.36 127.801)" fill="#969596"/>
</g>
</g>
<g id="g50">
<g id="path52">
<use xlink:href="#path9_fill" transform="matrix(1.33333 0 0 -1.33333 1037.53 146.608)" fill="#969596"/>
</g>
</g>
<g id="g54">
<g id="path56">
<use xlink:href="#path10_fill" transform="matrix(1.33333 0 0 -1.33333 1023.27 146.632)" fill="#969596"/>
</g>
</g>
<g id="g58">
<g id="path60">
<use xlink:href="#path11_fill" transform="matrix(1.33333 0 0 -1.33333 1005.19 143.128)" fill="#969596"/>
</g>
</g>
<g id="g62">
<g id="path64">
<use xlink:href="#path12_fill" transform="matrix(1.33333 0 0 -1.33333 973.308 146.632)" fill="#969596"/>
</g>
</g>
<g id="g66">
<g id="path68">
<use xlink:href="#path13_fill" transform="matrix(1.33333 0 0 -1.33333 973.031 143.128)" fill="#969596"/>
</g>
</g>
<g id="g70">
<g id="path72">
<use xlink:href="#path14_fill" transform="matrix(1.33333 0 0 -1.33333 766.816 113.973)" fill="#363537"/>
</g>
</g>
<g id="g74">
<g id="path76">
<use xlink:href="#path15_fill" transform="matrix(1.33333 0 0 -1.33333 843.243 181.746)" fill="#363537"/>
</g>
</g>
<g id="g78">
<g id="path80">
<use xlink:href="#path16_fill" transform="matrix(1.33333 0 0 -1.33333 860.871 124.189)" fill="#444444"/>
</g>
</g>
<g id="g82">
<g id="path84">
<use xlink:href="#path17_fill" transform="matrix(1.33333 0 0 -1.33333 768.241 182.675)" fill="#363537"/>
</g>
</g>
<g id="g86">
<g id="path88">
<use xlink:href="#path18_fill" transform="matrix(1.33333 0 0 -1.33333 701.412 150.871)" fill="#363537"/>
</g>
</g>
<g id="g90">
<g id="path92">
<use xlink:href="#path19_fill" transform="matrix(1.33333 0 0 -1.33333 888.645 153.377)" fill="#363537"/>
</g>
</g>
<g id="g94">
<g id="path96">
<use xlink:href="#path20_fill" transform="matrix(1.33333 0 0 -1.33333 928.827 98.699)" fill="#363537"/>
</g>
</g>
<g id="g98">
<g id="path100">
<use xlink:href="#path21_fill" transform="matrix(1.33333 0 0 -1.33333 891.767 153.404)" fill="#363537"/>
</g>
</g>
</g>
</g>
<defs>
<path id="path0_fill" d="M 16.5443 8.3221C 16.5762 3.75588 12.8966 0.0295006 8.32706 0.000189122C 3.7588 -0.0303968 0.032034 3.64756 0.000159466 8.21633C -0.0278901 12.7813 3.65298 16.5077 8.21996 16.537C 12.7895 16.5663 16.5175 12.8883 16.5443 8.3221Z"/>
<path id="path1_fill" d="M 47.8717 25.608C 47.1055 14.8125 38.1079 6.2905 27.1138 6.2905C 15.616 6.2905 6.29458 15.6065 6.29458 27.1004C 6.29458 33.4584 9.15182 39.1461 13.6461 42.9643C 13.6117 43.7187 13.6563 44.4974 13.7864 45.2964L 14.7133 51.2135C 12.2475 49.9417 9.96143 48.2824 7.94186 46.2624C 2.82026 41.1444 -1.12837e-06 34.339 -1.12837e-06 27.1004C -1.12837e-06 19.8604 2.82026 13.0551 7.94186 7.93831C 13.0635 2.819 19.8706 1.75014e-07 27.1138 1.75014e-07C 34.3544 1.75014e-07 41.164 2.819 46.2844 7.93831C 49.1059 10.7586 51.2275 14.0912 52.5649 17.7233L 47.8717 25.608Z"/>
<path id="path2_fill" d="M 76.9203 5.74735C 78.5268 6.71973 79.0393 8.80722 78.0665 10.413C 77.095 12.02 75.0028 12.5323 73.3976 11.5599L 69.1901 9.27238L 55.8079 32.6897L 36.1554 37.075L 39.7075 55.8024C 40.6701 61.6686 34.8498 63.3113 29.8518 61.1843C 24.8526 59.0598 11.3468 54.4732 11.3468 54.4732L 0.550225 38.515C -0.491434 36.843 -0.00822097 34.6561 1.61228 33.5703C 1.64798 33.5461 1.68113 33.5257 1.7181 33.5015C 3.42403 32.4425 5.66927 32.9637 6.73261 34.6701L 15.5096 48.4338L 24.0979 51.2999L 21.4433 34.3898C 20.3341 31.0368 22.8764 27.3091 28.1077 26.556L 49.7212 22.4243L 51.909 21.7081L 63.3456 2.16243C 64.5148 -0.341789 67.2534 -0.451389 69.7575 0.719796L 76.9203 5.74735Z"/>
<path id="path3_fill" d="M 54.4647 0L 1.90656e-06 0L 1.90656e-06 8.88648L 60.7465 8.88648L 54.4647 0Z"/>
<path id="path4_fill" d="M 120.801 0L 7.53769 0L -2.1011e-06 8.88648L 120.801 8.88648L 120.801 0Z"/>
<path id="path5_fill" d="M 35.9328 6.53385e-06L 6.84804e-06 6.53385e-06L 6.84804e-06 8.88647L 35.9328 8.88647L 35.9328 6.53385e-06Z"/>
<path id="path6_fill" d="M 9.88877 6.53385e-06L 0 6.53385e-06L 0 8.88647L 9.88877 8.88647L 9.88877 6.53385e-06Z"/>
<path id="path7_fill" d="M 11.7847 38.0081L -7.78187e-06 38.0081L -7.78187e-06 1.08898e-05L 11.7847 1.08898e-05L 11.7847 38.0081Z"/>
<path id="path8_fill" d="M 16.0903 20.8685C 13.97 22.891 10.7851 23.9029 6.53045 23.9029L 1.4591e-07 23.9029L 1.4591e-07 16.1761L 2.14452 16.1761C 4.34259 16.1761 5.83814 15.7607 6.635 14.931C 7.43059 14.1014 7.82584 13.0908 7.82584 11.8992C 7.82584 10.6719 7.37067 9.66514 6.45141 8.87755C 5.53724 8.09252 3.94734 7.69872 1.67915 7.69872L 1.4591e-07 7.69872L 1.4591e-07 0L 5.2338 0C 9.97035 0 13.4944 1.07943 15.8034 3.23956C 18.1137 5.39968 19.265 8.39838 19.265 12.2356C 19.265 15.9684 18.2029 18.846 16.0903 20.8685Z"/>
<path id="path9_fill" d="M 27.1099 38.0081L 14.2913 38.0081L -6.2255e-07 7.58394e-07L 11.9937 7.58394e-07L 12.1442 0.497021L 13.8527 6.27521L 13.8986 6.27521L 18.8468 22.5533L 18.8531 22.5507L 20.5578 28.1569L 24.7525 14.4926L 17.7261 14.4926L 15.2284 6.27521L 27.1915 6.27521L 29.0938 7.58394e-07L 41.3986 7.58394e-07L 27.1099 38.0081Z"/>
<path id="path10_fill" d="M 8.4544 34.2651L -5.35004e-08 20.9692L -5.35004e-08 1.10842e-06L 8.76677 1.10842e-06L 8.71577 34.2651L 8.4544 34.2651Z"/>
<path id="path11_fill" d="M 12.4617 35.3981L -2.14001e-07 15.9454L -2.14001e-07 1.18621e-06L 22.5442 35.3981L 12.4617 35.3981Z"/>
<path id="path12_fill" d="M 0.0522742 34.2651L -1.4439e-09 1.10842e-06L 8.76677 1.10842e-06L 8.76677 20.9692L 0.313645 34.2651L 0.0522742 34.2651Z"/>
<path id="path13_fill" d="M 0 35.3981L 22.5417 1.18621e-06L 22.5417 15.9454L 10.0813 35.3981L 0 35.3981Z"/>
<path id="path14_fill" d="M 38.8359 11.3983L 39.36 12.1107L 49.7498 26.1624L 38.5261 41.2782L 1.16728e-06 40.8768L 30.4402 -3.11136e-07L 38.8359 11.3983Z"/>
<path id="path15_fill" d="M 19.0916 41.1533L 2.9182e-08 14.6035L 10.8973 2.33352e-07L 49.4234 0.401441L 19.0916 41.1533Z"/>
<path id="path16_fill" d="M 0 0L 0.66299 0.929047L 0 0Z"/>
<path id="path17_fill" d="M 70.4746 45.2684L 104.82 93.5062L 66.2965 93.1047L -1.94547e-06 1.16676e-07L 38.5236 0.398891L 69.0288 43.2408"/>
<path id="path18_fill" d="M 40.7204 57.0924L 21.4694 57.0924L 3.50184e-07 2.72244e-07L 18.0155 2.72244e-07L 18.2424 0.74553L 20.8051 9.42555L 20.8778 9.42555L 28.3097 33.8764L 28.3173 33.8739L 30.8788 42.2939L 37.1823 21.7695L 28.4168 21.7695L 24.6671 9.42555L 40.8428 9.42555L 43.7025 2.72244e-07L 62.1834 2.72244e-07L 40.7204 57.0924Z"/>
<path id="path19_fill" d="M 26.512 11.4353C 24.1481 11.8903 22.2357 12.9557 20.786 14.6443C 19.5659 16.0703 18.7563 18.1489 18.3572 20.8749L -7.97642e-07 19.8235C 0.538041 14.0593 2.85213 9.30831 6.94227 5.56791C 10.7009 2.12954 17.2314 0.277822 26.512 5.44488e-07L 26.512 11.4353Z"/>
<path id="path20_fill" d="M 0 7.01182C 1.26223 6.72635 2.35489 6.27266 3.23463 5.60741C 4.78245 4.43878 5.79734 2.57049 6.28056 1.84737e-07L 24.4682 0.973651C 23.6751 6.8933 21.18 11.2085 16.9942 13.9217C 13.0341 16.4896 7.35409 17.8252 0 17.9628L 0 7.01182Z"/>
<path id="path21_fill" d="M 51.8165 27.9823C 50.1539 30.5005 47.4982 32.6097 43.8504 34.311C 40.204 36.0111 34.1619 37.6933 25.7266 39.3539C 22.3186 40.0025 20.1626 40.7035 19.2535 41.4566C 18.3164 42.1843 17.8485 43.0025 17.8485 43.9112C 17.8485 45.1563 18.4158 46.214 19.5506 47.0844C 20.6063 47.8924 22.1592 48.3079 24.1698 48.3665L 24.1698 58.9862C 18.7792 58.8231 14.4506 58.089 11.1829 56.7814C 7.44717 55.2891 4.65241 53.2373 2.78966 50.6286C 0.930738 48.0199 1.47856e-06 45.248 1.47856e-06 42.3143C 1.47856e-06 37.8488 1.81685 34.1734 5.4531 31.2932C 9.05875 28.4105 15.0932 26.1 23.554 24.3604C 28.7241 23.3217 32.0173 22.2181 33.4377 21.0507C 34.8567 19.8821 35.5682 18.558 35.5682 17.0784C 35.5682 15.5198 34.8197 14.1498 33.3306 12.9684C 31.9982 11.9132 30.1342 11.3563 27.7946 11.2441L 27.7946 -9.33408e-07C 33.3357 0.09558 37.9779 0.881893 41.6995 2.3755C 45.6762 3.97362 48.7706 6.31726 50.9865 9.40644C 53.1999 12.4943 54.3091 15.8715 54.3091 19.5316C 54.3091 22.6476 53.4778 25.464 51.8165 27.9823Z"/>
</defs>
</svg>
