<svg width="200" height="200" viewBox="0 0 200 200" version="1.1" xmlns="http://www.w3.org/2000/svg" xmlns:xlink="http://www.w3.org/1999/xlink">
<title>mapathon</title>
<desc>Created using Figma</desc>
<g id="Canvas" transform="translate(-409 -1949)">
<g id="mapathon">
<g id="icon">
<use xlink:href="#path0_fill" transform="translate(414 1961)" fill="#FAFAFA"/>
<use xlink:href="#path1_fill" transform="translate(414 1961)" fill="#FAFAFA"/>
<use xlink:href="#path2_fill" transform="translate(414 1961)" fill="#FAFAFA"/>
</g>
</g>
</g>
<defs>
<path id="path0_fill" d="M 69.0909 14.745L 120.909 26.9499L 120.909 165.343L 69.0909 156.189L 69.0909 14.745ZM 65.6398 6.92195C 64.866 6.92195 64.1095 7.18134 63.4911 7.66898C 62.6655 8.32263 62.1818 9.32212 62.1818 10.3804L 62.1818 159.094C 62.1818 160.771 63.384 162.207 65.0353 162.497L 123.763 172.872C 123.963 172.91 124.163 172.928 124.364 172.928C 125.169 172.928 125.956 172.644 126.585 172.118C 127.366 171.461 127.818 170.49 127.818 169.469L 127.818 24.2142C 127.818 22.6095 126.716 21.2157 125.155 20.8457L 66.4275 7.01187C 66.1649 6.94962 65.9024 6.92195 65.6398 6.92195Z"/>
<path id="path1_fill" d="M 188.563 0.655367C 187.661 0.00517805 186.501 -0.178119 185.45 0.18156L 123.269 20.9323C 121.859 21.4026 120.909 22.7238 120.909 24.2144L 120.909 169.469C 120.909 170.611 121.472 171.679 122.415 172.323C 122.996 172.72 123.68 172.928 124.364 172.928C 124.789 172.928 125.21 172.852 125.614 172.693L 187.796 148.483C 189.126 147.965 190 146.685 190 145.26L 190 3.46363C 190 2.35001 189.468 1.30902 188.563 0.655367Z"/>
<path id="path2_fill" d="M 64.8867 7.0017L 2.70491 20.8355C 1.12618 21.1917 0 22.5924 0 24.2144L 0 172.928C 0 173.979 0.476727 174.968 1.29545 175.626C 1.91382 176.124 2.67727 176.386 3.45455 176.386C 3.70327 176.386 3.95546 176.359 4.20418 176.307L 66.386 162.473C 67.9647 162.117 69.0909 160.713 69.0909 159.094L 69.0909 10.3806C 69.0909 9.32924 68.6142 8.34012 67.7955 7.68302C 66.9836 7.02591 65.9127 6.78382 64.8867 7.0017Z"/>
</defs>
</svg>
