<svg width="190" height="190" viewBox="0 0 190 190" version="1.1" xmlns="http://www.w3.org/2000/svg" xmlns:xlink="http://www.w3.org/1999/xlink">
<title>mapathon</title>
<desc>Created using Figma</desc>
<g id="Canvas" transform="translate(-759 -1084)">
<g id="mapathon">
<g id="icon">
<use xlink:href="#path0_fill" transform="translate(760 1092)" fill="#DDDDDD"/>
<use xlink:href="#path1_fill" transform="translate(760 1092)" fill="#DDDDDD"/>
<use xlink:href="#path2_fill" transform="translate(760 1092)" fill="#DDDDDD"/>
</g>
</g>
</g>
<defs>
<path id="path0_fill" d="M 68.3637 14.5898L 119.636 26.6662L 119.636 163.603L 68.3637 154.545L 68.3637 14.5898ZM 64.9489 6.84909C 64.1832 6.84909 63.4346 7.10575 62.8228 7.58825C 62.0058 8.23502 61.5273 9.22399 61.5273 10.2711L 61.5273 157.419C 61.5273 159.079 62.7168 160.499 64.3507 160.787L 122.46 171.053C 122.658 171.09 122.856 171.107 123.055 171.107C 123.851 171.107 124.63 170.827 125.252 170.307C 126.025 169.656 126.473 168.695 126.473 167.685L 126.473 23.9593C 126.473 22.3715 125.382 20.9924 123.837 20.6263L 65.7282 6.93806C 65.4685 6.87647 65.2087 6.84909 64.9489 6.84909Z"/>
<path id="path1_fill" d="M 186.578 0.648469C 185.686 0.00512354 184.537 -0.176245 183.498 0.179649L 121.971 20.7119C 120.576 21.1773 119.636 22.4846 119.636 23.9595L 119.636 167.686C 119.636 168.815 120.194 169.872 121.127 170.509C 121.701 170.902 122.378 171.107 123.055 171.107C 123.475 171.107 123.892 171.032 124.292 170.875L 185.819 146.921C 187.135 146.407 188 145.141 188 143.731L 188 3.42717C 188 2.32527 187.474 1.29524 186.578 0.648469Z"/>
<path id="path2_fill" d="M 64.2037 6.928L 2.67644 20.6162C 1.11433 20.9687 0 22.3546 0 23.9595L 0 171.108C 0 172.148 0.471709 173.127 1.28182 173.777C 1.89367 174.27 2.64909 174.53 3.41818 174.53C 3.66429 174.53 3.91382 174.502 4.15993 174.451L 65.6872 160.763C 67.2493 160.41 68.3636 159.021 68.3636 157.419L 68.3636 10.2713C 68.3636 9.23104 67.8919 8.25233 67.0818 7.60214C 66.2786 6.95195 65.2189 6.71241 64.2037 6.928Z"/>
</defs>
</svg>
