<svg width="200" height="200" viewBox="0 0 200 200" version="1.1" xmlns="http://www.w3.org/2000/svg" xmlns:xlink="http://www.w3.org/1999/xlink">
<title>money</title>
<desc>Created using Figma</desc>
<g id="Canvas" transform="translate(-1115 -2930)">
<g id="money">
<g id="icon">
<use xlink:href="#path0_stroke" transform="translate(1120 2954)" fill="#FFFFFF"/>
</g>
</g>
</g>
<defs>
<path id="path0_stroke" d="M 3.16669 0L 3.16669 -2L 1.16669 -2L 1.16669 0L 3.16669 0ZM 186.833 0L 188.833 0L 188.833 -2L 186.833 -2L 186.833 0ZM 186.833 101.204L 186.833 103.204L 188.833 103.204L 188.833 101.204L 186.833 101.204ZM 3.16669 101.204L 1.16669 101.204L 1.16669 103.204L 3.16669 103.204L 3.16669 101.204ZM 0 124.506C -1.10457 124.506 -2 125.401 -2 126.506C -2 127.61 -1.10457 128.506 0 128.506L 0 124.506ZM 190 128.506C 191.105 128.506 192 127.61 192 126.506C 192 125.401 191.105 124.506 190 124.506L 190 128.506ZM 0 149.807C -1.10457 149.807 -2 150.702 -2 151.807C -2 152.911 -1.10457 153.807 0 153.807L 0 149.807ZM 190 153.807C 191.105 153.807 192 152.911 192 151.807C 192 150.702 191.105 149.807 190 149.807L 190 153.807ZM 31.6667 23.3011C 30.5621 23.3011 29.6667 24.1965 29.6667 25.3011C 29.6667 26.4056 30.5621 27.3011 31.6667 27.3011L 31.6667 23.3011ZM 44.3333 27.3011C 45.4379 27.3011 46.3333 26.4056 46.3333 25.3011C 46.3333 24.1965 45.4379 23.3011 44.3333 23.3011L 44.3333 27.3011ZM 145.667 73.9033C 144.562 73.9033 143.667 74.7987 143.667 75.9033C 143.667 77.0078 144.562 77.9033 145.667 77.9033L 145.667 73.9033ZM 158.333 77.9033C 159.438 77.9033 160.333 77.0078 160.333 75.9033C 160.333 74.7987 159.438 73.9033 158.333 73.9033L 158.333 77.9033ZM 3.16669 2L 186.833 2L 186.833 -2L 3.16669 -2L 3.16669 2ZM 184.833 0L 184.833 101.204L 188.833 101.204L 188.833 0L 184.833 0ZM 186.833 99.2044L 3.16669 99.2044L 3.16669 103.204L 186.833 103.204L 186.833 99.2044ZM 5.16669 101.204L 5.16669 0L 1.16669 0L 1.16669 101.204L 5.16669 101.204ZM 118.333 50.6022C 118.333 63.4686 107.889 73.9033 95 73.9033L 95 77.9033C 110.093 77.9033 122.333 65.6825 122.333 50.6022L 118.333 50.6022ZM 95 73.9033C 82.1109 73.9033 71.6667 63.4686 71.6667 50.6022L 67.6667 50.6022C 67.6667 65.6825 79.9066 77.9033 95 77.9033L 95 73.9033ZM 71.6667 50.6022C 71.6667 37.7357 82.1109 27.3011 95 27.3011L 95 23.3011C 79.9066 23.3011 67.6667 35.5218 67.6667 50.6022L 71.6667 50.6022ZM 95 27.3011C 107.889 27.3011 118.333 37.7357 118.333 50.6022L 122.333 50.6022C 122.333 35.5218 110.093 23.3011 95 23.3011L 95 27.3011ZM 0 128.506L 190 128.506L 190 124.506L 0 124.506L 0 128.506ZM 0 153.807L 190 153.807L 190 149.807L 0 149.807L 0 153.807ZM 31.6667 27.3011L 44.3333 27.3011L 44.3333 23.3011L 31.6667 23.3011L 31.6667 27.3011ZM 145.667 77.9033L 158.333 77.9033L 158.333 73.9033L 145.667 73.9033L 145.667 77.9033Z"/>
</defs>
</svg>
