<svg width="200" height="200" viewBox="0 0 200 200" version="1.1" xmlns="http://www.w3.org/2000/svg" xmlns:xlink="http://www.w3.org/1999/xlink">
<title>nightlife</title>
<desc>Created using Figma</desc>
<g id="Canvas" transform="translate(-762 -3263)">
<g id="nightlife">
<g id="icon">
<use xlink:href="#path0_stroke" transform="translate(767 3275)" fill="#FFFFFF"/>
</g>
</g>
</g>
<defs>
<path id="path0_stroke" d="M 92.6503 176.45C 92.6503 177.554 93.5457 178.45 94.6503 178.45C 95.7548 178.45 96.6503 177.554 96.6503 176.45L 92.6503 176.45ZM 60.659 174.45C 59.5545 174.45 58.659 175.345 58.659 176.45C 58.659 177.554 59.5545 178.45 60.659 178.45L 60.659 174.45ZM 128.641 178.45C 129.746 178.45 130.641 177.554 130.641 176.45C 130.641 175.345 129.746 174.45 128.641 174.45L 128.641 178.45ZM 134.522 34.371C 134.795 35.4411 135.885 36.0868 136.955 35.8132C 138.025 35.5396 138.671 34.4503 138.397 33.3801L 134.522 34.371ZM 148.473 47.8453C 147.565 47.2175 146.319 47.4452 145.691 48.354C 145.063 49.2628 145.291 50.5085 146.2 51.1363L 148.473 47.8453ZM -0.0199773 -0.144824C -1.12449 -0.133791 -2.01093 0.770539 -1.9999 1.87505C -1.98887 2.97957 -1.08454 3.86601 0.0199773 3.85498L -0.0199773 -0.144824ZM 57.1224 34.3941C 57.4087 35.4609 58.5056 36.0937 59.5724 35.8074C 60.6393 35.5212 61.272 34.4243 60.9857 33.3574L 57.1224 34.3941ZM 138.839 57.6381L 140.252 59.0533L 140.252 59.0533L 138.839 57.6381ZM 162.633 33.8758L 164.046 35.2909L 167.466 31.8758L 162.633 31.8758L 162.633 33.8758ZM 26.6678 33.8758L 26.6678 31.8758L 21.8349 31.8758L 25.2545 35.2909L 26.6678 33.8758ZM 50.4617 57.6381L 49.0484 59.0533L 49.0484 59.0533L 50.4617 57.6381ZM 92.6503 101.768L 92.6503 176.45L 96.6503 176.45L 96.6503 101.768L 92.6503 101.768ZM 60.659 178.45L 128.641 178.45L 128.641 174.45L 60.659 174.45L 60.659 178.45ZM 138.397 33.3801C 136.877 27.5571 137.451 21.7234 140.077 16.3073L 136.47 14.5801C 133.599 20.6477 132.889 27.8612 134.522 34.371L 138.397 33.3801ZM 140.077 16.3073C 142.649 10.8648 146.836 6.75453 152.329 4.27903L 150.667 0.6405C 144.57 3.4584 139.395 8.53892 136.47 14.5801L 140.077 16.3073ZM 152.329 4.27903C 157.798 1.74859 163.65 1.27455 169.456 2.89191L 170.51 -0.96666C 164.022 -2.70818 156.79 -2.12246 150.667 0.6405L 152.329 4.27903ZM 169.456 2.89191C 175.277 4.4511 180.072 7.83413 183.489 12.7918L 186.771 10.5055C 182.909 5.01416 176.983 0.833037 170.51 -0.96666L 169.456 2.89191ZM 183.489 12.7918C 186.955 17.7146 188.463 23.3797 187.902 29.3713L 191.887 29.7239C 192.448 23.0364 190.583 16.0315 186.771 10.5055L 183.489 12.7918ZM 187.902 29.3713C 187.402 35.3683 184.922 40.6818 180.645 44.9214L 183.476 47.748C 188.199 42.9755 191.265 36.4061 191.887 29.7239L 187.902 29.3713ZM 180.645 44.9214C 176.411 49.204 171.095 51.6949 165.091 52.2104L 165.453 56.194C 172.141 55.5558 178.709 52.4777 183.476 47.748L 180.645 44.9214ZM 165.091 52.2104C 159.091 52.7859 153.412 51.2942 148.473 47.8453L 146.2 51.1363C 151.742 54.9289 158.759 56.7721 165.453 56.194L 165.091 52.2104ZM 60.9857 33.3574C 56.7274 17.4882 53.2441 8.42523 44.3667 3.90412C 40.0175 1.68916 34.5465 0.651887 27.4537 0.167275C 20.3698 -0.315326 11.4197 -0.259093 -0.0199773 -0.144824L 0.0199773 3.85498C 11.4525 3.74077 20.2462 3.68277 27.181 4.15797C 34.1068 4.63117 38.9292 5.62374 42.5514 7.46849C 49.6168 11.0668 52.7883 18.2426 57.1224 34.3941L 60.9857 33.3574ZM 140.252 59.0533L 164.046 35.2909L 161.219 32.4606L 137.426 56.223L 140.252 59.0533ZM 162.633 31.8758L 26.6678 31.8758L 26.6678 35.8758L 162.633 35.8758L 162.633 31.8758ZM 25.2545 35.2909L 49.0484 59.0533L 51.8749 56.223L 28.0811 32.4606L 25.2545 35.2909ZM 138.839 55.6381L 50.4617 55.6381L 50.4617 59.6381L 138.839 59.6381L 138.839 55.6381ZM 49.0484 59.0533L 93.237 103.183L 96.0635 100.353L 51.8749 56.223L 49.0484 59.0533ZM 96.0635 103.183L 140.252 59.0533L 137.426 56.223L 93.237 100.353L 96.0635 103.183Z"/>
</defs>
</svg>
