<svg width="390" height="390" viewBox="0 0 390 390" version="1.1" xmlns="http://www.w3.org/2000/svg" xmlns:xlink="http://www.w3.org/1999/xlink">
<title>Group</title>
<desc>Created using Figma</desc>
<g id="Canvas" transform="translate(-2062 215)">
<g id="Group">
<g id="Orion_neutral-emoji">
<g id="layer2">
<use xlink:href="#path0_fill" transform="translate(2067 -210)" fill="#FEE000"/>
</g>
<g id="opacity" opacity="0.2">
<use xlink:href="#path1_fill" transform="translate(2232.92 -210)" fill="#FFFFFF"/>
</g>
<g id="opacity" opacity="0.15">
<use xlink:href="#path2_fill" transform="translate(2067.2 -189.733)" fill="#363537"/>
</g>
<g id="layer1">
<use xlink:href="#path3_fill" transform="translate(2180.99 -70.6666)" fill="#363537"/>
</g>
<g id="layer1">
<use xlink:href="#path3_fill" transform="translate(2307.65 -93.9915)" fill="#363537"/>
</g>
<g id="stroke">
<use xlink:href="#path4_stroke" transform="translate(2067 -210)" fill="#363537"/>
</g>
<g id="stroke" opacity="0.15">
<use xlink:href="#path5_stroke" transform="translate(2232.22 92.3623)" fill="#363537"/>
</g>
<g id="stroke">
<use xlink:href="#path6_stroke" transform="translate(2193.34 75)" fill="#363537"/>
</g>
<g id="stroke">
<use xlink:href="#path7_stroke" transform="translate(2180.99 -70.6666)" fill="#363537"/>
</g>
<g id="stroke">
<use xlink:href="#path7_stroke" transform="translate(2307.65 -93.9915)" fill="#363537"/>
</g>
</g>
</g>
</g>
<defs>
<path id="path0_fill" d="M 189.986 380C 294.912 380 379.971 294.934 379.971 190C 379.971 85.0659 294.912 0 189.986 0C 85.0594 0 0 85.0659 0 190C 0 294.934 85.0594 380 189.986 380Z"/>
<path id="path1_fill" d="M 201.385 228C 201.386 240.733 200.327 253.443 198.218 266C 210.838 237.083 216.058 205.479 213.408 174.04C 210.758 142.601 200.321 112.317 183.039 85.9207C 165.757 59.5248 142.175 37.8484 114.42 22.8479C 86.666 7.84745 55.6131 -0.00477877 24.0648 2.18191e-06L 4.83158e-06 1.9C 55.4188 8.41042 106.526 35.0207 143.641 76.6906C 180.756 118.36 201.301 172.196 201.385 228Z"/>
<path id="path2_fill" d="M 37.7957 144.4C 37.7516 116.949 43.6756 89.8173 55.1574 64.8836C 66.6391 39.9499 83.404 17.8108 104.291 -1.20799e-06C 80.3228 12.1141 59.1953 29.1722 42.3015 50.0492C 25.4078 70.9263 13.1316 95.1479 6.28258 121.117C -0.56641 147.086 -1.83256 174.211 2.56763 200.705C 6.96782 227.199 16.9344 252.459 31.81 274.82C 46.6856 297.18 66.1322 316.132 88.8674 330.426C 111.603 344.721 137.11 354.032 163.706 357.747C 190.303 361.462 217.385 359.496 243.166 351.978C 268.948 344.46 292.842 331.562 313.275 314.133C 284.305 328.732 252.081 335.67 219.671 334.285C 187.261 332.9 155.746 323.239 128.127 306.222C 100.509 289.205 77.7071 265.399 61.8947 237.073C 46.0823 208.746 37.7858 176.842 37.7957 144.4L 37.7957 144.4Z"/>
<path id="path3_fill" d="M 12.6657 25.3333C 19.6608 25.3333 25.3314 19.6623 25.3314 12.6667C 25.3314 5.67106 19.6608 0 12.6657 0C 5.67063 0 0 5.67106 0 12.6667C 0 19.6623 5.67063 25.3333 12.6657 25.3333Z"/>
<path id="path4_stroke" d="M 374.971 190C 374.971 292.173 292.15 375 189.986 375L 189.986 385C 297.674 385 384.971 297.695 384.971 190L 374.971 190ZM 189.986 375C 87.8212 375 5 292.173 5 190L -5 190C -5 297.695 82.2977 385 189.986 385L 189.986 375ZM 5 190C 5 87.827 87.8212 5 189.986 5L 189.986 -5C 82.2977 -5 -5 82.3048 -5 190L 5 190ZM 189.986 5C 292.15 5 374.971 87.827 374.971 190L 384.971 190C 384.971 82.3048 297.674 -5 189.986 -5L 189.986 5Z"/>
<path id="path5_stroke" d="M 0 -5C -2.76142 -5 -5 -2.76142 -5 0C -5 2.76142 -2.76142 5 0 5L 0 -5ZM 48.5933 5C 51.3548 5 53.5933 2.76142 53.5933 0C 53.5933 -2.76142 51.3548 -5 48.5933 -5L 48.5933 5ZM 0 5L 48.5933 5L 48.5933 -5L 0 -5L 0 5Z"/>
<path id="path6_stroke" d="M 0 -5C -2.76142 -5 -5 -2.76142 -5 0C -5 2.76142 -2.76142 5 0 5L 0 -5ZM 126.657 5C 129.418 5 131.657 2.76142 131.657 0C 131.657 -2.76142 129.418 -5 126.657 -5L 126.657 5ZM 0 5L 126.657 5L 126.657 -5L 0 -5L 0 5Z"/>
<path id="path7_stroke" d="M 24.8314 12.6667C 24.8314 19.3862 19.3846 24.8333 12.6657 24.8333L 12.6657 25.8333C 19.937 25.8333 25.8314 19.9384 25.8314 12.6667L 24.8314 12.6667ZM 12.6657 24.8333C 5.94681 24.8333 0.5 19.3862 0.5 12.6667L -0.5 12.6667C -0.5 19.9384 5.39445 25.8333 12.6657 25.8333L 12.6657 24.8333ZM 0.5 12.6667C 0.5 5.94717 5.94681 0.5 12.6657 0.5L 12.6657 -0.5C 5.39445 -0.5 -0.5 5.39495 -0.5 12.6667L 0.5 12.6667ZM 12.6657 0.5C 19.3846 0.5 24.8314 5.94717 24.8314 12.6667L 25.8314 12.6667C 25.8314 5.39495 19.937 -0.5 12.6657 -0.5L 12.6657 0.5Z"/>
</defs>
</svg>
