<svg width="200" height="200" viewBox="0 0 200 200" version="1.1" xmlns="http://www.w3.org/2000/svg" xmlns:xlink="http://www.w3.org/1999/xlink">
<title>public</title>
<desc>Created using Figma</desc>
<g id="Canvas" transform="translate(-61 -2930)">
<g id="public">
<g id="icon">
<use xlink:href="#path0_stroke" transform="translate(66 2939)" fill="#FFFFFF"/>
</g>
</g>
</g>
<defs>
<path id="path0_stroke" d="M 6.33332 69.6826L 5.09751 68.1101L 0.551726 71.6826L 6.33332 71.6826L 6.33332 69.6826ZM 95 0L 96.2358 -1.5725L 95 -2.54372L 93.7642 -1.5725L 95 0ZM 183.667 69.6826L 183.667 71.6826L 189.448 71.6826L 184.902 68.1101L 183.667 69.6826ZM 69.6667 93.0217C 68.5621 93.0217 67.6667 93.9171 67.6667 95.0217C 67.6667 96.1262 68.5621 97.0217 69.6667 97.0217L 69.6667 93.0217ZM 120.333 97.0217C 121.438 97.0217 122.333 96.1262 122.333 95.0217C 122.333 93.9171 121.438 93.0217 120.333 93.0217L 120.333 97.0217ZM 84.3333 95.0217C 84.3333 93.9171 83.4379 93.0217 82.3333 93.0217C 81.2288 93.0217 80.3333 93.9171 80.3333 95.0217L 84.3333 95.0217ZM 80.3333 158.686C 80.3333 159.791 81.2288 160.686 82.3333 160.686C 83.4379 160.686 84.3333 159.791 84.3333 158.686L 80.3333 158.686ZM 109.667 95.0217C 109.667 93.9171 108.771 93.0217 107.667 93.0217C 106.562 93.0217 105.667 93.9171 105.667 95.0217L 109.667 95.0217ZM 105.667 158.686C 105.667 159.791 106.562 160.686 107.667 160.686C 108.771 160.686 109.667 159.791 109.667 158.686L 105.667 158.686ZM 139.333 93.0217C 138.229 93.0217 137.333 93.9171 137.333 95.0217C 137.333 96.1262 138.229 97.0217 139.333 97.0217L 139.333 93.0217ZM 183.667 97.0217C 184.771 97.0217 185.667 96.1262 185.667 95.0217C 185.667 93.9171 184.771 93.0217 183.667 93.0217L 183.667 97.0217ZM 147.667 95.0217C 147.667 93.9171 146.771 93.0217 145.667 93.0217C 144.562 93.0217 143.667 93.9171 143.667 95.0217L 147.667 95.0217ZM 143.667 158.686C 143.667 159.791 144.562 160.686 145.667 160.686C 146.771 160.686 147.667 159.791 147.667 158.686L 143.667 158.686ZM 173 95.0217C 173 93.9171 172.105 93.0217 171 93.0217C 169.895 93.0217 169 93.9171 169 95.0217L 173 95.0217ZM 169 158.686C 169 159.791 169.895 160.686 171 160.686C 172.105 160.686 173 159.791 173 158.686L 169 158.686ZM 6.33333 93.0217C 5.22876 93.0217 4.33333 93.9171 4.33333 95.0217C 4.33333 96.1262 5.22876 97.0217 6.33333 97.0217L 6.33333 93.0217ZM 50.6667 97.0217C 51.7712 97.0217 52.6667 96.1262 52.6667 95.0217C 52.6667 93.9171 51.7712 93.0217 50.6667 93.0217L 50.6667 97.0217ZM 21 95.0217C 21 93.9171 20.1046 93.0217 19 93.0217C 17.8954 93.0217 17 93.9171 17 95.0217L 21 95.0217ZM 17 158.686C 17 159.791 17.8954 160.686 19 160.686C 20.1046 160.686 21 159.791 21 158.686L 17 158.686ZM 46.3333 95.0217C 46.3333 93.9171 45.4379 93.0217 44.3333 93.0217C 43.2288 93.0217 42.3333 93.9171 42.3333 95.0217L 46.3333 95.0217ZM 42.3333 158.686C 42.3333 159.791 43.2288 160.686 44.3333 160.686C 45.4379 160.686 46.3333 159.791 46.3333 158.686L 42.3333 158.686ZM 6.33333 156.686C 5.22876 156.686 4.33333 157.582 4.33333 158.686C 4.33333 159.791 5.22876 160.686 6.33333 160.686L 6.33333 156.686ZM 183.667 160.686C 184.771 160.686 185.667 159.791 185.667 158.686C 185.667 157.582 184.771 156.686 183.667 156.686L 183.667 160.686ZM 0 181.709C -1.10457 181.709 -2 182.604 -2 183.709C -2 184.813 -1.10457 185.709 0 185.709L 0 181.709ZM 190 185.709C 191.105 185.709 192 184.813 192 183.709C 192 182.604 191.105 181.709 190 181.709L 190 185.709ZM 7.56914 71.2551L 96.2358 1.5725L 93.7642 -1.5725L 5.09751 68.1101L 7.56914 71.2551ZM 93.7642 1.5725L 182.431 71.2551L 184.902 68.1101L 96.2358 -1.5725L 93.7642 1.5725ZM 183.667 67.6826L 6.33332 67.6826L 6.33332 71.6826L 183.667 71.6826L 183.667 67.6826ZM 69.6667 97.0217L 120.333 97.0217L 120.333 93.0217L 69.6667 93.0217L 69.6667 97.0217ZM 80.3333 95.0217L 80.3333 158.686L 84.3333 158.686L 84.3333 95.0217L 80.3333 95.0217ZM 105.667 95.0217L 105.667 158.686L 109.667 158.686L 109.667 95.0217L 105.667 95.0217ZM 139.333 97.0217L 183.667 97.0217L 183.667 93.0217L 139.333 93.0217L 139.333 97.0217ZM 143.667 95.0217L 143.667 158.686L 147.667 158.686L 147.667 95.0217L 143.667 95.0217ZM 169 95.0217L 169 158.686L 173 158.686L 173 95.0217L 169 95.0217ZM 6.33333 97.0217L 50.6667 97.0217L 50.6667 93.0217L 6.33333 93.0217L 6.33333 97.0217ZM 17 95.0217L 17 158.686L 21 158.686L 21 95.0217L 17 95.0217ZM 42.3333 95.0217L 42.3333 158.686L 46.3333 158.686L 46.3333 95.0217L 42.3333 95.0217ZM 6.33333 160.686L 183.667 160.686L 183.667 156.686L 6.33333 156.686L 6.33333 160.686ZM 0 185.709L 190 185.709L 190 181.709L 0 181.709L 0 185.709Z"/>
</defs>
</svg>
