<svg width="210" height="200" viewBox="0 0 210 200" version="1.1" xmlns="http://www.w3.org/2000/svg" xmlns:xlink="http://www.w3.org/1999/xlink">
<title>redo</title>
<desc>Created using Figma</desc>
<g id="Canvas" transform="translate(-51 -3596)">
<g id="redo">
<g id="icon">
<use xlink:href="#path0_stroke" transform="translate(61 3614)" fill="#FFFFFF"/>
</g>
</g>
</g>
<defs>
<path id="path0_stroke" d="M 164.148 91.6363L 157.383 99.0007L 165.882 106.809L 172.401 97.2838L 164.148 91.6363ZM 147.636 147.508C 151.543 143.605 151.546 137.273 147.642 133.366C 143.739 129.459 137.407 129.456 133.5 133.36L 147.636 147.508ZM 198.253 59.5059C 201.372 54.9481 200.205 48.7248 195.647 45.6058C 191.09 42.4868 184.866 43.6532 181.747 48.211L 198.253 59.5059ZM 136.674 52.8184C 132.606 49.0821 126.28 49.3504 122.544 53.4176C 118.808 57.4848 119.076 63.8107 123.143 67.547L 136.674 52.8184ZM 174.083 92.7765C 176.345 71.7146 170.827 48.8501 159.207 31.1333L 142.563 42.2233C 152.503 56.8642 156.383 72.9392 154.213 90.4962L 174.083 92.7765ZM 159.207 31.1333C 147.331 13.5874 128.351 -0.317413 108.033 -6.35724L 102.473 12.8544C 119.526 17.6303 132.878 27.4114 142.563 42.2233L 159.207 31.1333ZM 108.033 -6.35724C 87.6299 -12.1026 64.1526 -10.4866 44.7309 -1.99994L 52.8713 16.2684C 68.9835 8.92117 85.504 7.78406 102.473 12.8544L 108.033 -6.35724ZM 44.7309 -1.99994C 25.4332 6.76697 8.54028 23.1418 -0.814938 42.1495L 17.1929 50.8511C 24.7531 34.8527 36.6351 23.3355 52.8713 16.2684L 44.7309 -1.99994ZM -0.814938 42.1495C -9.89401 61.2916 -12.2212 84.6965 -7.08893 105.249L 12.2796 100.263C 7.72046 83.1694 9.35657 66.7152 17.1929 50.8511L -0.814938 42.1495ZM -7.08893 105.249C -1.65929 125.725 11.6799 145.102 28.8748 157.491L 40.4487 141.18C 25.9222 131.06 16.5413 117.434 12.2796 100.263L -7.08893 105.249ZM 28.8748 157.491C 46.2463 169.63 68.9471 175.829 90.0825 174.206L 88.4074 154.276C 70.7718 155.912 54.7986 151.55 40.4487 141.18L 28.8748 157.491ZM 90.0825 174.206C 111.193 172.278 132.538 162.376 147.636 147.508L 133.5 133.36C 121.087 145.979 106.069 152.946 88.4074 154.276L 90.0825 174.206ZM 181.747 48.211L 155.895 85.9889L 172.401 97.2838L 198.253 59.5059L 181.747 48.211ZM 170.913 84.272L 136.674 52.8184L 123.143 67.547L 157.383 99.0007L 170.913 84.272Z"/>
</defs>
</svg>
