<svg width="200" height="200" viewBox="0 0 200 200" version="1.1" xmlns="http://www.w3.org/2000/svg" xmlns:xlink="http://www.w3.org/1999/xlink">
<title>redo</title>
<desc>Created using Figma</desc>
<g id="Canvas" transform="translate(-56 -3596)">
<g id="redo">
<g id="icon">
<use xlink:href="#path0_stroke" transform="translate(61 3614)" fill="#FFFFFF"/>
</g>
</g>
</g>
<defs>
<path id="path0_stroke" d="M 164.148 91.6363L 160.765 95.3185L 165.015 99.2226L 168.274 94.4601L 164.148 91.6363ZM 144.102 143.971C 146.056 142.019 146.057 138.853 144.105 136.9C 142.154 134.947 138.988 134.945 137.034 136.897L 144.102 143.971ZM 194.126 56.6822C 195.686 54.4033 195.103 51.2916 192.824 49.7321C 190.545 48.1726 187.433 48.7558 185.874 51.0347L 194.126 56.6822ZM 133.291 56.5005C 131.257 54.6324 128.094 54.7665 126.226 56.8001C 124.358 58.8337 124.492 61.9967 126.526 63.8648L 133.291 56.5005ZM 169.115 92.2064C 171.355 72.0207 166.246 50.8536 155.046 33.9058L 146.724 39.4508C 157.084 54.8607 161.373 72.633 159.181 91.0663L 169.115 92.2064ZM 155.046 33.9058C 143.718 17.0434 126.145 4.16951 106.643 -1.55433L 103.863 8.05148C 121.732 13.1434 136.491 23.9554 146.724 39.4508L 155.046 33.9058ZM 106.643 -1.55433C 87.0984 -7.13097 65.3603 -5.63468 46.766 2.56716L 50.8362 11.7013C 67.7758 4.06922 86.0355 2.81238 103.863 8.05148L 106.643 -1.55433ZM 46.766 2.56716C 28.2336 10.9091 12.5935 26.0695 3.68702 44.3249L 12.6909 48.6757C 20.6999 31.925 33.8346 19.1934 50.8362 11.7013L 46.766 2.56716ZM 3.68702 44.3249C -5.08136 62.6475 -7.23576 84.3147 -2.2468 104.003L 7.43747 101.51C 2.73505 83.5512 4.54393 65.3593 12.6909 48.6757L 3.68702 44.3249ZM -2.2468 104.003C 2.89087 123.652 15.2405 141.591 31.7683 153.413L 37.5552 145.258C 22.3616 134.571 11.9912 119.507 7.43747 101.51L -2.2468 104.003ZM 31.7683 153.413C 48.3844 165.11 69.4032 170.85 89.6638 169.224L 88.8262 159.259C 70.3156 160.891 52.6605 156.07 37.5552 145.258L 31.7683 153.413ZM 89.6638 169.224C 109.912 167.445 129.676 158.277 144.102 143.971L 137.034 136.897C 123.95 150.078 107.35 157.779 88.8262 159.259L 89.6638 169.224ZM 185.874 51.0347L 160.022 88.8126L 168.274 94.4601L 194.126 56.6822L 185.874 51.0347ZM 167.53 87.9542L 133.291 56.5005L 126.526 63.8648L 160.765 95.3185L 167.53 87.9542Z"/>
</defs>
</svg>
