<svg width="200" height="200" viewBox="0 0 200 200" version="1.1" xmlns="http://www.w3.org/2000/svg" xmlns:xlink="http://www.w3.org/1999/xlink">
<title>religion</title>
<desc>Created using Figma</desc>
<g id="Canvas" transform="translate(-1468 -2930)">
<g id="religion">
<g id="icon">
<use xlink:href="#path0_stroke" transform="translate(1473 2948)" fill="#FFFFFF"/>
</g>
</g>
</g>
<defs>
<path id="path0_stroke" d="M 95 25.3263L 97 25.3263L 95 25.3263ZM 0 0L 0 -2L -2 -2L -2 0L 0 0ZM 0 139.295L -2 139.295L -2 141.295L 0 141.295L 0 139.295ZM 120.333 0L 120.333 -2L 120.333 0ZM 190 0L 192 0L 192 -2L 190 -2L 190 0ZM 190 139.295L 190 141.295L 192 141.295L 192 139.295L 190 139.295ZM 25.3333 29.6578C 24.2288 29.6578 23.3333 30.5533 23.3333 31.6578C 23.3333 32.7624 24.2288 33.6578 25.3333 33.6578L 25.3333 29.6578ZM 69.6667 33.6578C 70.7712 33.6578 71.6667 32.7624 71.6667 31.6578C 71.6667 30.5533 70.7712 29.6578 69.6667 29.6578L 69.6667 33.6578ZM 25.3333 54.9841C 24.2288 54.9841 23.3333 55.8796 23.3333 56.9841C 23.3333 58.0887 24.2288 58.9841 25.3333 58.9841L 25.3333 54.9841ZM 69.6667 58.9841C 70.7712 58.9841 71.6667 58.0887 71.6667 56.9841C 71.6667 55.8796 70.7712 54.9841 69.6667 54.9841L 69.6667 58.9841ZM 25.3333 80.3105C 24.2288 80.3105 23.3333 81.2059 23.3333 82.3105C 23.3333 83.415 24.2288 84.3105 25.3333 84.3105L 25.3333 80.3105ZM 69.6667 84.3105C 70.7712 84.3105 71.6667 83.415 71.6667 82.3105C 71.6667 81.2059 70.7712 80.3105 69.6667 80.3105L 69.6667 84.3105ZM 25.3333 105.637C 24.2288 105.637 23.3333 106.532 23.3333 107.637C 23.3333 108.741 24.2288 109.637 25.3333 109.637L 25.3333 105.637ZM 69.6667 109.637C 70.7712 109.637 71.6667 108.741 71.6667 107.637C 71.6667 106.532 70.7712 105.637 69.6667 105.637L 69.6667 109.637ZM 120.333 29.6578C 119.229 29.6578 118.333 30.5533 118.333 31.6578C 118.333 32.7624 119.229 33.6578 120.333 33.6578L 120.333 29.6578ZM 164.667 33.6578C 165.771 33.6578 166.667 32.7624 166.667 31.6578C 166.667 30.5533 165.771 29.6578 164.667 29.6578L 164.667 33.6578ZM 120.333 54.9841C 119.229 54.9841 118.333 55.8796 118.333 56.9841C 118.333 58.0887 119.229 58.9841 120.333 58.9841L 120.333 54.9841ZM 164.667 58.9841C 165.771 58.9841 166.667 58.0887 166.667 56.9841C 166.667 55.8796 165.771 54.9841 164.667 54.9841L 164.667 58.9841ZM 120.333 80.3105C 119.229 80.3105 118.333 81.2059 118.333 82.3105C 118.333 83.415 119.229 84.3105 120.333 84.3105L 120.333 80.3105ZM 164.667 84.3105C 165.771 84.3105 166.667 83.415 166.667 82.3105C 166.667 81.2059 165.771 80.3105 164.667 80.3105L 164.667 84.3105ZM 120.333 105.637C 119.229 105.637 118.333 106.532 118.333 107.637C 118.333 108.741 119.229 109.637 120.333 109.637L 120.333 105.637ZM 164.667 109.637C 165.771 109.637 166.667 108.741 166.667 107.637C 166.667 106.532 165.771 105.637 164.667 105.637L 164.667 109.637ZM 69.6667 141.295C 75.8552 141.295 81.7902 143.752 86.166 148.127L 88.9941 145.298C 83.868 140.174 76.9157 137.295 69.6667 137.295L 69.6667 141.295ZM 86.166 148.127C 90.5418 152.502 93 158.435 93 164.621L 97 164.621C 97 157.373 94.1201 150.423 88.9941 145.298L 86.166 148.127ZM 97 164.621L 97 25.3263L 93 25.3263L 93 164.621L 97 164.621ZM 97 25.3263C 97 18.0787 94.1201 11.1281 88.9941 6.00349L 86.166 8.83231C 90.5418 13.2069 93 19.14 93 25.3263L 97 25.3263ZM 88.9941 6.00349C 83.868 0.878878 76.9157 -2 69.6667 -2L 69.6667 2C 75.8552 2 81.7902 4.45772 86.166 8.83231L 88.9941 6.00349ZM 69.6667 -2L 0 -2L 0 2L 69.6667 2L 69.6667 -2ZM -2 0L -2 139.295L 2 139.295L 2 0L -2 0ZM 0 141.295L 69.6667 141.295L 69.6667 137.295L 0 137.295L 0 141.295ZM 97 25.3263C 97 19.14 99.4582 13.2069 103.834 8.83231L 101.006 6.00349C 95.8799 11.1281 93 18.0787 93 25.3263L 97 25.3263ZM 103.834 8.83231C 108.21 4.45772 114.145 2 120.333 2L 120.333 -2C 113.084 -2 106.132 0.878878 101.006 6.00349L 103.834 8.83231ZM 120.333 2L 190 2L 190 -2L 120.333 -2L 120.333 2ZM 188 0L 188 139.295L 192 139.295L 192 0L 188 0ZM 190 137.295L 120.333 137.295L 120.333 141.295L 190 141.295L 190 137.295ZM 120.333 137.295C 113.084 137.295 106.132 140.174 101.006 145.298L 103.834 148.127C 108.21 143.752 114.145 141.295 120.333 141.295L 120.333 137.295ZM 101.006 145.298C 95.8799 150.423 93 157.373 93 164.621L 97 164.621C 97 158.435 99.4582 152.502 103.834 148.127L 101.006 145.298ZM 25.3333 33.6578L 69.6667 33.6578L 69.6667 29.6578L 25.3333 29.6578L 25.3333 33.6578ZM 25.3333 58.9841L 69.6667 58.9841L 69.6667 54.9841L 25.3333 54.9841L 25.3333 58.9841ZM 25.3333 84.3105L 69.6667 84.3105L 69.6667 80.3105L 25.3333 80.3105L 25.3333 84.3105ZM 25.3333 109.637L 69.6667 109.637L 69.6667 105.637L 25.3333 105.637L 25.3333 109.637ZM 120.333 33.6578L 164.667 33.6578L 164.667 29.6578L 120.333 29.6578L 120.333 33.6578ZM 120.333 58.9841L 164.667 58.9841L 164.667 54.9841L 120.333 54.9841L 120.333 58.9841ZM 120.333 84.3105L 164.667 84.3105L 164.667 80.3105L 120.333 80.3105L 120.333 84.3105ZM 120.333 109.637L 164.667 109.637L 164.667 105.637L 120.333 105.637L 120.333 109.637Z"/>
</defs>
</svg>
