<svg width="190" height="190" viewBox="0 0 190 190" version="1.1" xmlns="http://www.w3.org/2000/svg" xmlns:xlink="http://www.w3.org/1999/xlink">
<title>search</title>
<desc>Created using Figma</desc>
<g id="Canvas" transform="translate(-1488 -783)">
<g id="search">
<g id="icon">
<use xlink:href="#path0_fill" transform="translate(1491 786)" fill="#363537"/>
</g>
</g>
</g>
<defs>
<path id="path0_fill" d="M 181.747 170.932L 137.512 126.697C 148.477 113.329 155.086 96.2057 155.086 77.5429C 155.086 34.7347 120.351 0 77.5429 0C 34.6971 0 0 34.7347 0 77.5429C 0 120.351 34.6971 155.086 77.5429 155.086C 96.2057 155.086 113.291 148.514 126.66 137.549L 170.895 181.747C 173.899 184.751 178.743 184.751 181.747 181.747C 184.751 178.78 184.751 173.899 181.747 170.932ZM 77.5429 139.652C 43.2588 139.652 15.3959 111.789 15.3959 77.5429C 15.3959 43.2963 43.2588 15.3959 77.5429 15.3959C 111.789 15.3959 139.69 43.2963 139.69 77.5429C 139.69 111.789 111.789 139.652 77.5429 139.652Z"/>
</defs>
</svg>
