<svg width="190" height="190" viewBox="0 0 190 190" version="1.1" xmlns="http://www.w3.org/2000/svg" xmlns:xlink="http://www.w3.org/1999/xlink">
<title>settings</title>
<desc>Created using Figma</desc>
<g id="Canvas" transform="translate(-1488 -1084)">
<g id="settings">
<g id="icon">
<use xlink:href="#path0_fill" transform="translate(1491 1087)" fill="#DDDDDD"/>
</g>
</g>
</g>
<defs>
<path id="path0_fill" d="M 174.527 71.5556L 157.313 71.5556C 154.546 71.5556 152.267 70.0324 151.207 67.4769C 150.147 64.9213 150.686 62.2295 152.638 60.2736L 164.809 48.1058C 166.598 46.3169 167.583 43.9351 167.583 41.4068C 167.583 38.8751 166.598 36.4967 164.809 34.7044L 149.296 19.1905C 145.718 15.6127 139.479 15.6059 135.894 19.1905L 123.726 31.3584C 122.108 32.9769 120.329 33.3142 119.12 33.3142C 117.416 33.3142 115.722 32.6464 114.472 31.4776C 113.548 30.6121 112.444 29.0788 112.444 26.6868L 112.444 9.47259C 112.444 4.24904 108.195 0 102.972 0L 81.0282 0C 75.8046 0 71.5556 4.24904 71.5556 9.47259L 71.5556 26.6868C 71.5556 30.837 68.1584 33.3142 64.8736 33.3142C 63.6674 33.3142 61.8887 32.9735 60.2702 31.3584L 48.1024 19.1905C 44.5178 15.6059 38.2788 15.6127 34.701 19.1905L 19.1871 34.7044C 17.3982 36.4933 16.4135 38.8751 16.4135 41.4068C 16.4135 43.9351 17.3982 46.3135 19.1871 48.1058L 31.3584 60.2736C 33.3108 62.2295 33.8458 64.9213 32.7895 67.4769C 31.7332 70.0324 29.4536 71.5556 26.6868 71.5556L 9.47259 71.5556C 4.24904 71.5556 0 75.8046 0 81.0282L 0 102.965C 0 108.192 4.24904 112.444 9.47259 112.444L 26.6868 112.444C 29.4536 112.444 31.7332 113.968 32.7929 116.523C 33.8526 119.079 33.3142 121.771 31.3618 123.726L 19.1905 135.894C 17.4016 137.683 16.4169 140.065 16.4169 142.593C 16.4169 145.125 17.4016 147.503 19.1905 149.296L 34.7044 164.809C 38.2856 168.391 44.5212 168.397 48.1058 164.809L 60.2736 152.642C 61.8921 151.023 63.6708 150.686 64.8804 150.686C 68.1618 150.686 71.559 153.166 71.559 157.313L 71.559 174.524C 71.5556 179.748 75.8046 184 81.0282 184L 102.968 184C 108.192 184 112.441 179.748 112.441 174.524L 112.441 157.313C 112.441 153.163 115.838 150.686 119.12 150.686C 120.326 150.686 122.108 151.027 123.726 152.642L 135.894 164.809C 139.479 168.394 145.718 168.387 149.296 164.809L 164.809 149.296C 166.598 147.507 167.583 145.125 167.583 142.593C 167.583 140.065 166.598 137.687 164.809 135.894L 152.638 123.726C 150.686 121.771 150.151 119.079 151.207 116.523C 152.263 113.968 154.546 112.444 157.313 112.444L 174.527 112.444C 179.751 112.444 184 108.192 184 102.968L 184 81.0282C 184 75.8046 179.751 71.5556 174.527 71.5556ZM 115.852 92C 115.852 105.149 105.149 115.852 92 115.852C 78.8508 115.852 68.1481 105.149 68.1481 92C 68.1481 78.8508 78.8508 68.1481 92 68.1481C 105.149 68.1481 115.852 78.8508 115.852 92Z"/>
</defs>
</svg>
