<svg width="200" height="200" viewBox="0 0 200 200" version="1.1" xmlns="http://www.w3.org/2000/svg" xmlns:xlink="http://www.w3.org/1999/xlink">
<title>shopping</title>
<desc>Created using Figma</desc>
<g id="Canvas" transform="translate(-409 -2597)">
<g id="shopping">
<g id="icon">
<use xlink:href="#path0_stroke" transform="translate(414 2615)" fill="#FFFFFF"/>
</g>
</g>
</g>
<defs>
<path id="path0_stroke" d="M 0 -2C -1.10457 -2 -2 -1.10457 -2 0C -2 1.10457 -1.10457 2 0 2L 0 -2ZM 31.6667 0L 33.6068 -0.48582L 33.2276 -2L 31.6667 -2L 31.6667 0ZM 63.3333 126.459L 61.3932 126.945L 61.7724 128.459L 63.3333 128.459L 63.3333 126.459ZM 164.667 126.459L 164.667 128.459L 166.107 128.459L 166.564 127.093L 164.667 126.459ZM 190 50.5837L 191.897 51.2171L 192.776 48.5837L 190 48.5837L 190 50.5837ZM 44.3333 48.5837C 43.2288 48.5837 42.3333 49.4792 42.3333 50.5837C 42.3333 51.6883 43.2288 52.5837 44.3333 52.5837L 44.3333 48.5837ZM 0 2L 31.6667 2L 31.6667 -2L 0 -2L 0 2ZM 29.7266 0.48582L 61.3932 126.945L 65.2734 125.974L 33.6068 -0.48582L 29.7266 0.48582ZM 63.3333 128.459L 164.667 128.459L 164.667 124.459L 63.3333 124.459L 63.3333 128.459ZM 166.564 127.093L 191.897 51.2171L 188.103 49.9504L 162.77 125.826L 166.564 127.093ZM 190 48.5837L 44.3333 48.5837L 44.3333 52.5837L 190 52.5837L 190 48.5837ZM 77.1667 151.751C 77.1667 157.628 72.3941 162.397 66.5 162.397L 66.5 166.397C 74.5971 166.397 81.1667 159.843 81.1667 151.751L 77.1667 151.751ZM 66.5 162.397C 60.6059 162.397 55.8333 157.628 55.8333 151.751L 51.8333 151.751C 51.8333 159.843 58.4029 166.397 66.5 166.397L 66.5 162.397ZM 55.8333 151.751C 55.8333 145.875 60.6059 141.105 66.5 141.105L 66.5 137.105C 58.4029 137.105 51.8333 143.659 51.8333 151.751L 55.8333 151.751ZM 66.5 141.105C 72.3941 141.105 77.1667 145.875 77.1667 151.751L 81.1667 151.751C 81.1667 143.659 74.5971 137.105 66.5 137.105L 66.5 141.105ZM 159.5 151.751C 159.5 157.628 154.727 162.397 148.833 162.397L 148.833 166.397C 156.93 166.397 163.5 159.843 163.5 151.751L 159.5 151.751ZM 148.833 162.397C 142.939 162.397 138.167 157.628 138.167 151.751L 134.167 151.751C 134.167 159.843 140.736 166.397 148.833 166.397L 148.833 162.397ZM 138.167 151.751C 138.167 145.875 142.939 141.105 148.833 141.105L 148.833 137.105C 140.736 137.105 134.167 143.659 134.167 151.751L 138.167 151.751ZM 148.833 141.105C 154.727 141.105 159.5 145.875 159.5 151.751L 163.5 151.751C 163.5 143.659 156.93 137.105 148.833 137.105L 148.833 141.105Z"/>
</defs>
</svg>
