<svg width="200" height="200" viewBox="0 0 200 200" version="1.1" xmlns="http://www.w3.org/2000/svg" xmlns:xlink="http://www.w3.org/1999/xlink">
<title>sign-in</title>
<desc>Created using Figma</desc>
<g id="Canvas" transform="translate(-1118 -1949)">
<g id="sign-in">
<g id="icon">
<use xlink:href="#path0_fill" transform="translate(1123 1954)" fill="#FAFAFA"/>
</g>
</g>
</g>
<defs>
<path id="path0_fill" d="M 158.01 0L 31.9902 0C 14.3645 0 0 14.3645 0 32.0678L 0 95C 0 98.8435 3.14467 101.988 6.98815 101.988L 114.412 101.988L 98.9988 117.401C 96.2812 120.119 96.2812 124.544 98.9988 127.301C 100.358 128.66 102.143 129.358 103.929 129.358C 105.715 129.358 107.501 128.66 108.86 127.301L 136.191 99.9694C 138.909 97.2517 138.909 92.8259 136.191 90.0695L 108.86 62.738C 106.142 60.0204 101.716 60.0204 98.9599 62.738C 96.2423 65.4557 96.2423 69.8815 98.9599 72.6379L 114.412 88.0119L 13.9763 88.0119L 13.9763 32.0678C 13.9763 22.0903 22.0515 13.9763 31.9902 13.9763L 158.01 13.9763C 167.949 13.9763 176.024 22.0903 176.024 32.0678L 176.024 157.932C 176.024 167.91 167.949 176.024 158.01 176.024L 31.9902 176.024C 22.0515 176.024 13.9763 167.91 13.9763 157.932L 13.9763 141.626C 13.9763 137.783 10.8316 134.638 6.98815 134.638C 3.14467 134.638 2.75854e-15 137.783 2.75854e-15 141.626L 2.75854e-15 157.932C 2.75854e-15 175.597 14.3645 190 31.9902 190L 158.01 190C 175.635 190 190 175.635 190 157.932L 190 32.0678C 190 14.4034 175.635 0 158.01 0Z"/>
</defs>
</svg>
