<svg width="190" height="190" viewBox="0 0 190 190" version="1.1" xmlns="http://www.w3.org/2000/svg" xmlns:xlink="http://www.w3.org/1999/xlink">
<title>star</title>
<desc>Created using Figma</desc>
<g id="Canvas" transform="translate(-1857 -783)">
<g id="star">
<g id="icon">
<g id="icon">
<use xlink:href="#path0_fill" transform="translate(1860 790)" fill="#DDDDDD"/>
</g>
<g id="icon">
<use xlink:href="#path1_fill" transform="translate(1860 790)" fill="#444444"/>
</g>
</g>
</g>
</g>
<defs>
<path id="path0_fill" d="M 92.0017 -1.39532e-07L 120.428 57.3805L 184 66.5844L 137.999 111.246L 148.858 174.316L 92.0017 144.54L 35.142 174.316L 46.0009 111.246L 0 66.5844L 63.5718 57.3805L 92.0017 -1.39532e-07Z"/>
<path id="path1_fill" d="M 37.1726 175.769C 36.4908 175.769 35.8091 175.557 35.236 175.138C 34.2216 174.398 33.7144 173.147 33.9285 171.908L 44.1087 112.413L 0.993364 70.283C 0.0975279 69.4046 -0.225236 68.0938 0.160105 66.9017C 0.548739 65.7064 1.57961 64.8347 2.82126 64.6531L 62.4009 55.9721L 89.0487 1.84251C 89.602 0.713231 90.7482 1.03918e-07 91.9997 1.03918e-07C 93.2546 1.03918e-07 94.4007 0.713231 94.9507 1.84251L 121.595 55.9721L 181.178 64.6531C 182.42 64.8347 183.447 65.7031 183.839 66.9017C 184.225 68.0938 183.905 69.4079 183.006 70.283L 139.891 112.42L 150.068 171.912C 150.278 173.15 149.771 174.402 148.76 175.141C 147.746 175.887 146.399 175.983 145.289 175.392L 91.9997 147.305L 38.7041 175.392C 38.2232 175.643 37.6963 175.769 37.1726 175.769ZM 10.37 70.2235L 49.9449 108.9C 50.7188 109.656 51.0745 110.752 50.8901 111.822L 41.5464 166.43L 90.4682 140.648C 91.4267 140.14 92.5695 140.14 93.5345 140.648L 142.45 166.43L 133.109 111.822C 132.925 110.752 133.281 109.659 134.055 108.9L 173.629 70.2235L 118.941 62.2558C 117.867 62.1006 116.941 61.4237 116.461 60.4496L 91.9997 10.7678L 67.5388 60.4529C 67.0579 61.427 66.1325 62.1039 65.0588 62.2591L 10.37 70.2235Z"/>
</defs>
</svg>
