<svg width="200" height="200" viewBox="0 0 200 200" version="1.1" xmlns="http://www.w3.org/2000/svg" xmlns:xlink="http://www.w3.org/1999/xlink">
<title>store</title>
<desc>Created using Figma</desc>
<g id="Canvas" transform="translate(-409 -3263)">
<g id="store">
<g id="icon">
<use xlink:href="#path0_stroke" transform="translate(414 3281)" fill="#FFFFFF"/>
</g>
</g>
</g>
<defs>
<path id="path0_stroke" d="M 107.667 94.8025L 107.667 92.8025L 105.667 92.8025L 105.667 94.8025L 107.667 94.8025ZM 145.667 94.8025L 147.667 94.8025L 147.667 92.8025L 145.667 92.8025L 145.667 94.8025ZM 145.667 164.324L 145.667 166.324L 147.667 166.324L 147.667 164.324L 145.667 164.324ZM 107.667 164.324L 105.667 164.324L 105.667 166.324L 107.667 166.324L 107.667 164.324ZM 173 75.8421C 173 74.7375 172.105 73.8421 171 73.8421C 169.895 73.8421 169 74.7375 169 75.8421L 173 75.8421ZM 171 164.324L 171 166.324L 173 166.324L 173 164.324L 171 164.324ZM 19 164.324L 17 164.324L 17 166.324L 19 166.324L 19 164.324ZM 21 75.8421C 21 74.7375 20.1046 73.8421 19 73.8421C 17.8954 73.8421 17 74.7375 17 75.8421L 21 75.8421ZM 44.3333 94.8025L 44.3333 92.8025L 42.3333 92.8025L 42.3333 94.8025L 44.3333 94.8025ZM 88.6667 94.8025L 90.6667 94.8025L 90.6667 92.8025L 88.6667 92.8025L 88.6667 94.8025ZM 88.6667 132.724L 88.6667 134.724L 90.6667 134.724L 90.6667 132.724L 88.6667 132.724ZM 44.3333 132.724L 42.3333 132.724L 42.3333 134.724L 44.3333 134.724L 44.3333 132.724ZM 160.233 0L 161.97 -0.991565L 161.395 -2L 160.233 -2L 160.233 0ZM 29.7667 0L 29.7667 -2L 28.6055 -2L 28.0298 -0.991565L 29.7667 0ZM 0 52.1414L -1.73689 51.1498L -2 51.6107L -2 52.1414L 0 52.1414ZM 47.5 52.1414L 45.5863 51.5602L 45.5 51.8444L 45.5 52.1414L 47.5 52.1414ZM 142.5 52.1414L 144.5 52.1414L 144.5 51.8444L 144.414 51.5602L 142.5 52.1414ZM 190 52.1414L 192 52.1414L 192 51.6107L 191.737 51.1498L 190 52.1414ZM 0 48.5613C -1.10457 48.5613 -2 49.4568 -2 50.5613C -2 51.6659 -1.10457 52.5613 0 52.5613L 0 48.5613ZM 190 52.5613C 191.105 52.5613 192 51.6659 192 50.5613C 192 49.4568 191.105 48.5613 190 48.5613L 190 52.5613ZM 97 0C 97 -1.10457 96.1046 -2 95 -2C 93.8954 -2 93 -1.10457 93 0L 97 0ZM 65.247 0.581121C 65.568 -0.475793 64.9714 -1.59277 63.9145 -1.91371C 62.8575 -2.23466 61.7406 -1.63804 61.4196 -0.581121L 65.247 0.581121ZM 128.58 -0.581121C 128.259 -1.63804 127.142 -2.23466 126.086 -1.91371C 125.029 -1.59277 124.432 -0.475793 124.753 0.581121L 128.58 -0.581121ZM 107.667 96.8025L 145.667 96.8025L 145.667 92.8025L 107.667 92.8025L 107.667 96.8025ZM 143.667 94.8025L 143.667 164.324L 147.667 164.324L 147.667 94.8025L 143.667 94.8025ZM 145.667 162.324L 107.667 162.324L 107.667 166.324L 145.667 166.324L 145.667 162.324ZM 109.667 164.324L 109.667 94.8025L 105.667 94.8025L 105.667 164.324L 109.667 164.324ZM 169 75.8421L 169 164.324L 173 164.324L 173 75.8421L 169 75.8421ZM 171 162.324L 19 162.324L 19 166.324L 171 166.324L 171 162.324ZM 21 164.324L 21 75.8421L 17 75.8421L 17 164.324L 21 164.324ZM 44.3333 96.8025L 88.6667 96.8025L 88.6667 92.8025L 44.3333 92.8025L 44.3333 96.8025ZM 86.6667 94.8025L 86.6667 132.724L 90.6667 132.724L 90.6667 94.8025L 86.6667 94.8025ZM 88.6667 130.724L 44.3333 130.724L 44.3333 134.724L 88.6667 134.724L 88.6667 130.724ZM 46.3333 132.724L 46.3333 94.8025L 42.3333 94.8025L 42.3333 132.724L 46.3333 132.724ZM 160.233 -2L 29.7667 -2L 29.7667 2L 160.233 2L 160.233 -2ZM 28.0298 -0.991565L -1.73689 51.1498L 1.73689 53.1329L 31.5036 0.991565L 28.0298 -0.991565ZM -2 52.1414C -2 58.9589 0.713952 65.4964 5.54347 70.3159L 8.36896 67.4846C 4.2905 63.4146 2 57.8954 2 52.1414L -2 52.1414ZM 5.54347 70.3159C 10.3729 75.1353 16.922 77.842 23.75 77.842L 23.75 73.842C 17.9802 73.842 12.4476 71.5547 8.36896 67.4846L 5.54347 70.3159ZM 23.75 77.842C 30.578 77.842 37.1272 75.1353 41.9565 70.3159L 39.131 67.4846C 35.0524 71.5547 29.5198 73.842 23.75 73.842L 23.75 77.842ZM 41.9565 70.3159C 46.7861 65.4964 49.5 58.9589 49.5 52.1414L 45.5 52.1414C 45.5 57.8954 43.2095 63.4146 39.131 67.4846L 41.9565 70.3159ZM 45.5 52.1414C 45.5 58.9589 48.214 65.4964 53.0435 70.3159L 55.869 67.4846C 51.7905 63.4146 49.5 57.8954 49.5 52.1414L 45.5 52.1414ZM 53.0435 70.3159C 57.8729 75.1353 64.422 77.842 71.25 77.842L 71.25 73.842C 65.4802 73.842 59.9476 71.5547 55.869 67.4846L 53.0435 70.3159ZM 71.25 77.842C 78.078 77.842 84.6272 75.1353 89.4565 70.3159L 86.631 67.4846C 82.5525 71.5547 77.0198 73.842 71.25 73.842L 71.25 77.842ZM 89.4565 70.3159C 94.2861 65.4964 97 58.9589 97 52.1414L 93 52.1414C 93 57.8954 90.7095 63.4146 86.631 67.4846L 89.4565 70.3159ZM 93 52.1414C 93 58.9589 95.714 65.4964 100.543 70.3159L 103.369 67.4846C 99.2905 63.4146 97 57.8954 97 52.1414L 93 52.1414ZM 100.543 70.3159C 105.373 75.1353 111.922 77.842 118.75 77.842L 118.75 73.842C 112.98 73.842 107.448 71.5547 103.369 67.4846L 100.543 70.3159ZM 118.75 77.842C 125.578 77.842 132.127 75.1353 136.957 70.3159L 134.131 67.4846C 130.052 71.5547 124.52 73.842 118.75 73.842L 118.75 77.842ZM 136.957 70.3159C 141.786 65.4964 144.5 58.9589 144.5 52.1414L 140.5 52.1414C 140.5 57.8954 138.21 63.4146 134.131 67.4846L 136.957 70.3159ZM 140.5 52.1414C 140.5 58.9589 143.214 65.4964 148.043 70.3159L 150.869 67.4846C 146.791 63.4146 144.5 57.8954 144.5 52.1414L 140.5 52.1414ZM 148.043 70.3159C 152.873 75.1353 159.422 77.842 166.25 77.842L 166.25 73.842C 160.48 73.842 154.948 71.5547 150.869 67.4846L 148.043 70.3159ZM 166.25 77.842C 173.078 77.842 179.627 75.1353 184.457 70.3159L 181.631 67.4846C 177.552 71.5547 172.02 73.842 166.25 73.842L 166.25 77.842ZM 184.457 70.3159C 189.286 65.4964 192 58.9589 192 52.1414L 188 52.1414C 188 57.8954 185.71 63.4146 181.631 67.4846L 184.457 70.3159ZM 191.737 51.1498L 161.97 -0.991565L 158.496 0.991565L 188.263 53.1329L 191.737 51.1498ZM 0 52.5613L 190 52.5613L 190 48.5613L 0 48.5613L 0 52.5613ZM 93 0L 93 52.1414L 97 52.1414L 97 0L 93 0ZM 49.4137 52.7225L 65.247 0.581121L 61.4196 -0.581121L 45.5863 51.5602L 49.4137 52.7225ZM 144.414 51.5602L 128.58 -0.581121L 124.753 0.581121L 140.586 52.7225L 144.414 51.5602Z"/>
</defs>
</svg>
