<svg width="200" height="200" viewBox="0 0 200 200" version="1.1" xmlns="http://www.w3.org/2000/svg" xmlns:xlink="http://www.w3.org/1999/xlink">
<title>twitter</title>
<desc>Created using Figma</desc>
<g id="Canvas" transform="translate(-762 -2273)">
<g id="twitter">
<g id="Subtract">
<use xlink:href="#path0_fill" transform="translate(762 2273)" fill="#363537"/>
</g>
</g>
</g>
<defs>
<path id="path0_fill" fill-rule="evenodd" d="M 10 0C 4.47717 0 0 4.47705 0 10L 0 190C 0 195.523 4.47717 200 10 200L 190 200C 195.523 200 200 195.523 200 190L 200 10C 200 4.47705 195.523 0 190 0L 10 0ZM 156.057 60.093C 162.143 59.3718 167.935 57.7559 173.333 55.3733C 169.31 61.3804 164.196 66.6567 158.285 70.8562L 158.386 74.7361C 158.386 114.337 128.132 160 72.7848 160C 55.793 160 39.9834 155.034 26.6667 146.516C 29.022 146.781 31.4142 146.927 33.8428 146.927C 47.9384 146.927 60.916 142.153 71.2084 134.119C 58.0474 133.882 46.9393 125.219 43.1085 113.305C 44.9507 113.671 46.8295 113.862 48.7724 113.862C 51.5219 113.862 54.1797 113.488 56.7001 112.812C 42.9436 110.055 32.5688 97.9414 32.5688 83.4265L 32.5688 83.0522C 36.6288 85.2979 41.2663 86.6489 46.1971 86.8132C 38.1319 81.4456 32.8162 72.271 32.8162 61.8733C 32.8162 56.3774 34.2917 51.229 36.8854 46.8105C 51.7235 64.9407 73.8934 76.8721 98.8953 78.1228C 98.382 75.9316 98.1162 73.6404 98.1162 71.2942C 98.1162 54.7527 111.589 41.3333 128.205 41.3333C 136.866 41.3333 144.674 44.9666 150.164 50.8C 157.02 49.449 163.453 46.9565 169.282 43.5242C 167.028 50.5078 162.271 56.3867 156.057 60.093Z"/>
</defs>
</svg>
