<svg width="200" height="200" viewBox="0 0 200 200" version="1.1" xmlns="http://www.w3.org/2000/svg" xmlns:xlink="http://www.w3.org/1999/xlink">
<title>youtube</title>
<desc>Created using Figma</desc>
<g id="Canvas" transform="translate(-409 -2273)">
<g id="youtube">
<g id="Subtract">
<use xlink:href="#path0_fill" transform="translate(409 2273)" fill="#363537"/>
</g>
</g>
</g>
<defs>
<path id="path0_fill" fill-rule="evenodd" d="M 190 0L 10 0C 4.47714 0 0 4.47705 0 10L 0 190C 0 195.523 4.47714 200 10 200L 190 200C 195.523 200 200 195.523 200 190L 200 10C 200 4.47705 195.523 0 190 0ZM 115.533 128.029C 115.529 127.376 115.36 126.7 115.133 126.073C 115.101 125.984 115.067 125.896 115.032 125.808C 114.687 124.948 113.971 124.494 113.065 124.361C 113.005 124.352 112.944 124.344 112.882 124.338C 111.719 124.224 110.789 124.694 109.946 125.44L 109.944 125.441C 109.608 125.736 109.454 126.173 109.454 126.173L 109.472 149.858L 109.472 150.441C 109.472 150.442 109.674 150.714 109.705 150.749L 109.707 150.751C 110.391 151.491 111.189 152.079 112.21 152.289L 112.213 152.289C 113.686 152.592 114.78 152.092 115.251 150.916C 115.318 150.748 115.373 150.566 115.414 150.371C 115.487 150.029 115.533 149.677 115.544 149.327C 115.545 149.277 115.546 149.228 115.546 149.177L 115.548 147.412C 115.555 141.757 115.563 136.104 115.543 130.451C 115.54 129.644 115.537 128.836 115.533 128.029ZM 142.053 92.3105C 114.023 91.7092 85.9801 91.7092 57.946 92.3105C 48.221 92.5168 40.4445 100.469 40.4445 110.198L 40.4445 153.979C 40.4445 163.712 48.221 171.664 57.946 171.871C 85.9801 172.472 114.023 172.472 142.053 171.871C 151.782 171.664 159.559 163.712 159.559 153.979L 159.559 110.198C 159.559 100.469 151.782 92.5168 142.053 92.3105ZM 66.1789 157.968L 58.0952 157.968L 58.0952 112.27L 49.7263 112.27L 49.7263 104.625L 74.5655 104.625L 74.5655 112.253L 66.1789 112.253L 66.1789 157.968ZM 95.1083 139L 95.1083 157.972L 87.9506 157.972L 87.9506 153.636C 87.8705 153.722 87.8014 153.795 87.74 153.86L 87.7278 153.873L 87.7151 153.886C 87.5909 154.018 87.499 154.116 87.4108 154.216C 85.8704 155.953 84.1237 157.402 81.8943 158.17C 80.806 158.542 79.6869 158.67 78.5415 158.472C 76.9792 158.213 75.9303 157.314 75.2983 155.892C 74.7103 154.58 74.5611 153.175 74.5567 151.762C 74.5402 146.846 74.547 122.063 74.5478 118.952L 74.5479 118.633L 81.6881 118.633C 81.7013 118.875 81.7276 138.715 81.732 148.392C 81.732 148.918 81.7364 149.458 81.8417 149.972C 82.105 151.271 83.1012 151.828 84.3519 151.372C 85.7914 150.845 86.8885 149.853 87.8101 148.664C 87.9462 148.493 87.9462 148.186 87.9462 147.94L 87.9462 118.589L 95.1083 118.572L 95.1083 139ZM 122.339 154.18C 121.383 157.059 119.276 158.525 116.248 158.494C 113.786 158.472 111.789 157.494 110.143 155.708C 109.959 155.51 109.45 154.97 109.45 154.97L 109.45 157.963L 102.279 157.963L 102.279 104.62L 109.45 104.62L 109.45 122.179C 109.45 122.179 109.854 121.372 110.222 120.955C 111.333 119.713 112.684 118.751 114.352 118.33C 117.104 117.641 120.277 118.493 121.786 121.709C 122.677 123.61 122.927 125.637 122.927 127.7C 122.94 135.156 122.94 142.612 122.932 150.068C 122.927 151.464 122.783 152.842 122.339 154.18ZM 148.824 152.68C 147.582 156.318 145.015 158.337 141.25 158.89C 138.915 159.232 136.602 159.184 134.412 158.192C 131.415 156.84 129.716 154.396 128.988 151.284C 128.65 149.836 128.483 148.318 128.466 146.83C 128.416 141.783 128.429 136.732 128.442 131.684L 128.448 129.302C 128.453 126.248 129.181 123.43 131.274 121.091C 133.662 118.418 136.716 117.422 140.205 117.646C 141.254 117.712 142.325 117.883 143.321 118.212C 146.713 119.327 148.526 121.868 149.237 125.238C 149.509 126.537 149.61 127.885 149.632 129.214C 149.689 132.33 149.61 139.198 149.61 139.198L 135.878 139.198L 135.878 149.042C 135.878 150.81 137.309 152.241 139.077 152.241C 140.841 152.241 142.272 150.81 142.272 149.042L 142.272 143.982L 149.649 143.982C 149.649 143.981 149.759 149.955 148.824 152.68ZM 142.272 127.569C 142.272 125.804 140.841 124.369 139.077 124.369C 137.309 124.369 135.878 125.804 135.878 127.569L 135.878 133.094L 142.272 133.094L 142.272 127.569ZM 133.36 81.2908L 133.362 41.6868L 126.026 41.6868L 126.026 71.0544L 126.027 71.1543C 126.03 71.384 126.033 71.644 125.916 71.7922C 124.97 72.9841 123.855 73.9958 122.394 74.5012C 121.196 74.917 120.276 74.3311 120.055 73.0864C 119.985 72.6941 119.953 72.2896 119.953 71.8892L 119.953 41.6868L 112.669 41.6868L 112.669 75.5483C 112.677 76.5366 112.853 77.5571 113.144 78.5037C 114.019 81.3457 116.357 82.2134 119.101 81.6765C 120.888 81.3269 122.416 80.4407 123.765 79.2524C 124.284 78.7954 124.771 78.303 125.285 77.7827C 125.526 77.5396 125.772 77.2905 126.03 77.0361L 126.022 81.2908L 133.36 81.2908ZM 72.6648 48.5688C 71.0717 41.854 67.7343 27.6785 67.7343 27.6785L 59.3833 27.6785C 59.3833 27.6785 65.7993 48.9573 68.6686 58.447C 68.7717 58.7903 68.8191 59.1628 68.8191 59.5222L 68.816 81.2825L 76.5166 81.2825L 76.5135 59.5222C 76.5135 59.1628 76.5609 58.7903 76.6641 58.447C 79.5333 48.9573 85.9494 27.6785 85.9494 27.6785L 77.5984 27.6785C 77.5984 27.6785 74.2605 41.854 72.6679 48.5688L 72.6648 48.5688ZM 85.4926 51.2034C 85.4926 45.3999 90.1971 40.6953 96.0005 40.6953C 101.804 40.6953 106.509 45.3999 106.508 51.2034L 106.508 71.7676C 106.508 77.571 101.804 82.2756 96.0005 82.2756C 90.1971 82.2756 85.4926 77.571 85.4926 71.7676L 85.4926 51.2034ZM 96.0009 75.2148C 97.6725 75.2148 99.033 73.8547 99.033 72.1829L 99.033 50.7876C 99.033 49.116 97.6725 47.7556 96.0009 47.7556C 94.3293 47.7556 92.9689 49.1157 92.9689 50.7876L 92.9689 72.1829C 92.9689 73.8547 94.3293 75.2148 96.0009 75.2148Z"/>
</defs>
</svg>
