<svg xmlns="http://www.w3.org/2000/svg" width="12.044" height="12.046" viewBox="0 0 12.044 12.046">
  <g id="Group_1871" data-name="Group 1871" transform="translate(-5.5 -5.493)">
    <path id="Path_27833" data-name="Path 27833" d="M16.658,14.66a5.994,5.994,0,0,0,.886-3.144h0a5.994,5.994,0,0,0-.886-3.144l0-.005a6.022,6.022,0,0,0-10.266,0l0,.005a6.024,6.024,0,0,0,0,6.288l0,.005a6.022,6.022,0,0,0,10.266,0Zm-4.367,1.846a1.464,1.464,0,0,1-.391.27.883.883,0,0,1-.758,0,1.845,1.845,0,0,1-.683-.6,5.383,5.383,0,0,1-.778-1.688q.919-.057,1.84-.058t1.84.058a6.792,6.792,0,0,1-.33.908,3.49,3.49,0,0,1-.74,1.11Zm-6.1-4.651H8.617a11.951,11.951,0,0,0,.22,2.018q-1,.088-1.987.241A5.307,5.307,0,0,1,6.188,11.855ZM6.85,8.919q.99.153,1.987.241a11.924,11.924,0,0,0-.22,2.018H6.188A5.307,5.307,0,0,1,6.85,8.919Zm3.9-2.393a1.461,1.461,0,0,1,.391-.27.883.883,0,0,1,.758,0,1.845,1.845,0,0,1,.683.6,5.383,5.383,0,0,1,.778,1.688q-.919.057-1.84.058t-1.84-.058a6.785,6.785,0,0,1,.33-.908A3.489,3.489,0,0,1,10.752,6.526Zm6.1,4.651H14.427a11.951,11.951,0,0,0-.22-2.018q1-.088,1.987-.241A5.307,5.307,0,0,1,16.856,11.178ZM9.518,13.82a11.184,11.184,0,0,1-.223-1.966H13.75a11.186,11.186,0,0,1-.223,1.966q-1-.066-2-.067T9.518,13.82Zm4.009-4.608a11.2,11.2,0,0,1,.223,1.966H9.294a11.187,11.187,0,0,1,.223-1.966q1,.066,2,.067t2-.067Zm.9,2.642h2.429a5.307,5.307,0,0,1-.662,2.259q-.99-.153-1.988-.241A11.924,11.924,0,0,0,14.426,11.855ZM15.788,8.3q-.866.125-1.737.2a7.715,7.715,0,0,0-.4-1.136,4.805,4.805,0,0,0-.56-.953A5.343,5.343,0,0,1,15.788,8.3Zm-8.046-.56A5.344,5.344,0,0,1,9.956,6.4l-.038.049a6.177,6.177,0,0,0-.923,2.041q-.871-.074-1.738-.2A5.372,5.372,0,0,1,7.742,7.737Zm-.486,7q.866-.125,1.737-.2a7.715,7.715,0,0,0,.4,1.136,4.8,4.8,0,0,0,.56.953,5.343,5.343,0,0,1-2.7-1.892Zm8.046.56a5.344,5.344,0,0,1-2.213,1.332l.038-.049a6.177,6.177,0,0,0,.923-2.041q.871.074,1.738.2a5.372,5.372,0,0,1-.486.56Z" transform="translate(0 0)" fill="#595b60"/>
  </g>
</svg>
