<!-- Generated by IcoMoon.io -->
<svg version="1.1" xmlns="http://www.w3.org/2000/svg" width="31" height="28" viewBox="0 0 31 28">
<title>rating-access-elevator</title>
<path fill="#42454a" d="M13.080 12.723l-4.191-4.138c-0.073-0.072-0.174-0.117-0.285-0.117-0.109 0-0.208 0.043-0.281 0.112l0-0-4.298 4.053c-0.078 0.074-0.127 0.179-0.127 0.296 0 0.223 0.18 0.404 0.402 0.407l2.509 0.025v4.505c0 0.243 0.197 0.44 0.44 0.44h2.576c0.243 0 0.44-0.197 0.44-0.44v0-4.471l2.524 0.025c0.001 0 0.003 0 0.004 0 0.225 0 0.407-0.182 0.407-0.407 0-0.113-0.046-0.216-0.121-0.289l-0-0z"></path>
<path fill="#42454a" d="M31.35 25.768l-0.115-21.841c0.066-0.099 0.106-0.221 0.108-0.352v-2.854c-0.028-0.405-0.363-0.724-0.774-0.724-0.016 0-0.032 0-0.048 0.001l0.002-0h-29.686c-0.014-0.001-0.030-0.001-0.046-0.001-0.41 0-0.746 0.318-0.773 0.721l-0 0.002v2.744h-0.018l0.105 20.642c-0.053 0.091-0.085 0.2-0.087 0.317v2.852c0.028 0.405 0.363 0.724 0.774 0.724 0.016 0 0.032-0 0.048-0.001l-0.002 0h29.687c0.014 0.001 0.030 0.001 0.046 0.001 0.41 0 0.746-0.318 0.773-0.721l0-0.002v-1.508zM2.614 4.296h11.991l0.004 19.407h-11.896zM17.216 4.296h11.41l0.103 19.406h-11.509z"></path>
<path fill="#42454a" d="M27.72 13.565c-0.073-0.078-0.177-0.126-0.292-0.127h-0l-2.509-0.025v-4.505c0-0.243-0.197-0.44-0.44-0.44v0h-2.576c-0.243 0-0.44 0.197-0.44 0.44v4.471l-2.524-0.025c-0.001 0-0.003-0-0.004-0-0.225 0-0.407 0.182-0.407 0.407 0 0.113 0.046 0.216 0.121 0.289l4.191 4.138c0.073 0.073 0.174 0.117 0.286 0.117 0.108 0 0.207-0.042 0.279-0.111l-0 0 4.298-4.055c0.079-0.074 0.127-0.179 0.127-0.296 0-0.108-0.042-0.207-0.111-0.28l0 0z"></path>
</svg>
