<!-- Generated by IcoMoon.io -->
<svg version="1.1" xmlns="http://www.w3.org/2000/svg" width="36" height="28" viewBox="0 0 36 28">
<title>ratings-accessible-table-height</title>
<path fill="#42454a" d="M10.469 14.584c0.002 0 0.003 0 0.005 0 0.264 0 0.479-0.214 0.479-0.479 0-0.133-0.055-0.254-0.143-0.341l-0-0-4.934-4.871c-0.087-0.085-0.205-0.138-0.337-0.138-0.127 0-0.243 0.050-0.329 0.131l0-0-5.060 4.774c-0.093 0.088-0.151 0.211-0.151 0.349 0 0.263 0.212 0.476 0.474 0.479h0l2.954 0.029v5.303c0 0.286 0.232 0.518 0.518 0.518h3.033c0 0 0 0 0 0 0.286 0 0.518-0.232 0.518-0.518v0-5.264z"></path>
<path fill="#42454a" d="M35.88 13.659l-5.060-4.774c-0.086-0.081-0.201-0.13-0.328-0.13-0.131 0-0.25 0.053-0.336 0.138l0-0-4.934 4.871c-0.088 0.087-0.143 0.208-0.143 0.341 0 0.264 0.214 0.479 0.479 0.479 0.002 0 0.004 0 0.006-0l2.971-0.029v5.264c0 0.286 0.232 0.518 0.518 0.518 0 0 0 0 0 0h3.034c0.286 0 0.518-0.232 0.518-0.518v0-5.304l2.954-0.029c0.262-0.003 0.473-0.216 0.473-0.479 0-0.137-0.058-0.261-0.15-0.348l-0-0z"></path>
<path fill="#42454a" d="M26.222 24.585h-5.729v-21.171h11.376c0.429 0 0.777-0.257 0.777-0.574v-2.267c0-0.317-0.348-0.574-0.777-0.574h-28.159c-0.429 0-0.777 0.257-0.777 0.574v2.267c0 0.317 0.348 0.574 0.777 0.574h11.716v21.171h-5.386c-0.254 0.038-0.447 0.255-0.447 0.517 0 0.020 0.001 0.040 0.003 0.059l-0-0.002v2.267c-0.002 0.017-0.003 0.037-0.003 0.057 0 0.262 0.193 0.479 0.445 0.516l0.003 0h16.181c0.254-0.038 0.447-0.255 0.447-0.517 0-0.020-0.001-0.040-0.003-0.059l0 0.002v-2.267c0.002-0.017 0.003-0.037 0.003-0.057 0-0.262-0.193-0.479-0.445-0.516l-0.003-0z"></path>
</svg>
