<!-- Generated by IcoMoon.io -->
<svg version="1.1" xmlns="http://www.w3.org/2000/svg" width="31" height="28" viewBox="0 0 31 28">
<title>rating-door-swings-in</title>
<path stroke="rgba(0, 0, 0, 0)" stroke-linejoin="miter" stroke-linecap="butt" stroke-miterlimit="10" stroke-width="0.3542" fill="#42454a" d="M22.548 27.823v-2.951h5.375v-21.743h-24.797v21.743h5.314v2.951h-7.472c-0.014 0.001-0.030 0.002-0.046 0.002-0.261 0-0.485-0.158-0.581-0.384l-0.002-0.004c-0.101-0.134-0.162-0.304-0.162-0.488 0-0.006 0-0.012 0-0.018l-0 0.001v-24.775c0-0.001 0-0.001 0-0.002 0-0.084 0.012-0.166 0.033-0.244l-0.002 0.006v-1.244c0-0.274 0.358-0.496 0.803-0.496h29.134c0.444 0 0.804 0.222 0.804 0.496v1.959c-0.001 0.079-0.029 0.151-0.074 0.208l0.001-0.001v24.092c0 0.004 0 0.009 0 0.015 0 0.178-0.056 0.342-0.152 0.477l0.002-0.003c-0.092 0.238-0.319 0.404-0.585 0.404-0.017 0-0.035-0.001-0.052-0.002l0.002 0z"></path>
<path fill="#42454a" d="M22.853 14.461v13.354h-1.967v-13.354h1.967z"></path>
<path fill="none" stroke="#42454a" stroke-linejoin="miter" stroke-linecap="butt" stroke-miterlimit="10" stroke-width="1.417" d="M7.678 27.677c0-0.018-0.113-13.336 14.826-12.474"></path>
</svg>
