<!-- Generated by IcoMoon.io -->
<svg version="1.1" xmlns="http://www.w3.org/2000/svg" width="25" height="28" viewBox="0 0 25 28">
<title>rating-door-swing-out</title>
<path stroke="rgba(0, 0, 0, 0)" stroke-linejoin="miter" stroke-linecap="butt" stroke-miterlimit="10" stroke-width="0.2852" fill="#42454a" d="M16.4 27.846l-0.002-10.306h1.343v-0.004h4.228v-15.071h-19.505v15.071h4.179v2.321h-5.879c-0.005 0-0.012 0-0.018 0-0.163 0-0.31-0.070-0.411-0.183l-0-0c-0.118-0.096-0.193-0.24-0.193-0.403 0-0.005 0-0.011 0-0.016l-0 0.001v-17.607c0-0 0-0 0-0 0-0.060 0.009-0.117 0.025-0.171l-0.001 0.004v-0.948c0-0.216 0.285-0.39 0.632-0.39h22.918c0.35 0 0.632 0.175 0.632 0.39v1.54c-0.001 0.062-0.022 0.119-0.057 0.164l0-0.001v17.019c0 0.004 0 0.009 0 0.014 0 0.156-0.069 0.297-0.177 0.392l-0.001 0c-0.101 0.119-0.252 0.194-0.419 0.194-0.007 0-0.013-0-0.020-0l0.001 0h-5.725l-0.002 7.989z"></path>
<path fill="none" stroke="#42454a" stroke-linejoin="miter" stroke-linecap="butt" stroke-miterlimit="10" stroke-width="1.1409" d="M17.795 27.425s-11.869 0.293-11.97-9.783"></path>
</svg>
