<!-- Generated by IcoMoon.io -->
<svg version="1.1" xmlns="http://www.w3.org/2000/svg" width="27" height="28" viewBox="0 0 27 28">
<title>ratings-entrance</title>
<path fill="#42454a" d="M12.741 21.116c1.79-0.831 3.169-2.296 3.869-4.1l0.017-0.051-1.207-2.272-1.040 0.053c-0.232 2.434-2.266 4.323-4.741 4.323-2.63 0-4.761-2.132-4.761-4.761 0-1.674 0.864-3.146 2.17-3.995l0.018-0.011-0.542-2.796c-2.602 1.209-4.373 3.8-4.373 6.805 0 4.132 3.35 7.482 7.482 7.482 1.127 0 2.196-0.249 3.155-0.696l-0.046 0.019z"></path>
<path fill="#42454a" d="M8.876 12.494c0.127 0.631 0.677 1.1 1.337 1.1 0.024 0 0.047-0.001 0.070-0.002l-0.003 0 5.929-0.302 2.967 5.56c0.237 0.419 0.68 0.698 1.189 0.698 0.245 0 0.474-0.064 0.672-0.177l-0.007 0.004 2.709-1.537c0.208-0.119 0.346-0.339 0.346-0.592 0-0.123-0.032-0.238-0.089-0.337l0.002 0.003-0.666-1.186v0.009c-0.119-0.208-0.339-0.346-0.592-0.346-0.123 0-0.238 0.032-0.337 0.089l0.003-0.002-1.496 0.857-2.705-5.076c-0.234-0.432-0.684-0.72-1.202-0.72-0.024 0-0.047 0.001-0.071 0.002l0.003-0-5.614 0.284-0.263-1.35 5.131-0.259c0.361-0.018 0.648-0.315 0.648-0.679 0-0.012-0-0.024-0.001-0.036l0 0.002-0.069-1.36c-0.018-0.361-0.315-0.648-0.679-0.648-0.012 0-0.024 0-0.036 0.001l0.002-0-5.519 0.279-0.269-1.38c1.259-0.257 2.193-1.355 2.193-2.672 0-1.504-1.22-2.724-2.724-2.724s-2.724 1.22-2.724 2.724c0 0.050 0.001 0.099 0.004 0.148l-0-0.007c0.027 0.256-0.087-0.365 1.861 9.633z"></path>
<path fill="#42454a" d="M19.139 9.47l3.834-0.224 0.089 1.58c0.007 0.137 0.12 0.246 0.258 0.246 0.078 0 0.148-0.034 0.195-0.089l0-0 3.11-3.525c0.040-0.045 0.065-0.106 0.065-0.172 0-0.077-0.034-0.147-0.088-0.194l-0-0-3.481-3.072c-0.046-0.041-0.106-0.066-0.173-0.066-0.143 0-0.259 0.116-0.259 0.259 0 0.006 0 0.012 0.001 0.018l-0-0.001 0.090 1.599-3.841 0.224c-0.166 0.010-0.297 0.147-0.297 0.315 0 0.006 0 0.013 0.001 0.019l-0-0.001 0.163 2.787c0.010 0.166 0.147 0.297 0.315 0.297 0.007 0 0.013-0 0.020-0.001l-0.001 0z"></path>
<path fill="#42454a" d="M25.1 21.635l-24.462 3.406c-0.362 0.052-0.638 0.36-0.638 0.732 0 0 0 0 0 0.001v-0 1.487c0 0.408 0.331 0.739 0.739 0.739v0h24.803c0.726 0 1.314-0.588 1.314-1.314 0-0 0-0.001 0-0.001v0-3.521c0 0 0-0 0-0 0-0.853-0.691-1.544-1.544-1.544-0.075 0-0.149 0.005-0.221 0.016l0.008-0.001z"></path>
</svg>
