<!-- Generated by IcoMoon.io -->
<svg version="1.1" xmlns="http://www.w3.org/2000/svg" width="27" height="28" viewBox="0 0 27 28">
<title>ratings-entrance-portable-ramp</title>
<path stroke="rgba(0, 0, 0, 0)" stroke-linejoin="miter" stroke-linecap="butt" stroke-miterlimit="10" stroke-width="0.366" fill="#42454a" d="M3.157 22.849c-0.017 0.001-0.036 0.002-0.055 0.002-0.339 0-0.617-0.257-0.651-0.587l-0-0.003v-21.306c0.004-0.173 0.087-0.325 0.215-0.422l0.001-0.001c0.104-0.205 0.311-0.344 0.551-0.349h23.083c0.208 0.003 0.39 0.109 0.5 0.269l0.001 0.002c0.194 0.089 0.329 0.279 0.338 0.501l0 0.001v21.275c-0.034 0.333-0.313 0.59-0.652 0.59-0.019 0-0.037-0.001-0.055-0.002l0.002 0h-2.786c-0.016 0.001-0.034 0.002-0.053 0.002-0.339 0-0.618-0.257-0.652-0.587l-0-0.003v-17.851h-16.299v17.882c-0.033 0.333-0.312 0.59-0.651 0.59-0.019 0-0.038-0.001-0.056-0.002l0.002 0z"></path>
<path fill="#42454a" d="M21.52 24.126v2.821c0 0.582-0.472 1.053-1.053 1.053h-19.874c-0.327 0-0.593-0.265-0.593-0.592v-1.192c0.001-0.298 0.222-0.545 0.509-0.585l0.003-0 19.601-2.729c0.051-0.007 0.11-0.012 0.169-0.012 0.683 0 1.236 0.553 1.237 1.236v0z"></path>
</svg>
