<!-- Generated by IcoMoon.io -->
<svg version="1.1" xmlns="http://www.w3.org/2000/svg" width="54" height="56" viewBox="0 0 54 56">
<title>entrance-lg</title>
<path fill="#d8d8da" d="M25.482 42.232c3.579-1.662 6.337-4.59 7.737-8.196l0.035-0.102-2.415-4.544-2.080 0.105c-0.465 4.867-4.532 8.644-9.482 8.644-5.259 0-9.523-4.264-9.523-9.523 0-3.349 1.729-6.294 4.343-7.992l0.037-0.022-1.085-5.592c-5.204 2.419-8.747 7.601-8.747 13.611 0 8.264 6.7 14.964 14.964 14.964 2.254 0 4.392-0.498 6.309-1.391l-0.092 0.038z"></path>
<path fill="#d8d8da" d="M17.752 24.989c0.254 1.263 1.354 2.2 2.673 2.2 0.047 0 0.095-0.001 0.141-0.004l-0.007 0 11.857-0.599 5.934 11.123c0.475 0.838 1.361 1.394 2.377 1.394 0.488 0 0.947-0.129 1.343-0.354l-0.013 0.007 5.417-3.073c0.417-0.237 0.694-0.679 0.694-1.185 0-0.245-0.065-0.474-0.178-0.672l0.003 0.007-1.331-2.373v0.012c-0.237-0.417-0.679-0.694-1.185-0.694-0.245 0-0.474 0.065-0.672 0.178l0.007-0.003-2.996 1.713-5.408-10.152c-0.468-0.864-1.368-1.44-2.403-1.44-0.048 0-0.095 0.001-0.142 0.004l0.007-0-11.227 0.568-0.526-2.696 10.265-0.519c0.721-0.038 1.291-0.631 1.291-1.358 0-0.027-0.001-0.054-0.002-0.081l0 0.004-0.138-2.72c-0.039-0.719-0.632-1.288-1.358-1.288-0.025 0-0.050 0.001-0.074 0.002l0.003-0-11.041 0.558-0.537-2.755c2.521-0.511 4.391-2.709 4.391-5.344 0-3.008-2.439-5.447-5.447-5.447s-5.447 2.439-5.447 5.447c0 0.099 0.003 0.198 0.008 0.296l-0.001-0.014c0.053 0.506-0.176-0.737 3.72 19.26z"></path>
<path fill="#d8d8da" d="M38.277 18.941l7.668-0.448 0.178 3.16c0.016 0.274 0.242 0.49 0.518 0.49 0.155 0 0.294-0.068 0.389-0.175l0-0.001 6.221-7.050c0.080-0.091 0.129-0.211 0.129-0.343 0-0.155-0.068-0.293-0.175-0.389l-0.001-0-6.963-6.144c-0.091-0.081-0.212-0.131-0.344-0.131-0.287 0-0.519 0.232-0.519 0.519 0 0.010 0 0.021 0.001 0.031l-0-0.001 0.18 3.195-7.682 0.448c-0.332 0.020-0.594 0.294-0.594 0.63 0 0.013 0 0.025 0.001 0.038l-0-0.002 0.326 5.575c0.018 0.334 0.294 0.597 0.63 0.597 0.013 0 0.026-0 0.039-0.001l-0.002 0z"></path>
<path fill="#d8d8da" d="M50.201 43.272l-48.927 6.812c-0.724 0.104-1.275 0.72-1.275 1.465 0 0 0 0 0 0v0 2.974c0 0 0 0.001 0 0.001 0 0.817 0.662 1.479 1.479 1.479 0 0 0.001 0 0.001 0h49.607c1.452 0 2.629-1.177 2.629-2.629v0-7.043c-0-1.705-1.383-3.088-3.088-3.088-0.15 0-0.298 0.011-0.442 0.031l0.017-0.002z"></path>
</svg>
