<!-- Generated by IcoMoon.io -->
<svg version="1.1" xmlns="http://www.w3.org/2000/svg" width="29" height="28" viewBox="0 0 29 28">
<title>ratings-entrance-permanent-ramp</title>
<path stroke-linejoin="miter" stroke-linecap="butt" stroke-miterlimit="10" stroke-width="0.5973" stroke="#42454a" fill="#42454a" d="M1.075 27.701c-0.43 0-0.776-0.239-0.776-0.538v-1.075c0-0.268 0.287-0.495 0.672-0.531l4.297-0.413v-24.010c0.001-0.088 0.017-0.172 0.046-0.249l-0.002 0.005c0.009-0.32 0.264-0.578 0.582-0.592l0.001-0h21.843c0.265 0.008 0.486 0.189 0.554 0.433l0.001 0.004c0.132 0.153 0.212 0.353 0.213 0.571v22.050c0.060 0.172 0.094 0.369 0.094 0.575 0 0.094-0.007 0.186-0.021 0.276l0.001-0.010v2.55c0 0.526-0.619 0.956-1.384 0.956zM9.11 24.778l15.548-1.489v-19.199h-15.545z"></path>
</svg>
