<!-- Generated by IcoMoon.io -->
<svg version="1.1" xmlns="http://www.w3.org/2000/svg" width="38" height="28" viewBox="0 0 38 28">
<title>ratings-entrance-steps</title>
<path stroke-linejoin="miter" stroke-linecap="butt" stroke-miterlimit="10" stroke-width="0.3943" stroke="#42454a" fill="#42454a" d="M32.079 27.803h-30.769c-0.615-0.001-1.113-0.499-1.113-1.114 0 0 0 0 0 0v0-7.401c0 0 0 0 0 0 0-0.615 0.498-1.113 1.113-1.114h6.982c-0.040-0.1-0.064-0.217-0.064-0.339 0-0.002 0-0.003 0-0.005v0-7.657c0.002-0.545 0.445-0.986 0.99-0.986 0 0 0 0 0 0h5.596c-0.019-0.067-0.029-0.145-0.029-0.225 0-0.001 0-0.001 0-0.002v0-7.889c0-0 0-0.001 0-0.001 0-0.482 0.391-0.873 0.873-0.873h21.13c0.019 0 0.039 0 0.058 0.002h0.035c0.429 0.001 0.777 0.348 0.777 0.777v26.049c-0.001 0.429-0.348 0.777-0.777 0.777h-0z"></path>
</svg>
