<!-- Generated by IcoMoon.io -->
<svg version="1.1" xmlns="http://www.w3.org/2000/svg" width="36" height="28" viewBox="0 0 36 28">
<title>ratings-guided-dog</title>
<path fill="#42454a" d="M36.079 7.061c-0.538-0.283-1.053-0.615-1.601-0.871-0.466-0.186-0.809-0.592-0.904-1.086l-0.001-0.009c-0.096-0.429-0.387-0.775-0.772-0.946l-0.009-0.003c-0.379-0.192-0.754-0.394-1.118-0.613-0.172-0.083-0.319-0.186-0.447-0.308l0.001 0.001c-0.178-0.295-0.283-0.651-0.283-1.032 0-0.001 0-0.001 0-0.002v0c-0.036-0.258-0.098-0.508-0.126-0.769q-0.020-0.187-0.029-0.374c0.002-0.017 0.004-0.036 0.004-0.055 0-0.082-0.025-0.158-0.067-0.221l0.001 0.001c-0.024-0.026-0.059-0.043-0.098-0.043-0.014 0-0.028 0.002-0.041 0.007l0.001-0c-0.109 0.025-0.188 0.149-0.254 0.228-0.090 0.104-0.167 0.22-0.254 0.327-0.759 0.956-1.489 1.936-2.26 2.882-0.408 0.554-0.843 1.042-1.321 1.486l-0.006 0.006c-0.374 0.31-0.756 0.613-1.141 0.911l-7.131-6.285c-0.205-0.18-0.475-0.29-0.771-0.29-0.001 0-0.001 0-0.002 0h-5.579c-0 0-0 0-0 0-0.645 0-1.168 0.523-1.168 1.168 0 0.341 0.146 0.647 0.378 0.861l0.001 0.001 7.846 7.189c-0.597 0.147-1.292 0.246-2.004 0.274l-0.021 0.001h-7.414c-1.104 0.22-2.014 0.907-2.532 1.842l-0.010 0.019c-1.080 1.855-2.171 3.444-3.367 4.946l0.063-0.082c-0.585 0.748-1.198 1.501-1.828 2.221-0.539 0.615-1.106 1.198-1.675 1.786-0.168 0.174-0.222 0.449 0.051 0.533 0.055 0.010 0.118 0.015 0.183 0.015 0.16 0 0.312-0.033 0.45-0.093l-0.007 0.003c0.545-0.192 1.013-0.416 1.451-0.683l-0.034 0.019c0.068-0.038 0.137-0.078 0.205-0.117 0.766-0.425 1.428-0.893 2.033-1.424l-0.013 0.011c0.345-0.314 0.661-0.645 0.951-0.997l0.013-0.016q0.233-0.28 0.45-0.572 0.109-0.145 0.213-0.294c0.036-0.050 0.194-0.218 0.189-0.274 0.118 1.472 0.117 1.472-0.624 2.591-0.26 0.392-0.527 0.781-0.768 1.186-0.090 0.144-0.147 0.317-0.156 0.502l-0 0.002c-0.011 1.87-0.032 3.74 0.014 5.609 0.036 0.438 0.198 0.833 0.448 1.156l-0.004-0.005c0.308 0.379 0.775 0.62 1.297 0.62 0.216 0 0.422-0.041 0.611-0.116l-0.011 0.004c0.705-0.258 1.199-0.924 1.199-1.705 0-0.021-0-0.043-0.001-0.064l0 0.003c0.014-1.049 0.052-2.101-0.011-3.146-0.009-0.090-0.014-0.194-0.014-0.299 0-0.767 0.265-1.472 0.709-2.028l-0.005 0.007c0.382-0.489 0.69-1.036 1.030-1.557 0.060 0.22 0.094 0.473 0.094 0.733 0 0.039-0.001 0.078-0.002 0.117l0-0.006c0.010 0.638-0.123 1.322 0.064 1.903 0.567 1.763 1.235 3.494 1.912 5.219 0.266 0.679 1.024 1.009 1.824 0.924 0.678-0.076 1.213-0.601 1.306-1.267l0.001-0.008c0.018-0.123 0.028-0.264 0.028-0.408 0-0.361-0.063-0.708-0.18-1.029l0.007 0.021c-0.405-1.080-0.915-2.12-1.355-3.188-0.029-0.078-0.046-0.169-0.046-0.263 0-0.115 0.025-0.224 0.070-0.323l-0.002 0.005c0.457-0.892 0.956-1.764 1.421-2.651 0.078-0.19 0.261-0.321 0.476-0.321 0.019 0 0.038 0.001 0.057 0.003l-0.002-0c1.003 0.015 2.007 0.006 3.010 0.006h0.63l3.187 0.040q0 3.458 0 6.916c-0 0.010-0 0.022-0 0.033 0 0.164 0.016 0.325 0.047 0.48l-0.003-0.016c0.164 0.743 0.817 1.29 1.597 1.29 0.164 0 0.322-0.024 0.471-0.069l-0.012 0.003c0.781-0.227 1.215-0.859 1.217-1.818 0.006-2.387 0.010-4.774-0.006-7.161-0.002-0.024-0.003-0.052-0.003-0.080 0-0.314 0.155-0.593 0.393-0.762l0.003-0.002c0.737-0.558 1.385-1.105 2.004-1.683l-0.014 0.013c0.488-0.467 0.729-1.061 1.089-1.871l1.066-2.147c0.003-0.005 0.009-0.011 0.011-0.016q0.457-0.942 0.842-1.918c0.060-0.251 0.283-0.435 0.549-0.435 0.030 0 0.059 0.002 0.087 0.007l-0.003-0c0.683 0.030 1.369-0.014 2.052 0.013 1.908 0.077 1.975-0.341 2.399-1.858 0.020-0.042 0.032-0.091 0.032-0.143 0-0.149-0.096-0.275-0.23-0.32l-0.002-0.001zM14.874 2.337h2.134l6.183 5.449c-0.485 0.207-1.049 0.436-1.655 0.654z"></path>
<path fill="#fff" d="M27.354 12.713h-1.908v1.863h-1.739v-1.863h-1.919v-1.648h1.919v-1.863h1.739v1.863h1.908z"></path>
</svg>
