<!-- Generated by IcoMoon.io -->
<svg version="1.1" xmlns="http://www.w3.org/2000/svg" width="42" height="28" viewBox="0 0 42 28">
<title>ratings-high-noise</title>
<path fill="#42454a" d="M22.066 13.97c0 4.105 0.008 8.211-0.014 12.316 0 0.002 0 0.005 0 0.007 0 0.418-0.118 0.809-0.322 1.142l0.005-0.009c-0.26 0.355-0.675 0.583-1.143 0.583-0.307 0-0.591-0.098-0.823-0.265l0.004 0.003q-3.831-2.289-7.654-4.591c-0.739-0.444-1.428-1.059-2.232-1.279-0.817-0.224-1.747-0.062-2.627-0.063-1.847-0.002-3.691 0-5.536 0-1.189 0-1.727-0.522-1.727-1.672v-12.316c0-1.142 0.544-1.673 1.73-1.674 2.595-0.003 5.19 0.004 7.786-0.010 0.256-0.003 0.496-0.073 0.703-0.193l-0.007 0.004q4.694-2.811 9.372-5.649c0.266-0.187 0.597-0.299 0.954-0.299 0.168 0 0.33 0.025 0.482 0.071l-0.012-0.003c0.617 0.171 1.062 0.727 1.062 1.388 0 0.044-0.002 0.088-0.006 0.131l0-0.006c0.004 1.686 0 3.377 0 5.065z"></path>
<path fill="#42454a" d="M34.048 15.429c-2.048 0-4.093-0.007-6.14 0.005-0.018 0.001-0.039 0.001-0.060 0.001-0.502 0-0.948-0.239-1.232-0.609l-0.003-0.004c-0.175-0.234-0.28-0.529-0.28-0.848 0-0.703 0.51-1.287 1.18-1.403l0.008-0.001c0.124-0.021 0.268-0.033 0.414-0.033h0q6.14-0.003 12.28 0c0.022-0.001 0.047-0.002 0.072-0.002 0.798 0 1.445 0.647 1.445 1.445 0 0.773-0.606 1.404-1.369 1.444l-0.004 0c-1.098 0.015-2.197 0.004-3.295 0.004z"></path>
<path fill="#42454a" d="M36.484 27.624c-0.247-0.067-0.459-0.146-0.661-0.243l0.024 0.010q-4.363-2.493-8.716-5.004c-0.463-0.244-0.774-0.722-0.774-1.273 0-0.255 0.066-0.494 0.183-0.701l-0.004 0.007c0.264-0.428 0.731-0.709 1.263-0.709 0.285 0 0.55 0.080 0.776 0.22l-0.006-0.004q4.302 2.461 8.592 4.939c0.459 0.248 0.766 0.726 0.766 1.276 0 0.134-0.018 0.264-0.052 0.387l0.002-0.010c-0.172 0.627-0.726 1.083-1.39 1.106l-0.003 0z"></path>
<path fill="#42454a" d="M26.364 6.906c-0-0.010-0-0.022-0-0.034 0-0.585 0.338-1.090 0.83-1.332l0.009-0.004c1.375-0.783 2.746-1.575 4.118-2.363 1.473-0.846 2.959-1.669 4.412-2.548 0.22-0.144 0.488-0.229 0.777-0.229 0.792 0 1.434 0.642 1.434 1.434 0 0.559-0.32 1.044-0.787 1.28l-0.008 0.004c-2.843 1.639-5.702 3.252-8.529 4.914-1.074 0.633-2.318-0.196-2.256-1.123z"></path>
<path fill="#fff" d="M14.153 10.637q0-1.727 0-3.453c0-0.312 0.131-0.387 0.671-0.387q0.907 0 1.812 0c0.464 0 0.624 0.089 0.624 0.349q0 3.493 0 6.986c0 0.265-0.153 0.351-0.616 0.352q-0.95 0.002-1.9 0c-0.442 0-0.591-0.089-0.591-0.347q-0.002-1.749-0-3.5z"></path>
<path fill="#fff" d="M14.154 17.76c0-0.351-0.005-0.702 0-1.053 0.006-0.33 0.17-0.53 0.487-0.536q1.066-0.022 2.134 0c0.003-0 0.006-0 0.009-0 0.262 0 0.475 0.213 0.475 0.475 0 0.014-0.001 0.029-0.002 0.043l0-0.002c0.006 0.723 0.008 1.443 0 2.164 0.001 0.013 0.002 0.027 0.002 0.042 0 0.255-0.207 0.462-0.462 0.462-0.011 0-0.022-0-0.034-0.001l0.001 0c-0.711 0.012-1.423 0.013-2.134 0-0.317-0.007-0.47-0.189-0.477-0.511-0.006-0.363-0-0.724-0-1.084z"></path>
</svg>
