<!-- Generated by IcoMoon.io -->
<svg version="1.1" xmlns="http://www.w3.org/2000/svg" width="103" height="53" viewBox="0 0 103 53">
<title>interior</title>
<path fill="#d8d8da" d="M30.727 6.553h48.014c-0.132 1.071-0.305 2.002-0.528 2.913l0.035-0.172c-1.352 4.382-5.366 7.512-10.111 7.512-0.057 0-0.114-0-0.171-0.001l0.009 0c-3.159 0.039-6.324 0.008-9.478 0.009h-1.106v28.252c3.639 0.95 5.335 2.645 5.206 5.222h-15.811c-0.431-2.287 1.426-4.181 5.141-5.233v-28.243c-0.471 0-0.89 0-1.308 0-3.432-0.018-6.872 0.097-10.294-0.090-5.256-0.367-9.412-4.6-9.657-9.855l-0.001-0.023c0.011-0.108 0.032-0.207 0.063-0.302l-0.003 0.010z"></path>
<path fill="#d8d8da" d="M63.801 51.508h-18.065l-0.19-1c-0.252-1.331-0.214-4.511 5.12-6.34v-26.135h-0.052c-1.059-0.008-2.114 0-3.17 0.008-2.354 0.017-4.784 0.032-7.19-0.099-5.906-0.388-10.584-5.141-10.852-11.044l-0.001-0.025c0-0.002 0-0.005 0-0.008 0-0.183 0.028-0.36 0.080-0.526l-0.003 0.012 0.221-0.953 1.027-0.063h49.506l-0.247 1.422c-0.049 0.286-0.091 0.575-0.132 0.857-0.092 0.767-0.229 1.45-0.413 2.113l0.023-0.099c-1.491 4.895-5.967 8.395-11.26 8.395-0.074 0-0.148-0.001-0.221-0.002l0.011 0c-2.205 0.026-4.409 0.021-6.616 0.014q-1.363 0-2.723-0.006v26.133c3.601 1.171 5.351 3.248 5.205 6.186zM48.083 49.069h13.13c-0.32-1.028-1.329-2.089-4.15-2.825l-0.934-0.244v-30.406h2.369q1.442 0 2.885 0.006c2.192 0.006 4.384 0.013 6.577-0.014 0.054 0.001 0.117 0.002 0.181 0.002 4.179 0 7.713-2.761 8.879-6.558l0.017-0.066c0.095-0.326 0.181-0.728 0.24-1.139l0.006-0.051h-45.283c0.652 4.206 4.105 7.433 8.365 7.732l0.029 0.002c2.325 0.126 4.714 0.115 7.032 0.095 1.065-0.008 2.127-0.014 3.199-0.008h2.563v30.373l-0.906 0.256c-1.193 0.338-3.693 1.227-4.198 2.845z"></path>
<path fill="#d8d8da" d="M96.88 34.343h-18.691v1.213c0 3.981 0.016 7.96-0.009 11.939 0.008 0.075 0.012 0.162 0.012 0.251 0 1.427-1.157 2.584-2.584 2.584-0.32 0-0.627-0.058-0.91-0.165l0.018 0.006c-1.093-0.302-1.883-1.288-1.883-2.458 0-0.114 0.007-0.226 0.022-0.335l-0.001 0.013q-0.009-7.791 0-15.584c-0.013-0.284-0.021-0.617-0.021-0.951 0-0.658 0.029-1.31 0.087-1.954l-0.006 0.083c0.327-3.039 2.878-5.385 5.977-5.385 0.11 0 0.22 0.003 0.328 0.009l-0.015-0.001c5.468-0.014 10.937 0 16.405 0h1.265v-1.265q0-8.613 0-17.226c-0.010-0.084-0.015-0.182-0.015-0.281 0-1.43 1.159-2.589 2.589-2.589 0.307 0 0.603 0.054 0.876 0.152l-0.018-0.006c1.094 0.263 1.895 1.234 1.895 2.391 0 0.095-0.005 0.19-0.016 0.282l0.001-0.011q0.014 6.516 0.006 13.033 0 14.217 0 28.436c0 0.304 0 0.608 0 0.912 0.011 0.089 0.017 0.193 0.017 0.298 0 1.421-1.152 2.573-2.573 2.573-0.049 0-0.097-0.001-0.145-0.004l0.007 0c-0.027 0.001-0.060 0.002-0.092 0.002-1.405 0-2.543-1.139-2.543-2.543 0-0.105 0.006-0.208 0.019-0.309l-0.001 0.012c-0.011-4.011 0-8.021 0-12.030z"></path>
<path fill="#d8d8da" d="M75.634 51.559c-0.443-0.002-0.871-0.063-1.278-0.176l0.034 0.008c-1.632-0.448-2.812-1.919-2.812-3.665 0-0.117 0.005-0.232 0.016-0.346l-0.001 0.015q-0.009-7.794 0-15.589c0-0.23 0-0.468-0.008-0.703-0.008-0.184-0.012-0.401-0.012-0.618 0-0.586 0.033-1.164 0.097-1.733l-0.006 0.070c0.431-3.663 3.517-6.477 7.261-6.477 0.098 0 0.195 0.002 0.291 0.006l-0.014-0q5.803-0.014 11.613 0h4.808v-5.017q0-6.112 0-12.228c-0.002-0.051-0.004-0.11-0.004-0.169 0-1.272 0.581-2.409 1.491-3.159l0.007-0.006c0.654-0.486 1.477-0.778 2.368-0.778 0.409 0 0.804 0.061 1.175 0.176l-0.028-0.008c1.641 0.402 2.839 1.86 2.839 3.599 0 0.099-0.004 0.198-0.012 0.295l0.001-0.013q0.011 5.214 0.006 10.43v31.29c0 0.23 0 0.46 0 0.683 0.008 0.093 0.013 0.201 0.013 0.311 0 2.101-1.703 3.804-3.804 3.804-0.048 0-0.095-0.001-0.143-0.003l0.007 0h-0.038c-0.025 0.001-0.054 0.001-0.083 0.001-2.099 0-3.8-1.701-3.8-3.8 0-0.105 0.004-0.208 0.013-0.311l-0.001 0.014q-0.011-4.357 0-8.717v-3.138h-16.18v3.5c0 2.8 0.006 5.601-0.011 8.4 0.002 0.045 0.003 0.097 0.003 0.15 0 1.269-0.583 2.402-1.496 3.145l-0.007 0.006c-0.619 0.47-1.402 0.753-2.252 0.753-0.018 0-0.037-0-0.055-0l0.003 0zM86.008 24.859q-3.4 0-6.798 0.007c-0.092-0.006-0.2-0.010-0.308-0.010-2.463 0-4.488 1.871-4.733 4.269l-0.002 0.020c-0.044 0.405-0.069 0.875-0.069 1.351 0 0.197 0.004 0.392 0.013 0.587l-0.001-0.028c0 0.25 0.008 0.499 0.008 0.747q-0.009 7.793 0 15.583c0 1.322 0.621 1.487 0.92 1.566 0.158 0.059 0.341 0.093 0.532 0.093 0.312 0 0.602-0.091 0.847-0.247l-0.006 0.004c0.318-0.295 0.516-0.715 0.516-1.181 0-0.046-0.002-0.092-0.006-0.137l0 0.006c0.017-2.794 0.015-5.588 0.011-8.382v-6.026h21.214v5.662q0 4.354 0 8.707c0 1.571 1.035 1.579 1.366 1.581 0.383 0 1.399 0.010 1.423-1.625 0-0.214 0-0.428 0-0.643v-31.291q0-5.212-0.006-10.424c0-1.059-0.45-1.319-0.931-1.442-0.151-0.054-0.325-0.085-0.507-0.085-0.311 0-0.601 0.092-0.844 0.25l0.006-0.004c-0.32 0.301-0.52 0.728-0.52 1.201 0 0.050 0.002 0.099 0.007 0.148l-0-0.006q-0.011 6.112 0 12.222v7.525h-12.133z"></path>
<path fill="#fff" d="M23.589 37.71c0 3.948-3.2 7.148-7.148 7.148s-7.148-3.2-7.148-7.148c0-3.948 3.2-7.148 7.148-7.148s7.148 3.2 7.148 7.148z"></path>
<path fill="#b3b3b3" d="M16.441 52.421c-0.004 0-0.009 0-0.014 0-1.045 0-2.065-0.109-3.048-0.316l0.096 0.017c0.888 0.19 1.907 0.299 2.952 0.299 0.005 0 0.010 0 0.015 0h-0.001z"></path>
<path fill="#b3b3b3" d="M12.065 51.763c-1.018-0.319-1.893-0.697-2.72-1.152l0.076 0.038c0.751 0.417 1.627 0.795 2.541 1.086l0.104 0.028z"></path>
<path fill="#b3b3b3" d="M23.457 50.649c-0.751 0.417-1.627 0.795-2.541 1.086l-0.104 0.028c1.018-0.319 1.893-0.697 2.72-1.152l-0.076 0.038z"></path>
<path fill="#b3b3b3" d="M28.644 45.937c0.052-0.077 0.095-0.161 0.146-0.239v0c-0.051 0.078-0.094 0.162-0.146 0.239z"></path>
<path fill="#b3b3b3" d="M19.407 52.126c-0.888 0.19-1.907 0.299-2.952 0.299-0.005 0-0.010 0-0.015 0h0.001c0.004 0 0.009 0 0.014 0 1.045 0 2.065-0.109 3.048-0.316l-0.096 0.017z"></path>
<path fill="#b3b3b3" d="M20.813 23.655c1.018 0.319 1.893 0.697 2.72 1.152l-0.076-0.038c-0.751-0.417-1.627-0.795-2.541-1.086l-0.104-0.028z"></path>
<path fill="#b3b3b3" d="M28.644 29.482c0.493 0.718 0.947 1.54 1.32 2.404l0.037 0.095c-0.41-0.96-0.864-1.781-1.389-2.55l0.033 0.051z"></path>
<path fill="#b3b3b3" d="M28.789 45.698v0c0.43-0.646 0.835-1.388 1.175-2.166l0.037-0.095c-0.377 0.872-0.782 1.615-1.246 2.315l0.034-0.055z"></path>
<path fill="#b3b3b3" d="M9.426 24.769c0.751-0.417 1.627-0.795 2.541-1.086l0.104-0.028c-1.018 0.319-1.893 0.697-2.72 1.152l0.076-0.038z"></path>
<path fill="#b3b3b3" d="M16.441 22.993c0.004 0 0.009 0 0.014 0 1.045 0 2.065 0.109 3.048 0.316l-0.096-0.017c-0.888-0.19-1.907-0.299-2.952-0.299-0.005 0-0.010 0-0.015 0h0.001z"></path>
<path fill="#b3b3b3" d="M13.474 23.291c0.888-0.19 1.907-0.299 2.952-0.299 0.005 0 0.010 0 0.015 0h-0.001c-0.004 0-0.009 0-0.014 0-1.045 0-2.065 0.109-3.048 0.316l0.096-0.017z"></path>
<path fill="#d8d8da" stroke="rgba(0, 0, 0, 0)" stroke-linejoin="miter" stroke-linecap="butt" stroke-miterlimit="10" stroke-width="1.1498" d="M12.325 52.127c-0.479-0.1-0.95-0.22-1.41-0.364-4.171-1.329-7.47-4.348-9.146-8.231l-0.037-0.096c-0.742-1.692-1.174-3.665-1.174-5.739 0-4.244 1.81-8.065 4.699-10.734l0.010-0.009-0.048-0.819q-0.007-10.709 0-21.418c-0.001-0.041-0.002-0.089-0.002-0.137 0-1.272 0.585-2.407 1.501-3.151l0.008-0.006c0.72-0.532 1.626-0.851 2.605-0.851 0.455 0 0.894 0.069 1.308 0.197l-0.031-0.008c1.683 0.374 2.923 1.854 2.923 3.624 0 0.076-0.002 0.151-0.007 0.225l0-0.010q0.010 4.922 0 9.845v7.474h5.368c4.092 0 5.665 0 9.763 0 2.535 0 2.989 0.726 4.484 2.098 1.442 1.385 2.338 3.33 2.338 5.484 0 0.107-0.002 0.214-0.007 0.321l0.001-0.015 0.345 12.993c-0.591-0.295-1.288-0.468-2.026-0.468-2.103 0-3.878 1.407-4.435 3.331l-0.008 0.033h-1.71c-0.048 0.078-0.093 0.16-0.146 0.239-1.337 1.961-3.077 3.55-5.11 4.676l-0.076 0.039c-0.75 0.414-1.625 0.791-2.538 1.083l-0.106 0.029c-0.36 0.12-0.833 0.246-1.315 0.348l-0.095 0.017c-0.891 0.19-1.916 0.298-2.965 0.298s-2.074-0.109-3.062-0.315l0.097 0.017zM8.143 37.708c0 3.947 3.2 7.147 7.147 7.147s7.147-3.2 7.147-7.147c0-3.946-3.199-7.146-7.145-7.147h-0c-3.946 0.005-7.143 3.202-7.149 7.147v0.001zM29.167 46.96c0-0.003 0-0.006 0-0.009 0-0.447 0.066-0.88 0.188-1.287l-0.008 0.032c0.565-1.957 2.34-3.363 4.443-3.363 0.737 0 1.434 0.173 2.053 0.48l-0.027-0.012c1.551 0.768 2.599 2.34 2.599 4.156 0 2.553-2.070 4.623-4.623 4.623s-4.623-2.070-4.623-4.623c0-0 0-0.001 0-0.001v0z"></path>
</svg>
