<!-- Generated by IcoMoon.io -->
<svg version="1.1" xmlns="http://www.w3.org/2000/svg" width="50" height="28" viewBox="0 0 50 28">
<title>ratings-interior-ramp</title>
<path fill="#42454a" d="M46.452 11.748c1.803-0.125 3.217-1.618 3.217-3.441 0-0.023-0-0.045-0.001-0.068l0 0.003-0.033-4.815c-0.006-0.992-0.423-1.885-1.090-2.519l-0.002-0.001c-0.591-0.562-1.393-0.908-2.275-0.908-0.066 0-0.132 0.002-0.197 0.006l0.009-0-43.035 2.437c-1.706 0.116-3.047 1.529-3.047 3.255 0 0.021 0 0.041 0.001 0.062l-0-0.003 0.034 5.035c0.005 0.981 0.418 1.865 1.077 2.492l0.001 0.001c0.584 0.556 1.377 0.898 2.249 0.898 0.001 0 0.003 0 0.004 0h-0c0.063 0 0.126 0 0.189-0.005l6.31-0.357 0.054 9.752-8.565 0.816c-0.652 0.062-1.137 0.444-1.137 0.895v1.814c0 0.499 0.591 0.903 1.319 0.903h44.233c1.295 0 2.344-0.718 2.344-1.605v-4.296c0-1.144-1.477-2.025-3.134-1.867l-4.401 0.419-0.047-8.567zM45.783 7.896l-5.274 0.299-0.022-3.983 5.269-0.298zM36.626 8.414l-22.901 1.295-0.022-3.982 22.901-1.295zM3.914 10.266l-0.027-3.982 5.933-0.336 0.022 3.983zM36.696 21.019l-22.896 2.183-0.054-9.603 22.901-1.295z"></path>
</svg>
