<!-- Generated by IcoMoon.io -->
<svg version="1.1" xmlns="http://www.w3.org/2000/svg" width="25" height="28" viewBox="0 0 25 28">
<title>ratings-large-stalls</title>
<path fill="#42454a" d="M24.382 0h-2.55c-0.362 0.025-0.647 0.325-0.647 0.691 0 0.014 0 0.029 0.001 0.043l-0-0.002v1.764h-17.346v-1.764c0.001-0.012 0.001-0.026 0.001-0.041 0-0.366-0.284-0.666-0.645-0.691l-0.002-0h-2.55c-0.362 0.025-0.647 0.325-0.647 0.691 0 0.014 0 0.029 0.001 0.043l-0-0.002v26.536c-0.001 0.012-0.001 0.026-0.001 0.040 0 0.366 0.284 0.667 0.645 0.691l0.002 0h2.55c0.362-0.025 0.647-0.325 0.647-0.692 0-0.014-0-0.028-0.001-0.042l0 0.002v-4.291h17.346v4.292c-0.001 0.012-0.001 0.026-0.001 0.040 0 0.366 0.284 0.667 0.645 0.691l0.002 0h2.55c0.362-0.025 0.647-0.325 0.647-0.692 0-0.014-0-0.028-0.001-0.042l0 0.002v-26.536c0.001-0.012 0.001-0.026 0.001-0.041 0-0.367-0.285-0.667-0.645-0.691l-0.002-0z"></path>
<path fill="#fff" d="M20.734 12.432l-3.699-3.746c-0.066-0.067-0.157-0.108-0.259-0.108-0.201 0-0.364 0.163-0.364 0.364 0 0.001 0 0.002 0 0.004v-0l0.022 2.256h-3.997c-0.026 0.007-0.056 0.011-0.087 0.011s-0.061-0.004-0.090-0.011l0.003 0.001h-3.996l0.022-2.256c0-0.001 0-0.002 0-0.003 0-0.201-0.163-0.364-0.364-0.364-0.101 0-0.193 0.041-0.259 0.108l-3.699 3.746c-0.065 0.066-0.105 0.156-0.105 0.255 0 0.097 0.038 0.185 0.099 0.25l-0-0 3.624 3.842c0.066 0.070 0.16 0.114 0.264 0.114 0.199 0 0.361-0.161 0.363-0.36v-0l0.022-2.243h4.027c0.026-0.007 0.056-0.011 0.087-0.011s0.061 0.004 0.090 0.011l-0.003-0.001h4.027l0.022 2.243c0.002 0.199 0.164 0.36 0.363 0.36 0.104 0 0.198-0.044 0.264-0.114l0-0 3.625-3.842c0.061-0.065 0.099-0.153 0.099-0.25 0-0.1-0.040-0.19-0.105-0.255l0 0z"></path>
</svg>
