<!-- Generated by IcoMoon.io -->
<svg version="1.1" xmlns="http://www.w3.org/2000/svg" width="28" height="28" viewBox="0 0 28 28">
<title>ratings-light</title>
<path fill="#42454a" d="M22.923 14.019c-0.011 4.871-3.962 8.816-8.835 8.816-4.88 0-8.835-3.956-8.835-8.835s3.956-8.835 8.835-8.835c0.023 0 0.045 0 0.068 0l-0.003-0c4.852 0.036 8.771 3.978 8.771 8.834 0 0.007 0 0.014-0 0.021v-0.001zM14.103 20.416c3.537 0 6.404-2.867 6.404-6.404s-2.867-6.404-6.404-6.404v0z"></path>
<path fill="#42454a" d="M4.77 3.783c0.007-0 0.014-0 0.022-0 0.295 0 0.56 0.125 0.747 0.325l0.001 0.001c0.448 0.444 0.896 0.89 1.336 1.342 0.191 0.17 0.31 0.417 0.31 0.691 0 0.51-0.414 0.924-0.924 0.924-0.268 0-0.51-0.114-0.678-0.297l-0.001-0.001c-0.465-0.449-0.927-0.903-1.375-1.369-0.197-0.168-0.321-0.417-0.321-0.695 0-0.416 0.278-0.766 0.658-0.876l0.006-0.002c0.063-0.019 0.138-0.034 0.215-0.043l0.006-0z"></path>
<path fill="#42454a" d="M14.842 26.055c0 0.338 0.005 0.678 0 1.018-0.001 0.509-0.413 0.921-0.922 0.921-0.5 0-0.908-0.399-0.922-0.896l-0-0.001c-0.012-0.702-0.011-1.404 0-2.106 0.014-0.498 0.421-0.896 0.92-0.896s0.906 0.398 0.92 0.894l0 0.001c0.015 0.355 0.003 0.71 0.003 1.065z"></path>
<path fill="#42454a" d="M13.167 1.942c0-0.338-0.006-0.679 0-1.018-0-0.003-0-0.006-0-0.009 0-0.497 0.396-0.901 0.889-0.914l0.001-0c0.013-0.001 0.028-0.001 0.043-0.001 0.485 0 0.881 0.382 0.903 0.861l0 0.002c0.025 0.717 0.025 1.437 0 2.154-0.003 0.489-0.401 0.885-0.891 0.885-0.019 0-0.039-0.001-0.058-0.002l0.003 0c-0.494-0.007-0.892-0.409-0.892-0.904 0-0.013 0-0.025 0.001-0.038l-0 0.002c-0.005-0.338 0-0.678 0-1.017z"></path>
<path fill="#42454a" d="M1.943 14.84c-0.338 0-0.679 0.004-1.018 0-0.505-0.007-0.911-0.418-0.911-0.924 0-0.498 0.395-0.905 0.889-0.923l0.002-0c0.702-0.010 1.405-0.012 2.107 0 0.494 0.020 0.886 0.425 0.886 0.922 0 0.498-0.394 0.904-0.887 0.922l-0.002 0c-0.355 0.011-0.71 0.002-1.065 0.002z"></path>
<path fill="#42454a" d="M26.049 15.007c-0.332 0-0.663 0.004-0.994 0-0.010 0-0.022 0.001-0.034 0.001-0.507 0-0.918-0.411-0.918-0.918s0.411-0.918 0.918-0.918c0.013 0 0.026 0 0.038 0.001l-0.002-0q0.994-0.005 1.988 0c0.010-0 0.021-0.001 0.033-0.001 0.506 0 0.917 0.41 0.917 0.917s-0.41 0.917-0.917 0.917c-0.004 0-0.009-0-0.013-0h0.001c-0.338 0.007-0.677 0.001-1.017 0.001z"></path>
<path fill="#42454a" d="M20.88 6.228c0.098-0.237 0.213-0.441 0.35-0.629l-0.006 0.008c0.448-0.487 0.922-0.952 1.398-1.413 0.17-0.188 0.415-0.306 0.688-0.306 0.511 0 0.926 0.414 0.926 0.926 0 0.272-0.117 0.516-0.303 0.685l-0.001 0.001q-0.71 0.729-1.444 1.434c-0.159 0.16-0.38 0.26-0.624 0.26-0.14 0-0.273-0.033-0.39-0.091l0.005 0.002c-0.321-0.143-0.541-0.459-0.541-0.826 0-0.007 0-0.013 0-0.020l-0 0.001z"></path>
<path fill="#42454a" d="M4.721 24.153c-0.368-0.015-0.682-0.231-0.838-0.54l-0.003-0.006c-0.074-0.121-0.118-0.268-0.118-0.425 0-0.212 0.080-0.406 0.212-0.552l-0.001 0.001c0.521-0.56 1.062-1.104 1.628-1.619 0.15-0.128 0.346-0.206 0.56-0.206 0.263 0 0.498 0.117 0.656 0.302l0.001 0.001c0.158 0.16 0.256 0.38 0.256 0.623 0 0.224-0.083 0.429-0.22 0.585l0.001-0.001c-0.512 0.548-1.045 1.077-1.591 1.588-0.156 0.106-0.337 0.19-0.53 0.245l-0.013 0.003z"></path>
<path fill="#42454a" d="M24.116 23.215c0.001 0.018 0.002 0.040 0.002 0.061 0 0.37-0.211 0.691-0.52 0.849l-0.005 0.002c-0.118 0.068-0.259 0.109-0.41 0.109-0.219 0-0.417-0.085-0.565-0.224l0 0c-0.548-0.513-1.081-1.042-1.595-1.588-0.122-0.154-0.195-0.35-0.195-0.564 0-0.504 0.409-0.912 0.912-0.912 0.203 0 0.39 0.066 0.542 0.178l-0.002-0.002c0.57 0.522 1.112 1.077 1.643 1.64 0.089 0.128 0.156 0.279 0.191 0.442l0.001 0.008z"></path>
<path fill="#fff" d="M14.103 20.417v-12.808c3.537 0 6.404 2.867 6.404 6.404s-2.867 6.404-6.404 6.404v0z"></path>
</svg>
