<!-- Generated by IcoMoon.io -->
<svg version="1.1" xmlns="http://www.w3.org/2000/svg" width="18" height="28" viewBox="0 0 18 28">
<title>lowered-sinks</title>
<path fill="#42454a" d="M10.009 24.664h-1.758c-0.274 0-0.496-0.222-0.496-0.496v-3.498c0-0.274 0.222-0.496 0.496-0.496h1.758c0.274 0 0.496 0.222 0.496 0.496v3.498c0 0.274-0.222 0.496-0.496 0.496z"></path>
<path fill="#42454a" d="M12.84 24.381c-0.002-0.177-0.146-0.32-0.323-0.32-0.001 0-0.003 0-0.004 0l-6.754 0.065c-0.177 0.002-0.32 0.146-0.32 0.324 0 0.093 0.039 0.176 0.101 0.235l0 0 3.419 3.226c0.058 0.055 0.136 0.088 0.222 0.088 0.089 0 0.169-0.036 0.227-0.093l-0 0 3.335-3.292c0.059-0.059 0.096-0.14 0.096-0.23 0-0.001 0-0.002 0-0.003v0z"></path>
<path fill="#42454a" d="M0.009 10.164h18.249c0.004 0.052 0.010 0.101 0.010 0.15 0 0.931 0.006 1.863 0 2.793 0 0.002 0 0.005 0 0.008 0 1.562-0.68 2.966-1.76 3.93l-0.005 0.005c-0.865 0.763-2.008 1.228-3.26 1.228-0.026 0-0.053-0-0.079-0.001l0.004 0q-3.988 0.006-7.98 0c-0.009 0-0.020 0-0.031 0-1.545 0-2.935-0.667-3.897-1.728l-0.004-0.004c-0.777-0.864-1.252-2.012-1.252-3.272 0-0.016 0-0.032 0-0.048l-0 0.002c-0.005-0.988 0-1.976 0-2.963-0.002-0.028 0.002-0.056 0.005-0.1zM2.058 12.192c-0.015 0-0.026 0.012-0.026 0.027 0 0 0 0 0 0v0c0 0.396-0.012 0.775 0.003 1.154 0.024 0.637 0.253 1.216 0.622 1.678l-0.004-0.006c0.6 0.738 1.508 1.206 2.525 1.206 0.017 0 0.034-0 0.051-0l-0.003 0q3.601-0.002 7.202 0c0.32 0 0.641 0.019 0.959-0.010 1.136-0.062 2.099-0.748 2.554-1.72l0.008-0.018c0.364-0.728 0.294-1.51 0.287-2.284 0-0.009-0.014-0.017-0.021-0.026z"></path>
<path fill="#42454a" d="M10.145 4.054h-2.009c-0.019-0.139-0.030-0.299-0.030-0.462 0-1.024 0.432-1.946 1.124-2.595l0.002-0.002c0.632-0.612 1.494-0.989 2.445-0.989 0.018 0 0.036 0 0.055 0l-0.003-0c2.112-0.004 4.223 0 6.335-0.004 0.163 0 0.218 0.044 0.215 0.212-0.010 0.508-0.004 1.016-0.004 1.524 0 0.299 0 0.299-0.293 0.299-2.066 0-4.132 0.004-6.198-0.002-0.029-0.002-0.062-0.003-0.096-0.003-0.556 0-1.043 0.293-1.315 0.733l-0.004 0.007c-0.139 0.209-0.222 0.466-0.225 0.742v0.001c-0 0.174-0 0.35-0 0.541z"></path>
<path fill="#42454a" d="M9.132 5.077c0.537 0.589 1.002 1.257 1.373 1.981l0.024 0.051c0.41 0.869-0.254 1.893-1.18 2.017-0.064 0.010-0.138 0.015-0.213 0.015-0.826 0-1.498-0.659-1.52-1.48l-0-0.002c0-0.162 0.032-0.316 0.090-0.457l-0.003 0.008c0.385-0.819 0.863-1.523 1.434-2.14l-0.005 0.005z"></path>
<path fill="#fff" d="M2.031 12.193h14.181c0.008 0.009 0.021 0.017 0.021 0.026 0.009 0.774 0.077 1.555-0.287 2.284-0.463 0.99-1.426 1.677-2.554 1.738l-0.008 0c-0.317 0.028-0.639 0.010-0.959 0.010q-3.631 0-7.261 0c-0.030 0.001-0.066 0.002-0.101 0.002-1.018 0-1.919-0.504-2.465-1.277l-0.006-0.009c-0.329-0.441-0.534-0.991-0.556-1.588l-0-0.005c-0.016-0.387-0.004-0.775-0.004-1.18z"></path>
</svg>
