<!-- Generated by IcoMoon.io -->
<svg version="1.1" xmlns="http://www.w3.org/2000/svg" width="26" height="28" viewBox="0 0 26 28">
<title>no--lg</title>
<path fill="#42454a" d="M0.868 0h24.134c0.479 0 0.868 0.389 0.868 0.868v26.264c0 0.479-0.389 0.868-0.868 0.868h-24.134c-0.479 0-0.868-0.389-0.868-0.868v-26.264c0-0.479 0.389-0.868 0.868-0.868z"></path>
<path fill="#fff" d="M11.173 11.226q0-3.395 0-6.789c0-0.613 0.149-0.761 0.761-0.761q1.027-0.002 2.053 0c0.526 0.002 0.707 0.174 0.708 0.686q0.002 6.872 0 13.744c0 0.52-0.173 0.69-0.7 0.692q-1.076 0.005-2.153 0c-0.499-0.002-0.67-0.175-0.67-0.682q-0.002-3.445 0.001-6.89z"></path>
<path fill="#fff" d="M11.174 22.509c0-0.397-0.005-0.795 0-1.193 0.006-0.374 0.193-0.6 0.552-0.609q1.209-0.024 2.419 0c0.003-0 0.007-0 0.011-0 0.297 0 0.538 0.241 0.538 0.538 0 0.016-0.001 0.033-0.002 0.049l0-0.002q0.012 1.226 0 2.452c0.001 0.014 0.002 0.031 0.002 0.048 0 0.289-0.234 0.523-0.523 0.523-0.013 0-0.025-0-0.038-0.001l0.002 0c-0.806 0.014-1.613 0.015-2.418-0.002-0.359-0.008-0.533-0.213-0.541-0.578-0.009-0.407-0.002-0.816-0.002-1.224z"></path>
</svg>
