<!-- Generated by IcoMoon.io -->
<svg version="1.1" xmlns="http://www.w3.org/2000/svg" width="25" height="28" viewBox="0 0 25 28">
<title>ratings-no</title>
<path fill="#42454a" d="M1.815 0h21.825c1.002 0 1.815 0.813 1.815 1.815v24.37c0 1.002-0.813 1.815-1.815 1.815h-21.825c-1.002 0-1.815-0.813-1.815-1.815v-24.37c0-1.002 0.813-1.815 1.815-1.815z"></path>
<path fill="#fff" d="M10.993 11.226q0-3.395 0-6.789c0-0.613 0.146-0.764 0.748-0.764q1.011 0 2.020 0c0.517 0 0.696 0.174 0.696 0.686q0 6.873 0 13.745c0 0.521-0.17 0.69-0.687 0.692q-1.059 0.004-2.118 0c-0.491 0-0.659-0.175-0.659-0.682q-0.003-3.444-0.001-6.888z"></path>
<path fill="#fff" d="M10.994 22.508c0-0.398-0.005-0.795 0-1.193 0.006-0.374 0.191-0.6 0.543-0.607q1.189-0.024 2.38 0c0.002-0 0.004-0 0.005-0 0.296 0 0.535 0.24 0.535 0.535 0 0.018-0.001 0.035-0.002 0.052l0-0.002q0.011 1.226 0 2.452c0.002 0.016 0.003 0.035 0.003 0.054 0 0.287-0.232 0.519-0.519 0.519-0.011 0-0.023-0-0.034-0.001l0.002 0c-0.793 0.014-1.587 0.015-2.379 0-0.354-0.008-0.524-0.213-0.532-0.578-0.008-0.414-0.001-0.823-0.002-1.231z"></path>
</svg>
