<!-- Generated by IcoMoon.io -->
<svg version="1.1" xmlns="http://www.w3.org/2000/svg" width="28" height="28" viewBox="0 0 28 28">
<title>ratings-reserved-parking</title>
<path fill="#42454a" d="M1.757 0h24.486c0.97 0 1.757 0.787 1.757 1.757v24.486c0 0.97-0.787 1.757-1.757 1.757h-24.486c-0.97 0-1.757-0.787-1.757-1.757v-24.486c0-0.97 0.787-1.757 1.757-1.757z"></path>
<path fill="#fff" d="M23.551 20.005l0.438 0.885c0.032 0.064 0.051 0.139 0.051 0.219 0 0.193-0.11 0.36-0.272 0.441l-0.003 0.001-2.020 1.013c-0.128 0.064-0.278 0.102-0.438 0.102-0.387 0-0.721-0.222-0.884-0.545l-0.003-0.006-0.008-0.017-1.936-4.122-4.309-0.003c-0.496-0.001-0.906-0.367-0.976-0.843l-0.001-0.005c-1.041-7.32-0.981-6.865-0.993-7.049 0-0 0-0.001 0-0.001 0-1.092 0.885-1.977 1.977-1.977s1.977 0.885 1.977 1.977c0 0.99-0.728 1.811-1.678 1.954l-0.011 0.001 0.144 1.009 4.011 0.002c0.273 0 0.493 0.221 0.493 0.494 0 0 0 0 0 0v-0 0.989c-0 0.272-0.221 0.493-0.494 0.493-0 0-0 0-0 0l-3.73-0.002 0.141 0.988 4.080 0.003c0.392 0 0.731 0.229 0.891 0.561l0.003 0.006 1.772 3.78 1.117-0.567c0.064-0.032 0.139-0.051 0.219-0.051 0.193 0 0.36 0.11 0.441 0.272l0.001 0.003zM17.854 18.963h-0.757c-0.25 1.684-1.686 2.962-3.42 2.962-1.909 0-3.456-1.547-3.456-3.456 0-1.278 0.694-2.395 1.726-2.992l0.017-0.009-0.289-2.047c-2.026 0.819-3.43 2.77-3.43 5.048 0 2.999 2.431 5.43 5.43 5.43 2.208 0 4.109-1.318 4.958-3.211l0.014-0.034z"></path>
<path fill="#fff" d="M8.448 3.886c0.889 0.387 1.5 1.258 1.5 2.272s-0.611 1.885-1.484 2.266l-0.016 0.006c-0.46 0.2-0.995 0.316-1.558 0.316-0.033 0-0.066-0-0.099-0.001l0.005 0h-1.221v1.833h-1.982v-7.009h3.204c0.027-0.001 0.059-0.001 0.092-0.001 0.563 0 1.099 0.117 1.585 0.327l-0.026-0.010zM7.597 6.919c0.192-0.173 0.312-0.422 0.312-0.699 0-0.020-0.001-0.039-0.002-0.059l0 0.003c0.001-0.016 0.002-0.035 0.002-0.054 0-0.28-0.12-0.531-0.311-0.706l-0.001-0.001c-0.226-0.171-0.511-0.274-0.821-0.274-0.035 0-0.070 0.001-0.105 0.004l0.005-0h-1.1v2.052h1.1c0.030 0.002 0.065 0.004 0.1 0.004 0.309 0 0.595-0.101 0.825-0.273l-0.004 0.003z"></path>
</svg>
