<!-- Generated by IcoMoon.io -->
<svg version="1.1" xmlns="http://www.w3.org/2000/svg" width="51" height="53" viewBox="0 0 51 53">
<title>restroom</title>
<path fill="#d8d8da" d="M5.287 2.727c0.006 0 0.013 0 0.020 0 0.284 0 0.524-0.183 0.611-0.437l0.001-0.005c0.494-1.355 1.771-2.306 3.271-2.306 0.13 0 0.259 0.007 0.386 0.021l-0.016-0.001c0.077-0.006 0.166-0.010 0.257-0.010 1.488 0 2.752 0.959 3.207 2.293l0.007 0.024c0.091 0.247 0.324 0.419 0.597 0.419 0.008 0 0.015-0 0.023-0l-0.001 0h2.291c2.235 0 3 0.572 3 2.25v18.794c0.017 0.332 0.291 0.596 0.626 0.596 0.010 0 0.020-0 0.029-0.001l-0.001 0h29.978c0.008-0 0.017-0.001 0.026-0.001 0.342 0 0.621 0.273 0.63 0.613v0.001c-0.089 5.366-5.179 12.2-16.63 15.068 0.057 0.17 0.107 0.346 0.177 0.519q2.176 5.394 4.351 10.787c0.116 0.241 0.184 0.524 0.184 0.823 0 0.004 0 0.008-0 0.012v-0.001c-0.038 0.468-0.38 0.776-1.047 0.8-0.175 0.007-0.35 0.009-0.525 0.009q-11.679 0-23.36-0.013c-0.038 0.002-0.083 0.004-0.128 0.004-0.419 0-0.811-0.12-1.142-0.328l0.009 0.005c-0.151-0.181-0.243-0.416-0.243-0.673 0-0.132 0.024-0.259 0.069-0.375l-0.002 0.007c1.473-3.752 3-7.493 4.5-11.237 0.044-0.108 0.073-0.219 0.12-0.362-0.979-0.3-1.963-0.558-2.908-0.885-5.566-1.93-9.8-4.893-12.191-9.242-0.92-1.618-1.463-3.554-1.463-5.617v0q-0.007-9.8 0-19.6c0-1.228 0.884-1.92 2.493-1.946 0.925-0.017 1.848-0.009 2.794-0.006z"></path>
<path fill="#d8d8da" d="M50.796 16.473v3.083c0.004 0.030 0.006 0.066 0.006 0.101 0 0.451-0.332 0.825-0.765 0.89l-0.005 0.001h-27.205c-0.438-0.066-0.77-0.439-0.77-0.891 0-0.036 0.002-0.071 0.006-0.106l-0 0.004v-3.083c-0.004-0.030-0.006-0.066-0.006-0.101 0-0.451 0.332-0.825 0.765-0.89l0.005-0.001h27.205c0.438 0.066 0.77 0.439 0.77 0.891 0 0.036-0.002 0.071-0.006 0.106l0-0.004z"></path>
</svg>
