<!-- Generated by IcoMoon.io -->
<svg version="1.1" xmlns="http://www.w3.org/2000/svg" width="37" height="28" viewBox="0 0 37 28">
<title>ratings-room-to-move</title>
<path fill="#42454a" d="M11.063 12.524h-5.264l0.029-2.972c0-0.001 0-0.003 0-0.005 0-0.264-0.214-0.479-0.479-0.479-0.133 0-0.254 0.055-0.341 0.143l-0 0-4.872 4.934c-0.085 0.086-0.138 0.205-0.138 0.336 0 0.127 0.050 0.243 0.131 0.329l-0-0 4.774 5.060c0.087 0.093 0.211 0.151 0.349 0.151 0.263 0 0.476-0.212 0.479-0.474v-0l0.029-2.954h5.303c0 0 0 0 0 0 0.286 0 0.518-0.232 0.518-0.518 0-0 0-0.001 0-0.001v0-3.033c0-0.286-0.232-0.518-0.518-0.518-0 0-0 0-0 0h0z"></path>
<path fill="#42454a" d="M36.521 14.146l-4.872-4.934c-0.087-0.088-0.208-0.143-0.341-0.143-0.264 0-0.479 0.214-0.479 0.479 0 0.002 0 0.003 0 0.005v-0l0.029 2.972h-5.263c-0 0-0 0-0 0-0.286 0-0.518 0.232-0.518 0.518 0 0 0 0 0 0v-0 3.033c0 0 0 0 0 0 0 0.286 0.232 0.518 0.518 0.518 0 0 0 0 0 0h5.303l0.029 2.954c0.003 0.262 0.216 0.473 0.479 0.473 0.137 0 0.261-0.058 0.348-0.15l0-0 4.774-5.060c0.081-0.086 0.131-0.202 0.131-0.329 0-0.131-0.053-0.25-0.138-0.336l0 0z"></path>
<path fill="#42454a" d="M27.245 24.585h-5.903v-21.171h11.722c0.442 0 0.801-0.257 0.801-0.574v-2.267c0-0.317-0.359-0.574-0.801-0.574h-29.014c-0.442 0-0.801 0.257-0.801 0.574v2.267c0 0.317 0.359 0.574 0.801 0.574h12.072v21.171h-5.55c-0.262 0.032-0.463 0.253-0.463 0.521 0 0.019 0.001 0.037 0.003 0.055l-0-0.002v2.267c-0.002 0.016-0.003 0.034-0.003 0.053 0 0.268 0.201 0.489 0.46 0.521l0.003 0h16.672c0.262-0.032 0.463-0.253 0.463-0.521 0-0.019-0.001-0.037-0.003-0.055l0 0.002v-2.266c0.002-0.016 0.003-0.034 0.003-0.053 0-0.268-0.201-0.489-0.46-0.521l-0.003-0z"></path>
</svg>
