<!-- Generated by IcoMoon.io -->
<svg version="1.1" xmlns="http://www.w3.org/2000/svg" width="39" height="28" viewBox="0 0 39 28">
<title>toilet-one-bar</title>
<path fill="#42454a" d="M35.187 10.174c0.263 0.452 0.525 0.869 0.751 1.307 0.437 0.841 0.693 1.835 0.693 2.89 0 0.019-0 0.039-0 0.058l0-0.003c-0.002 1.441 0.029 2.883-0.012 4.323-0.114 5.133-4.302 9.251-9.452 9.251-0.399 0-0.793-0.025-1.179-0.073l0.046 0.005c-4.38-0.463-7.837-3.88-8.356-8.201l-0.004-0.045c-0.044-0.32-0.069-0.691-0.070-1.068v-0.001c-0.004-1.496-0.014-2.992 0.014-4.487 0.044-1.402 0.526-2.684 1.312-3.722l-0.012 0.016c0.038-0.052 0.075-0.104 0.111-0.158 0.012-0.023 0.023-0.051 0.033-0.080l0.001-0.005c-0.146-0.044-0.29-0.085-0.433-0.131-2.143-0.691-3.678-2.637-3.747-4.951l-0-0.008c-0.039-0.989-0.024-1.982-0.007-2.973-0.001-0.015-0.001-0.032-0.001-0.049 0-0.695 0.563-1.258 1.258-1.258 0.007 0 0.015 0 0.022 0l-0.001-0c0.119-0.007 0.239-0.007 0.358-0.007q10.614 0 21.227 0c0.156 0 0.312 0.002 0.467 0.016 0.579 0.028 1.046 0.471 1.112 1.036l0.001 0.005c0.073 1.401 0.203 2.818-0.105 4.196-0.389 1.965-1.844 3.511-3.725 4.027l-0.036 0.009zM31.195 17.801v-0.578c0.002-0.047 0.003-0.101 0.003-0.156 0-1.116-0.453-2.126-1.185-2.857l-0-0c-0.719-0.728-1.716-1.178-2.819-1.178-0.302 0-0.597 0.034-0.88 0.098l0.027-0.005c-1.59 0.221-2.846 1.419-3.152 2.96l-0.004 0.024c-0.102 0.533-0.16 1.145-0.16 1.772 0 0.194 0.006 0.387 0.017 0.578l-0.001-0.026c-0 0.007-0 0.016-0 0.025 0 2.259 1.832 4.091 4.091 4.091 1.656 0 3.082-0.984 3.725-2.398l0.010-0.026c0.218-0.57 0.344-1.229 0.344-1.917 0-0.142-0.005-0.284-0.016-0.424l0.001 0.019z"></path>
<path fill="#fff" d="M31.195 17.801c0.009 0.12 0.015 0.261 0.015 0.402 0 0.689-0.126 1.348-0.357 1.956l0.013-0.038c-0.653 1.443-2.080 2.428-3.738 2.428-2.259 0-4.091-1.832-4.091-4.091 0-0.010 0-0.021 0-0.031v0.002c-0.010-0.165-0.015-0.358-0.015-0.552 0-0.626 0.058-1.239 0.17-1.833l-0.010 0.061c0.31-1.564 1.566-2.763 3.136-2.981l0.020-0.002c0.256-0.059 0.551-0.093 0.853-0.093 1.103 0 2.101 0.451 2.819 1.178l0 0c0.732 0.731 1.185 1.741 1.185 2.857 0 0.055-0.001 0.11-0.003 0.164l0-0.008z"></path>
<path fill="#42454a" d="M4.499 24.267v-23.331c0-0.517 0.419-0.936 0.936-0.936h2.128c0.517 0 0.936 0.419 0.936 0.936v23.331c0 0.517-0.419 0.936-0.936 0.936h-2.128c-0.517 0-0.936-0.419-0.936-0.936z"></path>
<path fill="#42454a" d="M0 5.279v-2.061c0-0.517 0.419-0.936 0.936-0.936h4.833c0.517 0 0.936 0.419 0.936 0.936v2.061c0 0.517-0.419 0.936-0.936 0.936h-4.833c-0.517 0-0.936-0.419-0.936-0.936z"></path>
<path fill="#42454a" d="M0.233 21.909v-2.061c0-0.517 0.419-0.936 0.936-0.936h4.833c0.517 0 0.936 0.419 0.936 0.936v2.061c0 0.517-0.419 0.936-0.936 0.936h-4.833c-0.517 0-0.936-0.419-0.936-0.936z"></path>
</svg>
