<!-- Generated by IcoMoon.io -->
<svg version="1.1" xmlns="http://www.w3.org/2000/svg" width="26" height="28" viewBox="0 0 26 28">
<title>toilet-two-bars</title>
<path fill="#42454a" d="M23.393 16.149c0.174 0.301 0.351 0.577 0.5 0.869 0.29 0.559 0.461 1.22 0.461 1.921 0 0.013-0 0.026-0 0.039l0-0.002c-0.002 0.958 0.019 1.916-0.008 2.873-0.075 3.413-2.859 6.15-6.283 6.15-0.266 0-0.528-0.017-0.785-0.049l0.031 0.003c-2.912-0.308-5.21-2.58-5.555-5.452l-0.003-0.030c-0.029-0.213-0.046-0.46-0.046-0.71v-0.001c-0.002-0.996-0.009-1.989 0.009-2.983 0.029-0.932 0.349-1.785 0.872-2.475l-0.008 0.011c0.025-0.035 0.050-0.069 0.074-0.105 0.008-0.015 0.015-0.034 0.022-0.053l0.001-0.003c-0.097-0.029-0.193-0.056-0.288-0.087-1.425-0.459-2.446-1.753-2.492-3.293l-0-0.005c-0.026-0.658-0.016-1.318-0.005-1.976-0-0.010-0.001-0.021-0.001-0.032 0-0.462 0.374-0.836 0.836-0.836 0.005 0 0.010 0 0.014 0h-0.001c0.079-0.004 0.159-0.005 0.238-0.005q7.056 0 14.112 0c0.104 0 0.208 0.002 0.311 0.011 0.385 0.019 0.695 0.313 0.739 0.689l0 0.004c0.048 0.931 0.135 1.873-0.069 2.79-0.258 1.306-1.226 2.334-2.476 2.677l-0.024 0.006zM20.739 21.22v-0.385c0.001-0.031 0.002-0.066 0.002-0.102 0-0.743-0.302-1.415-0.789-1.901l-0-0c-0.478-0.484-1.141-0.784-1.874-0.784-0.201 0-0.397 0.023-0.585 0.065l0.018-0.003c-1.057 0.147-1.892 0.944-2.096 1.968l-0.003 0.016c-0.068 0.354-0.106 0.761-0.106 1.177 0 0.129 0.004 0.258 0.011 0.385l-0.001-0.018c-0 0.006-0 0.013-0 0.020 0 1.502 1.218 2.72 2.72 2.72 1.102 0 2.051-0.655 2.478-1.597l0.007-0.017c0.145-0.379 0.229-0.818 0.229-1.277 0-0.094-0.004-0.187-0.011-0.28l0.001 0.012z"></path>
<path fill="#fff" d="M20.739 21.219c0.006 0.081 0.010 0.176 0.010 0.271 0 0.457-0.084 0.895-0.236 1.298l0.008-0.025c-0.434 0.959-1.383 1.614-2.485 1.614-1.502 0-2.72-1.218-2.72-2.72 0-0.007 0-0.014 0-0.021v0.001c-0.007-0.11-0.010-0.238-0.010-0.368 0-0.416 0.039-0.823 0.113-1.218l-0.006 0.041c0.206-1.040 1.042-1.836 2.085-1.982l0.013-0.001c0.17-0.039 0.366-0.062 0.567-0.062 0.733 0 1.397 0.3 1.874 0.783l0 0c0.488 0.486 0.789 1.158 0.789 1.901 0 0.036-0.001 0.072-0.002 0.107l0-0.005z"></path>
<path fill="#42454a" d="M10.354 2.991h15.425c0.367 0 0.665 0.298 0.665 0.665v1.329c0 0.367-0.298 0.665-0.665 0.665h-15.425c-0.367 0-0.665-0.298-0.665-0.665v-1.329c0-0.367 0.298-0.665 0.665-0.665z"></path>
<path fill="#42454a" d="M22.978 0h1.284c0.367 0 0.665 0.298 0.665 0.665v3.128c0 0.367-0.298 0.665-0.665 0.665h-1.284c-0.367 0-0.665-0.298-0.665-0.665v-3.128c0-0.367 0.298-0.665 0.665-0.665z"></path>
<path fill="#42454a" d="M11.922 0.155h1.284c0.367 0 0.665 0.298 0.665 0.665v3.128c0 0.367-0.298 0.665-0.665 0.665h-1.284c-0.367 0-0.665-0.298-0.665-0.665v-3.128c0-0.367 0.298-0.665 0.665-0.665z"></path>
<path fill="#42454a" d="M2.991 25.475v-15.425c0-0.367 0.298-0.665 0.665-0.665h1.329c0.367 0 0.665 0.298 0.665 0.665v15.425c0 0.367-0.298 0.665-0.665 0.665h-1.329c-0.367 0-0.665-0.298-0.665-0.665z"></path>
<path fill="#42454a" d="M0 12.852v-1.284c0-0.367 0.298-0.665 0.665-0.665h3.128c0.367 0 0.665 0.298 0.665 0.665v1.284c0 0.367-0.298 0.665-0.665 0.665h-3.128c-0.367 0-0.665-0.298-0.665-0.665z"></path>
<path fill="#42454a" d="M0.155 23.908v-1.284c0-0.367 0.298-0.665 0.665-0.665h3.128c0.367 0 0.665 0.298 0.665 0.665v1.284c0 0.367-0.298 0.665-0.665 0.665h-3.128c-0.367 0-0.665-0.298-0.665-0.665z"></path>
</svg>
